<svg version="1.1" id="Layer_1" xmlns="http://www.w3.org/2000/svg" xmlns:xlink="http://www.w3.org/1999/xlink" x="0px" y="0px" viewBox="0 0 8503.9 5037.2" style="enable-background:new 0 0 8503.9 5037.2;" xml:space="preserve" width="100%" height="100%" preserveAspectRatio="none"><style type="text/css"> .st0{fill:#FFFFFF;} .st1{fill:#3CB4E5;} </style><g><path class="st0" d="M7765.4,3401.4l29.8-169.1c-28.5-7.7-60.9-13.7-97-18.1c-36.1-4.3-72.9-6.5-110.6-6.5 c-82.4,0-153.3,10.4-212.6,31.1c-59.4,20.8-106.1,50-140.2,87.9c-34.1,37.8-55.8,82.5-64.9,134.1c-11.2,63.6-3,114.1,24.6,151.4 c27.7,37.4,77.2,62.8,148.5,76.3l123.9,23.1c25.5,5.3,42.7,13,51.6,23.1c8.8,10.1,11.5,25.1,8,44.8c-4.5,25.5-19.1,45-43.9,58.2 c-24.7,13.3-62.2,19.8-112.3,19.8c-88.7,0-170-11.8-244-35.4l-29.8,169.2c71.1,23.1,153.7,34.7,247.7,34.7 c74.2,0,139.8-10.3,196.6-30.7c56.9-20.5,102.6-49.8,137-87.8c34.4-38.1,56.3-83.4,65.6-135.9c11.9-67.5,3.5-118.9-25.2-154.4 c-28.7-35.4-78.5-60.1-149.3-74.1l-123.9-23.1c-24.7-4.8-41.6-12.6-50.5-23.1c-9-10.6-11.9-24.6-8.8-42 c9.3-53,68.9-79.5,178.9-79.5C7637.5,3375.4,7704.4,3384.1,7765.4,3401.4 M7118.1,3220h-207.5l49.2-279.1h-189.4l-91.1,279.1 h-128.7l-32.1,182.2h128.7l-57.6,326.8c-17.8,101.2-5.9,175.9,36,224.1c41.9,48.2,111.5,72.3,208.9,72.3c48.7,0,98.3-5.5,149-16.6 l32.3-182.9c-36.3,6.3-64.5,9.4-84.8,9.4c-30.8,0-54.8-4.4-71.8-13.4c-17-8.9-28.1-23.7-33.4-44.5c-5.3-20.7-4.7-48.9,1.5-84.6 l51.3-290.6H7086L7118.1,3220z M6216,3398.2c-16-29.7-45.7-44.5-89-44.5c-43.8,0-79.5,14.9-107,44.8c-27.4,29.9-48.1,80-61.9,150.4 h265.3C6234.5,3478,6232,3427.8,6216,3398.2 M6426,3621.9l-10.7,60.7h-480.1c-5.1,42.4-1.9,75.8,9.4,100.2 c11.4,24.3,32.8,41.9,64.1,52.8c31.4,10.8,75.7,16.3,133.1,16.3c60.2,0,128.3-8.4,204-25.3l-30.5,172.8 c-80.3,17.8-159.2,26.8-236.8,26.8c-100.7,0-180.5-14.4-239.3-43c-58.8-28.7-98.3-73.1-118.5-133.4c-20.3-60.2-21.8-138.6-4.9-235 c15.3-86.8,42.7-160.6,82.1-221.6c39.4-60.9,89.4-107.1,149.9-138.4c60.5-31.3,129.7-47,207.8-47c111.8,0,190.8,35.3,236.9,105.9 C6438.6,3384.2,6449.8,3487,6426,3621.9 M5506,3220L5257.1,3512h-91.1l118-669.4h-231.3l-206,1168.3h231.3l55.3-313.8h92.6 l160.8,313.8h251.6l-204.5-410.6l318.7-380.3H5506z M4850.9,3423.8l36.8-208.9c-18.6-3.9-39.5-5.8-62.6-5.8 c-45.8,0-88.4,9.3-127.8,27.8c-39.4,18.6-73.3,46.9-101.7,84.9h-10.8l-0.1-101.9h-188.7l-139.5,790.9h231.4l91.3-517.6 c22.5-23.6,51.8-42.2,87.9-55.7c36.1-13.5,71.8-20.3,107-20.3C4804.8,3417.3,4830.5,3419.5,4850.9,3423.8 M3943.1,3666.7l-106.9,8 c-44,3.4-77.3,13.4-100,30c-22.7,16.6-36.7,39.9-42,69.8c-5.2,29.4-0.2,51.8,14.9,67.2c15.1,15.4,39.8,23.1,74,23.1 c22.7,0,45.5-4,68.6-12c23.1-7.9,44.8-20.6,65.2-37.9L3943.1,3666.7z M4191.6,3540.9l-82.9,469.9h-190.9l-2.1-78.1h-10.8 c-28.7,31.3-62.4,54.6-101.2,69.8c-38.8,15.2-80.4,22.8-124.8,22.8c-53,0-97.1-9.5-132.3-28.5c-35.2-19-60-45.8-74.4-80.2 s-17.6-74.6-9.5-120.4c13.4-75.6,50.1-134.2,110.2-175.7c60.1-41.4,147.7-65.8,262.7-73l130.6-10.8l1.8-10.1 c6.5-36.6,5.6-65.3-2.6-86c-8.1-20.7-24.3-35.5-48.5-44.5c-24.2-8.9-58.7-13.4-103.6-13.4c-32.3,0-68.1,2.7-107.3,8 c-39.3,5.3-76.9,13.3-113,23.8l30.6-173.5c39.4-10.6,82.6-18.8,129.4-24.6c46.8-5.8,90.9-8.7,132.4-8.7 c86.3,0,154.1,10.6,203.3,31.8c49.3,21.2,82.4,56,99.4,104.5C4205,3392.4,4206.2,3458,4191.6,3540.9 M3394.2,3519.2 c19-107.5,9.2-186.3-29.2-236.4c-38.4-50.1-98.1-75.2-179.1-75.2c-43.4,0-87,8.3-130.9,25c-43.9,16.6-85.3,42.5-124.3,77.7 c-15-35.2-38.2-61.1-69.8-77.7c-31.5-16.7-69.2-25-113.1-25c-91.6,0-171,30.8-238.3,92.5h-10.8l-1.7-80.2h-190.1l-139.5,790.9 h231.3l95-538.6c18.8-21.7,40.8-38.1,66.2-49.2c25.3-11.1,50.3-16.6,74.9-16.6c32.3,0,55.2,9.6,68.7,28.6 c13.5,19,16.3,51.2,8.3,96.5l-84.5,479.3h226.3l88-498.8c3.2-18.3,5.5-35.4,6.9-51.3c18.7-18.3,39.6-32,62.9-40.9 c23.3-8.9,46.5-13.4,69.6-13.4c32.3,0,55.8,9.7,70.5,28.9c14.7,19.3,18.1,51.4,10.1,96.2l-84.5,479.3h230.6L3394.2,3519.2z M1859.3,3445.9c-21.7-33-58.2-49.5-109.8-49.5c-25.1,0-49.9,4.4-74.7,13.4c-24.7,8.9-46.3,22.3-64.9,40.1l-69,391.1 c27,5.8,56.8,8.7,89.6,8.7c67.5,0,120.7-18.2,159.7-54.6c39-36.4,65.6-95.3,79.9-176.8C1884.5,3536.4,1880.9,3478.9,1859.3,3445.9 M2106.1,3600.2c-24.4,138.3-79.8,243.7-166,316.3c-86.3,72.5-199.6,108.8-339.9,108.8c-25.5,0-55.8-1.9-90.8-5.8l-54.5,309.4 h-231.4l195.6-1109h193.8l-0.3,83.9h10.8c28.4-29.9,62.1-53.4,101-70.5c38.9-17.1,81.1-25.7,126.3-25.7 c61.2,0,113.8,13.6,157.7,40.8c43.9,27.3,75.1,70.1,93.7,128.7C2120.6,3435.7,2122,3510.1,2106.1,3600.2 M1375.9,3017.5 c-24.9-3.9-51.3-5.8-79.2-5.8c-55.9,0-98.6,11.2-128.1,33.6c-29.5,22.4-48.5,57.9-57.1,106.6l-12,67.9h207.5l-32.1,182.2h-207.5 l-107.4,608.7H730l107.3-608.7H708.7l32.1-182.2h128.7l10.1-57.1c12.4-70.4,36.6-130.5,72.6-180.4c36-49.9,82.9-88.1,140.6-114.6 c57.7-26.5,124.6-39.7,200.8-39.7c39.5,0,77.6,2.9,114.2,8.7L1375.9,3017.5z"/><path class="st1" d="M3658.8,2663.1c-542.1-365.9-694.5-1348.4,216.8-1734.7c-362.5,267.7-664,757.2-196.5,1375.5 c318.5-213.4,908-586.1,1311.1-1595.7C4973.4,877.6,4959.8,1685.7,3658.8,2663.1"/><path class="st0" d="M3843.6,2769.9c472.5,228.6,1458.4,5,1438.1-936.8c-122.8,532.9-484.5,755.5-911.4,765.7 c213.5-318.5,799.6-908,633.6-1863.4C4922.6,1738.2,4319.5,2270.1,3843.6,2769.9"/></g></svg>