<svg version="1.1" id="Ñëîé_1" xmlns="http://www.w3.org/2000/svg" xmlns:xlink="http://www.w3.org/1999/xlink" x="0px" y="0px" viewBox="0 0 1000 612.1" style="enable-background:new 0 0 1000 612.1;" xml:space="preserve" width="100%" height="100%" preserveAspectRatio="none"><style type="text/css"> .st0{fill:#FFFFAF;} .st1{fill:#F5E080;} .st2{fill:#BFA34A;} .st3{fill:#FFE797;} .st4{fill:#E6C74A;} .st5{fill:#947833;} .st6{fill:#A38233;} .st7{fill:#EBD964;} .st8{fill:url(#SVGID_1_);} .st9{fill:url(#SVGID_2_);} .st10{fill:url(#SVGID_3_);} .st11{fill:url(#SVGID_4_);} .st12{fill:url(#SVGID_5_);} .st13{fill:url(#SVGID_6_);} .st14{enable-background:new ;} </style><g><g><g><polygon class="st0" points="864.4,480.1 899.7,417.6 914.5,333.5 906.7,253.4 879.6,165.1 857.9,121.2 821.3,74.8 816.8,69 814.3,66.6 800.4,55.9 816.4,74.8 853.3,120.8 875.5,164.3 903.4,252.6 912.1,332.6 898.1,416.8 863.6,479.7 831.6,522.8 786.4,554.8 832.4,522.8 "/><polygon class="st1" points="878.4,473.5 901.4,425.5 918.2,356.5 915.8,294.9 905.9,230.4 887.4,174.6 850.9,107.2 816.8,69 821.3,74.8 857.9,121.2 879.6,165.1 906.7,253.4 914.5,333.5 899.7,417.6 864.4,480.1 832.4,522.8 786.4,554.8 785.6,555.2 736.3,582.3 705.1,596.3 716.6,596.7 742.5,586 789.7,563.8 789.7,563.8 844.7,517 "/></g><g><polygon class="st2" points="789.3,462.8 766.3,516.6 767.1,545.4 770.4,548.6 789.3,468.6 "/><polygon class="st3" points="792.2,525.6 792.2,525.6 789.3,468.6 770.4,548.6 777.8,556.4 "/><polygon class="st4" points="781.5,560.1 792.2,525.6 777.8,556.4 "/></g><g><polygon class="st3" points="815.2,441.5 804.1,487.5 805.7,496.5 821.7,462.4 "/><polygon class="st5" points="823.4,523.6 818,530.2 821.7,533.4 "/><polygon class="st2" points="818,530.2 823.4,523.6 828.7,494.8 821.7,463.2 821.7,462.4 805.7,496.5 809.8,524 "/></g><g><polygon class="st3" points="832.8,419.7 832.4,439.4 838.6,426.3 "/><polygon class="st5" points="856.2,500.6 855.8,487 848,496.1 "/><polygon class="st2" points="840.2,491.6 848,496.1 855.8,487 855.4,468.6 843.5,431.6 838.6,426.3 832.4,439.4 832,461.2 "/></g><g><polygon class="st3" points="848,388.1 845.9,385.2 846.4,390.1 848,405.7 852.9,395.1 "/><polygon class="st2" points="857.9,446.4 877.2,455.8 873.9,423.4 852.9,395.1 848,405.7 849.2,418.1 "/></g><g><polygon class="st0" points="878,373.7 856.2,355.6 864,383.6 864.8,385.2 873.5,397.1 881.3,407.4 887.8,411.1 "/><polygon class="st6" points="897.3,414.4 897.3,414.4 883.7,378.6 878,373.7 887.8,411.1 896,416 898.1,416.8 "/></g><g><polygon class="st5" points="865.7,328.1 869.8,342.9 901.4,355.2 894.4,342.9 "/><polygon class="st6" points="873,355.2 893.2,369.2 909.2,370 901.4,355.2 869.8,342.9 "/><polygon class="st0" points="865.7,328.1 856.6,323.2 865.2,341.3 869.8,342.9 "/><polygon class="st4" points="865.2,341.3 871.4,354 873,355.2 869.8,342.9 "/></g><g><polygon class="st2" points="896.9,308 889.1,301 873.5,294.5 883.7,310.9 "/><polygon class="st6" points="890.7,322.4 915.3,324 896.9,308 883.7,310.9 "/><polygon class="st5" points="872.6,313.4 879.2,322 890.7,322.4 883.7,310.9 "/><polygon class="st0" points="873.5,294.5 854.6,286.2 850.1,284.2 856.2,292.4 872.6,313.4 883.7,310.9 "/></g><g><polygon class="st0" points="839.4,254.2 870.2,279.7 878,281.7 871.8,256.7 "/><polygon class="st2" points="878,281.7 883.3,283 885,257.5 871.8,256.7 "/><polygon class="st5" points="898.5,287.1 910,274.8 886.2,257.9 885,257.5 883.3,283 "/></g><g><polygon class="st0" points="834.9,214.4 832.8,219.3 843.1,226.7 844.7,227.5 848.8,215.2 "/><polygon class="st1" points="825.4,214 832.8,219.3 834.9,214.4 "/><polygon class="st7" points="848.8,215.2 844.7,227.5 868.1,240.3 862.4,216.4 "/><polygon class="st2" points="862.4,216.4 868.1,240.3 869.8,241.1 885.8,237.4 886.2,227.1 869.8,216.9 "/><polygon class="st5" points="898.9,234.5 886.2,227.1 885.8,237.4 "/></g><g><polygon class="st1" points="811,175 835.3,192.2 848.4,196.3 826.2,173.3 "/><polygon class="st5" points="868.5,202.5 888.2,190.2 879.6,184.8 863.2,200.8 "/><polygon class="st0" points="839.8,171.7 826.2,173.3 848.4,196.3 853.3,198 "/><polygon class="st7" points="843.1,171.7 839.8,171.7 853.3,198 863.2,200.8 879.6,184.8 868.1,177.8 "/></g><g><polygon class="st0" points="808.2,139.7 812.7,150.3 816,152.4 832,156.5 822.5,138.8 "/><polygon class="st1" points="796.7,140.1 812.7,150.3 808.2,139.7 "/><polygon class="st7" points="871.8,149.9 848,139.2 832,138.4 822.5,138.8 832,156.5 846.4,160.2 "/></g><g><polygon class="st0" points="814.3,122.8 807.3,109.3 804.5,107.6 795,107.2 799.1,116.7 805.3,120.8 "/><polygon class="st1" points="782.3,106.4 799.1,116.7 795,107.2 "/><polygon class="st7" points="814.3,122.8 829.9,126.9 836.5,126.1 807.3,109.3 "/><polygon class="st2" points="852.5,117.9 827.1,109.3 806.5,108 807.3,109.3 836.5,126.1 846.8,124.9 "/><polygon class="st0" points="807.3,109.3 806.5,108 804.5,107.6 "/></g><g><polygon class="st0" points="789.7,75.2 782.3,74.8 786.4,85 796.3,87.9 "/><polygon class="st1" points="767.5,74 778.2,83 786.4,85 782.3,74.8 "/><polygon class="st2" points="820.5,90.8 826.6,85 825.8,84.2 803.2,76 789.7,75.2 796.3,87.9 805.3,90.4 "/><polygon class="st0" points="826.6,85 827.1,84.6 825.8,84.2 "/></g><g><polygon class="st6" points="842.7,589.7 862,581.9 845.1,573.3 837.7,589.7 "/><polygon class="st3" points="821.7,561 815.6,561.8 790.1,577.8 793,580.3 826.6,563.4 "/><polygon class="st2" points="793,580.3 803.7,590.1 837.7,589.7 845.1,573.3 826.6,563.4 "/><polygon class="st4" points="787.2,565.1 777.4,566.3 782.3,570.4 790.1,577.8 815.6,561.8 "/></g><g><polygon class="st0" points="857,547.8 887.8,532.6 879.6,530.2 865.7,529.7 865.2,530.2 "/><polygon class="st6" points="855,552.7 873.5,552.3 905.1,537.5 887.8,532.6 857,547.8 "/><polygon class="st3" points="836.9,552.7 847.6,552.7 857,547.8 865.2,530.2 833.6,550.3 "/><polygon class="st2" points="847.6,552.7 855,552.7 857,547.8 "/><polygon class="st4" points="865.7,529.7 843.5,529.3 818.4,538.8 833.6,550.3 865.2,530.2 "/></g><g><polygon class="st6" points="896.9,515.4 934.2,492.8 926.4,491.6 888.7,515.4 "/><polygon class="st2" points="889.5,486.2 885,487.9 872.2,515.4 888.7,515.4 926.4,491.6 915.8,489.9 "/><polygon class="st0" points="852.1,503.1 866.5,515.8 872.2,515.4 885,487.9 856.2,500.6 "/></g><g><polygon class="st6" points="956,437.4 944.5,437.8 950.7,443.5 "/><polygon class="st2" points="905.9,443.1 893.6,470.2 900.1,472.3 935.5,459.5 950.7,443.5 944.5,437.8 924,438.2 "/><polygon class="st0" points="901.8,443.9 885.4,455 880,465.7 893.6,470.2 905.9,443.1 "/></g><g><polygon class="st1" points="958.5,377.8 966.3,380.7 971.2,372.5 "/><polygon class="st2" points="934.2,387.7 930.9,389.7 942.9,409 956.4,396.7 966.3,380.7 958.5,377.8 "/><polygon class="st2" points="911.2,404.5 902.2,421.8 933,418.1 934.2,417.2 915.3,401.2 "/><polygon class="st0" points="915.3,401.2 934.2,417.2 942.9,409 930.9,389.7 "/></g><g><polygon class="st6" points="933.8,368 938.3,370 945.3,368 962.2,345 971.2,324.4 968.7,323.2 "/><polygon class="st5" points="968.7,323.2 966.7,321.6 942,332.2 923.6,351.1 919,362.2 933.8,368 "/><polygon class="st0" points="933.8,368 919,362.2 917.4,366.7 921.9,374.1 930.5,372.1 "/><polygon class="st1" points="971.6,319.5 966.7,321.6 968.7,323.2 971.2,324.4 973.7,318.7 "/><polygon class="st2" points="913.3,376.6 921.9,374.1 917.4,366.7 "/><polygon class="st4" points="930.5,372.1 938.3,370 933.8,368 "/></g><g><polygon class="st5" points="958.9,264.9 950.2,271.5 957.6,273.1 "/><polygon class="st1" points="953.1,294.9 954.8,290.4 957.6,273.1 950.2,271.5 935.1,283.4 926.8,296.9 931.4,299.8 "/><polygon class="st2" points="915.8,333.5 943.3,319.1 947,309.7 931.4,299.8 924,301.4 921.5,305.5 "/><polygon class="st3" points="931.4,299.8 947,309.7 953.1,294.9 "/><polygon class="st4" points="926.8,296.9 924,301.4 931.4,299.8 "/></g><g><polygon class="st0" points="949.4,215.6 952.7,201.7 950.2,203.7 948.2,205.8 949.8,209.5 949.8,209.5 "/><polygon class="st1" points="948.2,205.8 926.4,225.5 926.4,225.5 934.6,260.8 941.2,255 949.4,215.6 949.8,209.5 "/><polygon class="st2" points="915.8,249.7 912.9,280.5 934.6,260.8 926.4,225.5 "/></g><g><polygon class="st0" points="935.9,177.4 934.6,153.6 928.1,162.2 935.5,178.3 "/><polygon class="st1" points="935.5,178.3 928.1,162.2 915.3,179.1 924.4,216.4 927.7,212.7 "/><polygon class="st2" points="913.7,181.5 902.6,212.3 905.9,235.7 924.4,216.4 915.3,179.1 "/></g><g><polygon class="st0" points="914.9,122 911.6,98.6 905.5,113 914.1,131.9 "/><polygon class="st1" points="914.1,131.9 905.5,113 901.8,121.6 911.2,161.8 912.1,160.2 "/><polygon class="st2" points="901.8,121.6 894,139.7 889.9,162.7 888.7,169.6 889.1,173.7 892.3,193 911.2,161.8 "/></g><g><polygon class="st0" points="888.7,85 886.2,58.4 886.2,58.4 877.2,81.4 888.7,87.9 "/><polygon class="st1" points="869.4,128.6 869.8,129.8 879.6,140.5 891.1,119.9 888.7,87.9 877.2,81.4 871,98.2 "/><polygon class="st6" points="869.8,129.8 873.9,147.5 874.3,149.9 875.5,148.3 879.6,140.5 "/></g><g><polygon class="st3" points="844.7,32.5 844.7,41.5 849.6,43.2 "/><polygon class="st0" points="858.3,70.7 853.3,51 849.6,43.2 844.7,41.5 844.3,62.5 "/><polygon class="st1" points="843.9,75.6 846.4,98.2 854.2,113.8 856.2,116.3 862.4,85.5 858.3,70.7 844.3,62.5 "/><polygon class="st6" points="856.2,117.5 856.2,116.3 854.2,113.8 "/></g><g><polygon class="st3" points="813.9,16.9 815.2,31.7 821.3,33.7 "/><polygon class="st0" points="830.3,54.7 821.3,33.7 815.2,31.7 816.4,46.4 "/><polygon class="st1" points="816.4,47.7 820.5,67.4 830.3,85 831.2,56.3 830.3,54.7 816.4,46.4 "/></g><g><polygon class="st0" points="775.7,45.6 795.4,63.7 810.2,68.2 765.9,21.8 "/><polygon class="st1" points="801.6,43.2 765.5,20.6 765.9,21.8 810.2,68.2 815.6,69.9 "/></g></g><g><g><polygon class="st2" points="135.6,480.1 100.3,417.6 85.5,333.5 92.9,253.4 120.4,165.1 141.7,121.2 178.7,74.8 183.2,69 185.7,66.6 199.6,55.9 183.6,74.8 146.3,120.8 124.5,164.3 96.2,252.6 87.9,332.6 101.9,416.8 136.4,479.7 168,522.8 213.6,554.8 167.6,522.8 "/><polygon class="st0" points="121.6,473.5 98.6,425.5 81.8,356.5 84.2,294.9 94.1,230.4 112.2,174.6 148.7,107.2 183.2,69 178.7,74.8 141.7,121.2 120.4,165.1 92.9,253.4 85.5,333.5 100.3,417.6 135.6,480.1 167.6,522.8 213.6,554.8 214.4,555.2 263.3,582.3 294.9,596.3 283,596.7 257.5,586 210.3,563.8 210.3,563.8 155.3,517 "/></g><g><polygon class="st6" points="210.7,462.8 233.7,516.6 232.5,545.4 229.6,548.6 210.3,468.6 "/><polygon class="st1" points="207.8,525.6 207.8,525.6 210.3,468.6 229.6,548.6 222.2,556.4 "/><polygon class="st4" points="218.5,560.1 207.8,525.6 222.2,556.4 "/></g><g><polygon class="st5" points="184.4,441.5 195.9,487.5 194.3,496.5 178.3,462.4 "/><polygon class="st5" points="176.2,523.6 182,530.2 178.3,533.4 "/><polygon class="st1" points="182,530.2 176.2,523.6 170.9,494.8 178.3,463.2 178.3,462.4 194.3,496.5 190.2,524 "/></g><g><polygon class="st5" points="167.2,419.7 167.6,439.4 161.4,426.3 "/><polygon class="st5" points="143.8,500.6 144.2,487 152,496.1 "/><polygon class="st1" points="159.8,491.6 152,496.1 144.2,487 144.6,468.6 156.5,431.6 161.4,426.3 167.6,439.4 168,461.2 "/></g><g><polygon class="st5" points="152,388.1 154.1,385.2 153.6,390.1 152,405.7 147.1,395.1 "/><polygon class="st1" points="142.1,446.4 122.8,455.8 126.1,423.4 147.1,395.1 152,405.7 150.8,418.1 "/></g><g><polygon class="st0" points="122,373.7 112.2,411.1 104,416 102.7,414.4 116.3,378.6 "/><polygon class="st2" points="122,373.7 143.8,355.6 135.6,383.6 135.2,385.2 126.5,397.1 118.7,407.4 112.2,411.1 "/><polygon class="st6" points="104,416 101.9,416.8 102.7,414.4 "/></g><g><polygon class="st0" points="133.9,328.1 130.2,342.9 98.6,355.2 105.6,342.9 "/><polygon class="st2" points="127,355.2 106.8,369.2 90.4,370 98.6,355.2 130.2,342.9 "/><polygon class="st4" points="133.9,328.1 143.4,323.2 134.8,341.3 130.2,342.9 "/><polygon class="st5" points="134.8,341.3 128.6,354 127,355.2 130.2,342.9 "/></g><g><polygon class="st3" points="103.1,308 110.9,301 126.5,294.5 116.3,310.9 "/><polygon class="st2" points="109.3,322.4 84.2,324 103.1,308 116.3,310.9 "/><polygon class="st5" points="127.4,313.4 120.8,322 109.3,322.4 116.3,310.9 "/><polygon class="st1" points="126.5,294.5 145.4,286.2 149.9,284.2 143.8,292.4 127.4,313.4 116.3,310.9 "/></g><g><polygon class="st2" points="160.2,254.2 129.8,279.7 122,281.7 127.8,256.7 "/><polygon class="st0" points="122,281.7 116.3,283 115,257.5 127.8,256.7 "/><polygon class="st1" points="101.1,287.1 90,274.8 113.4,257.9 115,257.5 116.3,283 "/></g><g><polygon class="st5" points="165.1,214.4 167.2,219.3 156.9,226.7 155.3,227.5 151.2,215.2 "/><polygon class="st6" points="174.6,214 167.2,219.3 165.1,214.4 "/><polygon class="st2" points="151.2,215.2 155.3,227.5 131.9,240.3 137.6,216.4 "/><polygon class="st0" points="137.6,216.4 131.9,240.3 130.2,241.1 114.2,237.4 113.4,227.1 130.2,216.9 "/><polygon class="st1" points="101.1,234.5 113.4,227.1 114.2,237.4 "/></g><g><polygon class="st5" points="189,175 164.7,192.2 151.6,196.3 173.8,173.3 "/><polygon class="st2" points="131.5,202.5 111.8,190.2 120.4,184.8 136.8,200.8 "/><polygon class="st2" points="160.2,171.7 173.8,173.3 151.6,196.3 146.7,198 "/><polygon class="st0" points="156.5,171.7 160.2,171.7 146.7,198 136.8,200.8 120.4,184.8 131.9,177.8 "/></g><g><polygon class="st2" points="191.8,139.7 187.3,150.3 184,152.4 168,156.5 177,138.8 "/><polygon class="st5" points="203.3,140.1 187.3,150.3 191.8,139.7 "/><polygon class="st0" points="127.8,149.9 152,139.2 168,138.4 177,138.8 168,156.5 153.6,160.2 "/></g><g><polygon class="st2" points="185.3,122.8 192.7,109.3 195.1,107.6 205,107.2 200.9,116.7 194.7,120.8 "/><polygon class="st5" points="217.7,106.4 200.9,116.7 205,107.2 "/><polygon class="st1" points="185.3,122.8 170.1,126.9 163.5,126.1 192.7,109.3 "/><polygon class="st0" points="147.5,117.9 172.9,109.3 193.5,108 192.7,109.3 163.5,126.1 152.8,124.9 "/><polygon class="st0" points="192.7,109.3 193.5,108 195.1,107.6 "/></g><g><polygon class="st2" points="210.3,75.2 217.7,74.8 213.6,85 203.7,87.9 "/><polygon class="st5" points="232.5,74 221.4,83 213.6,85 217.7,74.8 "/><polygon class="st0" points="179.5,90.8 173.4,85 174.2,84.2 196.8,76 210.3,75.2 203.7,87.9 194.3,90.4 "/><polygon class="st0" points="173.4,85 172.9,84.6 174.2,84.2 "/></g><g><polygon class="st4" points="157.3,589.7 138,581.9 154.5,573.3 162.3,589.7 "/><polygon class="st2" points="178.3,561 184,561.8 209.9,577.8 207,580.3 173.4,563.4 "/><polygon class="st1" points="207,580.3 195.9,590.1 162.3,589.7 154.5,573.3 173.4,563.4 "/><polygon class="st6" points="222.6,566.3 212.4,565.1 184,561.8 209.9,577.8 217.7,570.4 217.7,570.4 "/></g><g><polygon class="st0" points="143,547.8 112.2,532.6 120.4,530.2 133.9,529.7 134.3,530.2 "/><polygon class="st4" points="145,552.7 126.5,552.3 94.9,537.5 112.2,532.6 143,547.8 "/><polygon class="st3" points="162.7,552.7 152.4,552.7 143,547.8 134.3,530.2 166.4,550.3 "/><polygon class="st4" points="152.4,552.7 145,552.7 143,547.8 "/><polygon class="st2" points="134.3,529.7 156.5,529.3 181.6,538.8 166.4,550.3 134.3,530.2 133.9,529.7 "/></g><g><polygon class="st7" points="103.1,515.4 65.8,492.8 73.6,491.6 111.3,515.4 "/><polygon class="st1" points="110.5,486.2 115,487.9 127.8,515.4 111.3,515.4 73.6,491.6 84.2,489.9 "/><polygon class="st2" points="147.5,503.1 133.1,515.8 127.8,515.4 115,487.9 143.8,500.6 "/></g><g><polygon class="st0" points="44,437.4 55.5,437.8 49.3,443.5 "/><polygon class="st1" points="93.7,443.1 106.4,470.2 99.9,472.3 64.5,459.5 49.3,443.5 55.5,437.8 76,438.2 "/><polygon class="st6" points="98.2,443.9 114.6,455 120,465.7 106.4,470.2 93.7,443.1 "/></g><g><polygon class="st7" points="41.5,377.8 33.7,380.7 28.8,372.5 "/><polygon class="st0" points="65.8,387.7 68.6,389.7 57.1,409 43.6,396.7 33.7,380.7 41.5,377.8 "/><polygon class="st6" points="88.8,404.5 97.8,421.8 66.6,418.1 65.8,417.2 84.2,401.2 "/><polygon class="st2" points="84.2,401.2 65.8,417.2 57.1,409 68.6,389.7 "/></g><g><polygon class="st0" points="66.2,368 61.7,370 54.7,368 37.8,345 28.8,324.4 30.9,323.2 "/><polygon class="st1" points="30.9,323.2 33.3,321.6 58,332.2 76.4,351.1 81,362.2 66.2,368 "/><polygon class="st5" points="66.2,368 81,362.2 82.6,366.7 78.1,374.1 69.5,372.1 "/><polygon class="st3" points="28,319.5 26.3,318.7 28.8,324.4 30.9,323.2 33.3,321.6 "/><polygon class="st6" points="86.3,376.6 78.1,374.1 82.6,366.7 "/><polygon class="st3" points="69.5,372.1 61.7,370 66.2,368 "/></g><g><polygon class="st0" points="41.1,264.9 49.8,271.5 42.4,273.1 "/><polygon class="st1" points="46.9,294.9 44.8,290.4 42.4,273.1 49.8,271.5 64.5,283.4 73.2,296.9 68.6,299.8 "/><polygon class="st2" points="84.2,333.5 56.7,319.1 52.6,309.7 68.6,299.8 76,301.4 78.5,305.5 "/><polygon class="st3" points="68.6,299.8 52.6,309.7 46.9,294.9 "/><polygon class="st6" points="73.2,296.9 76,301.4 68.6,299.8 "/></g><g><polygon class="st0" points="50.2,215.6 47.3,201.7 49.8,203.7 51.8,205.8 50.2,209.5 50.2,209.5 "/><polygon class="st1" points="51.8,205.8 73.6,225.5 73.6,225.5 65.4,260.8 58.8,255 50.2,215.6 50.2,209.5 "/><polygon class="st2" points="84.2,249.7 87.1,280.5 65.4,260.8 73.6,225.5 "/></g><g><polygon class="st0" points="64.1,177.4 65.4,153.6 71.9,162.2 64.5,178.3 "/><polygon class="st1" points="64.5,178.3 71.9,162.2 84.7,179.1 75.6,216.4 72.3,212.7 "/><polygon class="st2" points="86.3,181.5 97.4,212.3 94.1,235.7 75.6,216.4 84.7,179.1 "/></g><g><polygon class="st0" points="85.1,122 88.4,98.6 94.5,113 85.9,131.9 "/><polygon class="st1" points="85.9,131.9 94.5,113 98.2,121.6 88.8,161.8 87.5,160.2 "/><polygon class="st2" points="98.2,121.6 106,139.7 110.1,162.7 111.3,169.6 110.5,173.7 107.7,193 88.8,161.8 "/></g><g><polygon class="st0" points="111.3,85 113.8,58.4 113.8,58.4 122.4,81.4 110.9,87.9 "/><polygon class="st1" points="130.6,128.6 130.2,129.8 120,140.5 108.9,119.9 110.9,87.9 122.4,81.4 129,98.2 "/><polygon class="st6" points="120,140.5 124.5,148.3 125.3,149.9 126.1,147.5 130.2,129.8 "/></g><g><polygon class="st3" points="154.9,32.5 155.3,41.5 149.9,43.2 "/><polygon class="st0" points="141.3,70.7 146.7,51 149.9,43.2 155.3,41.5 155.7,62.5 "/><polygon class="st1" points="156.1,75.6 153.2,98.2 145.8,113.8 143.4,116.3 137.6,85.5 141.3,70.7 155.7,62.5 "/><polygon class="st6" points="143.8,117.5 143.4,116.3 145.8,113.8 "/></g><g><polygon class="st3" points="186.1,16.9 184.8,31.7 178.7,33.7 "/><polygon class="st0" points="169.2,54.7 178.7,33.7 184.8,31.7 183.6,46.4 "/><polygon class="st1" points="183.2,47.7 179.5,67.4 169.7,85 168.8,56.3 169.2,54.7 183.6,46.4 "/></g><g><polygon class="st1" points="223.9,45.6 204.1,63.7 189.4,68.2 234.1,21.8 "/><polygon class="st0" points="198,43.2 234.5,20.6 234.1,21.8 189.4,68.2 184.4,69.9 "/></g></g></g><g><linearGradient id="SVGID_1_" gradientUnits="userSpaceOnUse" x1="279.2159" y1="1169.4647" x2="375.923" y2="973.9009" gradientTransform="matrix(1 0 0 1 0 -936.2)"><stop offset="0" style="stop-color:#BFA34A"/><stop offset="0.3455" style="stop-color:#F5E080"/><stop offset="0.5212" style="stop-color:#FFFFAF"/><stop offset="0.5694" style="stop-color:#F7F092"/><stop offset="0.6222" style="stop-color:#F0E379"/><stop offset="0.6703" style="stop-color:#ECDC69"/><stop offset="0.7091" style="stop-color:#EBD964"/><stop offset="1" style="stop-color:#BFA34A"/></linearGradient><path class="st8" d="M301.9,178.3l18.9,78.4l2.5,10.7h0.4l2.1-10.7l16.8-78.4h14l-25,103.1h-17.2l-18.5-78.4l-2.1-11.1h-0.4 l-2.5,11.1l-18.1,78.4h-17.2l-25-103.1h14.8l16.8,78.8l2.1,10.7h0.4l2.5-10.7l18.9-78.8C285.9,178.3,301.9,178.3,301.9,178.3z"/><linearGradient id="SVGID_2_" gradientUnits="userSpaceOnUse" x1="363.185" y1="1210.9882" x2="459.8925" y2="1015.4243" gradientTransform="matrix(1 0 0 1 0 -936.2)"><stop offset="0" style="stop-color:#BFA34A"/><stop offset="0.3455" style="stop-color:#F5E080"/><stop offset="0.5212" style="stop-color:#FFFFAF"/><stop offset="0.5694" style="stop-color:#F7F092"/><stop offset="0.6222" style="stop-color:#F0E379"/><stop offset="0.6703" style="stop-color:#ECDC69"/><stop offset="0.7091" style="stop-color:#EBD964"/><stop offset="1" style="stop-color:#BFA34A"/></linearGradient><path class="st9" d="M378.3,178.3h14.4v103.1h-14.4V178.3z"/><linearGradient id="SVGID_3_" gradientUnits="userSpaceOnUse" x1="422.2458" y1="1240.194" x2="518.9533" y2="1044.6301" gradientTransform="matrix(1 0 0 1 0 -936.2)"><stop offset="0" style="stop-color:#BFA34A"/><stop offset="0.3455" style="stop-color:#F5E080"/><stop offset="0.5212" style="stop-color:#FFFFAF"/><stop offset="0.5694" style="stop-color:#F7F092"/><stop offset="0.6222" style="stop-color:#F0E379"/><stop offset="0.6703" style="stop-color:#ECDC69"/><stop offset="0.7091" style="stop-color:#EBD964"/><stop offset="1" style="stop-color:#BFA34A"/></linearGradient><path class="st10" d="M488.7,281.3l-48.9-71l-6.2-9.4h-0.4v11.1v69h-12.7V177.8h12.7l52.1,78h0.4l-0.4-11.1v-66.9h12.3v103.1h-9 V281.3z"/><linearGradient id="SVGID_4_" gradientUnits="userSpaceOnUse" x1="506.2133" y1="1281.7166" x2="602.9205" y2="1086.1527" gradientTransform="matrix(1 0 0 1 0 -936.2)"><stop offset="0" style="stop-color:#BFA34A"/><stop offset="0.3455" style="stop-color:#F5E080"/><stop offset="0.5212" style="stop-color:#FFFFAF"/><stop offset="0.5694" style="stop-color:#F7F092"/><stop offset="0.6222" style="stop-color:#F0E379"/><stop offset="0.6703" style="stop-color:#ECDC69"/><stop offset="0.7091" style="stop-color:#EBD964"/><stop offset="1" style="stop-color:#BFA34A"/></linearGradient><path class="st11" d="M593,281.3l-48.9-71l-6.2-9h-0.4v11.1v69h-12.7V178.3h12.7l52.1,78h0.4l-0.4-11.1v-66.9H602v103.1H593z"/><linearGradient id="SVGID_5_" gradientUnits="userSpaceOnUse" x1="585.7285" y1="1321.0372" x2="682.4356" y2="1125.4734" gradientTransform="matrix(1 0 0 1 0 -936.2)"><stop offset="0" style="stop-color:#BFA34A"/><stop offset="0.3455" style="stop-color:#F5E080"/><stop offset="0.5212" style="stop-color:#FFFFAF"/><stop offset="0.5694" style="stop-color:#F7F092"/><stop offset="0.6222" style="stop-color:#F0E379"/><stop offset="0.6703" style="stop-color:#ECDC69"/><stop offset="0.7091" style="stop-color:#EBD964"/><stop offset="1" style="stop-color:#BFA34A"/></linearGradient><path class="st12" d="M695.7,268.6l-0.4,12.7h-65.7V178.3h63.2l0.4,12.7h-49.7v30.8h42.7v11.9h-42.7v34.9H695.7z"/><linearGradient id="SVGID_6_" gradientUnits="userSpaceOnUse" x1="658.15" y1="1356.85" x2="754.8571" y2="1161.2861" gradientTransform="matrix(1 0 0 1 0 -936.2)"><stop offset="0" style="stop-color:#BFA34A"/><stop offset="0.3455" style="stop-color:#F5E080"/><stop offset="0.5212" style="stop-color:#FFFFAF"/><stop offset="0.5694" style="stop-color:#F7F092"/><stop offset="0.6222" style="stop-color:#F0E379"/><stop offset="0.6703" style="stop-color:#ECDC69"/><stop offset="0.7091" style="stop-color:#EBD964"/><stop offset="1" style="stop-color:#BFA34A"/></linearGradient><path class="st13" d="M763,235.3l27.1,46h-16.8l-23.4-43.5h-20.9v43.5h-14V178.3h34.9c22.6,0,33.3,9.4,33.3,29.6 C783.5,223.4,776.1,233.3,763,235.3z M750.3,190.6h-20.9v36.1h20.5c13.1,0,19.3-4.9,19.3-18.5C768.8,195.5,763,190.6,750.3,190.6z"/></g><g class="st14"><path class="st1" d="M292.8,392.2c-1.6,0.8-3.7,1.6-6.2,2.1s-4.9,0.4-7.4,0.4c-3.7,0-7-0.4-9.4-1.2c-2.5-0.8-4.9-2.5-6.6-4.1 c-1.6-2.1-2.9-4.5-3.7-7.4c-0.8-2.9-1.2-6.6-1.2-10.7c0-8.2,1.6-14.4,4.9-18.5c3.3-3.7,8.6-5.7,16-5.7c2.1,0,4.5,0.4,6.6,0.8 s4.1,0.8,5.7,1.6l-0.8,5.7c-1.6-0.8-3.3-1.2-5.3-1.6s-3.7-0.4-6.2-0.4s-4.9,0.4-6.6,0.8c-2.1,0.4-3.3,1.6-4.5,2.9 c-1.2,1.2-2.1,3.3-2.5,5.7s-0.8,5.3-0.8,8.6c0,3.3,0.4,6.2,0.8,8.6s1.2,4.1,2.5,5.3c1.2,1.2,2.5,2.5,4.5,2.9 c1.6,0.4,4.1,0.8,6.6,0.8c2.9,0,5.7-0.4,8.2-1.2v-18.1h5.7v22.6H292.8z"/><path class="st1" d="M330.6,388.1v5.7h-27.5v-46h6.2v40.2H330.6z"/><path class="st1" d="M373.3,370.8c0,4.1-0.4,7.8-1.2,11.1c-0.8,2.9-1.6,5.3-3.3,7.4c-1.6,2.1-3.7,3.3-5.7,4.1 c-2.5,0.8-5.3,1.2-8.6,1.2c-3.3,0-6.2-0.4-8.6-1.2c-2.5-0.8-4.5-2.5-5.7-4.1c-1.6-2.1-2.5-4.5-3.3-7.4c-0.8-2.9-1.2-6.6-1.2-10.7 s0.4-7.8,1.2-10.7c0.8-2.9,1.6-5.3,3.3-7.4s3.7-3.3,5.7-4.1c2.5-0.8,5.3-1.2,8.6-1.2s6.6,0.4,8.6,1.2c2.5,0.8,4.5,2.5,5.7,4.1 c1.6,2.1,2.5,4.5,3.3,7.4C373.3,363,373.3,366.7,373.3,370.8z M366.8,370.8c0-3.7-0.4-6.6-0.8-8.6c-0.4-2.5-1.2-4.1-2.1-5.3 s-2.5-2.5-3.7-2.9s-3.7-0.8-5.7-0.8s-4.1,0.4-5.7,0.8s-2.9,1.6-3.7,2.9c-0.8,1.2-1.6,3.3-2.1,5.3c-0.4,2.5-0.8,5.3-0.8,8.6 s0.4,6.6,0.8,8.6c0.4,2.5,1.2,4.1,2.1,5.3s2.5,2.5,3.7,2.9c1.6,0.4,3.7,0.8,5.7,0.8s4.1-0.4,5.7-0.8s2.9-1.6,3.7-2.9 c0.8-1.2,1.6-3.3,2.1-5.3C366.8,377.4,366.8,374.5,366.8,370.8z"/><path class="st1" d="M415.6,380.7c0,2.1-0.4,3.7-0.8,5.3s-1.2,2.9-2.5,4.1c-1.2,1.2-2.9,2.1-4.5,2.5c-2.1,0.4-4.1,0.8-7,0.8h-17.7 v-45.6H400c9,0,13.6,3.7,13.6,11.5c0,2.9-0.4,5.3-1.6,7c-1.2,1.6-2.9,2.9-4.9,3.3l0,0c2.5,0.4,4.9,1.6,6.2,3.7 C414.8,374.9,415.6,377.4,415.6,380.7z M407.8,360.6c0-2.5-0.8-4.5-2.1-5.3c-1.2-1.2-3.3-1.6-6.2-1.6h-10.7V368H400 C405.4,367.6,407.8,365.1,407.8,360.6z M409.5,380.3c0-2.9-0.8-4.5-2.1-6.2c-1.2-1.2-3.7-2.1-6.6-2.1h-11.5v16h11.5 c2.9,0,4.9-0.4,6.2-1.6C408.6,385.6,409.5,383.6,409.5,380.3z"/><path class="st1" d="M450.9,382.7h-20.5l-3.7,11.1h-6.6l16.8-46.4h7.4l17.2,46.4h-7L450.9,382.7z M439.4,357.3l-7,20.1h16.8 l-6.6-20.1l-1.2-4.9l0,0L439.4,357.3z"/><path class="st1" d="M496.5,388.1v5.7H469v-46h6.2v40.2H496.5z"/><path class="st1" d="M570.4,347.8L554,394.2h-7.4l-16.4-46.4h7l11.5,35.3l1.6,4.9l0,0l1.2-4.9l11.9-35.3H570.4z"/><path class="st1" d="M599.2,382.7h-20.5l-3.7,11.1h-6.6l16.8-46.4h7.4l17.2,46.4h-7L599.2,382.7z M587.3,357.3l-7,20.1h16.8 l-6.6-20.1l-1.2-4.9l0,0L587.3,357.3z"/><path class="st1" d="M644.7,388.1v5.7h-27.5v-46h6.2v40.2H644.7z"/><path class="st1" d="M685.8,377.4c0,6.2-1.6,10.7-4.5,13.1c-2.9,2.9-7.4,4.1-13.1,4.1s-9.9-1.2-13.1-4.1c-2.9-2.9-4.5-7.4-4.5-13.1 v-29.6h6.2v29.6c0,4.1,0.8,7,2.9,9c2.1,1.6,4.5,2.9,8.6,2.9c3.7,0,6.6-0.8,8.6-2.9c1.6-2.1,2.9-4.9,2.9-8.6v-29.6h6.2V377.4z"/><path class="st1" d="M726.9,388.1v5.7h-29.6v-46h28.3v5.7h-22.2v13.6h19.3v5.3h-19.3v15.6C703.5,388.1,726.9,388.1,726.9,388.1z"/></g><g class="st14"><path class="st1" d="M264.1,435.7v14.4h18.5v5.7h-18.5v20.5h-6.2V430h28.3v6.2h-22.2V435.7z"/><path class="st1" d="M329.4,453c0,4.1-0.4,7.8-1.2,11.1c-0.8,2.9-1.6,5.3-3.3,7.4s-3.7,3.3-5.7,4.1c-2.5,0.8-5.3,1.2-8.6,1.2 c-3.3,0-6.2-0.4-8.6-1.2c-2.5-0.8-4.5-2.5-5.7-4.1c-1.6-2.1-2.5-4.5-3.3-7.4c-0.8-2.9-1.2-6.6-1.2-10.7s0.4-7.8,1.2-10.7 c0.8-2.9,1.6-5.3,3.3-7.4c1.6-2.1,3.7-3.3,5.7-4.1c2.5-0.8,5.3-1.2,8.6-1.2s6.6,0.4,8.6,1.2c2.5,0.8,4.5,2.5,5.7,4.1 c1.6,2.1,2.5,4.5,3.3,7.4C329.4,445.2,329.4,448.9,329.4,453z M322.8,453c0-3.7-0.4-6.6-0.8-8.6c-0.4-2.5-1.2-4.1-2.1-5.3 s-2.5-2.5-3.7-2.9s-3.7-0.8-5.7-0.8s-4.1,0.4-5.7,0.8s-2.9,1.6-3.7,2.9c-0.8,1.2-1.6,3.3-2.1,5.3c-0.4,2.5-0.8,5.3-0.8,8.6 s0.4,6.6,0.8,8.6c0.4,2.5,1.2,4.1,2.1,5.3s2.5,2.5,3.7,2.9c1.6,0.4,3.7,0.8,5.7,0.8s4.1-0.4,5.7-0.8s2.9-1.6,3.7-2.9 c0.8-1.2,1.6-3.3,2.1-5.3C322.8,459.5,322.8,456.7,322.8,453z"/><path class="st1" d="M369.6,443.1c0,3.7-0.8,6.6-2.5,8.6s-3.7,3.3-6.6,3.7l11.9,20.5h-7.4l-10.3-19.3h-9.4V476h-6.2v-46.4h15.6 c4.9,0,9,1.2,11.1,3.3C368.4,435.3,369.6,438.6,369.6,443.1z M363.1,443.5c0-2.9-0.8-4.9-2.1-6.2s-3.3-1.6-6.2-1.6h-9.4v16.4h9 c2.9,0,4.9-0.8,6.6-2.1C362.6,448.4,363.1,446.4,363.1,443.5z"/><path class="st1" d="M409.5,470.2v5.7h-29.6v-46.4h28.3v5.7h-22.2v13.6h18.9v5.3h-18.9v15.6h23.4V470.2z"/><path class="st1" d="M438.2,452.1l14.8,24.2h-7.4l-11.9-20.5l-11.9,20.5h-7.4l14.4-23.8l-14-22.2h7.8l11.1,18.5l11.1-18.5h7.4 L438.2,452.1z"/><path class="st1" d="M524.4,462.8c0,2.1-0.4,3.7-0.8,5.3c-0.4,1.6-1.2,2.9-2.5,4.1c-1.2,1.2-2.9,2.1-4.5,2.5 c-2.1,0.4-4.1,0.8-7,0.8H492v-46.4h16.8c9,0,13.6,3.7,13.6,11.5c0,2.9-0.4,5.3-1.6,7c-1.2,1.6-2.9,2.9-4.9,3.3l0,0 c2.5,0.4,4.9,1.6,6.2,3.7C524,457.1,524.4,459.5,524.4,462.8z M516.6,442.7c0-2.5-0.8-4.5-2.1-5.3c-1.2-1.2-3.3-1.6-6.2-1.6h-10.7 v14.4h11.1C514.2,449.7,516.6,447.2,516.6,442.7z M518.3,462.4c0-2.9-0.8-4.5-2.1-6.2c-1.2-1.2-3.7-2.1-6.6-2.1h-11.5v16h11.5 c2.9,0,4.9-0.4,6.2-1.6C517.5,467.7,518.3,465.7,518.3,462.4z"/><path class="st1" d="M564.7,443.1c0,3.7-0.8,6.6-2.5,8.6c-1.6,2.1-3.7,3.3-6.6,3.7l11.9,20.5h-7.4l-10.3-19.3h-9.4V476h-6.2v-46.4 h15.6c4.9,0,9,1.2,11.1,3.3C563.4,435.3,564.7,438.6,564.7,443.1z M558.5,443.5c0-2.9-0.8-4.9-2.1-6.2s-3.3-1.6-6.2-1.6h-9.4v16.4 h9c2.9,0,4.9-0.8,6.6-2.1C557.7,448.4,558.5,446.4,558.5,443.5z"/><path class="st1" d="M610.7,453c0,4.1-0.4,7.8-1.2,11.1c-0.8,2.9-1.6,5.3-3.3,7.4c-1.6,2.1-3.3,3.3-5.7,4.1 c-2.5,0.8-5.3,1.2-8.6,1.2s-6.2-0.4-8.6-1.2s-4.5-2.5-5.7-4.1c-1.6-2.1-2.9-4.5-3.3-7.4s-1.2-6.6-1.2-10.7s0.4-7.8,1.2-10.7 s1.6-5.3,3.3-7.4c1.6-2.1,3.7-3.3,5.7-4.1c2.5-0.8,5.3-1.2,8.6-1.2s6.6,0.4,8.6,1.2c2.5,0.8,4.5,2.5,5.7,4.1 c1.6,2.1,2.5,4.5,3.3,7.4C610.3,445.2,610.7,448.9,610.7,453z M603.7,453c0-3.7-0.4-6.6-0.8-8.6c-0.4-2.5-1.2-4.1-2.1-5.3 s-2.5-2.5-3.7-2.9c-1.6-0.4-3.7-0.8-5.7-0.8s-4.1,0.4-5.7,0.8s-2.9,1.6-3.7,2.9c-0.8,1.2-1.6,3.3-2.1,5.3c-0.4,2.5-0.8,5.3-0.8,8.6 s0.4,6.6,0.8,8.6c0.4,2.5,1.2,4.1,2.1,5.3s2.5,2.5,3.7,2.9s3.7,0.8,5.7,0.8s4.1-0.4,5.7-0.8s2.9-1.6,3.7-2.9s1.6-3.3,2.1-5.3 C603.7,459.5,603.7,456.7,603.7,453z"/><path class="st1" d="M648,476l-14.8-21.4h-6.6V476h-6.2v-46.4h6.2v19.7h7l14.4-19.7h7.4l-16,21.8l16.8,24.2H648V476z"/><path class="st1" d="M693.2,470.2v5.7h-29.6v-46.4H692v5.7h-22.2v13.6h19.3v5.3h-19.3v15.6h23.4V470.2z"/><path class="st1" d="M732.2,443.1c0,3.7-0.8,6.6-2.5,8.6c-1.6,2.1-3.7,3.3-6.6,3.7l11.9,20.5h-7.4l-10.3-19.3H708V476h-6.2v-46.4 h15.6c4.9,0,9,1.2,11.1,3.3C731,435.3,732.2,438.6,732.2,443.1z M725.6,443.5c0-2.9-0.8-4.9-2.1-6.2s-3.3-1.6-6.2-1.6H708v16.4h9 c2.9,0,4.9-0.8,6.6-2.1C725.2,448.4,725.6,446.4,725.6,443.5z"/></g></svg>