<?xml version="1.0" encoding="utf-8"?>
<!-- Generator: Adobe Illustrator 16.0.0, SVG Export Plug-In . SVG Version: 6.00 Build 0)  -->
<!DOCTYPE svg PUBLIC "-//W3C//DTD SVG 1.1//EN" "http://www.w3.org/Graphics/SVG/1.1/DTD/svg11.dtd">
<svg version="1.1" id="Layer_1" xmlns="http://www.w3.org/2000/svg" xmlns:xlink="http://www.w3.org/1999/xlink" x="0px" y="0px"
	 width="405.667px" height="67.143px" viewBox="0 0 405.667 67.143" enable-background="new 0 0 405.667 67.143"
	 xml:space="preserve">
<g>
	<path fill="#FFFFFF" d="M34.996,9.41c-1.082-0.167-2.232-0.251-3.45-0.251c-2.436,0-4.295,0.487-5.581,1.463
		c-1.285,0.977-2.113,2.525-2.488,4.646l-0.521,2.96h9.038l-1.4,7.935h-9.038l-4.674,26.514H6.864l4.677-26.514H5.935l1.4-7.935
		h5.606l0.438-2.488c0.54-3.064,1.595-5.684,3.164-7.855c1.569-2.173,3.611-3.837,6.123-4.991c2.515-1.154,5.429-1.732,8.746-1.732
		c1.722,0,3.378,0.126,4.973,0.378L34.996,9.41L34.996,9.41z"/>
	<path fill="#FFFFFF" d="M66.625,25.077c-0.809-2.552-2.168-4.42-4.081-5.606c-1.91-1.185-4.2-1.778-6.866-1.778
		c-1.973,0-3.807,0.373-5.503,1.117c-1.696,0.746-3.163,1.77-4.399,3.071h-0.473l0.016-3.653h-8.441l-8.519,48.304h10.078
		l2.376-13.478c1.523,0.168,2.843,0.252,3.955,0.252c6.11,0,11.045-1.579,14.803-4.739c3.76-3.158,6.17-7.751,7.233-13.775
		C67.494,30.865,67.437,27.627,66.625,25.077z M56.524,35.578c-0.627,3.548-1.788,6.114-3.484,7.699
		c-1.696,1.584-4.014,2.376-6.953,2.376c-1.428,0-2.729-0.124-3.901-0.378l3.003-17.034c0.81-0.776,1.752-1.359,2.828-1.748
		c1.075-0.389,2.16-0.583,3.251-0.583c2.247,0,3.842,0.719,4.785,2.157C56.997,29.506,57.153,32.009,56.524,35.578z"/>
	<path fill="#FFFFFF" d="M122.909,31.264l-3.776,21.412h-10.047l3.682-20.877c0.346-1.952,0.197-3.348-0.442-4.188
		s-1.663-1.26-3.069-1.26c-1.006,0-2.019,0.194-3.031,0.583c-1.012,0.388-1.925,0.981-2.738,1.779
		c-0.06,0.692-0.159,1.438-0.299,2.235l-3.834,21.727h-9.855l3.682-20.877c0.348-1.974,0.227-3.374-0.362-4.204
		c-0.587-0.829-1.586-1.243-2.993-1.243c-1.069,0-2.158,0.242-3.26,0.725c-1.104,0.483-2.064,1.195-2.882,2.142l-4.137,23.458
		H69.468l6.077-34.448h8.281l0.076,3.494h0.473c2.93-2.686,6.391-4.029,10.379-4.029c1.91,0,3.552,0.361,4.926,1.086
		c1.373,0.725,2.388,1.854,3.04,3.385c1.698-1.531,3.503-2.66,5.416-3.385c1.912-0.725,3.814-1.086,5.704-1.086
		c3.526,0,6.125,1.092,7.798,3.274C123.309,23.15,123.732,26.583,122.909,31.264L122.909,31.264z"/>
	<path fill="#FFFFFF" d="M157.486,23.628c-0.741-2.11-2.184-3.627-4.332-4.551c-2.145-0.924-5.098-1.385-8.857-1.385
		c-1.805,0-3.728,0.125-5.766,0.377c-2.039,0.252-3.918,0.609-5.636,1.072l-1.334,7.557c1.571-0.462,3.213-0.81,4.924-1.039
		c1.71-0.231,3.267-0.347,4.675-0.347c1.953,0,3.455,0.194,4.51,0.583s1.76,1.033,2.115,1.936c0.356,0.903,0.393,2.152,0.11,3.748
		l-0.078,0.44l-5.689,0.472c-5.009,0.315-8.823,1.376-11.439,3.18c-2.618,1.808-4.217,4.357-4.8,7.653
		c-0.352,1.994-0.214,3.742,0.416,5.242c0.627,1.501,1.707,2.666,3.24,3.495c1.533,0.83,3.454,1.244,5.764,1.244
		c1.932,0,3.744-0.331,5.435-0.991c1.692-0.661,3.162-1.674,4.409-3.039h0.473l0.094,3.4h8.313l3.611-20.468
		C158.278,28.598,158.226,25.737,157.486,23.628z M145.68,44.143c-0.889,0.756-1.836,1.307-2.842,1.653
		c-1.006,0.346-2.002,0.52-2.988,0.52c-1.491,0-2.565-0.336-3.225-1.007c-0.658-0.672-0.874-1.649-0.65-2.929
		c0.231-1.302,0.84-2.314,1.828-3.039c0.989-0.725,2.44-1.159,4.357-1.307l4.659-0.348L145.68,44.143z"/>
	<path fill="#FFFFFF" d="M186.361,27.107c-0.889-0.19-2.008-0.284-3.351-0.284c-1.533,0-3.086,0.295-4.659,0.882
		c-1.572,0.588-2.85,1.396-3.828,2.426l-3.975,22.545h-10.078l6.074-34.448h8.219l0.004,4.439h0.475
		c1.236-1.658,2.713-2.891,4.431-3.699s3.573-1.213,5.566-1.213c1.009,0,1.917,0.084,2.728,0.252L186.361,27.107L186.361,27.107z"/>
	<polygon fill="#FFFFFF" points="214.898,18.228 225.637,18.228 211.758,34.791 220.664,52.676 209.705,52.676 202.698,39.011 
		198.668,39.011 196.258,52.676 186.18,52.676 195.154,1.79 205.231,1.79 200.089,30.949 204.059,30.949 214.898,18.228 	"/>
	<path fill="#FFFFFF" d="M253.509,22.306c-2.008-3.076-5.448-4.613-10.319-4.613c-3.399,0-6.418,0.682-9.053,2.047
		c-2.633,1.365-4.811,3.375-6.525,6.03c-1.718,2.655-2.91,5.872-3.578,9.65c-0.738,4.199-0.669,7.61,0.213,10.233
		c0.881,2.625,2.601,4.562,5.163,5.811c2.563,1.248,6.036,1.873,10.425,1.873c3.379,0,6.818-0.389,10.315-1.165l1.326-7.525
		c-3.3,0.735-6.264,1.102-8.886,1.102c-2.499,0-4.431-0.236-5.797-0.708c-1.364-0.472-2.296-1.238-2.792-2.299
		c-0.495-1.06-0.633-2.514-0.411-4.362h20.912l0.466-2.644C256.004,29.858,255.519,25.381,253.509,22.306z M246.145,32.555h-11.559
		c0.604-3.064,1.502-5.247,2.698-6.55c1.194-1.301,2.747-1.952,4.66-1.952c1.89,0,3.181,0.646,3.878,1.937
		C246.517,27.28,246.625,29.469,246.145,32.555z"/>
	<path fill="#FFFFFF" d="M285.116,18.228l-1.399,7.935h-9.038l-2.232,12.659c-0.273,1.554-0.297,2.783-0.067,3.684
		c0.23,0.902,0.713,1.549,1.455,1.938c0.738,0.389,1.781,0.582,3.124,0.582c0.881,0,2.113-0.137,3.693-0.409l-1.404,7.966
		c-2.207,0.483-4.369,0.725-6.489,0.725c-4.242,0-7.273-1.049-9.098-3.147c-1.823-2.101-2.347-5.354-1.569-9.763l2.511-14.233
		h-5.607l1.4-7.935h5.606l3.97-12.155h8.252l-2.144,12.155H285.116L285.116,18.228z"/>
	<path fill="#FFFFFF" d="M313.313,26.131c-2.658-0.756-5.573-1.134-8.744-1.134c-4.786,0-7.383,1.154-7.792,3.463
		c-0.134,0.758-0.004,1.365,0.386,1.827c0.392,0.463,1.125,0.799,2.203,1.009l5.395,1.007c3.084,0.609,5.25,1.685,6.502,3.228
		c1.248,1.543,1.614,3.784,1.098,6.724c-0.404,2.288-1.355,4.261-2.855,5.919c-1.5,1.659-3.488,2.934-5.967,3.826
		c-2.476,0.893-5.333,1.338-8.565,1.338c-4.094,0-7.688-0.503-10.787-1.511l1.301-7.369c3.22,1.029,6.761,1.543,10.624,1.543
		c2.182,0,3.813-0.288,4.891-0.865s1.716-1.422,1.912-2.535c0.15-0.86,0.036-1.512-0.347-1.952
		c-0.386-0.441-1.136-0.776-2.247-1.007l-5.397-1.008c-3.109-0.588-5.266-1.696-6.471-3.322c-1.2-1.627-1.559-3.826-1.071-6.597
		c0.398-2.246,1.338-4.194,2.825-5.842c1.487-1.648,3.522-2.923,6.106-3.826c2.586-0.902,5.672-1.354,9.262-1.354
		c1.638,0,3.243,0.094,4.817,0.283c1.571,0.189,2.979,0.451,4.224,0.787L313.313,26.131L313.313,26.131z"/>
	<g>
		<path fill="#19A6BF" d="M348.912,61.206c-16.972-11.456-21.746-42.219,6.789-54.311c-11.351,8.38-20.791,23.708-6.153,43.066
			C359.52,43.279,377.977,31.611,390.601,0C390.068,5.304,389.645,30.604,348.912,61.206z"/>
		<path fill="#FFFFFF" d="M354.695,64.55c14.797,7.158,45.663,0.157,45.027-29.333c-3.844,16.688-15.17,23.656-28.534,23.974
			c6.683-9.971,25.033-28.429,19.835-58.342C388.479,32.247,369.598,48.901,354.695,64.55z"/>
	</g>
</g>
</svg>
