<svg id="Layer_1" data-name="Layer 1" xmlns="http://www.w3.org/2000/svg" viewBox="0 0 80 42">
  <title>Crypto - by finrax 4</title>
  <rect width="80" height="42" style="fill: #fff"/>
  <g>
    <g>
      <path d="M20.71947,18.81934a7.47766,7.47766,0,0,1-5.39014,2.10742c-5.26855,0-7.49756-3.627-7.51806-7.31543a7.14007,7.14007,0,0,1,7.51806-7.477,7.31625,7.31625,0,0,1,5.20752,2.16846L18.75365,10.025a4.873,4.873,0,0,0-3.42428-1.3375,4.65,4.65,0,0,0-4.8833,4.92383,4.547,4.547,0,0,0,4.8833,4.80274,5.22489,5.22489,0,0,0,3.56641-1.43848Z" style="fill: #34c159"/>
      <path d="M24.13647,10.61231l.18262,1.15527a2.94432,2.94432,0,0,1,2.8164-1.41846,3.79007,3.79007,0,0,1,2.57373.95264l-1.11475,2.14746a2.4705,2.4705,0,0,0-1.7832-.64844A2.3052,2.3052,0,0,0,24.31912,15.334v5.26855H21.847V10.61231Z" style="fill: #34c159"/>
      <path d="M40.75369,10.61231l-5.834,13.5703H32.20437l1.59815-3.74218-3.9917-9.82812h2.87744l1.51953,4.3164.95264,2.81641,1.0337-2.75586,1.82323-4.37695Z" style="fill: #34c159"/>
      <path d="M41.99947,24.18261V10.61231H44.31l.16211,1.37793a3.96783,3.96783,0,0,1,3.24219-1.60059,4.99715,4.99715,0,0,1,5.13059,4.86q.005.184-.00359.368a4.87524,4.87524,0,0,1-5.0459,5.228,4.024,4.024,0,0,1-3.32324-1.41846v4.75536Zm8.36914-8.56493a2.83692,2.83692,0,1,0-5.67383-.0095v.0095a2.83692,2.83692,0,0,0,5.67383,0Z" style="fill: #34c159"/>
      <path d="M57.85856,7.7959v2.83692h2.75585v2.12793H57.83805v4.31591a1.24067,1.24067,0,0,0,1.29687,1.41846,2.83,2.83,0,0,0,1.19629-.30371l.68848,2.10742a5.51608,5.51608,0,0,1-2.04688.42481c-2.168.082-3.58593-1.1543-3.58593-3.647V12.76075H53.52262V10.63282h1.86426V8.05957Z" style="fill: #34c159"/>
      <path d="M72.14176,15.61768a5.19776,5.19776,0,0,1-10.39551.01608v-.01608a5.19776,5.19776,0,0,1,10.39551-.01608Q72.14179,15.60964,72.14176,15.61768Zm-7.92285,0a2.72331,2.72331,0,1,0,5.42968,0,2.82059,2.82059,0,0,0-2.67736-2.95689h0l-.03748-.00161a2.74476,2.74476,0,0,0-2.7231,2.76625h0Q64.21142,15.52166,64.21891,15.61768Z" style="fill: #34c159"/>
    </g>
    <g>
      <path d="M59.72126,32.73839v2.79572h-1.2917V32.78263c0-.76087-.407-1.21208-1.07934-1.21208A1.247,1.247,0,0,0,56.119,32.833h0l.00146.0469v2.6542H54.81992V30.51773h1.1059l.09733.60162a2.21173,2.21173,0,0,1,1.64558-.69894,2.02843,2.02843,0,0,1,2.05278,2.00378l.00012.01376c.00126.09993.006.18881-.00031.30042Z" style="fill: #005550"/>
      <path d="M64.85265,30.86278l-.53083,1.0263a1.41542,1.41542,0,0,0-.82279-.24773c-.74317,0-1.22977.51314-1.22977,1.4421v2.45067H60.97757V30.51773H62.0923l.115.637a1.64115,1.64115,0,0,1,1.4067-.73432A1.6203,1.6203,0,0,1,64.85265,30.86278Z" style="fill: #005550"/>
      <path d="M69.25857,30.51773l-.08847.60162a2.29017,2.29017,0,0,0-1.73405-.69894,2.71928,2.71928,0,0,0-.90538.165,2.44138,2.44138,0,0,0-.75948.47175,2.411,2.411,0,0,0-.53531.71106,2.36194,2.36194,0,0,0-.23767.88276,5.82053,5.82053,0,0,0-.00347.6152,2.53466,2.53466,0,0,0,.41513,1.29542,2.47339,2.47339,0,0,0,.6185.6463,2.387,2.387,0,0,0,.8265.38128,2.41187,2.41187,0,0,0,.3618.05957q.10943.00963.21938.00924a2.28438,2.28438,0,0,0,1.73405-.71663l.08847.59277H70.391v-5.0164Zm-1.5571,3.96361A1.44811,1.44811,0,1,1,69.08,32.96685h0q.0015.03174.0016.06352a1.3607,1.3607,0,0,1-1.26712,1.44812Q67.7581,34.48227,67.70147,34.48134Z" style="fill: #005550"/>
      <path d="M76.33636,35.53412H74.77042L73.6999,33.83545l-1.07934,1.69867h-1.5483l1.76059-2.55685-1.619-2.45954H72.7621l.94665,1.55712.98205-1.55712h1.52172l-1.61019,2.45954Z" style="fill: #005550"/>
      <path d="M53.56359,30.51773H52.263v5.0155h1.30054Z" style="fill: #005550"/>
      <path d="M51.3164,27.60562a2.48918,2.48918,0,0,0-2.48679,2.272,3.613,3.613,0,0,0-.0054.39243l-.00362.24766h-.91035v1.12363h.929V35.5341h1.3005V31.64134h1.389V30.51771h-1.389v-.25657c0-.99088.46889-1.45094,1.16783-1.45094a.83962.83962,0,0,1,.947.71631q.00367.02643.00563.05307c.00208.08928.00288.13694.00288.21263h1.2917v-.06194a2.00667,2.00667,0,0,0-1.86533-2.112A3.4639,3.4639,0,0,0,51.3164,27.60562Z" style="fill: #005550"/>
    </g>
    <g>
      <path d="M45.40882,31.65866H42.53227a1.12,1.12,0,0,0-1.17345-1.19123,1.13391,1.13391,0,0,0-1.19123,1.19123H37.314a3.89929,3.89929,0,0,1,3.57974-4.05323h0c.15488-.00961.30141-.01528.45659-.01523a3.91523,3.91523,0,0,1,4.03712,3.59262C45.39684,31.34131,45.41153,31.47647,45.40882,31.65866Z" style="fill: #005550"/>
      <path d="M45.38588,32.71654H42.55894v2.80828h2.82694Z" style="fill: #005550"/>
      <path d="M38.8519,35.65906a1.53793,1.53793,0,1,0-1.5379-1.538h0a1.53794,1.53794,0,0,0,1.53788,1.538Z" style="fill: #005550"/>
    </g>
    <g>
      <path d="M4.05881,34.20466v1.31517H3.66364V31.56958H5.43011a1.3176,1.3176,0,0,1,.0245,2.63508q-.01225.00012-.0245,0Zm0-.37229h1.3713a.94546.94546,0,0,0,0-1.89056H4.05881Z" style="fill: #005550"/>
      <path d="M9.88186,34.13116a1.37192,1.37192,0,0,1-1.3072,1.43372q-.06324.00291-.12653,0a1.442,1.442,0,0,1,0-2.884,1.392,1.392,0,0,1,1.43431,1.34834h0Q9.884,34.08017,9.88186,34.13116Zm-2.48887,0a1.05558,1.05558,0,0,0,2.11052.05205l.00008-.00353.00008-.00363q.00047-.02244,0-.04489a1.05649,1.05649,0,0,0-2.11025-.10745L7.393,34.0328h0q-.00229.0492,0,.09836Z" style="fill: #005550"/>
      <path d="M12.42051,32.73221l.79,2.37584.78444-2.37584h.41771l-.982,2.79315h-.42877l-.41217-1.1231-.31616-1.05515-.32167,1.06068L11.54,35.52536h-.42916l-.98757-2.79315H10.541l.79,2.37584.79037-2.37584Z" style="fill: #005550"/>
      <path d="M15.054,34.2837a.99887.99887,0,0,0,1.05554.92552,1.27151,1.27151,0,0,0,.94251-.38332l.25413.22525a1.55906,1.55906,0,0,1-1.19661.51927,1.44484,1.44484,0,0,1-.017-2.88958,1.31339,1.31339,0,0,1,1.38829,1.60287Zm2.07155-.32168a.94444.94444,0,0,0-.9431-.94578h0q-.04227,0-.08441.00366a.99728.99728,0,0,0-1.044.94212Z" style="fill: #005550"/>
      <path d="M18.38858,32.73221l.02252.45683a.94059.94059,0,0,1,.886-.50267,1.00535,1.00535,0,0,1,.6319.19759l-.17468.31615a.833.833,0,0,0-.47975-.14622.85986.85986,0,0,0-.86365.856h0q-.00006.01181.00022.0236v1.5863H18.033V32.73221Z" style="fill: #005550"/>
      <path d="M20.37988,34.2837a.99884.99884,0,0,0,1.05553.92552,1.27154,1.27154,0,0,0,.94252-.38332l.25413.22525a1.55906,1.55906,0,0,1-1.19661.51927,1.44484,1.44484,0,0,1-.017-2.88958,1.31339,1.31339,0,0,1,1.38828,1.60287Zm2.07155-.32168a.94443.94443,0,0,0-.94309-.94578h0q-.04226,0-.08438.00366a.99728.99728,0,0,0-1.044.94212Z" style="fill: #005550"/>
      <path d="M26.06223,31.56958v3.95025h-.36709l-.011-.55882a1.237,1.237,0,0,1-1.095.60938,1.44534,1.44534,0,0,1,0-2.88958,1.19815,1.19815,0,0,1,1.095.60384V31.56958Zm-2.50033,2.556a1.00682,1.00682,0,0,0,1.04961,1.0836,1.084,1.084,0,0,0,0-2.16718,1.00145,1.00145,0,0,0-1.04961,1.08358Z" style="fill: #005550"/>
      <path d="M28.55467,31.56958v1.7151a1.19748,1.19748,0,0,1,1.09466-.60384,1.44534,1.44534,0,0,1,0,2.88958,1.174,1.174,0,0,1-1.09466-.58645l-.02252.53586h-.35566V31.56958Zm.01107,2.55052a1.03627,1.03627,0,0,0,.98168,1.08809q.03965.002.07936.001a1.08413,1.08413,0,0,0,0-2.16718,1.03991,1.03991,0,0,0-1.06152,1.01779Q28.56463,34.09,28.56574,34.1201Z" style="fill: #005550"/>
      <path d="M33.977,32.73221l-1.76647,4.11941h-.41215l.58685-1.36575L31.268,32.73222h.42328l.59278,1.54043.30983.80143.31614-.80143.64968-1.54043Z" style="fill: #005550"/>
    </g>
  </g>
</svg>
