<svg id="Layer_1" xmlns="http://www.w3.org/2000/svg" viewBox="0 0 737.04 156.15" width="100%" height="100%" preserveAspectRatio="none"><defs><style>.cls-1{fill:#fff;}.cls-2{fill:#00bdff;}</style></defs><path class="cls-1" d="M56.89,22.58a44.39,44.39,0,0,0-6.58-.47q-7,0-10.64,2.78t-4.74,8.86l-1,5.65H51.16L48.49,54.53H31.26l-8.91,50.55H3.25l8.91-50.55H1.47L4.15,39.4H14.84l.83-4.75a35.84,35.84,0,0,1,6-15,29.2,29.2,0,0,1,11.68-9.51A39.43,39.43,0,0,1,50.05,6.85a60.76,60.76,0,0,1,9.49.72Z"/><path class="cls-1" d="M97.94,72.48Q96.16,82.62,91.3,87.16T78,91.69A35.6,35.6,0,0,1,70.59,91l5.73-32.48a15.28,15.28,0,0,1,5.4-3.34,18.34,18.34,0,0,1,6.2-1.1q6.42,0,9.12,4.11t.9,14.32m19.26-20q-2.33-7.3-7.78-10.69a24.37,24.37,0,0,0-13.09-3.4,25.86,25.86,0,0,0-18.89,8h-.9l0-7H60.48L44.23,131.5H63.45L68,105.8a70.29,70.29,0,0,0,7.54.48q17.48,0,28.23-9T117.54,71q2-11.23-.34-18.52"/><path class="cls-1" d="M224.52,64.25l-7.2,40.83H198.16l7-39.81q1-5.58-.84-8c-1.22-1.61-3.17-2.4-5.85-2.4A16,16,0,0,0,192.71,56a14.92,14.92,0,0,0-5.22,3.39c-.12,1.32-.31,2.74-.58,4.26l-7.31,41.43H160.81l7-39.81q1-5.64-.68-8t-5.71-2.37a15.86,15.86,0,0,0-11.72,5.46l-7.89,44.73H122.62l11.59-65.69H150l.14,6.67h.9a28.3,28.3,0,0,1,19.79-7.69,19.92,19.92,0,0,1,9.4,2.07A12.67,12.67,0,0,1,186,46.9a33,33,0,0,1,10.33-6.46,30.56,30.56,0,0,1,10.87-2.07q10.09,0,14.88,6.25t2.42,19.63"/><path class="cls-1" d="M267.94,88.81A16.83,16.83,0,0,1,262.52,92a17.45,17.45,0,0,1-5.7,1c-2.84,0-4.89-.63-6.15-1.91s-1.66-3.15-1.24-5.59a8.79,8.79,0,0,1,3.49-5.8q2.82-2.07,8.31-2.49l8.88-.66Zm22.51-39.12A14.29,14.29,0,0,0,282.19,41q-6.13-2.66-16.89-2.65a92,92,0,0,0-11,.72,80,80,0,0,0-10.75,2L241,55.54a64.51,64.51,0,0,1,9.39-2,68.7,68.7,0,0,1,8.91-.65,26,26,0,0,1,8.6,1.11,6.43,6.43,0,0,1,4,3.69c.68,1.72.75,4.11.22,7.15l-.16.83-10.85.91q-14.31.89-21.81,6.06a21.49,21.49,0,0,0-9.15,14.59,17.58,17.58,0,0,0,.79,10,13.29,13.29,0,0,0,6.18,6.67,22.92,22.92,0,0,0,11,2.37,28.2,28.2,0,0,0,10.36-1.89,22.21,22.21,0,0,0,8.41-5.79h.91l.17,6.48h15.86l6.88-39q1.81-10.33-.3-16.37"/><path class="cls-1" d="M345.51,56.33a30.87,30.87,0,0,0-6.39-.54,25.27,25.27,0,0,0-8.88,1.68,19.07,19.07,0,0,0-7.3,4.62l-7.59,43H296.14l11.58-65.69h15.67v8.47h.9a22.5,22.5,0,0,1,8.45-7,24.64,24.64,0,0,1,10.62-2.31,25.75,25.75,0,0,1,5.2.47Z"/><polygon class="cls-1" points="399.92 39.4 420.4 39.4 393.93 70.98 410.92 105.08 390.02 105.08 376.66 79.03 368.98 79.03 364.38 105.08 345.16 105.08 362.27 8.05 381.49 8.05 371.68 63.65 379.25 63.65 399.92 39.4"/><path class="cls-1" d="M459.5,66.72h-22q1.73-8.78,5.15-12.49a11.45,11.45,0,0,1,8.88-3.73c3.61,0,6.07,1.24,7.39,3.69s1.54,6.64.62,12.53m14-19.55q-5.75-8.79-19.67-8.8a37,37,0,0,0-17.26,3.91,32.5,32.5,0,0,0-12.45,11.49,49.26,49.26,0,0,0-6.82,18.41q-2.11,12,.41,19.51a18.46,18.46,0,0,0,9.84,11.08q7.34,3.57,19.88,3.58a90.51,90.51,0,0,0,19.66-2.23l2.54-14.35a78.92,78.92,0,0,1-16.95,2.1,35.31,35.31,0,0,1-11.05-1.35,8.6,8.6,0,0,1-5.32-4.38c-.94-2-1.21-4.79-.79-8.32h39.88l.89-5q3-16.81-2.79-25.61"/><path class="cls-1" d="M533.81,39.4l-2.66,15.13H513.91l-4.26,24.13a17.42,17.42,0,0,0-.12,7,5.42,5.42,0,0,0,2.77,3.69,13,13,0,0,0,6,1.11,44.26,44.26,0,0,0,7-.78l-2.68,15.19a57.82,57.82,0,0,1-12.37,1.38q-12.13,0-17.35-6t-3-18.61l4.78-27.14H484l2.66-15.13h10.69l7.57-23.18h15.74L516.58,39.4Z"/><path class="cls-1" d="M587.58,54.47a60.9,60.9,0,0,0-16.68-2.16q-13.7,0-14.86,6.6a4.07,4.07,0,0,0,.74,3.48,7.28,7.28,0,0,0,4.2,1.92l10.29,1.93q8.82,1.74,12.4,6.15t2.09,12.82a22.13,22.13,0,0,1-5.45,11.28,27.52,27.52,0,0,1-11.37,7.3,48.1,48.1,0,0,1-16.33,2.55A66.61,66.61,0,0,1,532,103.46l2.47-14a66.38,66.38,0,0,0,20.26,2.94c4.16,0,7.28-.55,9.33-1.65a6.64,6.64,0,0,0,3.65-4.83,4.32,4.32,0,0,0-.67-3.72q-1.1-1.26-4.28-1.93L552.5,78.3q-8.88-1.68-12.33-6.33c-2.29-3.1-3-7.3-2-12.58a22,22,0,0,1,5.39-11.14A27.48,27.48,0,0,1,555.16,41a53.8,53.8,0,0,1,17.66-2.58,79.16,79.16,0,0,1,9.18.53,58.52,58.52,0,0,1,8,1.51Z"/><path class="cls-2" d="M638.45,121.35C606.09,99.5,597,40.85,651.39,17.79c-21.64,16-39.64,45.2-11.73,82.12,19-12.74,54.21-35,78.28-95.27-1,10.11-1.82,58.35-79.49,116.71"/><path class="cls-1" d="M649.48,127.72c28.21,13.65,87.07.3,85.85-55.93-7.33,31.82-28.92,45.1-54.4,45.72,12.74-19,47.73-54.21,37.82-111.25-4.86,59.87-40.86,91.62-69.27,121.46"/><path class="cls-1" d="M295.3,116.12h20.44l-.61,3.46H298.76L296.39,133h15.1l-.6,3.45H295.78l-2.94,16.73h-4.07Z"/><path class="cls-1" d="M324.65,153.63q-5.53,0-7.76-3.55t-1-10.42q1.22-6.85,4.71-10.44a12,12,0,0,1,9-3.58q5.49,0,7.71,3.58t1,10.44c-.8,4.57-2.37,8.05-4.68,10.42A12,12,0,0,1,324.65,153.63Zm.58-3.25a7.28,7.28,0,0,0,5.86-2.56q2.16-2.55,3.14-8.16c.66-3.74.57-6.46-.29-8.16s-2.49-2.56-4.94-2.56a7.27,7.27,0,0,0-5.86,2.56c-1.44,1.7-2.48,4.42-3.14,8.16s-.57,6.46.26,8.16S322.75,150.38,325.23,150.38Z"/><path class="cls-1" d="M347.06,126.14h3.35l-.29,3.4h.25a38.74,38.74,0,0,1,4.18-2.2,25.43,25.43,0,0,1,4.79-1.65h1.07l-.71,4h-1.52a26.66,26.66,0,0,0-4.44,1.08A19.26,19.26,0,0,0,350,132.5l-3.64,20.68h-4Z"/><path class="cls-1" d="M370.23,153.63q-5.55,0-7.83-3.48t-1.13-10q1.25-7.06,4.72-10.74a11.73,11.73,0,0,1,9-3.68q4.57,0,6.34,3c1.17,2,1.42,4.93.73,8.84-.15.83-.3,1.52-.44,2.07s-.3,1.08-.46,1.58h-16q-.59,4.76.88,7c1,1.48,2.68,2.23,5.13,2.23a22.46,22.46,0,0,0,7.58-1.51l-.31,3.21a23.68,23.68,0,0,1-4,1.13A22,22,0,0,1,370.23,153.63Zm4.06-24.79q-6.41,0-8.61,9.32h12.51c.52-3.31.46-5.69-.16-7.14A3.67,3.67,0,0,0,374.29,128.84Z"/><path class="cls-1" d="M383.14,152.78l11.6-13.62-6.45-12.72,0-.3h4.27l4.32,9,.88,2h.25l1.47-2,7.42-9h4.27l-.05.3-11,13L407,152.78l-.07.4H402.7l-4.64-9.77-.92-2h-.25l-1.58,2-8,9.77h-4.27Z"/><path class="cls-1" d="M435.55,153.73a15,15,0,0,1-5-.75,9,9,0,0,1-3.49-2.15,7.36,7.36,0,0,1-1.84-3.41,11.21,11.21,0,0,1,0-4.56,12.2,12.2,0,0,1,7.8-9.66,10,10,0,0,1-1.3-3.73,14.65,14.65,0,0,1,.17-4.28,11.3,11.3,0,0,1,3.94-7.21,12.81,12.81,0,0,1,8.19-2.46,17.62,17.62,0,0,1,3.79.43,23,23,0,0,1,4.13,1.38l0,.25-1.17,2.85h-.3a16.59,16.59,0,0,0-6.73-1.65q-6.7,0-7.9,6.76a10,10,0,0,0-.06,3.35,8.06,8.06,0,0,0,1.17,3,15.1,15.1,0,0,0,2.51,2.93,42.75,42.75,0,0,0,3.9,3.13l4.61,3.25c.27-.77.52-1.57.74-2.43s.41-1.76.58-2.73l.61-3.45,3.69-.15-.64,3.6a35.09,35.09,0,0,1-.88,3.84,30.55,30.55,0,0,1-1.2,3.38l3.49,2.4-.06.3-2.09,2.95h-.36l-2.88-2.1Q444.35,153.74,435.55,153.73ZM441,141q-2.07-1.5-3.62-2.83a22.61,22.61,0,0,1-2.64-2.63,9.4,9.4,0,0,0-5.47,7.11c-.42,2.41,0,4.31,1.26,5.71s3.19,2.11,5.8,2.11a10.83,10.83,0,0,0,9.94-5.61Z"/><path class="cls-1" d="M485.54,153.68q-8.19,0-11.26-4.66t-1.36-14.32a37.76,37.76,0,0,1,2.45-8.56,18.72,18.72,0,0,1,3.94-5.94,14.73,14.73,0,0,1,5.56-3.43,22.53,22.53,0,0,1,7.32-1.1,28.38,28.38,0,0,1,3.07.18c1.1.12,2.22.27,3.37.47l-.6,3.41c-.95-.17-1.95-.3-3-.4s-2-.15-3-.15a18,18,0,0,0-5.72.82,10.79,10.79,0,0,0-4.28,2.68,14.75,14.75,0,0,0-3,4.81,36.06,36.06,0,0,0-2,7.21,29.56,29.56,0,0,0-.53,7,10.84,10.84,0,0,0,1.31,4.81,6.57,6.57,0,0,0,3.23,2.75,13.82,13.82,0,0,0,5.26.88c.37,0,.83,0,1.38-.05l1.7-.13c.59-.05,1.16-.12,1.74-.2s1.11-.18,1.6-.28l-.59,3.36a18.87,18.87,0,0,1-3.11.6A31.22,31.22,0,0,1,485.54,153.68Z"/><path class="cls-1" d="M504.77,116.12h20.45l-.61,3.46H508.23L505.87,133H521l-.61,3.45h-15.1l-2.95,16.73h-4.07Z"/><path class="cls-1" d="M532.07,153.88c-1.32,0-2.61,0-3.85-.12s-2.42-.21-3.54-.38l6.53-37c1.77-.26,3.42-.46,4.95-.57s2.89-.18,4.08-.18c5.89,0,9.94,1.54,12.12,4.61s2.71,7.9,1.55,14.47a34.45,34.45,0,0,1-2.6,8.67,18.24,18.24,0,0,1-4.38,6,16.86,16.86,0,0,1-6.35,3.45A29.94,29.94,0,0,1,532.07,153.88Zm1.72-3.45q6.76,0,10.61-3.76t5.29-12a30.81,30.81,0,0,0,.54-7.11,10.52,10.52,0,0,0-1.36-4.86A6.79,6.79,0,0,0,545.5,120a15.18,15.18,0,0,0-5.52-.87c-.85,0-1.72,0-2.63.1s-1.79.17-2.62.3l-5.41,30.65c.9.1,1.69.17,2.38.22S533.08,150.43,533.79,150.43Z"/><path class="cls-1" d="M563.47,153.73a21.91,21.91,0,0,1-3.36-.27c-1.15-.19-2.54-.46-4.17-.83l.57-3.26a31.89,31.89,0,0,0,3.69.88,20.59,20.59,0,0,0,3.63.33,6.66,6.66,0,0,0,4.17-1.21,5.2,5.2,0,0,0,2-3.4,3.59,3.59,0,0,0-.66-3.21,6.52,6.52,0,0,0-3.27-1.65c-.84-.2-1.7-.42-2.57-.67a6.65,6.65,0,0,1-2.31-1.18,4.66,4.66,0,0,1-1.49-2.23,8,8,0,0,1-.06-3.83,8.64,8.64,0,0,1,3.3-5.63,10.89,10.89,0,0,1,6.79-2,25.1,25.1,0,0,1,2.9.17c.94.12,2.18.35,3.72.68l-.68,3.25c-1.4-.33-2.53-.56-3.41-.7a17.21,17.21,0,0,0-2.53-.2,7.35,7.35,0,0,0-4.25,1.15,4.76,4.76,0,0,0-2,3.21,4.31,4.31,0,0,0,0,2.05,2.74,2.74,0,0,0,.89,1.3,4.78,4.78,0,0,0,1.54.81c.61.2,1.25.4,1.93.6a17,17,0,0,1,2.83,1,6.66,6.66,0,0,1,2.1,1.48,4.83,4.83,0,0,1,1.14,2.2,8.34,8.34,0,0,1,0,3.26,9,9,0,0,1-3.45,5.83A11.14,11.14,0,0,1,563.47,153.73Z"/></svg>