<?xml version="1.0" encoding="UTF-8"?><svg id="Layer_2" xmlns="http://www.w3.org/2000/svg" xmlns:xlink="http://www.w3.org/1999/xlink" viewBox="0 0 84.13 84.13"><defs><style>.cls-1{fill:#fff;}.cls-2{fill:#e71f2b;}.cls-3{fill:#cccbca;}.cls-4{clip-path:url(#clippath);}.cls-5{fill:none;}.cls-6{fill:#2d328f;}.cls-7{fill:#e81d2a;}</style><clipPath id="clippath"><path class="cls-5" d="m83.1,42.06c0,22.66-18.37,41.04-41.04,41.04S1.03,64.73,1.03,42.06,19.4,1.03,42.06,1.03s41.04,18.37,41.04,41.04Z"/></clipPath></defs><g id="Layer_1-2"><path class="cls-3" d="m84.13,42.06c0,23.23-18.83,42.06-42.06,42.06S0,65.3,0,42.06,18.83,0,42.06,0s42.06,18.83,42.06,42.06Z"/><g class="cls-4"><polyline class="cls-6" points="1.03 1.04 124.14 1.04 124.14 83.11 1.03 83.11"/><polygon class="cls-1" points="62.58 1.04 55.18 1.04 31.8 16.63 8.42 1.04 1.03 1.04 1.03 5.97 24.41 21.56 1.03 37.15 1.03 42.08 8.42 42.08 31.8 26.49 55.18 42.08 62.58 42.08 62.58 37.15 39.2 21.56 62.58 5.97 62.58 1.04"/><polygon class="cls-7" points="1.03 1.04 1.03 3.51 31.8 24.03 31.8 21.56 1.03 1.04"/><polygon class="cls-7" points="62.58 39.61 31.8 19.09 31.8 21.56 62.58 42.08 62.58 39.61"/><polygon class="cls-7" points="1.03 42.08 4.72 42.08 31.8 24.03 31.8 21.56 1.03 42.08"/><polygon class="cls-7" points="58.88 1.04 31.8 19.1 31.8 21.56 62.58 1.04 58.88 1.04"/><polygon class="cls-2" points="62.58 17.97 34.37 17.97 34.37 1.04 29.24 1.04 29.24 17.97 1.03 17.97 1.03 25.15 29.24 25.15 29.24 42.08 34.37 42.08 34.37 25.15 62.58 25.15 62.58 17.97"/><polygon class="cls-1" points="27.18 1.04 27.18 15.92 1.03 15.92 1.03 17.97 29.24 17.97 29.24 1.04 27.18 1.04"/><polygon class="cls-1" points="1.03 27.2 27.18 27.2 27.18 42.08 29.24 42.08 29.24 25.15 1.03 25.15 1.03 27.2"/><polygon class="cls-1" points="62.58 25.15 34.37 25.15 34.37 42.08 36.42 42.08 36.42 27.2 62.58 27.2 62.58 25.15"/><polygon class="cls-1" points="62.58 15.92 36.42 15.92 36.42 1.04 34.37 1.04 34.37 17.97 62.58 17.97 62.58 15.92"/><path class="cls-1" d="m43.46,65.85s0-.07-.04-.08l-6.37-3.77,4.1-6.16s.02-.06,0-.09c-.03-.03-.06-.04-.09-.02l-6.93,2.62-2.26-7.04c-.02-.06-.13-.06-.15,0l-2.27,7.04-6.92-2.62s-.07,0-.09.02c-.02.03-.02.06,0,.09l4.1,6.16-6.37,3.77s-.04.05-.04.08c0,.03.04.06.07.06l7.37.64-1.02,7.33s.01.06.05.08c.03.01.06.01.09-.01l5.1-5.37,5.1,5.37s.04.02.06.02c.01,0,.02,0,.03-.01.03-.01.05-.05.05-.08l-1.02-7.33,7.37-.64s.06-.02.07-.06Z"/><path class="cls-1" d="m77.73,36.99l1.86-2.81s.02-.06,0-.09c-.02-.03-.06-.04-.09-.02l-3.15,1.19-1.03-3.21c-.02-.06-.13-.06-.15,0l-1.03,3.21-3.15-1.19s-.07,0-.09.02c-.02.03-.02.06,0,.09l1.86,2.81-2.89,1.72s-.04.05-.04.08c0,.03.04.06.07.06l3.35.29-.46,3.34s.01.07.05.08c.03.01.06,0,.09-.02l2.32-2.44,2.32,2.44s.04.02.06.02c.01,0,.02,0,.03,0,.03-.01.05-.05.05-.08l-.46-3.34,3.35-.29s.06-.03.07-.06c0-.03,0-.07-.04-.08l-2.9-1.72Z"/></g></g></svg>