<?xml version="1.0" encoding="UTF-8"?><svg id="Layer_2" xmlns="http://www.w3.org/2000/svg" xmlns:xlink="http://www.w3.org/1999/xlink" viewBox="0 0 123.11 84.13"><defs><style>.cls-1{fill:#fff;}.cls-2{fill:#253370;}.cls-3{fill:#03a94e;}.cls-4{fill:#cccbca;}.cls-5{clip-path:url(#clippath);}.cls-6{fill:none;}.cls-7{fill:#fbde2f;}.cls-8{fill:#01a950;}</style><clipPath id="clippath"><path class="cls-6" d="m102.55,42.06c0,22.66-18.37,41.03-41.04,41.03s-41.04-18.37-41.04-41.03S38.85,1.03,61.51,1.03s41.04,18.37,41.04,41.04Z"/></clipPath></defs><g id="Layer_1-2"><path class="cls-4" d="m103.57,42.06c0,23.23-18.83,42.06-42.06,42.06s-42.06-18.83-42.06-42.06S38.28,0,61.51,0s42.06,18.83,42.06,42.06Z"/><g class="cls-5"><rect class="cls-8" y="1.03" width="123.11" height="82.07"/><path class="cls-7" d="m112.72,41.83L61.71,9.26c-.09-.06-.22-.06-.31,0L10.39,41.83c-.08.05-.14.14-.14.24s.05.19.14.24l51.01,32.57s.1.04.16.04c.05,0,.11-.01.16-.04l51.01-32.57c.08-.05.13-.14.13-.24s-.05-.19-.13-.24Z"/><path class="cls-2" d="m49.83,36.21c-2.78,0-5.5.24-8.14.71-.43,1.65-.65,3.38-.65,5.16,0,11.33,9.19,20.52,20.52,20.52,9.2,0,16.98-6.05,19.59-14.39-8.3-7.45-19.28-11.99-31.31-11.99Z"/><path class="cls-1" d="m49.83,36.21c12.01,0,22.97,4.52,31.27,11.95.33-1.05.6-2.12.76-3.23-8.66-7.27-19.83-11.66-32.02-11.66-2.38,0-4.74.17-7.03.5-.45,1-.79,2.06-1.07,3.13,2.63-.46,5.34-.7,8.1-.7Z"/><path class="cls-2" d="m49.83,33.28c12.2,0,23.38,4.39,32.04,11.67.13-.94.21-1.9.21-2.87,0-11.33-9.19-20.52-20.52-20.52-8.38,0-15.58,5.03-18.76,12.22,2.3-.33,4.65-.5,7.04-.5Z"/><polygon class="cls-3" points="51 35.32 51.02 34.88 52.13 34.92 52.14 34.52 51.03 34.49 51.04 34.15 52.38 34.2 52.39 33.78 50.67 33.72 50.6 35.73 52.41 35.79 52.42 35.37 51 35.32"/><polygon class="cls-3" points="54.06 35.19 53.8 33.91 53.8 33.9 53.26 33.85 53.09 35.82 53.09 35.85 53.48 35.88 53.58 34.72 53.82 35.91 54.17 35.94 54.61 34.8 54.51 35.95 54.51 35.97 54.89 36.01 55.07 34.03 55.07 34.01 54.54 33.96 54.06 35.19"/><polygon class="cls-3" points="57.67 35.52 58.58 35.67 58.64 35.29 57.74 35.13 57.78 34.89 58.86 35.07 58.92 34.69 57.48 34.44 57.46 34.43 57.16 36.19 57.15 36.22 58.62 36.48 58.65 36.48 58.72 36.09 57.6 35.9 57.67 35.52"/><path class="cls-3" d="m75.55,42.4c.19.19.36.35.28.48-.06.1-.22.08-.43-.05-.14-.09-.24-.2-.26-.3-.01-.06,0-.11.03-.16v-.03s-.4-.27-.4-.27v.02c-.1.13-.12.27-.09.41.06.26.29.49.5.62.16.1.4.22.63.22.2,0,.36-.09.47-.27.23-.36-.11-.7-.39-.96-.18-.17-.33-.32-.27-.41.04-.06.08-.09.15-.09.08,0,.18.05.25.1.12.08.31.24.19.43v.02s.39.26.39.26l.02-.03c.09-.13.12-.28.09-.42-.05-.22-.23-.4-.39-.5l-.03-.02c-.14-.09-.4-.26-.66-.26-.19,0-.34.09-.45.26-.23.35.09.67.36.93Z"/><polygon class="cls-3" points="72.38 41.46 73.93 42.34 73.96 42.35 74.16 41.99 72.93 41.29 73.15 40.9 74.09 41.43 74.12 41.45 74.31 41.11 73.34 40.56 73.5 40.27 74.64 40.91 74.67 40.93 74.88 40.56 73.39 39.72 73.37 39.71 72.39 41.43 72.38 41.46"/><path class="cls-3" d="m78.31,44.56c.25-.35-.08-.7-.34-.98-.17-.18-.31-.33-.25-.42.05-.06.09-.09.15-.09.06,0,.14.04.25.12.12.08.2.18.21.27,0,.06,0,.11-.05.16v.02s.35.26.35.26l.02.02.02-.02c.1-.13.14-.28.11-.42-.04-.22-.21-.41-.36-.52l-.03-.02c-.14-.1-.41-.29-.67-.29-.17,0-.32.08-.44.24-.24.34.06.68.31.95.18.2.34.37.26.49-.03.04-.07.06-.12.06-.08,0-.18-.05-.3-.13-.11-.08-.19-.16-.22-.24-.04-.09-.03-.16.02-.23v-.02s-.39-.29-.39-.29l-.02.02c-.09.12-.12.26-.1.41.04.26.27.5.46.64.17.12.41.26.65.26.18,0,.34-.09.46-.25Z"/><path class="cls-3" d="m44.06,36.11h0s.07,0,.1,0c.5-.06.84-.56.78-1.11-.07-.51-.46-.89-.93-.89-.03,0-.06,0-.1,0-.24.03-.46.16-.6.37-.15.21-.21.47-.18.74.06.51.46.89.92.89Zm-.49-1c0-.15.04-.29.12-.39.08-.12.21-.17.35-.17.33,0,.47.29.47.57,0,.15-.04.29-.12.39-.08.12-.21.18-.35.18-.33,0-.47-.29-.47-.57Z"/><path class="cls-3" d="m80.72,44.89c-.06-.25-.22-.45-.44-.56-.12-.06-.25-.1-.38-.1-.36,0-.7.23-.88.57-.12.24-.16.51-.09.75.07.25.22.45.44.56.12.06.25.09.38.09.36,0,.71-.22.88-.57.12-.24.16-.5.09-.75Zm-.41.4c-.08.28-.33.48-.56.48-.09,0-.17-.02-.24-.08-.18-.12-.24-.31-.17-.54.08-.27.33-.48.56-.48.08,0,.17.03.24.08.17.12.23.31.17.53Z"/><path class="cls-3" d="m49.93,34.79v-.05c0-.15,0-.34-.15-.6-.22-.36-.65-.37-.68-.38l-1.01.02.04,1.98v.02h.03c.08,0,.78,0,.98-.02.24-.03.48-.16.63-.36.17-.22.16-.47.16-.62Zm-.86-.6c.27,0,.38.19.45.34.02.14.02.21.03.32v.02c-.02.16-.07.27-.17.36-.2.13-.29.13-.42.13s-.34,0-.41,0c0-.16-.02-.92-.02-1.17.38,0,.39,0,.55,0Z"/><path class="cls-3" d="m47.12,34.98c.06-.05.2-.2.25-.42.06-.26-.11-.47-.18-.53h0c-.07-.08-.2-.2-.39-.2h-.02c-.2.01-1.19.08-1.2.08h-.03s.11,2.01.11,2.01l.42-.03-.05-.72.74-.05c.04.06.18.33.2.49.01.11.01.21.01.21v.03h.41v-.03s.01-.36-.09-.57c-.07-.15-.13-.23-.17-.27Zm-.67-.71s.06,0,.07,0c.1,0,.21-.01.21-.01,0,0,.07,0,.14.07,0,0,.07.05.06.14,0,.1-.06.18-.08.19-.06.05-.22.06-.28.06l-.58.04-.03-.45c.1,0,.36-.02.48-.04Z"/><path class="cls-3" d="m66.58,38.77c.06.01.11.02.17.02.43,0,.82-.34.92-.82.11-.54-.19-1.07-.68-1.17-.06-.01-.11-.01-.17-.01-.44,0-.83.34-.93.81-.05.26-.01.53.11.75.13.22.33.37.57.42Zm-.27-1.01c.04-.26.23-.53.51-.53.05,0,.1,0,.15.02.27.09.33.35.29.57-.04.25-.24.53-.51.53-.05,0-.1,0-.15-.02-.27-.09-.33-.35-.29-.57Z"/><path class="cls-3" d="m64.8,37.28c.07-.03.26-.13.37-.31.14-.23.06-.48.01-.56h0c-.05-.1-.13-.26-.33-.32-.19-.06-1.14-.31-1.16-.32h-.03s-.54,1.9-.54,1.9v.03s.4.11.4.11l.19-.7.71.19c.01.07.07.36.03.53-.03.11-.06.2-.06.2v.03s.37.13.37.13v-.03s.14-.33.11-.57c-.02-.17-.05-.27-.07-.31Zm-.87-1.02c.11.03.38.1.49.13.03,0,.04.01.04.01.09.03.2.05.2.05,0,0,.07.03.11.11,0,0,.05.07.01.16-.03.09-.11.14-.14.15-.01,0-.03,0-.06,0-.1,0-.22-.04-.22-.04l-.56-.15c.02-.07.08-.3.11-.43Z"/><path class="cls-3" d="m71.54,40.69c-.04.11-.09.19-.09.19v.02s.35.19.35.19v-.02s.19-.31.19-.55c.01-.17,0-.27-.02-.31.07-.02.28-.09.41-.25.17-.21.12-.47.09-.55v-.02c-.04-.09-.1-.27-.28-.35-.18-.09-1.09-.48-1.1-.49h-.03s-.83,1.79-.83,1.79v.02s.37.17.37.17l.29-.66.67.3c0,.07.01.37-.05.52Zm.16-1.42s.07.03.07.03c.08.04.19.08.19.08,0,0,.06.04.1.13,0,0,.04.08-.01.16-.04.08-.13.12-.16.13-.01,0-.02,0-.02,0-.1,0-.25-.08-.25-.08l-.53-.24.18-.41c.09.04.31.14.43.19Z"/><path class="cls-3" d="m62.75,35.66c-.05-.08-.14-.24-.33-.3-.2-.05-1.16-.29-1.17-.29h-.03s-.5,1.94-.5,1.94l.41.1.17-.7.73.18s.07.02.16.02c.07,0,.13-.01.18-.03.01,0,.26-.11.39-.34.13-.23.04-.48,0-.56h0Zm-1.25-.1c.11.03.36.09.48.12.03,0,.05.01.05.01.1.02.2.05.2.05,0,0,.07.03.12.11,0,.01.05.08.02.16-.03.09-.11.15-.14.16-.02,0-.04,0-.07,0-.09,0-.21-.03-.21-.03l-.56-.14c.01-.08.07-.3.1-.43Z"/><path class="cls-3" d="m69.25,39.66l-.08.19v.02s.3.13.3.13l.28-.64.08.04.13-.31-.07-.03h0s-.03-.02-.03-.02c-.04-.01-.07-.03-.11-.05l-.08-.04s-.09-.04-.14-.05l-.31-.13-.13.31.18.08c-.09.07-.2.11-.3.11-.09,0-.17-.03-.24-.08-.17-.12-.23-.31-.17-.53.08-.28.33-.48.56-.48.08,0,.17.02.24.08.12.08.18.19.19.33v.02s.02,0,.02,0c.04.02.08.03.12.04.04.01.09.03.13.05l.14.07v-.04c.03-.38-.15-.73-.46-.89-.12-.06-.24-.09-.38-.09-.36,0-.71.22-.88.57-.25.49-.1,1.08.34,1.31.12.06.25.09.38.09.1,0,.19-.01.28-.04Z"/><polygon class="cls-1" points="67.5 35.17 67.99 34.81 68.48 35.17 68.29 34.59 68.77 34.24 68.17 34.24 67.99 33.67 67.8 34.24 67.2 34.24 67.69 34.59 67.5 35.17"/><polygon class="cls-1" points="45.34 38.09 44.63 38.09 44.42 37.42 44.2 38.09 43.5 38.09 44.06 38.5 43.84 39.17 44.42 38.76 44.98 39.17 44.77 38.5 45.34 38.09"/><polygon class="cls-1" points="67.33 41.61 67.18 41.13 67.02 41.61 66.51 41.61 66.92 41.91 66.77 42.39 67.18 42.1 67.59 42.39 67.43 41.91 67.84 41.61 67.33 41.61"/><polygon class="cls-1" points="48.72 44.86 48.62 44.55 48.51 44.86 48.17 44.86 48.45 45.05 48.34 45.38 48.62 45.18 48.89 45.38 48.78 45.06 49.05 44.86 48.72 44.86"/><polygon class="cls-1" points="46.45 46.71 46.26 46.13 46.23 46.13 46.23 46.13 46.2 46.13 46.01 46.71 45.31 46.71 45.88 47.13 45.66 47.8 46.23 47.38 46.8 47.8 46.58 47.13 47.15 46.71 46.45 46.71"/><polygon class="cls-1" points="44.29 48.6 44.11 48.03 43.92 48.6 43.33 48.6 43.81 48.95 43.63 49.52 44.11 49.17 44.59 49.52 44.41 48.95 44.89 48.6 44.29 48.6"/><polygon class="cls-1" points="53.54 43.42 53.36 42.87 53.18 43.42 52.59 43.42 53.07 43.77 52.89 44.33 53.36 43.98 53.83 44.33 53.65 43.77 54.13 43.42 53.54 43.42"/><polygon class="cls-1" points="51.11 49.16 50.94 48.64 50.77 49.16 50.22 49.16 50.67 49.48 50.5 50 50.94 49.68 51.38 50 51.21 49.48 51.66 49.16 51.11 49.16"/><polygon class="cls-1" points="50.47 51.7 50.31 51.21 50.16 51.7 49.65 51.7 50.06 52 49.9 52.48 50.31 52.18 50.72 52.48 50.56 52 50.97 51.7 50.47 51.7"/><polygon class="cls-1" points="53.55 53.33 53.34 52.66 53.12 53.33 52.42 53.33 52.99 53.75 52.77 54.42 53.34 54 53.91 54.42 53.69 53.75 54.26 53.33 53.55 53.33"/><polygon class="cls-1" points="61.56 43.83 61.37 44.4 60.77 44.4 61.26 44.76 61.07 45.33 61.56 44.98 62.04 45.33 61.86 44.76 62.34 44.4 61.74 44.4 61.56 43.83"/><polygon class="cls-1" points="60.15 46.25 59.64 46.25 59.48 45.77 59.33 46.25 58.82 46.25 59.23 46.55 59.07 47.03 59.48 46.73 59.89 47.03 59.74 46.55 60.15 46.25"/><polygon class="cls-1" points="60.51 48.37 60.78 48.57 60.68 48.25 60.95 48.05 60.61 48.05 60.51 47.74 60.41 48.05 60.07 48.05 60.34 48.25 60.24 48.57 60.51 48.37"/><polygon class="cls-1" points="64.11 46.59 63.93 46.02 63.74 46.59 63.14 46.59 63.63 46.94 63.44 47.51 63.93 47.16 64.42 47.51 64.23 46.94 64.72 46.59 64.11 46.59"/><polygon class="cls-1" points="61.17 50.41 60.95 51.08 60.25 51.08 60.81 51.49 60.59 52.16 61.17 51.75 61.74 52.16 61.52 51.49 62.09 51.08 61.38 51.08 61.17 50.41"/><polygon class="cls-1" points="61.63 58.79 61.54 58.53 61.46 58.79 61.19 58.79 61.41 58.95 61.33 59.21 61.54 59.05 61.77 59.21 61.68 58.95 61.9 58.79 61.63 58.79"/><polygon class="cls-1" points="65.84 53.37 65.68 52.89 65.53 53.37 65.02 53.37 65.43 53.67 65.27 54.16 65.68 53.85 66.09 54.16 65.94 53.67 66.35 53.37 65.84 53.37"/><polygon class="cls-1" points="67.49 55.63 67.3 55.05 67.11 55.63 66.51 55.63 67 55.98 66.81 56.55 67.3 56.2 67.78 56.55 67.6 55.98 68.08 55.63 67.49 55.63"/><polygon class="cls-1" points="69.62 53.45 69.47 52.96 69.31 53.45 68.8 53.45 69.21 53.75 69.06 54.23 69.47 53.93 69.88 54.23 69.72 53.75 70.13 53.45 69.62 53.45"/><polygon class="cls-1" points="71.91 53.55 71.75 53.07 71.59 53.55 71.08 53.55 71.49 53.85 71.34 54.33 71.75 54.03 72.16 54.33 72 53.85 72.41 53.55 71.91 53.55"/><polygon class="cls-1" points="71.8 54.92 71.62 55.49 71.01 55.49 71.5 55.84 71.31 56.42 71.8 56.06 72.29 56.42 72.1 55.84 72.59 55.49 71.98 55.49 71.8 54.92"/><polygon class="cls-1" points="72 57.63 71.85 57.15 71.69 57.63 71.18 57.63 71.59 57.93 71.44 58.42 71.85 58.11 72.26 58.42 72.1 57.93 72.51 57.63 72 57.63"/><polygon class="cls-1" points="74.05 53.92 73.89 53.43 73.74 53.92 73.23 53.92 73.64 54.22 73.48 54.7 73.89 54.4 74.3 54.7 74.15 54.22 74.56 53.92 74.05 53.92"/><polygon class="cls-1" points="75.72 52.85 75.53 52.28 75.35 52.85 74.84 52.85 74.84 52.87 74.81 52.9 75.23 53.21 75.05 53.78 75.53 53.43 76.02 53.78 75.83 53.21 76.32 52.85 75.72 52.85"/><polygon class="cls-1" points="76.56 50.86 76.38 50.29 76.19 50.86 75.59 50.86 76.08 51.21 75.89 51.79 76.38 51.43 76.86 51.79 76.68 51.21 77.16 50.86 76.56 50.86"/><polygon class="cls-1" points="75.15 49.63 75.71 50.05 75.5 49.37 76.07 48.96 75.37 48.96 75.15 48.29 74.93 48.96 74.23 48.96 74.8 49.37 74.58 50.05 75.15 49.63"/><polygon class="cls-1" points="78.57 49.27 78.41 48.79 78.26 49.27 77.75 49.27 78.16 49.57 78 50.05 78.41 49.75 78.82 50.05 78.67 49.57 79.08 49.27 78.57 49.27"/></g></g></svg>