<?xml version="1.0" encoding="UTF-8"?><svg id="Layer_2" xmlns="http://www.w3.org/2000/svg" xmlns:xlink="http://www.w3.org/1999/xlink" viewBox="0 0 123.11 84.13"><defs><style>.cls-1{fill:#fff;}.cls-2{fill:#ec1c24;}.cls-3{fill:#cccbca;}.cls-4{clip-path:url(#clippath);}.cls-5{fill:none;}</style><clipPath id="clippath"><path class="cls-5" d="m102.58,42.06c0,22.66-18.37,41.04-41.03,41.04s-41.04-18.37-41.04-41.04S38.88,1.02,61.55,1.02s41.03,18.37,41.03,41.04Z"/></clipPath></defs><g id="Layer_1-2"><path class="cls-3" d="m103.61,42.06c0,23.23-18.83,42.06-42.06,42.06s-42.06-18.83-42.06-42.06S38.31,0,61.55,0s42.06,18.83,42.06,42.06Z"/><g class="cls-4"><rect class="cls-2" y="1.03" width="30.78" height="82.08"/><rect class="cls-1" x="30.77" y="1.03" width="61.56" height="82.08"/><rect class="cls-2" x="92.33" y="1.03" width="30.78" height="82.08"/><path class="cls-2" d="m73.85,51.54l11.2-9.1c.07-.06.11-.16.1-.25-.01-.1-.07-.18-.16-.22l-2.34-1.1c-.63-.22-.63-.39-.3-1.58.04-.12.07-.26.11-.4l1.71-6.22c.03-.09,0-.19-.07-.27-.07-.07-.17-.1-.26-.08l-6.49,1.36c-.5.08-.78-.26-.84-.49l-.83-2.93c-.03-.1-.11-.17-.21-.19-.1-.02-.21,0-.27.08l-5.15,5.77c-.35.44-.94.63-1.18.33-.11-.13-.26-.48-.08-1.31l2.2-11.67c.02-.11-.02-.22-.11-.28-.09-.06-.2-.07-.3-.02l-2.96,1.53c-.36.2-.69.3-.96.3-.34,0-.59-.16-.77-.48l-4.08-7.6c-.1-.18-.4-.18-.5,0l-4.06,7.59c-.34.59-.93.63-1.75.18l-2.94-1.53c-.1-.05-.21-.04-.3.02-.09.06-.13.17-.11.28l2.2,11.67c.18.82.02,1.17-.08,1.3-.24.3-.82.12-1.18-.34l-5.15-5.76c-.07-.08-.17-.11-.27-.08-.1.02-.18.1-.21.19l-.83,2.93c-.05.2-.28.49-.69.49-.05,0-.1,0-.13-.01l-6.5-1.37c-.1-.02-.2.01-.27.08-.07.07-.09.18-.07.27l1.71,6.21c.04.14.07.28.11.4.33,1.19.33,1.35-.33,1.59l-2.32,1.09c-.09.04-.15.13-.16.22-.01.1.03.19.1.25l11.2,9.11c.37.28.53.78.41,1.22l-.98,3.21c-.03.09-.01.19.05.27.06.07.15.11.25.1,1.82-.21,3.59-.48,5.29-.73,1.89-.29,3.84-.58,5.87-.8.05,0,.19.06.35.22.16.16.25.33.25.41l-.51,11.78c0,.08.02.15.08.21.05.06.12.08.21.08h1.87c.07,0,.14-.03.2-.08.05-.05.08-.13.08-.21l-.29-11.75c0-.11.09-.31.27-.49.13-.13.24-.18.28-.18,2.03.22,3.98.51,5.87.8,1.71.25,3.47.52,5.3.73.1,0,.19-.02.25-.1.06-.07.08-.18.06-.27l-.98-3.21c-.12-.44.05-.94.42-1.23Z"/></g></g></svg>