<?xml version="1.0" encoding="UTF-8"?><svg id="Layer_2" xmlns="http://www.w3.org/2000/svg" xmlns:xlink="http://www.w3.org/1999/xlink" viewBox="0 0 123.11 84.13"><defs><style>.cls-1{fill:#da1f26;}.cls-2{fill:#fff;}.cls-3{fill:#cccbca;}.cls-4{clip-path:url(#clippath);}.cls-5{fill:none;}.cls-6{fill:#204e84;}</style><clipPath id="clippath"><path class="cls-5" d="m100.17,42.06c0,22.66-18.37,41.04-41.03,41.04s-41.04-18.37-41.04-41.04S36.47,1.02,59.14,1.02s41.03,18.37,41.03,41.04Z"/></clipPath></defs><g id="Layer_1-2"><path class="cls-3" d="m101.2,42.06c0,23.23-18.83,42.06-42.06,42.06s-42.06-18.83-42.06-42.06S35.9,0,59.14,0s42.06,18.83,42.06,42.06Z"/><g class="cls-4"><polygon class="cls-6" points="0 1.03 0 42.07 0 83.11 61.56 42.07 0 1.03"/><polygon class="cls-1" points="61.56 42.07 0 83.11 123.11 83.11 123.11 42.07 61.56 42.07"/><polygon class="cls-2" points="0 1.03 0 1.03 61.55 42.06 123.11 42.06 123.11 1.03 0 1.03"/></g></g></svg>