<?xml version="1.0" encoding="UTF-8"?><svg id="Layer_2" xmlns="http://www.w3.org/2000/svg" xmlns:xlink="http://www.w3.org/1999/xlink" viewBox="0 0 124.14 84.13"><defs><style>.cls-1{fill:#fff;}.cls-2{fill:#2665af;}.cls-3{fill:#cccbca;}.cls-4{clip-path:url(#clippath);}.cls-5{fill:none;}</style><clipPath id="clippath"><path class="cls-5" d="m83.1,42.06c0,22.66-18.37,41.03-41.04,41.03S1.02,64.73,1.02,42.06,19.39,1.03,42.06,1.03s41.04,18.37,41.04,41.04Z"/></clipPath></defs><g id="Layer_1-2"><path class="cls-3" d="m84.12,42.06c0,23.23-18.83,42.06-42.06,42.06S0,65.3,0,42.06,18.83,0,42.06,0s42.06,18.83,42.06,42.06Z"/><g class="cls-4"><rect class="cls-2" x="46.79" y="1.1" width="77.35" height="9.08"/><rect class="cls-1" x="46.79" y="10.18" width="77.35" height="9.08"/><rect class="cls-2" x="46.79" y="19.26" width="77.35" height="9.08"/><rect class="cls-1" x="46.79" y="28.34" width="77.35" height="9.08"/><rect class="cls-2" x="46.79" y="37.42" width="77.35" height="9.44"/><polygon class="cls-1" points="28.44 46.86 28.44 28.34 46.78 28.34 46.78 19.26 28.44 19.26 28.44 .92 19.36 .92 19.36 19.26 1.02 19.26 1.02 28.34 19.36 28.34 19.36 46.86 1.02 46.86 1.02 55.94 124.14 55.94 124.14 46.86 28.44 46.86"/><rect class="cls-2" x="28.44" y="1.1" width="18.34" height="18.16"/><rect class="cls-2" x="28.44" y="28.34" width="18.34" height="18.52"/><rect class="cls-2" x="1.02" y="1.1" width="18.34" height="18.16"/><rect class="cls-2" x="1.02" y="28.34" width="18.34" height="18.52"/><rect class="cls-2" x="1.02" y="55.94" width="123.12" height="9.08"/><rect class="cls-1" x="1.02" y="65.02" width="123.12" height="9.08"/><rect class="cls-2" x="1.02" y="74.1" width="123.12" height="9.08"/></g></g></svg>