<?xml version="1.0" encoding="UTF-8"?><svg id="Layer_2" xmlns="http://www.w3.org/2000/svg" xmlns:xlink="http://www.w3.org/1999/xlink" viewBox="0 0 123.1 84.13"><defs><style>.cls-1{fill:#ed302a;}.cls-2{fill-rule:evenodd;}.cls-2,.cls-3{fill:#efe82a;}.cls-4{fill:#fff;}.cls-5{fill:#1a6b36;}.cls-6{fill:#cccbca;}.cls-7{clip-path:url(#clippath);}.cls-8{fill:none;}.cls-9{fill:#231f20;}.cls-10{fill:#28429a;}</style><clipPath id="clippath"><path class="cls-8" d="m102.59,42.06c0,22.67-18.37,41.04-41.04,41.04s-41.04-18.37-41.04-41.04S38.89,1.03,61.55,1.03s41.04,18.37,41.04,41.03Z"/></clipPath></defs><g id="Layer_1-2"><path class="cls-6" d="m103.62,42.06c0,23.23-18.83,42.06-42.06,42.06s-42.06-18.83-42.06-42.06S38.32,0,61.55,0s42.06,18.83,42.06,42.06Z"/><g class="cls-7"><rect class="cls-5" y="1.03" width="49.25" height="82.07"/><rect class="cls-1" x="49.24" y="1.03" width="73.87" height="82.07"/><path class="cls-2" d="m32.1,33.8c.11.17.22.35.34.52,2.24.74,6.49,1.78,13.18,2.03,1.4.05,2.51.06,3.14.05h.99c.63,0,1.75,0,3.14-.05,6.69-.25,10.94-1.29,13.18-2.03.12-.17.23-.35.34-.52h0c.26-.41.51-.84.74-1.27-.11-.21-.22-.41-.34-.62-2.27.84-7.79,2.4-17.47,2.34h0s-.12,0-.14,0h0c-9.68.06-15.21-1.5-17.47-2.34-.12.21-.23.41-.35.62.23.43.48.85.73,1.27h0Z"/><path d="m50.14,36.46h-.87s-.02,0-.02,0h-.24s-.2,0-.2,0h-.45c-.61,0-1.58-.01-2.75-.05-6.56-.25-10.8-1.24-13.19-2.04h-.02s0-.02,0-.02c-.11-.16-.22-.33-.34-.52l-.08-.12h0c-.23-.36-.45-.75-.66-1.15v-.02s0-.02,0-.02c.11-.22.23-.42.34-.62l.02-.04h.04c2.35.89,7.67,2.35,16.9,2.35.17,0,.34,0,.51,0h.24c.17,0,.34,0,.5,0h0c9.22,0,14.54-1.47,16.9-2.34h.04s.02.02.02.02c.11.19.23.4.35.62v.02s0,.02,0,.02c-.22.4-.44.79-.66,1.15h0l-.07.12c-.13.19-.24.36-.34.52h-.01s-.02.02-.02.02c-2.4.79-6.63,1.79-13.19,2.04-1.17.04-2.14.05-2.75.05Zm-.45-.1h.45c.61,0,1.58,0,2.74-.05,6.54-.24,10.76-1.23,13.15-2.03.08-.13.17-.26.27-.41l.05-.09c.24-.39.49-.81.72-1.24-.1-.19-.21-.38-.31-.56-2.38.88-7.71,2.33-16.89,2.33h-1.26c-9.19,0-14.51-1.45-16.89-2.33-.1.18-.2.36-.31.56.23.44.47.85.72,1.24l.07.12h0c.09.14.17.27.25.38,2.39.79,6.61,1.78,13.15,2.03,1.17.05,2.13.05,2.74.05h1.33Z"/><path class="cls-2" d="m49.18,36.01h.14c9.17.06,14.61-1.34,17.09-2.2-.11.17-.23.35-.34.52-2.62.87-7.97,2.14-16.75,2.08h-.14c-8.77.06-14.13-1.22-16.74-2.08-.12-.17-.23-.35-.34-.52,2.47.86,7.91,2.26,17.08,2.2Z"/><path d="m49.88,36.46c-.19,0-.37,0-.56,0h-.14c-8.94.06-14.35-1.29-16.76-2.09h-.02s0-.02,0-.02c-.11-.16-.22-.33-.34-.52l-.08-.12.14.05c2.35.82,7.63,2.2,16.51,2.2h.51s.05,0,.05,0h.2c.17,0,.34,0,.51,0,8.87,0,14.15-1.38,16.51-2.2l.14-.05-.08.12c-.12.19-.23.36-.34.52h-.01s-.02.02-.02.02c-2.35.78-7.59,2.09-16.2,2.09Zm-.51-.1c8.87.05,14.25-1.28,16.66-2.08.08-.12.16-.24.25-.38-2.48.84-7.91,2.21-16.97,2.16h-.7c-8.72,0-13.98-1.33-16.4-2.16.09.14.17.27.25.38,2.4.8,7.79,2.13,16.66,2.08h.24Z"/><path class="cls-2" d="m49.18,34.66h.14c9.97.06,15.53-1.59,17.66-2.41-.06-.11-.13-.23-.19-.34-2.27.84-7.79,2.4-17.47,2.34h0s-.12,0-.14,0h0c-9.68.06-15.21-1.5-17.47-2.34-.06.11-.13.22-.19.34,2.14.82,7.7,2.47,17.66,2.41Z"/><path d="m49.88,34.72c-.19,0-.37,0-.56,0h-.14c-.19,0-.37,0-.56,0-9.77,0-15.23-1.69-17.12-2.42l-.05-.02.03-.05c.06-.11.12-.22.19-.34l.02-.04h.04c2.35.89,7.67,2.35,16.9,2.35.17,0,.34,0,.51,0h.24c.17,0,.34,0,.5,0h0c9.22,0,14.54-1.47,16.9-2.34h.04s.02.02.02.02c.06.11.13.22.19.34l.03.05-.06.02c-1.89.73-7.34,2.42-17.12,2.42Zm-.51-.1c9.98.06,15.57-1.64,17.54-2.39-.05-.08-.09-.16-.14-.24-2.38.88-7.71,2.33-16.89,2.33h-1.26c-9.19,0-14.51-1.45-16.89-2.33-.05.08-.09.16-.14.24,1.94.73,7.37,2.39,17.03,2.39h.75Z"/><path class="cls-2" d="m47.87,46.57c12.84,7.37,16.45,7.98,17.39,7.92.3-.39.58-.78.85-1.18.41-.67.79-1.36,1.13-2.08-1.22-.04-5.14-1-17.19-7.92-14.33-8.22-16.77-12.33-17.15-13.16-.3.39-.59.8-.87,1.21-.45.72-.85,1.47-1.21,2.25.64,1.18,3.64,5.26,17.05,12.95Z"/><path d="m65.14,54.54c-1.05,0-4.82-.77-17.3-7.93-13.51-7.75-16.47-11.89-17.06-12.97v-.03s0-.02,0-.02c.36-.77.76-1.53,1.22-2.26.28-.41.57-.82.88-1.21l.05-.07.03.08c.33.74,2.72,4.87,17.12,13.13,12.25,7.03,16.09,7.88,17.17,7.91h.07s-.03.08-.03.08c-.33.71-.71,1.41-1.13,2.07-.27.41-.56.81-.86,1.19v.02h-.04s-.08,0-.12,0Zm-34.26-20.93c.61,1.11,3.62,5.22,17.02,12.91,12.45,7.15,16.21,7.92,17.25,7.92.03,0,.06,0,.1,0,.29-.37.57-.77.83-1.16.4-.64.77-1.31,1.09-2-1.42-.08-5.52-1.26-17.13-7.92-14.01-8.03-16.68-12.18-17.13-13.1-.28.37-.56.75-.82,1.14-.44.71-.85,1.46-1.2,2.22Z"/><path class="cls-2" d="m47.87,46.57c12.84,7.37,16.45,7.98,17.39,7.92.06-.08.12-.16.18-.24-1.3-.08-5.33-1.14-17.32-8.01-13.01-7.46-16.34-11.57-17.15-12.94-.05.11-.1.21-.15.32.64,1.18,3.64,5.26,17.05,12.95Z"/><path d="m65.14,54.54h0c-1.05,0-4.82-.77-17.3-7.93-13.51-7.75-16.47-11.89-17.06-12.97v-.03s0-.02,0-.02c.05-.11.1-.21.15-.32l.04-.08.05.08c.84,1.42,4.2,5.5,17.13,12.93,11.82,6.77,15.91,7.92,17.3,8h.1s-.06.08-.06.08c-.06.08-.12.16-.18.24v.02h-.04s-.08,0-.12,0Zm-34.26-20.93c.61,1.11,3.62,5.22,17.02,12.91,12.45,7.15,16.21,7.92,17.25,7.92h0s.06,0,.1,0c.04-.05.07-.1.11-.15-1.48-.12-5.67-1.36-17.25-8.01-12.72-7.3-16.19-11.39-17.12-12.88-.03.07-.07.14-.1.21Z"/><path class="cls-2" d="m32.91,30.16c-.1.13-.2.26-.3.39.65,1.19,3.69,5.33,17.24,13.1,11.61,6.66,15.76,7.86,17.19,8,.07-.14.14-.27.2-.41-1.22-.04-5.14-1-17.19-7.92-14.33-8.22-16.77-12.33-17.15-13.16Z"/><path d="m67.07,51.7h-.04c-1.46-.14-5.63-1.37-17.21-8.01-13.67-7.84-16.66-12.02-17.26-13.12l-.02-.03.02-.03c.1-.13.19-.26.3-.39l.05-.07.03.08c.33.74,2.72,4.87,17.12,13.13,12.25,7.03,16.09,7.88,17.17,7.91h.07s-.03.08-.03.08c-.06.14-.13.27-.2.41l-.02.03Zm-34.4-21.14c.62,1.13,3.68,5.29,17.21,13.05,11.47,6.58,15.65,7.83,17.14,7.99.05-.11.1-.21.15-.31-1.42-.08-5.52-1.26-17.13-7.92-14.01-8.03-16.68-12.18-17.13-13.1-.07.1-.15.2-.23.3Z"/><path class="cls-2" d="m49.25,54.03c-8.72-.03-13.97-1.08-17.04-2.13-.12.18-.24.38-.35.57.4.68.84,1.32,1.32,1.94,6.7,1.86,16.07,1.86,16.07,1.86,0,0,9.38,0,16.07-1.86.48-.62.92-1.26,1.32-1.94-.11-.19-.23-.38-.35-.57-3.07,1.05-8.32,2.1-17.04,2.13Z"/><path d="m49.25,56.32h0c-.09,0-9.46-.02-16.09-1.86h-.02s-.01-.02-.01-.02c-.48-.62-.92-1.28-1.33-1.95v-.03s0-.02,0-.02c.13-.22.25-.4.36-.57l.02-.04h.04c2.8.97,8.02,2.12,17.03,2.14,9.01-.03,14.23-1.17,17.03-2.13h.04s.02.02.02.02c.11.17.22.35.35.57l.02.02-.02.03c-.4.67-.84,1.33-1.32,1.95h-.01s-.02.02-.02.02c-6.63,1.84-15.99,1.86-16.09,1.86Zm-16.04-1.95c6.61,1.83,15.95,1.85,16.04,1.85s9.43-.03,16.05-1.85c.47-.61.9-1.25,1.29-1.9-.12-.19-.22-.36-.32-.51-2.81.96-8.04,2.1-17.02,2.12-8.98-.02-14.21-1.16-17.02-2.12-.1.16-.2.32-.32.51.39.65.83,1.29,1.29,1.9Z"/><path class="cls-2" d="m49.25,54.43c-8.92-.02-14.21-1.12-17.25-2.2-.05.08-.1.16-.14.24.29.49.6.96.94,1.42,6.72,1.97,16.46,1.97,16.46,1.97,0,0,9.74,0,16.46-1.97.33-.46.64-.93.94-1.42-.05-.08-.1-.16-.14-.24-3.04,1.07-8.33,2.18-17.25,2.2Z"/><path d="m49.25,55.91h0c-.1,0-9.83-.02-16.47-1.97h-.02s-.01-.02-.01-.02c-.33-.46-.65-.94-.94-1.43l-.02-.03.07-.12s.06-.1.09-.15l.02-.04.04.02c2.8.99,8.06,2.17,17.23,2.2,9.18-.02,14.43-1.21,17.23-2.2l.04-.02.02.04s.06.1.09.15l.07.12v.03c-.3.49-.62.96-.95,1.43h0s-.02.02-.02.02c-6.65,1.95-16.38,1.97-16.47,1.97Zm-16.42-2.06c6.63,1.94,16.33,1.96,16.42,1.96s9.8-.02,16.43-1.96c.32-.45.63-.91.91-1.38l-.04-.07s-.05-.08-.07-.11c-2.82.99-8.08,2.17-17.23,2.19-9.14-.02-14.41-1.2-17.23-2.19-.02.03-.05.07-.07.11l-.04.07c.28.47.59.93.91,1.38Z"/><path class="cls-2" d="m49.25,47.16s14.31,0,20.2-3.5c.03-.36.05-.73.06-1.1,0-.41-.02-.83-.05-1.24-1.8,1.18-7.06,3.56-20.21,3.59-13.15-.04-18.4-2.42-20.2-3.59-.03.41-.05.82-.06,1.24.01.37.03.74.06,1.1,5.89,3.5,20.2,3.5,20.2,3.5Z"/><path d="m49.25,47.22c-.14,0-14.4-.04-20.23-3.51h-.02s0-.04,0-.04c-.03-.36-.05-.73-.06-1.09,0-.46.02-.87.05-1.24v-.09s.08.05.08.05c1.63,1.07,6.85,3.55,20.18,3.59,13.33-.04,18.55-2.52,20.18-3.59l.07-.05v.09c.04.37.05.78.06,1.24,0,.37-.02.74-.05,1.1v.02s-.02.01-.02.01c-5.84,3.47-20.09,3.51-20.23,3.51Zm-20.15-3.58c5.82,3.44,20.01,3.48,20.15,3.48s14.33-.04,20.16-3.48c.02-.36.05-.71.05-1.07,0-.42-.02-.8-.05-1.15-1.71,1.1-7,3.52-20.16,3.56-13.16-.04-18.45-2.46-20.16-3.56-.02.35-.04.73-.05,1.15,0,.35.02.71.05,1.07Z"/><path class="cls-2" d="m49.25,45.33c-13.15-.04-18.4-2.41-20.2-3.59-.03.33-.04.67-.05,1.01,0,.16.01.33.02.49,5.87,3.52,20.23,3.52,20.23,3.52,0,0,14.36,0,20.23-3.52.01-.17.02-.33.02-.49,0-.34-.02-.68-.05-1.01-1.8,1.18-7.06,3.56-20.21,3.59Z"/><path d="m49.25,46.81c-.14,0-14.44-.04-20.26-3.53h-.02s0-.04,0-.04c0-.16-.02-.33-.02-.49.01-.4.02-.72.05-1.02v-.09s.08.05.08.05c1.63,1.07,6.85,3.55,20.18,3.59,13.33-.04,18.55-2.52,20.18-3.59l.07-.05v.09c.03.3.04.62.05,1.01,0,.17-.01.33-.02.5v.03h-.02c-5.82,3.5-20.11,3.54-20.26,3.54Zm-20.18-3.6c5.81,3.46,20.04,3.5,20.18,3.5s14.37-.04,20.18-3.5c.01-.15.02-.31.02-.46,0-.36-.02-.65-.04-.92-1.71,1.1-7,3.52-20.16,3.56-13.16-.04-18.45-2.46-20.16-3.56-.02.27-.03.57-.04.93,0,.15.01.31.02.46Z"/><path class="cls-2" d="m49.25,21.8c-11.19,0-20.26,9.07-20.26,20.27s9.07,20.26,20.26,20.26,20.27-9.07,20.27-20.26-9.07-20.27-20.27-20.27Zm0,38.5c-10.07,0-18.24-8.17-18.24-18.24s8.16-18.24,18.24-18.24,18.24,8.17,18.24,18.24-8.17,18.24-18.24,18.24Z"/><path d="m49.25,62.38c-11.2,0-20.32-9.12-20.32-20.32s9.12-20.32,20.32-20.32,20.32,9.12,20.32,20.32-9.11,20.32-20.32,20.32Zm0-40.53c-11.14,0-20.21,9.07-20.21,20.21s9.07,20.21,20.21,20.21,20.22-9.07,20.22-20.21-9.07-20.21-20.22-20.21Zm0,38.5c-10.08,0-18.29-8.21-18.29-18.29s8.2-18.29,18.29-18.29,18.29,8.21,18.29,18.29-8.2,18.29-18.29,18.29Zm0-36.48c-10.03,0-18.19,8.16-18.19,18.19s8.16,18.19,18.19,18.19,18.19-8.16,18.19-18.19-8.16-18.19-18.19-18.19Z"/><path class="cls-2" d="m49.25,22.21c-10.97,0-19.86,8.89-19.86,19.86s8.89,19.86,19.86,19.86,19.86-8.89,19.86-19.86-8.89-19.86-19.86-19.86Zm0,38.5c-10.3,0-18.64-8.35-18.64-18.64s8.35-18.64,18.64-18.64,18.64,8.35,18.64,18.64-8.34,18.64-18.64,18.64Z"/><path d="m49.25,61.98c-10.98,0-19.91-8.93-19.91-19.91s8.93-19.91,19.91-19.91,19.91,8.93,19.91,19.91-8.94,19.91-19.91,19.91Zm0-39.72c-10.92,0-19.81,8.89-19.81,19.81s8.89,19.81,19.81,19.81,19.81-8.89,19.81-19.81-8.89-19.81-19.81-19.81Zm0,38.5c-10.31,0-18.69-8.38-18.69-18.69s8.39-18.69,18.69-18.69,18.7,8.38,18.7,18.69-8.39,18.69-18.7,18.69Zm0-37.29c-10.25,0-18.59,8.34-18.59,18.59s8.34,18.6,18.59,18.6,18.6-8.34,18.6-18.6-8.34-18.59-18.6-18.59Z"/><rect class="cls-3" x="48.24" y="21.8" width="2.03" height="40.53"/><path d="m50.32,62.38h-2.13V21.75h2.13v40.63Zm-2.03-.1h1.93V21.85h-1.93v40.43Z"/><rect class="cls-3" x="48.24" y="21.6" width=".4" height="40.93"/><path d="m48.69,62.59h-.51V21.55h.51v41.04Zm-.41-.1h.3V21.65h-.3v40.84Z"/><rect class="cls-3" x="49.86" y="21.6" width=".41" height="40.93"/><path d="m50.32,62.59h-.51V21.55h.51v41.04Zm-.41-.1h.3V21.65h-.3v40.84Z"/><path class="cls-2" d="m29,41.33c-.01.25-.01.49-.01.74,0,.53.02,1.05.06,1.57,1.8-1.18,7.06-3.56,20.2-3.59,13.15.04,18.41,2.41,20.21,3.59.04-.52.06-1.04.06-1.57,0-.25,0-.49-.01-.74-5.86-3.53-20.25-3.53-20.25-3.53,0,0-14.39,0-20.25,3.53Z"/><path d="m69.5,43.73l-.07-.05c-1.63-1.07-6.85-3.55-20.18-3.58-13.33.04-18.55,2.52-20.18,3.58l-.07.05v-.08c-.05-.52-.07-1.05-.07-1.57,0-.22,0-.46.01-.74v-.03s.02-.01.02-.01c5.81-3.5,20.14-3.53,20.28-3.53s14.47.04,20.28,3.53h.02v.04c.01.28.01.52.01.74,0,.52-.02,1.05-.06,1.57v.08Zm-20.25-3.74c13.16.04,18.45,2.46,20.16,3.56.03-.49.06-.99.06-1.48,0-.21,0-.44-.01-.71-5.8-3.47-20.06-3.51-20.2-3.51s-14.4.04-20.2,3.51c-.01.27-.01.5-.01.71,0,.49.02.99.05,1.48,1.71-1.09,7-3.52,20.16-3.56Z"/><path class="cls-2" d="m49.25,38.21s-14.39,0-20.25,3.53c0,.09,0,.18,0,.28,0,.41.02.81.05,1.22,1.8-1.18,7.06-3.56,20.2-3.59,13.15.04,18.41,2.41,20.21,3.59.03-.4.05-.81.05-1.22,0-.09,0-.19,0-.28-5.86-3.53-20.25-3.53-20.25-3.53Z"/><path d="m69.5,43.32l-.07-.05c-1.63-1.07-6.85-3.55-20.18-3.59-13.33.04-18.55,2.52-20.18,3.59l-.07.05v-.09c-.04-.36-.05-.76-.06-1.22,0-.09,0-.19,0-.28v-.03s.02-.01.02-.01c5.81-3.5,20.14-3.54,20.28-3.54s14.47.04,20.28,3.54h.02v.04c0,.09,0,.18,0,.28,0,.46-.02.86-.05,1.22v.09Zm-40.45-1.55c0,.08,0,.16,0,.25,0,.41.02.78.05,1.12,1.71-1.1,7-3.52,20.16-3.56,13.16.04,18.45,2.46,20.16,3.56.03-.34.04-.71.05-1.13,0-.08,0-.16,0-.24-5.8-3.47-20.06-3.51-20.2-3.51s-14.4.04-20.2,3.51Z"/><path class="cls-2" d="m30.89,33.49c1.47-.65,7.11-2.74,18.29-2.67h0s.12,0,.14,0h0c11.18-.07,16.82,2.02,18.29,2.67-.36-.77-.76-1.51-1.21-2.22h0c-.11-.17-.22-.35-.34-.52-2.24-.74-6.49-1.78-13.18-2.03-1.4-.05-2.51-.06-3.14-.05h-.99c-.63,0-1.75,0-3.14.05-6.69.25-10.94,1.29-13.18,2.03-.12.17-.23.35-.34.52h0c-.45.71-.85,1.45-1.21,2.22Z"/><path d="m30.78,33.59l.06-.12c.34-.72.72-1.42,1.14-2.1h0l.07-.12c.12-.2.23-.37.34-.52h0s.02-.02.02-.02c2.4-.79,6.63-1.79,13.19-2.04,1.17-.04,2.14-.05,2.75-.05.15,0,.28,0,.4,0h.99c.11,0,.25,0,.4,0,.61,0,1.58.01,2.75.05,6.56.25,10.79,1.24,13.19,2.04h.02s.01.02.01.02c.11.16.21.32.34.52l.07.12h0c.42.68.81,1.38,1.14,2.1l.06.12-.12-.05c-1.44-.63-7.07-2.73-18.22-2.67h-.24c-.17,0-.34,0-.51,0-10.81,0-16.29,2.04-17.72,2.67l-.12.05Zm1.41-2.38l-.05.08c-.42.67-.81,1.38-1.15,2.09,1.6-.68,7.09-2.62,17.63-2.62h.7c10.9-.07,16.56,1.93,18.19,2.62-.34-.71-.73-1.42-1.15-2.09l-.07-.12h0c-.09-.14-.17-.26-.25-.39-2.39-.79-6.61-1.78-13.15-2.02-1.17-.05-2.13-.05-2.74-.05h-1.78c-.61,0-1.58,0-2.74.05-6.54.24-10.76,1.23-13.15,2.02-.09.13-.17.26-.27.42Z"/><path class="cls-2" d="m49.32,30.42h-.14c-10.63-.07-16.24,1.82-18.04,2.57-.08.17-.17.34-.25.51,1.47-.65,7.11-2.74,18.29-2.67h0s.12,0,.14,0h0c11.18-.07,16.82,2.02,18.29,2.67-.08-.17-.16-.34-.25-.51-1.8-.75-7.41-2.64-18.05-2.57Z"/><path d="m30.78,33.59l.06-.12c.08-.17.16-.34.25-.51v-.02s.03,0,.03,0c1.9-.78,7.5-2.64,18.06-2.57h.14c10.56-.07,16.17,1.78,18.06,2.57h.02s0,.03,0,.03c.08.17.17.34.25.51l.06.12-.12-.05c-1.44-.63-7.07-2.73-18.22-2.67h-.24c-11.14-.06-16.78,2.03-18.22,2.67l-.12.05Zm.39-.57c-.06.13-.12.25-.18.38,1.63-.7,7.29-2.69,18.19-2.62h.7c10.54,0,16.03,1.94,17.63,2.62-.06-.13-.12-.25-.18-.38-1.88-.77-7.3-2.55-17.45-2.55h-.75c-10.48-.06-16.05,1.77-17.95,2.55Z"/><path class="cls-2" d="m49.18,29.07h0s.12,0,.14,0h0c9.17-.06,14.61,1.34,17.09,2.2-.11-.17-.23-.35-.34-.52-2.62-.87-7.97-2.14-16.75-2.08h-.14c-8.77-.06-14.13,1.22-16.74,2.08-.12.17-.23.35-.34.52,2.47-.86,7.91-2.26,17.08-2.2Z"/><path d="m31.98,31.37l.08-.12c.12-.2.23-.37.34-.52h0s.02-.02.02-.02c2.41-.8,7.83-2.14,16.76-2.09h.14c8.94-.06,14.36,1.29,16.76,2.09h.02s.01.02.01.02c.11.16.22.33.34.52l.08.12-.14-.05c-2.36-.82-7.63-2.2-16.51-2.2-.17,0-.34,0-.51,0h-.24c-.17,0-.34,0-.51,0-8.87,0-14.15,1.38-16.51,2.2l-.14.05Zm.49-.57c-.08.12-.16.24-.25.38,2.48-.85,7.9-2.21,16.96-2.16h.14c9.06-.06,14.48,1.31,16.97,2.16-.09-.14-.17-.26-.25-.38-2.41-.79-7.79-2.13-16.66-2.08h-.24c-8.88-.05-14.26,1.28-16.66,2.08Z"/><path class="cls-2" d="m31.15,51.18c.32.64.68,1.26,1.06,1.86,3.07-1.05,8.32-2.11,17.04-2.13,8.72.03,13.97,1.08,17.04,2.13.39-.6.74-1.22,1.06-1.86-6.63-2.52-18.1-2.52-18.1-2.52,0,0-11.47,0-18.1,2.52Z"/><path d="m66.31,53.1h-.04c-2.8-.97-8.02-2.11-17.03-2.14-9.01.03-14.23,1.17-17.03,2.13h-.04s-.02-.02-.02-.02c-.39-.59-.74-1.22-1.07-1.86l-.03-.05.05-.02c6.56-2.49,18.01-2.52,18.12-2.52s11.56.03,18.12,2.52l.05.02-.02.05c-.32.64-.68,1.26-1.06,1.86l-.02.04Zm-35.1-1.89c.31.6.65,1.2,1.01,1.77,2.81-.96,8.04-2.1,17.02-2.12,8.98.02,14.21,1.16,17.02,2.12.36-.57.7-1.16,1.01-1.77-6.55-2.46-17.92-2.5-18.03-2.5s-11.48.03-18.03,2.5Z"/><path class="cls-2" d="m31.32,51.52c.21.4.44.8.68,1.18,3.04-1.07,8.33-2.18,17.25-2.2,8.92.02,14.21,1.12,17.25,2.2.24-.38.46-.78.67-1.18-6.65-2.45-17.93-2.45-17.93-2.45,0,0-11.27,0-17.93,2.45Z"/><path d="m66.52,52.77h-.04c-2.8-1-8.06-2.19-17.23-2.21-9.17.02-14.44,1.21-17.23,2.2h-.04s-.02-.02-.02-.02c-.24-.39-.47-.79-.68-1.19l-.02-.05.05-.02c6.58-2.42,17.83-2.45,17.94-2.45s11.36.03,17.95,2.45l.05.02-.03.05c-.21.4-.44.8-.68,1.19l-.02.04Zm-17.27-2.31c9.15.02,14.41,1.2,17.23,2.19.22-.36.43-.73.63-1.09-6.57-2.4-17.74-2.43-17.86-2.43s-11.28.03-17.86,2.43c.2.37.41.74.63,1.09,2.81-.99,8.08-2.17,17.23-2.19Z"/><path class="cls-2" d="m65.24,54.52c.82-1.05,1.53-2.17,2.13-3.37-.53-1.05-3.34-5.15-17.09-13.04-13.13-7.54-16.61-8-17.45-7.91-.74,1.01-1.38,2.1-1.92,3.25,1.22.04,5.14,1.01,17.19,7.92,14.33,8.22,16.77,12.33,17.15,13.16Z"/><path d="m65.23,54.61l-.04-.07c-.33-.75-2.72-4.87-17.13-13.13-12.25-7.03-16.08-7.88-17.16-7.91h-.07s.03-.07.03-.07c.54-1.14,1.18-2.23,1.92-3.25v-.02s.04,0,.04,0c.06,0,.12,0,.19,0,1.05,0,4.82.77,17.3,7.93,13.73,7.88,16.57,11.99,17.11,13.06v.02s0,.03,0,.03c-.6,1.19-1.32,2.33-2.14,3.38l-.05.06Zm-34.25-21.22c1.42.08,5.52,1.26,17.14,7.93,14.01,8.03,16.68,12.18,17.13,13.1.79-1.02,1.48-2.12,2.06-3.28-.57-1.1-3.45-5.18-17.06-13-12.46-7.14-16.21-7.91-17.25-7.91-.05,0-.11,0-.15,0-.72.99-1.35,2.05-1.87,3.15Z"/><path class="cls-2" d="m48.3,41.03c-11.61-6.66-15.76-7.86-17.19-8-.07.13-.13.28-.2.41,1.22.04,5.14,1.01,17.19,7.92,14.33,8.22,16.77,12.33,17.15,13.16.1-.13.2-.26.29-.39-.64-1.19-3.69-5.33-17.24-13.1Z"/><path d="m65.23,54.61l-.04-.07c-.33-.75-2.72-4.87-17.13-13.13-12.25-7.03-16.08-7.88-17.16-7.91h-.07s.03-.07.03-.07c.06-.14.13-.28.2-.41l.02-.03h.04c1.46.14,5.63,1.37,17.21,8,13.67,7.84,16.67,12.02,17.26,13.12l.02.03-.02.02c-.1.13-.2.26-.3.39l-.05.06Zm-34.25-21.22c1.42.08,5.52,1.26,17.14,7.93,14.01,8.03,16.68,12.18,17.13,13.1.07-.1.15-.2.23-.3-.63-1.13-3.68-5.29-17.21-13.05-11.47-6.58-15.65-7.84-17.14-7.99-.05.1-.1.21-.15.31Z"/><path class="cls-2" d="m50.03,38.43c13.24,7.6,16.45,11.71,17.19,13.01.05-.1.11-.2.16-.3-.53-1.05-3.34-5.15-17.09-13.04-13.13-7.54-16.61-8-17.45-7.91-.06.08-.11.15-.16.23,1.25.06,5.25,1.06,17.36,8.01Z"/><path d="m67.22,51.55l-.04-.08c-.81-1.41-4.1-5.49-17.17-12.99-11.9-6.83-15.97-7.94-17.34-8h-.09s.1-.14.1-.14c.04-.06.08-.11.12-.17v-.02s.04,0,.04,0c.06,0,.12,0,.19,0,1.05,0,4.82.77,17.3,7.93,13.73,7.88,16.57,11.99,17.11,13.06v.02s0,.03,0,.03c-.04.09-.09.18-.14.27l-.06.11Zm-34.46-21.17c1.46.1,5.63,1.32,17.29,8.01,12.87,7.38,16.28,11.47,17.16,12.95.04-.06.07-.13.1-.2-.57-1.1-3.45-5.18-17.06-13-12.46-7.14-16.21-7.91-17.25-7.91-.05,0-.11,0-.15,0-.03.05-.07.09-.1.14Z"/><path class="cls-4" d="m38.86,50.23c2.03,3.89,5.52,5.86,10.38,5.86s8.36-1.97,10.39-5.86c1.52-2.92,1.6-5.88,1.6-5.91v-15.91h-23.97v15.92s.08,2.99,1.6,5.91Z"/><path class="cls-9" d="m61.24,28.4v15.91s-.08,3-1.6,5.91c-.89,1.7-2.09,3.06-3.56,4.03-1.85,1.22-4.15,1.83-6.82,1.83s-4.97-.62-6.82-1.83c-1.48-.97-2.68-2.33-3.56-4.03-1.52-2.92-1.6-5.88-1.6-5.91v-15.92h23.97m.2-.2h-24.38v16.12s.25,11.97,12.19,11.97,12.19-11.97,12.19-11.97v-16.12h0Z"/><path class="cls-9" d="m38.77,50.26c1.4,2.71,4.37,5.93,10.48,5.93s9.08-3.23,10.48-5.93c1.53-2.94,1.6-5.91,1.6-5.95v-16.02h-24.18v16.02s.08,3.01,1.61,5.95Zm3.56-16.8h13.84v10.73c-.02.31-.18,2.19-1.14,3.9-.77,1.36-2.12,2.93-5.78,2.93s-5.01-1.56-5.78-2.93c-.96-1.71-1.12-3.58-1.14-3.9v-10.73Z"/><path class="cls-1" d="m38.77,50.26c1.4,2.71,4.37,5.93,10.48,5.93s9.08-3.23,10.48-5.93c1.53-2.94,1.6-5.91,1.6-5.95v-16.02h-24.18v16.02s.08,3.01,1.61,5.95Zm3.44-16.92h14.08v10.86c-.02.31-.18,2.21-1.16,3.94-.5.9-1.12,1.56-1.88,2.04-1.02.63-2.36.95-4.01.95s-2.99-.33-4-.95c-.76-.48-1.38-1.14-1.88-2.04-.98-1.73-1.13-3.64-1.16-3.94v-10.86Z"/><path class="cls-9" d="m38.77,50.26c1.4,2.71,4.37,5.93,10.48,5.93s9.08-3.23,10.48-5.93c1.53-2.94,1.6-5.91,1.6-5.95v-16.02h-24.18v16.02s.08,3.01,1.61,5.95Zm-.98-21.34h22.92v15.38c0,.14-.11,2.91-1.53,5.66-1.93,3.71-5.27,5.6-9.92,5.6s-7.97-1.87-9.9-5.55c-1.45-2.75-1.56-5.56-1.56-5.71v-15.38Z"/><path class="cls-4" d="m38.77,50.26c1.4,2.71,4.37,5.93,10.48,5.93s9.08-3.23,10.48-5.93c1.53-2.94,1.6-5.91,1.6-5.95v-16.02h-24.18v16.02s.08,3.01,1.61,5.95Zm-1.1-21.46h23.16v15.51c0,.13-.11,2.93-1.55,5.71-.86,1.65-2.01,2.95-3.43,3.89-1.78,1.18-4.01,1.77-6.61,1.77s-4.81-.59-6.58-1.76c-1.42-.93-2.57-2.23-3.43-3.87-1.46-2.78-1.56-5.62-1.57-5.75v-15.51Z"/><polygon class="cls-3" points="50.71 31.57 49.25 31.56 47.79 31.57 47.63 32.85 49.25 32.85 50.87 32.85 50.71 31.57"/><path class="cls-3" d="m50.9,32.87h-3.3c-.06,0-.1.04-.1.1s.04.1.1.1h3.3c.05,0,.1-.04.1-.1s-.05-.1-.1-.1Z"/><path class="cls-3" d="m50.8,31.37h-3.09s-.05.05-.05.09c0,.05.04.1.1.1h3c.05,0,.1-.05.1-.1,0-.04-.02-.07-.05-.09Z"/><path class="cls-3" d="m50.93,30.2v-.36h-.25v.18h-.17v-.18h-.25v.18h-.17v-.18h-.25v.36c0,.13.16.14.16.14l-.03.73h-.29l-.03-1.4s.16,0,.16-.14v-.37h-.25v.19h-.17v-.18h-.25v.18h-.17v-.19h-.25v.37c0,.13.15.14.15.14l-.03,1.4h-.3l-.03-.72s.16,0,.16-.14v-.37h-.25v.18h-.17v-.18h-.25v.18h-.17v-.18h-.25v.37c0,.13.16.14.16.14l-.03.72h-.03c-.05,0-.1.05-.1.1s.04.1.1.1h3.16c.06,0,.1-.05.1-.1s-.05-.1-.1-.1h-.02l-.03-.73s.16,0,.16-.14Z"/><path class="cls-9" d="m48.05,30.57s.04-.07.07-.07c.03,0,.06.02.07.07.01.04.01.07.01.07v.19h-.17v-.19s0-.04.01-.07Z"/><path class="cls-9" d="m50.31,30.57s.04-.07.07-.07.06.02.07.07c.01.04.01.07.01.07v.19h-.16v-.19s0-.04.01-.07Z"/><path class="cls-9" d="m49.18,30.14c.02-.06.04-.08.07-.08.04,0,.06.03.07.08.01.04.01.08.01.08v.23h-.17v-.23s0-.04.01-.08Z"/><path class="cls-9" d="m50.91,32.78l-.13-1.13c.1,0,.18-.09.18-.19,0-.04-.01-.08-.03-.11.06-.03.11-.1.11-.18,0-.1-.08-.19-.18-.2l-.02-.61c.07-.01.16-.06.16-.18v-.4h-.35v.18h-.07v-.17h-.35v.17h-.07v-.18h-.35v.4c0,.11.08.16.16.18l-.02.61h-.21l-.03-1.27c.07-.02.16-.07.16-.18v-.4h-.35v.18h-.07v-.17h-.35v.17h-.07v-.18h-.35v.4c0,.11.08.16.15.18l-.03,1.27h-.2l-.03-.61c.07-.01.16-.06.16-.18v-.4h-.35v.18h-.07v-.17h-.35v.17h-.07v-.18h-.35v.4c0,.11.08.16.15.18l-.02.61c-.1,0-.18.09-.18.2,0,.08.04.14.11.18-.02.03-.03.07-.03.11,0,.1.08.18.18.19l-.13,1.13c-.11,0-.19.09-.19.19s.08.2.2.2h3.3c.11,0,.2-.09.2-.2s-.08-.19-.19-.19Zm-1.64-.89h-.02s-.02,0-.02,0c-.45.18-.5.71-.51.88h-.23c0-.19.08-.88.72-1.12h.07c.65.24.71.93.72,1.12h-.23c0-.17-.06-.71-.5-.88Zm.4.88h-.85c0-.15.06-.63.42-.79.37.16.42.63.42.79Zm-.68-1.12c-.52.31-.58.94-.59,1.12h-.7l.13-1.12h1.16Zm1.11,1.12c0-.18-.07-.81-.59-1.12h1.17l.13,1.12h-.71Zm-.22-2.58v-.3h.15v.18h.27v-.17h.16v.17h.27v-.18h.15v.3c0,.08-.1.08-.11.08h-.77s-.11,0-.11-.08Zm.86.78h-.73l.02-.6h.69l.02.6Zm-1.99-1.45v-.3h.15v.18h.27v-.17h.16v.17h.27v-.18h.15v.3c0,.08-.1.08-.11.09h-.77s-.11,0-.11-.09Zm.86,1.45h-.73l.03-1.26h.68l.03,1.26Zm-1.99-.78v-.3h.15v.18h.27v-.17h.16v.17h.27v-.18h.15v.3c0,.08-.1.08-.11.08h-.77s-.11,0-.11-.08Zm.86.78h-.73l.02-.6h.68l.03.6Zm-.91.2s.03-.09.07-.1h0s.01,0,.02,0h3.16c.06,0,.1.05.1.1s-.04.1-.1.1h-3.16c-.05,0-.1-.05-.1-.1Zm.08.29s.02-.07.05-.09h3.09s.05.05.05.09c0,.05-.05.1-.1.1h-3c-.06,0-.1-.05-.1-.1Zm3.25,1.61h-3.3c-.06,0-.1-.04-.1-.1s.04-.1.1-.1h3.3c.05,0,.1.04.1.1s-.05.1-.1.1Z"/><polygon class="cls-3" points="41.49 31.57 40.03 31.56 38.57 31.57 38.41 32.85 40.03 32.85 41.65 32.85 41.49 31.57"/><path class="cls-3" d="m41.68,32.87h-3.3c-.06,0-.1.04-.1.1s.04.1.1.1h3.3c.06,0,.1-.04.1-.1s-.04-.1-.1-.1Z"/><path class="cls-3" d="m41.58,31.37h-3.09s-.05.05-.05.09c0,.05.04.1.1.1h3c.06,0,.1-.05.1-.1,0-.04-.02-.07-.05-.09Z"/><path class="cls-3" d="m41.71,30.2v-.36h-.25v.18h-.17v-.18h-.25v.18h-.17v-.18h-.25v.36c0,.13.16.14.16.14l-.03.73h-.3l-.03-1.4s.16,0,.16-.14v-.37h-.25v.19h-.17v-.18h-.25v.18h-.17v-.19h-.25v.37c0,.13.16.14.16.14l-.03,1.4h-.3l-.03-.72s.16,0,.16-.14v-.37h-.25v.18h-.17v-.18h-.25v.18h-.17v-.18h-.25v.37c0,.13.16.14.16.14l-.03.72h-.03c-.05,0-.1.05-.1.1s.04.1.1.1h3.16c.05,0,.1-.05.1-.1s-.05-.1-.1-.1h-.03l-.03-.73s.16,0,.16-.14Z"/><path class="cls-9" d="m38.83,30.57s.04-.07.07-.07c.03,0,.06.02.07.07.01.04.01.07.01.07v.19h-.16v-.19s0-.04.01-.07Z"/><path class="cls-9" d="m41.09,30.57s.04-.07.07-.07c.04,0,.06.02.07.07.01.04.01.07.01.07v.19h-.16v-.19s0-.04.01-.07Z"/><path class="cls-9" d="m39.96,30.14c.01-.06.04-.08.07-.08.03,0,.06.03.07.08.01.04.01.08.01.08v.23h-.17v-.23s0-.04.01-.08Z"/><path class="cls-9" d="m41.69,32.78l-.13-1.13c.1,0,.18-.09.18-.19,0-.04-.01-.08-.03-.11.07-.03.11-.1.11-.18,0-.1-.08-.19-.18-.2l-.02-.61c.07-.01.16-.06.16-.18v-.4h-.35v.18h-.07v-.17h-.35v.17h-.07v-.18h-.35v.4c0,.11.08.16.16.18l-.02.61h-.2l-.03-1.27c.07-.02.15-.07.15-.18v-.4h-.35v.18h-.07v-.17h-.35v.17h-.07v-.18h-.35v.4c0,.11.08.16.16.18l-.03,1.27h-.2l-.03-.61c.07-.01.16-.06.16-.18v-.4h-.35v.18h-.07v-.17h-.35v.17h-.07v-.18h-.35v.4c0,.11.08.16.15.18l-.02.61c-.1,0-.18.09-.18.2,0,.08.04.14.11.18-.02.03-.03.07-.03.11,0,.1.08.18.18.19l-.13,1.13c-.11,0-.19.09-.19.19s.09.2.2.2h3.3c.11,0,.2-.09.2-.2s-.08-.19-.19-.19Zm-1.64-.89h-.02s-.02,0-.02,0c-.45.18-.5.71-.51.88h-.23c0-.19.08-.88.72-1.12h.07c.65.24.71.93.72,1.12h-.23c0-.17-.06-.71-.51-.88Zm.41.88h-.85c0-.15.06-.63.42-.79.37.16.42.63.43.79Zm-.69-1.12c-.52.31-.58.94-.59,1.12h-.71l.13-1.12h1.16Zm1.11,1.12c0-.18-.07-.81-.59-1.12h1.17l.13,1.12h-.71Zm-.21-2.58v-.3h.15v.18h.27v-.17h.16v.17h.27v-.18h.15v.3c0,.08-.1.08-.11.08h-.78s-.11,0-.11-.08Zm.86.78h-.73l.02-.6h.68l.02.6Zm-2-1.45v-.3h.15v.18h.27v-.17h.15v.17h.27v-.18h.15v.3c0,.08-.1.08-.11.09h-.77s-.11,0-.11-.09Zm.87,1.45h-.74l.03-1.26h.68l.03,1.26Zm-2-.78v-.3h.15v.18h.27v-.17h.16v.17h.27v-.18h.15v.3c0,.08-.1.08-.11.08h-.77s-.11,0-.11-.08Zm.86.78h-.73l.02-.6h.68l.03.6Zm-.91.2s.03-.09.07-.1h0s.01,0,.02,0h3.16c.06,0,.1.05.1.1s-.04.1-.1.1h-3.16c-.05,0-.1-.05-.1-.1Zm.08.29s.02-.07.05-.09h3.09s.05.05.05.09c0,.05-.04.1-.1.1h-3c-.06,0-.1-.05-.1-.1Zm3.25,1.61h-3.3c-.06,0-.1-.04-.1-.1s.04-.1.1-.1h3.3c.06,0,.1.04.1.1s-.04.1-.1.1Z"/><polygon class="cls-3" points="41.49 40.87 40.03 40.86 38.57 40.87 38.41 42.15 40.03 42.15 41.65 42.15 41.49 40.87"/><path class="cls-3" d="m41.68,42.18h-3.3c-.06,0-.1.04-.1.1,0,.05.04.1.1.1h3.3c.06,0,.1-.04.1-.1,0-.06-.04-.1-.1-.1Z"/><path class="cls-3" d="m41.58,40.67h-3.09s-.05.05-.05.09c0,.05.04.1.1.1h3c.06,0,.1-.05.1-.1,0-.04-.02-.07-.05-.09Z"/><path class="cls-3" d="m41.71,39.5v-.36h-.25v.18h-.17v-.18h-.25v.18h-.17v-.18h-.25v.36c0,.13.16.14.16.14l-.03.73h-.3l-.03-1.39s.16,0,.16-.14v-.37h-.25v.19h-.17v-.18h-.25v.18h-.17v-.19h-.25v.37c0,.14.16.14.16.14l-.03,1.39h-.3l-.03-.72s.16,0,.16-.14v-.37h-.25v.19h-.17v-.18h-.25v.18h-.17v-.19h-.25v.37c0,.13.16.14.16.14l-.03.72h-.03c-.05,0-.1.05-.1.1s.04.1.1.1h3.16c.05,0,.1-.05.1-.1s-.05-.1-.1-.1h-.03l-.03-.73s.16,0,.16-.14Z"/><path class="cls-9" d="m38.83,39.87s.04-.07.07-.07c.03,0,.06.03.07.07.01.03.01.07.01.07v.19h-.16v-.19s0-.04.01-.07Z"/><path class="cls-9" d="m41.09,39.87s.04-.07.07-.07c.04,0,.06.03.07.07.01.03.01.07.01.07v.19h-.16v-.19s0-.04.01-.07Z"/><path class="cls-9" d="m39.96,39.44c.01-.05.04-.08.07-.08.03,0,.06.03.07.08.01.04.01.09.01.09v.23h-.17v-.23s0-.04.01-.09Z"/><path class="cls-9" d="m41.69,42.08l-.13-1.13c.1,0,.18-.09.18-.19,0-.04-.01-.08-.03-.11.07-.03.11-.1.11-.18,0-.1-.08-.19-.18-.19l-.02-.61c.07-.01.16-.06.16-.18v-.4h-.35v.18h-.07v-.18h-.35v.18h-.07v-.18h-.35v.4c0,.11.08.16.16.18l-.02.6h-.2l-.03-1.27c.07-.01.15-.06.15-.18v-.4h-.35v.18h-.07v-.18h-.35v.18h-.07v-.18h-.35v.4c0,.11.08.16.16.18l-.03,1.27h-.2l-.03-.6c.07-.01.16-.06.16-.18v-.4h-.35v.18h-.07v-.18h-.35v.18h-.07v-.18h-.35v.4c0,.11.08.16.15.18l-.02.61c-.1,0-.18.09-.18.19,0,.08.04.14.11.18-.02.03-.03.07-.03.11,0,.1.08.18.18.19l-.13,1.13c-.11,0-.19.09-.19.2s.09.2.2.2h3.3c.11,0,.2-.09.2-.2s-.08-.2-.19-.2Zm-1.64-.89h-.02s-.02,0-.02,0c-.45.18-.5.71-.51.89h-.23c0-.19.08-.88.72-1.12h.07c.65.24.71.93.72,1.12h-.23c0-.17-.06-.71-.51-.89Zm.41.89h-.85c0-.16.06-.63.42-.79.37.16.42.63.43.79Zm-.69-1.12c-.52.32-.58.94-.59,1.12h-.71l.13-1.12h1.16Zm1.11,1.12c0-.18-.07-.81-.59-1.12h1.17l.13,1.12h-.71Zm-.21-2.59v-.3h.15v.18h.27v-.17h.16v.17h.27v-.18h.15v.3c0,.08-.1.08-.11.08h-.78s-.11,0-.11-.08Zm.86.78h-.73l.02-.6h.68l.02.6Zm-2-1.45v-.3h.15v.18h.27v-.18h.15v.18h.27v-.18h.15v.3c0,.08-.1.08-.11.08h-.05s-.69,0-.69,0h-.04s-.11-.01-.11-.09Zm.87,1.45h-.74l.03-1.26h.68l.03,1.26Zm-2-.78v-.3h.15v.18h.27v-.17h.16v.17h.27v-.18h.15v.3c0,.08-.1.08-.11.08h-.77s-.11,0-.11-.08Zm.86.78h-.73l.02-.6h.68l.03.6Zm-.91.2s.03-.08.07-.1h0s.01,0,.02,0h3.16c.06,0,.1.05.1.1s-.04.1-.1.1h-3.16c-.05,0-.1-.05-.1-.1Zm.08.29s.02-.07.05-.09h3.09s.05.05.05.09c0,.05-.04.1-.1.1h-3c-.06,0-.1-.05-.1-.1Zm3.25,1.62h-3.3c-.06,0-.1-.04-.1-.1,0-.06.04-.1.1-.1h3.3c.06,0,.1.04.1.1,0,.05-.04.1-.1.1Z"/><polygon class="cls-3" points="43.51 49.61 42.47 50.63 41.44 51.67 42.24 52.69 43.38 51.54 44.52 50.41 43.51 49.61"/><path class="cls-3" d="m44.56,50.4l-2.33,2.33s-.04.1,0,.14c.04.04.1.04.14,0l2.33-2.33s.04-.11,0-.14c-.04-.04-.1-.04-.14,0Z"/><path class="cls-3" d="m43.42,49.41l-2.18,2.19s0,.07.02.1c.04.04.1.04.14,0l2.12-2.12s.04-.1,0-.14c-.02-.03-.06-.03-.1-.02Z"/><path class="cls-3" d="m42.69,48.49c-.1-.1-.25-.26-.25-.26l-.18.18.13.13-.12.12-.12-.13-.09.09-.09.09.13.13-.12.12-.13-.13-.18.17s.16.16.26.26c.1.09.21-.01.21-.01l.5.54-.21.21-1.01-.97s.11-.11.01-.21c-.1-.09-.26-.26-.26-.26l-.18.18.13.13-.12.12-.13-.13-.09.09-.09.09.13.13-.12.12-.13-.13-.17.17s.16.17.26.26c.1.1.21,0,.21,0l.96,1-.21.21-.53-.5s.11-.11.01-.21c-.1-.1-.26-.26-.26-.26l-.18.17.13.13-.12.12-.13-.13-.09.09-.09.09.13.13-.12.12-.13-.13-.18.18s.16.16.26.26c.1.09.21-.01.21-.01l.49.53-.02.02s-.03.1,0,.14c.04.04.1.04.14,0l2.23-2.23s.04-.1,0-.14c-.04-.04-.1-.04-.14,0l-.02.02-.54-.5s.11-.11.01-.21Z"/><path class="cls-9" d="m40.92,50.79s-.02-.08,0-.1c.02-.02.06-.02.1,0,.03.01.06.04.06.04l.13.13-.12.12-.13-.13s-.02-.03-.04-.06Z"/><path class="cls-9" d="m42.52,49.18s-.02-.08,0-.1c.02-.02.06-.02.1,0,.03.02.06.04.06.04l.13.13-.11.11-.13-.13s-.02-.03-.04-.06Z"/><path class="cls-9" d="m41.42,49.69c-.03-.05-.03-.09-.01-.11.02-.02.06-.02.11.01.04.02.07.05.07.05l.16.16-.12.12-.16-.16s-.03-.03-.05-.06Z"/><path class="cls-9" d="m44.5,50.32l-.89-.7c.06-.08.06-.19-.01-.26-.03-.03-.06-.05-.1-.06.02-.07.01-.15-.05-.2-.07-.07-.19-.07-.27-.01l-.44-.41c.04-.06.06-.15-.02-.24l-.28-.29-.25.25.13.13-.05.05-.12-.12-.25.25.12.12-.05.05-.13-.13-.25.24.29.29c.08.08.17.05.24.02l.41.45-.14.14-.92-.88c.04-.06.06-.16-.01-.24l-.29-.29-.25.25.13.12-.05.05-.12-.12-.25.25.12.12-.05.05-.13-.13-.24.24.28.29c.08.08.18.05.24.01l.88.92-.14.15-.45-.41c.04-.06.06-.16-.01-.24l-.29-.28-.24.25.12.13-.05.05-.12-.13-.25.25.12.12-.05.05-.12-.13-.25.25.29.28c.08.08.17.06.23.02l.41.44c-.06.08-.06.2.01.27.05.06.13.07.2.05,0,.04.02.07.05.1.07.07.19.07.27.01l.7.89c-.07.08-.07.2,0,.27.07.08.2.08.28,0l2.33-2.33c.08-.08.08-.2,0-.28-.08-.08-.2-.08-.28,0Zm-1.79.53h-.02s0,.03,0,.03c-.19.44.15.86.27.99l-.16.16c-.13-.14-.57-.68-.29-1.3l.05-.05c.63-.29,1.17.15,1.3.28l-.16.16c-.12-.12-.54-.46-.98-.27Zm.92.34l-.6.6c-.11-.11-.4-.48-.26-.86.37-.14.74.15.86.26Zm-1.28-.31c-.14.59.25,1.08.37,1.21l-.5.5-.7-.89.82-.82Zm1.58,0c-.13-.13-.62-.52-1.21-.38l.82-.82.89.7-.5.5Zm-1.98-1.68l-.22-.21.11-.11.13.13.19-.19-.12-.12.11-.11.12.13.19-.19-.12-.13.11-.11.21.21c.06.06,0,.13-.01.14h-.01s-.54.55-.54.55c-.01.01-.08.07-.14.01Zm1.16-.06l-.52.52-.4-.44.48-.48.44.4Zm-2.44.38l-.22-.22.11-.1.13.12.19-.19-.12-.12.11-.11.12.12.19-.19-.13-.12.11-.11.22.22c.06.06-.01.13-.02.14l-.03.03-.49.49-.02.03s-.08.07-.14.01Zm1.64.41l-.52.52-.87-.91.48-.48.91.87Zm-1.96.86l-.22-.21.11-.11.12.13.19-.19-.12-.12.11-.11.12.12.19-.19-.13-.13.11-.1.22.21c.06.06-.01.13-.02.14h0s-.54.54-.54.54h0s-.08.07-.13.02Zm1.16-.06l-.52.52-.41-.44.48-.48.44.4Zm-.51.78s-.03-.08-.01-.12h0s0-.01.01-.02l2.24-2.23s.1-.04.14,0c.04.04.04.1,0,.14l-2.23,2.23s-.1.04-.14,0Zm.26.15s-.03-.07-.02-.1l2.18-2.19s.07,0,.1.02c.04.04.04.1,0,.14l-2.12,2.12s-.1.04-.14,0Zm3.44-1.15l-2.33,2.33s-.1.04-.14,0c-.04-.04-.04-.1,0-.14l2.33-2.33s.1-.04.14,0c.04.04.04.1,0,.14Z"/><polygon class="cls-3" points="59.93 31.57 58.47 31.56 57.01 31.57 56.86 32.85 58.47 32.85 60.09 32.85 59.93 31.57"/><path class="cls-3" d="m60.12,32.87h-3.3c-.05,0-.1.04-.1.1s.05.1.1.1h3.3c.05,0,.1-.04.1-.1s-.05-.1-.1-.1Z"/><path class="cls-3" d="m60.02,31.37h-3.09s-.06.05-.06.09c0,.05.05.1.1.1h3c.06,0,.1-.05.1-.1,0-.04-.02-.07-.06-.09Z"/><path class="cls-3" d="m60.15,30.2v-.36h-.25v.18h-.17v-.18h-.25v.18h-.17v-.18h-.25v.36c0,.13.16.14.16.14l-.03.73h-.3l-.03-1.4s.16,0,.16-.14v-.37h-.25v.19h-.17v-.18h-.25v.18h-.17v-.19h-.25v.37c0,.13.16.14.16.14l-.03,1.4h-.3l-.03-.72s.16,0,.16-.14v-.37h-.25v.18h-.17v-.18h-.25v.18h-.17v-.18h-.25v.37c0,.13.16.14.16.14l-.03.72h-.03c-.05,0-.1.05-.1.1s.05.1.1.1h3.16c.06,0,.1-.05.1-.1s-.04-.1-.1-.1h-.03l-.03-.73s.16,0,.16-.14Z"/><path class="cls-9" d="m57.27,30.57s.04-.07.07-.07c.03,0,.06.02.07.07.01.04.01.07.01.07v.19h-.16v-.19s0-.04,0-.07Z"/><path class="cls-9" d="m59.53,30.57s.04-.07.07-.07c.03,0,.06.02.07.07.01.04.01.07.01.07v.19h-.17v-.19s0-.04.01-.07Z"/><path class="cls-9" d="m58.4,30.14c.01-.06.04-.08.07-.08s.06.03.07.08c.01.04.01.08.01.08v.23h-.16v-.23s0-.04.01-.08Z"/><path class="cls-9" d="m60.13,32.78l-.13-1.13c.1,0,.18-.09.18-.19,0-.04-.01-.08-.03-.11.06-.03.11-.1.11-.18,0-.1-.08-.19-.18-.2l-.03-.61c.07-.01.16-.06.16-.18v-.4h-.35v.18h-.07v-.17h-.35v.17h-.07v-.18h-.35v.4c0,.11.08.16.16.18l-.03.61h-.2l-.03-1.27c.07-.02.16-.07.16-.18v-.4h-.35v.18h-.07v-.17h-.35v.17h-.07v-.18h-.35v.4c0,.11.08.16.16.18l-.03,1.27h-.2l-.02-.61c.07-.01.16-.06.16-.18v-.4h-.35v.18h-.07v-.17h-.35v.17h-.07v-.18h-.35v.4c0,.11.08.16.16.18l-.03.61c-.1,0-.18.09-.18.2,0,.08.05.14.11.18-.02.03-.04.07-.04.11,0,.1.08.18.18.19l-.13,1.13c-.11,0-.19.09-.19.19s.09.2.2.2h3.3c.11,0,.2-.09.2-.2s-.09-.19-.19-.19Zm-1.64-.89h-.02s-.02,0-.02,0c-.45.18-.5.71-.51.88h-.23c0-.19.08-.88.72-1.12h.06c.65.24.72.93.72,1.12h-.23c0-.17-.06-.71-.51-.88Zm.41.88h-.85c0-.15.06-.63.42-.79.37.16.42.63.42.79Zm-.68-1.12c-.52.31-.59.94-.59,1.12h-.7l.13-1.12h1.17Zm1.11,1.12c0-.18-.07-.81-.59-1.12h1.17l.13,1.12h-.71Zm-.21-2.58v-.3h.15v.18h.27v-.17h.16v.17h.27v-.18h.15v.3c0,.08-.1.08-.11.08h-.77s-.11,0-.11-.08Zm.86.78h-.73l.02-.6h.68l.03.6Zm-2-1.45v-.3h.15v.18h.27v-.17h.16v.17h.27v-.18h.15v.3c0,.08-.1.08-.11.09h-.77s-.11,0-.11-.09Zm.87,1.45h-.74l.03-1.26h.68l.03,1.26Zm-2-.78v-.3h.15v.18h.27v-.17h.15v.17h.27v-.18h.15v.3c0,.08-.1.08-.11.08h-.77s-.11,0-.11-.08Zm.86.78h-.73l.02-.6h.68l.02.6Zm-.91.2s.04-.09.08-.1h0s.01,0,.02,0h3.16c.06,0,.1.05.1.1s-.04.1-.1.1h-3.16c-.05,0-.1-.05-.1-.1Zm.08.29s.02-.07.06-.09h3.09s.06.05.06.09c0,.05-.04.1-.1.1h-3c-.05,0-.1-.05-.1-.1Zm3.25,1.61h-3.3c-.05,0-.1-.04-.1-.1s.05-.1.1-.1h3.3c.05,0,.1.04.1.1s-.05.1-.1.1Z"/><polygon class="cls-3" points="59.93 40.87 58.47 40.86 57.01 40.87 56.86 42.15 58.47 42.15 60.09 42.15 59.93 40.87"/><path class="cls-3" d="m60.12,42.18h-3.3c-.05,0-.1.04-.1.1,0,.05.05.1.1.1h3.3c.05,0,.1-.04.1-.1,0-.06-.05-.1-.1-.1Z"/><path class="cls-3" d="m60.02,40.67h-3.09s-.06.05-.06.09c0,.05.05.1.1.1h3c.06,0,.1-.05.1-.1,0-.04-.02-.07-.06-.09Z"/><path class="cls-3" d="m60.15,39.5v-.36h-.25v.18h-.17v-.18h-.25v.18h-.17v-.18h-.25v.36c0,.13.16.14.16.14l-.03.73h-.3l-.03-1.39s.16,0,.16-.14v-.37h-.25v.19h-.17v-.18h-.25v.18h-.17v-.19h-.25v.37c0,.14.16.14.16.14l-.03,1.39h-.3l-.03-.72s.16,0,.16-.14v-.37h-.25v.19h-.17v-.18h-.25v.18h-.17v-.19h-.25v.37c0,.13.16.14.16.14l-.03.72h-.03c-.05,0-.1.05-.1.1s.05.1.1.1h3.16c.06,0,.1-.05.1-.1s-.04-.1-.1-.1h-.03l-.03-.73s.16,0,.16-.14Z"/><path class="cls-9" d="m57.27,39.87s.04-.07.07-.07c.03,0,.06.03.07.07.01.03.01.07.01.07v.19h-.16v-.19s0-.04,0-.07Z"/><path class="cls-9" d="m59.53,39.87s.04-.07.07-.07c.03,0,.06.03.07.07.01.03.01.07.01.07v.19h-.17v-.19s0-.04.01-.07Z"/><path class="cls-9" d="m58.4,39.44c.01-.05.04-.08.07-.08s.06.03.07.08c.01.04.01.09.01.09v.23h-.16v-.23s0-.04.01-.09Z"/><path class="cls-9" d="m60.13,42.08l-.13-1.13c.1,0,.18-.09.18-.19,0-.04-.01-.08-.03-.11.06-.03.11-.1.11-.18,0-.1-.08-.19-.18-.19l-.03-.61c.07-.01.16-.06.16-.18v-.4h-.35v.18h-.07v-.18h-.35v.18h-.07v-.18h-.35v.4c0,.11.08.16.16.18l-.03.6h-.2l-.03-1.27c.07-.01.16-.06.16-.18v-.4h-.35v.18h-.07v-.18h-.35v.18h-.07v-.18h-.35v.4c0,.11.08.16.16.18l-.03,1.27h-.2l-.02-.6c.07-.01.16-.06.16-.18v-.4h-.35v.18h-.07v-.18h-.35v.18h-.07v-.18h-.35v.4c0,.11.08.16.16.18l-.03.61c-.1,0-.18.09-.18.19,0,.08.05.14.11.18-.02.03-.04.07-.04.11,0,.1.08.18.18.19l-.13,1.13c-.11,0-.19.09-.19.2s.09.2.2.2h3.3c.11,0,.2-.09.2-.2s-.09-.2-.19-.2Zm-1.64-.89h-.02s-.02,0-.02,0c-.45.18-.5.71-.51.89h-.23c0-.19.08-.88.72-1.12h.06c.65.24.72.93.72,1.12h-.23c0-.17-.06-.71-.51-.89Zm.41.89h-.85c0-.16.06-.63.42-.79.37.16.42.63.42.79Zm-.68-1.12c-.52.32-.59.94-.59,1.12h-.7l.13-1.12h1.17Zm1.11,1.12c0-.18-.07-.81-.59-1.12h1.17l.13,1.12h-.71Zm-.21-2.59v-.3h.15v.18h.27v-.17h.16v.17h.27v-.18h.15v.3c0,.08-.1.08-.11.08h-.77s-.11,0-.11-.08Zm.86.78h-.73l.02-.6h.68l.03.6Zm-2-1.45v-.3h.15v.18h.27v-.18h.16v.18h.27v-.18h.15v.3c0,.08-.1.08-.11.08h-.04s-.69,0-.69,0h-.04s-.11-.01-.11-.09Zm.87,1.45h-.74l.03-1.26h.68l.03,1.26Zm-2-.78v-.3h.15v.18h.27v-.17h.15v.17h.27v-.18h.15v.3c0,.08-.1.08-.11.08h-.77s-.11,0-.11-.08Zm.86.78h-.73l.02-.6h.68l.02.6Zm-.91.2s.04-.08.08-.1h0s.01,0,.02,0h3.16c.06,0,.1.05.1.1s-.04.1-.1.1h-3.16c-.05,0-.1-.05-.1-.1Zm.08.29s.02-.07.06-.09h3.09s.06.05.06.09c0,.05-.04.1-.1.1h-3c-.05,0-.1-.05-.1-.1Zm3.25,1.62h-3.3c-.05,0-.1-.04-.1-.1,0-.06.05-.1.1-.1h3.3c.05,0,.1.04.1.1,0,.05-.05.1-.1.1Z"/><polygon class="cls-3" points="57.06 51.67 56.03 50.63 54.99 49.61 53.98 50.41 55.12 51.54 56.27 52.69 57.06 51.67"/><path class="cls-3" d="m56.27,52.73l-2.33-2.33s-.1-.04-.14,0c-.04.04-.04.1,0,.14l2.34,2.34s.1.04.14,0c.04-.04.04-.1,0-.14Z"/><path class="cls-3" d="m57.26,51.59l-2.19-2.19s-.07,0-.1.02c-.04.04-.04.1,0,.14l2.12,2.12s.1.04.14,0c.03-.03.04-.07.02-.1Z"/><path class="cls-3" d="m58.18,50.86c.1-.09.26-.25.26-.25l-.18-.18-.13.13-.12-.12.13-.13-.09-.09-.09-.09-.12.13-.12-.12.13-.13-.18-.18s-.16.16-.26.25c-.1.1.01.21.01.21l-.54.5-.21-.21.96-1s.11.11.21,0c.1-.09.26-.26.26-.26l-.18-.17-.13.13-.12-.12.13-.13-.09-.09-.09-.09-.13.13-.12-.12.13-.13-.17-.18s-.17.17-.26.26c-.1.1.01.21.01.21l-1,.97-.21-.21.5-.54s.11.11.21.01c.1-.1.26-.26.26-.26l-.17-.17-.13.13-.12-.12.13-.13-.09-.09-.09-.09-.13.13-.12-.12.13-.13-.18-.18s-.16.16-.26.26c-.1.09.01.21.01.21l-.53.49-.02-.02s-.1-.04-.14,0c-.04.04-.04.1,0,.14l2.23,2.23s.1.04.14,0c.04-.04.04-.1,0-.14l-.02-.02.5-.54s.11.11.21.01Z"/><path class="cls-9" d="m55.88,49.08s.08-.02.1,0c.02.02.02.06,0,.1-.01.04-.04.06-.04.06l-.13.13-.12-.11.13-.13s.02-.02.06-.04Z"/><path class="cls-9" d="m57.48,50.69s.07-.02.1,0c.02.02.02.06,0,.1-.02.03-.04.06-.04.06l-.13.13-.11-.12.13-.13s.02-.03.06-.04Z"/><path class="cls-9" d="m56.98,49.58s.09-.03.11-.01c.02.03.02.06-.01.11-.02.03-.05.06-.05.06l-.16.16-.12-.12.16-.16s.03-.03.06-.05Z"/><path class="cls-9" d="m56.35,52.67l.7-.89c.08.06.19.06.26-.01.03-.03.05-.06.06-.1.07.02.15,0,.2-.05.07-.07.07-.19.01-.26l.41-.45c.06.04.16.06.24-.02l.29-.28-.25-.25-.13.13-.05-.05.12-.12-.25-.25-.12.13-.05-.05.12-.12-.24-.25-.29.28c-.08.08-.05.18-.02.24l-.45.41-.14-.15.88-.92c.06.04.16.06.24-.01l.29-.29-.25-.24-.12.13-.05-.05.12-.12-.25-.25-.12.12-.05-.05.13-.12-.24-.25-.29.29c-.08.08-.05.18-.01.24l-.92.88-.15-.14.41-.45c.06.04.16.06.24-.02l.28-.29-.24-.24-.13.13-.05-.05.12-.12-.25-.25-.12.12-.05-.05.13-.13-.25-.25-.28.29c-.08.08-.06.17-.02.24l-.45.41c-.08-.06-.19-.06-.27.01-.06.05-.07.13-.05.2-.04.01-.07.03-.1.06-.07.07-.07.18-.01.26l-.89.7c-.08-.07-.2-.07-.27,0-.08.08-.08.2,0,.28l2.33,2.33c.08.08.2.08.28,0,.08-.07.08-.19,0-.27Zm-.53-1.79h-.01s-.01-.03-.01-.03c-.44-.19-.86.15-.99.27l-.16-.16c.14-.13.68-.57,1.3-.28l.05.05c.29.63-.15,1.16-.28,1.3l-.16-.16c.12-.12.46-.54.27-.99Zm-.34.91l-.6-.6c.12-.1.48-.4.86-.26.14.37-.15.74-.25.86Zm.31-1.28c-.59-.15-1.08.25-1.21.38l-.5-.5.89-.7.82.82Zm-.01,1.58c.13-.13.52-.62.37-1.21l.82.82-.7.89-.5-.5Zm1.68-1.98l.22-.21.11.11-.13.12.19.19.12-.12.11.11-.13.12.19.19.13-.13.11.11-.22.21c-.05.05-.13,0-.14-.02h0s-.54-.55-.54-.55c0-.01-.07-.08-.01-.14Zm.06,1.16l-.52-.52.44-.4.48.48-.4.44Zm-.39-2.43l.22-.22.11.11-.13.12.19.19.12-.12.11.11-.12.12.19.19.12-.13.11.11-.22.22c-.06.06-.13,0-.13-.01l-.04-.04-.49-.49-.03-.02s-.07-.08-.01-.14Zm-.41,1.63l-.52-.52.91-.87.48.48-.87.91Zm-.86-1.96l.21-.21.11.11-.13.13.19.19.12-.12.11.11-.12.12.19.19.13-.13.11.11-.22.22c-.06.05-.13-.01-.14-.02h0s-.54-.54-.54-.54h0s-.07-.08-.01-.14Zm.06,1.16l-.52-.52.44-.4.48.48-.4.44Zm-.78-.5s.08-.04.12-.01h0s.01,0,.02.01l2.23,2.23s.04.1,0,.14c-.04.04-.1.04-.14,0l-2.23-2.23s-.04-.1,0-.14Zm-.15.26s.07-.03.1-.02l2.19,2.19s0,.07-.02.1c-.04.04-.1.04-.14,0l-2.12-2.12s-.04-.1,0-.14Zm1.16,3.44l-2.34-2.34s-.04-.1,0-.14c.04-.04.1-.04.14,0l2.33,2.33s.04.1,0,.14c-.04.04-.1.04-.14,0Z"/><path class="cls-10" d="m47.72,35.04v2.21s.01.42.2.82c.26.54.71.82,1.33.82s1.07-.27,1.33-.82c.19-.4.2-.82.2-.82v-2.21h-3.06Zm.7.54c.17,0,.3.13.3.3s-.13.3-.3.3-.3-.14-.3-.3.14-.3.3-.3Zm0,2.26c-.17,0-.3-.14-.3-.3s.14-.3.3-.3.3.14.3.3-.13.3-.3.3Zm.83-.82c-.17,0-.3-.14-.3-.3s.14-.3.3-.3.3.13.3.3-.13.3-.3.3Zm.83-1.43c.17,0,.3.13.3.3s-.13.3-.3.3-.3-.14-.3-.3.14-.3.3-.3Zm0,2.26c-.17,0-.3-.14-.3-.3s.14-.3.3-.3.3.13.3.3-.13.3-.3.3Z"/><path class="cls-10" d="m47.72,45.55v2.22s.01.41.2.82c.26.54.71.81,1.33.81s1.07-.27,1.33-.81c.19-.41.2-.82.2-.82v-2.21h-3.06Zm.7.54c.17,0,.3.14.3.3s-.13.3-.3.3-.3-.13-.3-.3.14-.3.3-.3Zm0,2.26c-.17,0-.3-.14-.3-.3s.14-.3.3-.3.3.14.3.3-.13.3-.3.3Zm.83-.83c-.17,0-.3-.14-.3-.3s.14-.3.3-.3.3.14.3.3-.13.3-.3.3Zm.83-1.43c.17,0,.3.14.3.3s-.13.3-.3.3-.3-.13-.3-.3.14-.3.3-.3Zm0,2.26c-.17,0-.3-.14-.3-.3s.14-.3.3-.3.3.14.3.3-.13.3-.3.3Z"/><path class="cls-10" d="m47.72,40.3v2.21s.01.41.2.82c.26.54.71.82,1.33.82s1.07-.28,1.33-.82c.19-.41.2-.82.2-.82v-2.21h-3.06Zm.7.54c.17,0,.3.13.3.3s-.13.3-.3.3-.3-.14-.3-.3.14-.3.3-.3Zm0,2.26c-.17,0-.3-.14-.3-.3s.14-.3.3-.3.3.14.3.3-.13.3-.3.3Zm.83-.82c-.17,0-.3-.14-.3-.31s.14-.3.3-.3.3.13.3.3-.13.31-.3.31Zm.83-1.43c.17,0,.3.13.3.3s-.13.3-.3.3-.3-.14-.3-.3.14-.3.3-.3Zm0,2.26c-.17,0-.3-.13-.3-.3s.14-.3.3-.3.3.14.3.3-.13.3-.3.3Z"/><path class="cls-10" d="m43.43,40.3v2.21s.01.41.21.82c.26.54.71.82,1.33.82s1.07-.28,1.33-.82c.2-.41.2-.82.2-.82v-2.21h-3.06Zm.71.54c.17,0,.3.13.3.3s-.14.3-.3.3-.3-.14-.3-.3.13-.3.3-.3Zm0,2.26c-.17,0-.3-.14-.3-.3s.13-.3.3-.3.3.14.3.3-.14.3-.3.3Zm.83-.82c-.17,0-.3-.14-.3-.31s.13-.3.3-.3.3.13.3.3-.14.31-.3.31Zm.83-1.43c.17,0,.3.13.3.3s-.13.3-.3.3-.31-.14-.31-.3.14-.3.31-.3Zm0,2.26c-.17,0-.3-.13-.3-.3s.13-.3.3-.3.3.14.3.3-.13.3-.3.3Z"/><path class="cls-10" d="m52.01,40.3v2.21s.01.41.2.82c.26.54.71.82,1.33.82s1.07-.28,1.33-.82c.19-.41.21-.82.21-.82v-2.21h-3.07Zm.71.54c.17,0,.3.13.3.3s-.13.3-.3.3-.3-.14-.3-.3.13-.3.3-.3Zm0,2.26c-.17,0-.3-.14-.3-.3s.13-.3.3-.3.3.14.3.3-.13.3-.3.3Zm.83-.82c-.17,0-.3-.14-.3-.31s.13-.3.3-.3.3.13.3.3-.13.31-.3.31Zm.83-1.43c.17,0,.3.13.3.3s-.14.3-.3.3-.3-.14-.3-.3.13-.3.3-.3Zm0,2.26c-.17,0-.3-.13-.3-.3s.13-.3.3-.3.3.14.3.3-.14.3-.3.3Z"/></g></g></svg>