<?xml version="1.0" encoding="UTF-8"?><svg id="Layer_2" xmlns="http://www.w3.org/2000/svg" xmlns:xlink="http://www.w3.org/1999/xlink" viewBox="0 0 123.11 84.13"><defs><style>.cls-1{fill:#fff;}.cls-2{fill:#1a7240;}.cls-3{fill:#cccbca;}.cls-4{clip-path:url(#clippath);}.cls-5{fill:none;}</style><clipPath id="clippath"><path class="cls-5" d="m102.57,42.06c0,22.67-18.37,41.04-41.04,41.04s-41.04-18.37-41.04-41.04S38.87,1.03,61.54,1.03s41.04,18.37,41.04,41.04Z"/></clipPath></defs><g id="Layer_1-2"><circle class="cls-3" cx="61.54" cy="42.06" r="42.06" transform="translate(-.8 1.19) rotate(-1.1)"/><g class="cls-4"><rect class="cls-2" y="1.03" width="123.11" height="82.07"/><path class="cls-1" d="m29.47,29.25s.75-1.05.75-2.05-.61-.83-.84-.66c-.23.17-.68.62-.45.89.23.27.48-.21.64-.21s.2.09.2.5-.3,1.53-.3,1.53Z"/><path class="cls-1" d="m27.68,29.45s.05,5.16,1.18,5.16c0,0,.5,0,.64-1.34.15-1.34.73-4.69,2.14-4.69s-.71,2.71.41,5.08c0,0,.41.88,1.17.88,0,0-.19-3.58-.43-4.78-.24-1.2-.11-1.2-.11-1.2,0,0-.54-.66-.19-1.25.35-.59.53-.82.86-.31.32.52,1.48,2.16.42,2.73l.44,4.65s1.11-.7.85-1.99c-.27-1.3-.83-3.21-.15-4.22,0,0,.92.6.92,1.52s-.07,4.59,1.78,4.59-.45-4.11-.45-4.85c0,0-.09-.2.35-.67.44-.47.49-.64.83-.29.34.35.95.97.95,1.57s-.52.35-.52.35c0,0,.62,1.98.62,3.3s-.77,2.4-2.19,2.4-1.69-1.74-1.69-1.74c0,0-.78,1.26-1.18,1.53l.3,5.81s-.04.87-.52,1.33c0,0-.11.05-.14-.55-.04-.59-.6-5.93-.6-5.93,0,0-2.5.43-2.5-3.27,0,0,.03-.61.09-1.33.07-.72-.01-1.49-.24-.92-.23.57-.31,1.08-.67,2.91-.36,1.82-.83,2.33-1.37,2.33s-1.55-1.67-1.55-4.38.54-2.42.54-2.42Z"/><path class="cls-1" d="m36.74,26.74s.09,1.02.45,1.02.42-.72.42-.72c0,0,.15.13.15.6s-.35.65-.54.65-.55-.21-.55-.43c0,0-.17.39-.68.39s-.72-.61-.72-.97.14-.67.26-.67.17.53.17.64c0,.11.09.47.31.47s.43-.2.72-.97Z"/><path class="cls-1" d="m27.62,41.07s1.76-2.47,4.51-3.2c0,0,.47-.19.47.3s.06.49-.58.68c-.65.19-2.34.92-4.4,2.21Z"/><path class="cls-1" d="m48,38.38c0-.23-.02-1.53-.24-1.54-.22,0-.79.44-.68.55.11.12.48,1.78-.39,1.78s-1.12-2.12-1.12-2.12c-.48,1.35-1.1,2.29-1.76,2.29s-.82-.84-.82-1.04.15-1.11-.2-1.11-1.07.79-1.07.79l-.49-7.03c.49.53.78.13.78-.37s-.98-3.11-1.21-3.51c-.23-.39-.68.12-1.06.69-.38.57.05,1.11.05,1.11,0,.8.1,2.05.39,4.52.29,2.47.53,5.24.53,5.24l-.94.55s-.6-2.04-2.21-2.04-1.6,1.36-1.6,3.37,3.11.46,3.11.46c0,1.32-1.92,3.99-4.47,3.99s-1.93-4.48-1.93-4.48c-1.48,3.06-.57,6.17,1.88,6.17s4.67-2.27,5.2-3.33c.53-1.06.31-2.7.31-2.7l.72-.42s.19,2.44-.16,4.03c-.35,1.59-3.61,3.81-6.32,3.81s-3.03-2.54-3.03-3.3.18-1.66.18-2.23-.14-.83-.14-.83c-.77,1.02-.75,3.45-.75,3.45,0,4.5,2.18,4.66,3.53,4.66s3.49-.27,6.13-2.11c2.64-1.83,1.62-7.91,1.62-7.91l.2-.21s-.03.89,1.29.89,1.98-1,1.98-1c.53.81,1.25.81,1.25.81,1.54,0,1.44-1.64,1.44-1.88Zm-10.42,1.49c-.64,0-.75-1.18-.24-1.18s1.16.92,1.16.92c0,0-.28.25-.92.25Z"/><path class="cls-1" d="m28.83,43.51s.2.86-.13,1.77c-.33.91-.53,4.1,1.11,2.01,0,0,.62,2.1-.98,2.1s-.97-3.47-.53-4.65c.43-1.18.53-1.22.53-1.22Z"/><path class="cls-1" d="m45.02,42.84s-.72.41-.72-.42.71-.74.71-.74c0,0,.62.05.62,1.23s-.73,1.76-.73,1.76c0,0,.36-1.15.12-1.84Z"/><path class="cls-1" d="m48.59,27.85c0-.27-.1-1.13-.76-1.13s-1.34.64-1.34,1.61.47,1.19.47,1.19c-1.3,2.08-5.84,4.64-2.9,3.37,2.94-1.28,3.63-2.87,3.63-2.87,1.01.04.43-.76.43-.76,0,0,.47-1.14.47-1.41Zm-1.1.81c-.28-.23-.2-.49-.12-.68.07-.19.44-.39.44-.02s-.31.7-.31.7Z"/><path class="cls-1" d="m47.85,33.71s-.08,1.51-1.33,1.51-1.02-2,.29-2.95c0,0,.24-.02-.04.49-.28.5-.83,1.71-.06,1.71s1.14-.76,1.14-.76Z"/><path class="cls-1" d="m55.73,27.74s-.27-.21,0-.54c.25-.33.5-.29.75.31.25.59.46,1.89-.11,3.29,0,0,.2-2.13-.63-3.06Z"/><path class="cls-1" d="m57.24,36.68s.32,1.25.66,1.25.4-1.3.4-1.3c0,0,.52,1.09.79,1.09s.29-1.47.29-1.47c0,0,.38.38.38,1.18s-.52.92-.69.92-.63-.37-.63-.37c0,0-.15.68-.65.68s-.85-.99-.57-1.99Z"/><path class="cls-1" d="m70.71,27.13s.29-.63.64-.2c.34.43.72,1.31.72,2.27s-.61,1.42-.61,1.42c0,0,.27-1.67-.36-2.29-.63-.63-.65-.69-.4-1.2Z"/><path class="cls-1" d="m71,32.05s.21.73.43.73.41-.95.41-.95c0,0,.22.84.48.84s.53-1.11.53-1.11c0,0,.19.31.19,1.03s-.4.78-.51.78-.41,0-.61-.41c0,0-.19.42-.65.42s-.49-.84-.29-1.33Z"/><path class="cls-1" d="m91.2,28.71s.29-.63.64-.21c.34.43.73,1.32.73,2.28s-.61,1.41-.61,1.41c0,0,.27-1.66-.36-2.29-.63-.63-.65-.69-.4-1.2Z"/><path class="cls-1" d="m63.55,48.02s.99-.88,1.52-.88-.06.92-.06,1.19-.12.84.71.44c.83-.4,1.59-.71,1.74-.65.14.06-1.2,1.56-2.41,1.56s-.62-1.3-.58-1.47c.04-.17.08-.43-.59-.12-.68.3-.31-.06-.31-.06Z"/><path class="cls-1" d="m86.61,47.32s.78-.07.78.37-.75.97-.11.97.62.49.09.75c-.54.25-1.67.81-1.67.14s.8-.44.8-1.03-.59-.27-.59-.7.7-.5.7-.5Z"/><path class="cls-1" d="m83.85,39.56s.3-.49.73,0c.43.48.61,1.04.61,1.62s-.45.99-.57.97c-.13-.02.01-.51.01-.9s-.6-.89-.81-1.05c-.21-.16-.1-.52.03-.63Z"/><path class="cls-1" d="m84.67,36.95s.44-.34.44.51-.85.62-2.53,1.88c-1.68,1.26-1.21.45-1.13.33.08-.12,3.22-2.72,3.22-2.72Z"/><path class="cls-1" d="m81.55,34.29s.53.74.84,1.41c.33.66.66.88.68.05.01-.83,0-2.03,0-2.03,0,0-.02-.51.29-.51s.32.41.53.18c.2-.22,0-.54-.05-.73-.06-.19-.28-.69-.77-.24-.49.45-.45.98-.39,1.6.06.61.14,1.66-.26.78-.4-.88-.63-1.73-1.17-1.73s-.41,1.49-.06,1.49.36-.27.36-.27Z"/><path class="cls-1" d="m66.68,42.13c-1.35.24-7.79.11-7.79.11,2.33-1.1,3.79-1.61,3.79-1.61l.47.24.02-.39s2.53-.98,2.53-2.28-1.78-2.37-2.93-2.37-1.88,1.46-1.88,2.27.37,1.19.37,1.19c0,0-4.02,1.38-4.54,1.77-.52.38-.83,1.35-.83,1.91s1.42.45,1.42.45c2.87,0,3.42.81,3.42.81-2.85,1.08-2.12,3.27-2.12,3.27-2.15-.69-2.57-1.78-2.89-2.98-.31-1.19-.6-3.51-.95-4.77-.35-1.27-1.54-4.27-1.78-4.27s-.95,1.34-.66,2.17c.29.83,1.88,6.06,1.88,6.06-1.6,3.08-3.91,4.77-5.4,4.77s-1.27-1.38-1.27-1.38c2.97-1.55,4.3-3.87,4.3-5.3s-.68-2.99-.68-2.99c0,0,.47.27.47-.23s-1.41-2.07-1.63-2.07-.88,1.1-.88,1.59.55.63.55.63c0,0,1.19,1.61,1.19,2.94s-3.04,3.36-3.04,3.36c0,0,.31-2.22-.09-2.15-.4.07-1.25,3.12-1.25,3.12,0,0-3.45,2.15-3.64,2.25-.19.08-3.47,1.51-2.15,1.51s5.73-1.99,5.73-1.99c.04,2.43,2.32,2.49,2.32,2.49,3.09,0,5.96-4.56,5.96-4.56,1.86,4.2,5.63,4.31,6.51,4.31s1-.78,1-1.32-2.54-.85-2.54-2.05,5.04-2.29,6.29-2.52c1.25-.23,1.29-.61,1.44-1.01.14-.4.63-1.23-.72-.99Zm-4.17-4.45c.17,0,1.5.67,1.5.82s-1.52.45-1.52.45c-.25-.69-.14-1.27.02-1.27Z"/><path class="cls-1" d="m49.9,28.33s-.18,1.82-.18,2.84.7,2.41,1.27,2.41,2.12-5.68,3.33-5.68.25,1.45.25,4.33,1.8,1.86,2,1.78c.2-.09,1.54-.86,1.54-2.65s-.62-3.54-.62-3.84.54-1.56.82-1.27c.28.28.78,2.01.78,3.22s.46,4.29,1.89,4.29.43-3.26.27-3.79c-.16-.54-.86-1.89-.6-2.23.27-.33.6-.84.72-1.06.12-.22.51.06.83.41.33.35.98,1.2.98,1.97s-.97-.2-.97-.2c0,0,.63,1.86.63,3.49s-.86,2.79-1.89,2.79-2.25-1.51-2.25-1.51c0,0-1.02,2.16-3.13,2.16s-1.94-3.24-1.94-3.24c0,0,.17-1.75-.06-1.67-.23.07-.91,2.16-1.15,2.84-.24.68-.48,1.39-1.16,1.39s-2.12-1.67-2.12-3.78.75-3.03.75-3.03Z"/><path class="cls-1" d="m66.08,29.54l1.61,2.35-.26-2.76s-.31-.26-.31-.69.32-1.42.76-1.42,1.7,3.1,1.7,3.79-.63.18-.63.18l.12,3.15s3.42,5,4.62,8.08c1.21,3.08.47,3.02.15,2.27-.33-.76-2.76-5.93-4.57-8.13,0,0,.56,5.79.56,7.19s-.43,4.23-1.07,4.23.27-1.93.23-3.09c-.04-1.17-.82-8.53-1.16-10.56l-3.51-4.87s-.69.09-.69-.89-.22-1.91.23-1.91,3.1,2.47,3.1,2.91-.86.16-.86.16Z"/><path class="cls-1" d="m75.23,30.37s-.05,1.85.33,5.18c.38,3.33.44,5.74.44,7.07s.4,7.7-6.23,7.7c0,0-.41.02-.41-.15s.4-.3.99-.5c.58-.19,4.99-1.55,4.63-6.8-.36-5.25-.98-13.54-1.26-13.81,0,0-.27-.14-.27-.66s1.02-1.51,1.28-1.51,1.12,2.88,1.12,3.44-.62.05-.62.05Z"/><path class="cls-1" d="m78.44,30.79s1.12,9.96,1.49,12.43c.37,2.47-.99,3.68-1.23,3.68s.06-.85.06-2.2-1.32-10.16-1.61-12.49c-.29-2.33-.59-2.31-.59-3.72s.89-1.94,1.12-1.94.53.96.53.96c0,0,.63,1.89.98,2.41.35.53.35.76.35.94s-.69.26-1.09-.08Z"/><path class="cls-1" d="m77.72,43.4s-.06,4.72,1.36,4.72c0,0,.39.25,1.48-2.23,1.1-2.47,1.61-2.93,2.13-2.93s1.54,2.05,2.56,2.05,1.33-1.58,1.33-2.73-.55-8.62-.55-8.62l-3.3-4.24s-.14-.14-.14-1.07-.13-1.52.21-1.52.86.77,1.51,1.34c.65.56.92.76.92,1.09s-.48.12-.48.12l1.08,1.6-.17-1.91s-.3-.42-.3-.86.53-1.52.85-1.52,1.36,2.86,1.36,3.41-.45-.03-.45-.03l.16,3.06,2.03,2.77s-.84-5.26-.84-7.54c0,0-.11-.11-.11-.44s.66-1.41.99-1.41,1.22,3.05,1.22,3.73-.54.2-.54.2l.55,7.23s2.6,3.65,3.05,4.67c.44,1.02.4,2.5.24,2.43-.16-.07-1.41-2.56-3.1-4.55,0,0,.49,4.11-.42,4.75,0,0-.09-1.69-.09-2.55s-.41-3.42-.41-3.42l-2.35-3.29s.36,6.24.36,7.93-.82,3.25-2.34,3.25-2.86-1.88-2.86-1.88c0,0-.52.36-1.59,2.53-1.08,2.16-1.41,2.35-1.87,2.35s-2.3-1.1-2.3-2.96.83-3.54.83-3.54Z"/><path class="cls-1" d="m93.23,28.28s-.13-.08-.13-.44.63-1.33.92-1.33,1.63,2.9,1.63,3.45-.62-.09-.62-.09c0,0-.01.53.34,4.87.34,4.33,2.33,12.18-3.39,14.51-5.71,2.33,1.15-1.52,2.12-3.92.97-2.4.4-5.54.07-8.78-.33-3.23-.94-8.28-.94-8.28Z"/><path class="cls-1" d="m85.43,60.99h-6.17l-.02-.57s.42-.4.42-.68-.4-1.03-.69-1.03-.72.63-.72.99.44.73.44.73v.56l-42.84-.13c2.07,2.07,2.26,2.11,11.53,2.34,9.27.23,31.41-.43,31.41-.43v.69s-.44.34-.44.71.37.98.71.98.54-.73.54-.73h2.18s-.04.44.49.44.56-.5.56-.5h2.34s.34.52.88.52,1.22-.26,1.22-2.15-1.84-1.74-1.84-1.74Zm-.44,2.82l-2.16.03s-.14-.39-.55-.39-.47.46-.47.46l-2.11.03s-.1-.33-.4-.5l-.04-.68,5.79-.14s-.31.72-.08,1.21Z"/></g></g></svg>