<?xml version="1.0" encoding="UTF-8"?><svg id="Layer_2" xmlns="http://www.w3.org/2000/svg" xmlns:xlink="http://www.w3.org/1999/xlink" viewBox="0 0 123.11 84.13"><defs><style>.cls-1{fill:#fff;}.cls-2{fill:#2e307f;}.cls-3{fill:#d12633;}.cls-4{fill:#cccbca;}.cls-5{clip-path:url(#clippath);}.cls-6{fill:none;}.cls-7{fill:#d12433;}</style><clipPath id="clippath"><path class="cls-6" d="m102.59,42.06c0,22.67-18.37,41.04-41.04,41.04s-41.04-18.37-41.04-41.04S38.88,1.03,61.55,1.03s41.04,18.37,41.04,41.04Z"/></clipPath></defs><g id="Layer_1-2"><path class="cls-4" d="m103.61,42.06c0,23.23-18.83,42.06-42.06,42.06s-42.06-18.83-42.06-42.06S38.32,0,61.55,0s42.06,18.83,42.06,42.06Z"/><g class="cls-5"><rect class="cls-2" y="1.03" width="123.11" height="82.08"/><polygon class="cls-1" points="123.11 1.04 108.31 1.04 61.56 32.21 14.8 1.04 0 1.04 0 10.9 46.76 42.08 0 73.25 0 83.11 14.8 83.11 61.56 51.94 108.31 83.11 123.11 83.11 123.11 73.25 76.35 42.08 123.11 10.9 123.11 1.04"/><polygon class="cls-7" points="0 1.04 0 5.97 61.56 47.01 61.56 42.08 0 1.04"/><polygon class="cls-7" points="123.11 78.18 61.56 37.14 61.56 42.08 123.11 83.11 123.11 78.18"/><polygon class="cls-7" points="0 83.11 7.39 83.11 61.56 47.01 61.56 42.08 0 83.11"/><polygon class="cls-7" points="115.72 1.04 61.56 37.15 61.56 42.08 123.1 1.04 115.72 1.04"/><polygon class="cls-3" points="123.11 34.89 66.68 34.89 66.68 1.04 56.42 1.04 56.42 34.89 0 34.89 0 49.26 56.42 49.26 56.42 83.11 66.68 83.11 66.68 49.26 123.11 49.26 123.11 34.89"/><polygon class="cls-1" points="52.32 1.04 52.32 30.79 0 30.79 0 34.89 56.42 34.89 56.42 1.04 52.32 1.04"/><polygon class="cls-1" points="0 53.36 52.32 53.36 52.32 83.11 56.42 83.11 56.42 49.26 0 49.26 0 53.36"/><polygon class="cls-1" points="123.11 49.26 66.68 49.26 66.68 83.11 70.79 83.11 70.79 53.36 123.11 53.36 123.11 49.26"/><polygon class="cls-1" points="123.11 30.79 70.79 30.79 70.79 1.04 66.68 1.04 66.68 34.89 123.11 34.89 123.11 30.79"/></g></g></svg>