<?xml version="1.0" encoding="UTF-8"?><svg id="Layer_2" xmlns="http://www.w3.org/2000/svg" xmlns:xlink="http://www.w3.org/1999/xlink" viewBox="0 0 84.13 84.13"><defs><style>.cls-1{fill:#cccbca;}.cls-2{clip-path:url(#clippath);}.cls-3{fill:none;}.cls-4{fill:#de3128;}.cls-5{fill:#efe82a;}</style><clipPath id="clippath"><path class="cls-3" d="m83.1,42.06c0,22.67-18.37,41.04-41.04,41.04S1.03,64.73,1.03,42.06,19.4,1.03,42.06,1.03s41.04,18.37,41.04,41.03Z"/></clipPath></defs><g id="Layer_1-2"><path class="cls-1" d="m84.13,42.06c0,23.23-18.83,42.06-42.06,42.06S0,65.3,0,42.06,18.83,0,42.06,0s42.06,18.83,42.06,42.06Z"/><g class="cls-2"><rect class="cls-4" x="-19.14" y="1.05" width="123.11" height="82.07"/><path class="cls-5" d="m55.32,39.17s-.04-.06-.09-.06h-9.73l-3.03-9.28s-.04-.06-.08-.06-.07.02-.08.06l-3.01,9.27h-9.73s-.07.04-.09.07c-.01.04,0,.08.03.1l7.87,5.73-3,9.28s0,.07.03.09c.01.01.04.02.05.02.02,0,.04,0,.05-.02,2.29-1.68,6.55-4.76,7.88-5.73l7.89,5.73s.07.02.1,0c.03-.02.04-.06.04-.1l-3.01-9.27,7.87-5.74s.04-.06.03-.1Z"/></g></g></svg>