<svg version="1.1" id="Layer_1" xmlns="http://www.w3.org/2000/svg" xmlns:xlink="http://www.w3.org/1999/xlink" x="0px" y="0px" viewBox="0 0 1336.2 488.6" style="enable-background:new 0 0 1336.2 488.6;" xml:space="preserve" width="100%" height="100%" preserveAspectRatio="none"><style type="text/css"> .st0{clip-path:url(#SVGID_2_);fill:#21A46E;} .st1{clip-path:url(#SVGID_4_);fill:#21A46E;} .st2{clip-path:url(#SVGID_6_);fill:#21A46E;} .st3{clip-path:url(#SVGID_8_);fill:#21A46E;} .st4{clip-path:url(#SVGID_10_);fill:#21A46E;} .st5{clip-path:url(#SVGID_12_);fill:#FEFEFE;} .st6{clip-path:url(#SVGID_14_);fill:#FEFEFE;} .st7{clip-path:url(#SVGID_16_);fill:#FEFEFE;} .st8{clip-path:url(#SVGID_18_);fill:#FEFEFE;} .st9{clip-path:url(#SVGID_20_);fill:#FEFEFE;} .st10{clip-path:url(#SVGID_22_);fill:#24AC7A;} .st11{clip-path:url(#SVGID_24_);fill:#FFFFFF;} .st12{clip-path:url(#SVGID_26_);fill:#FFFFFF;} .st13{clip-path:url(#SVGID_28_);fill:#FFFFFF;} .st14{clip-path:url(#SVGID_30_);fill:#FFFFFF;} .st15{clip-path:url(#SVGID_32_);fill:#FFFFFF;} .st16{clip-path:url(#SVGID_34_);fill:#FFFFFF;} .st17{clip-path:url(#SVGID_36_);fill:#FFFFFF;} .st18{clip-path:url(#SVGID_38_);fill:#FFFFFF;} .st19{clip-path:url(#SVGID_40_);fill:#0A532C;} .st20{clip-path:url(#SVGID_42_);fill:#FFFFFF;} .st21{clip-path:url(#SVGID_44_);fill:#FFFFFF;} .st22{clip-path:url(#SVGID_46_);fill:#FFFFFF;} </style><g><g><defs><rect id="SVGID_1_" width="1336.2" height="488.6"/></defs><clipPath id="SVGID_2_"><use xlink:href="#SVGID_1_" style="overflow:visible;"/></clipPath><path class="st0" d="M794.1,363c0,40.2-0.1,80.3,0.1,120.5c0,4.3-1.2,5.1-5.2,5.1c-80.7-0.1-161.3-0.1-242,0c-3.8,0-5-0.8-5-4.8 c0.1-80.8,0.1-161.7,0-242.5c0-4.1,1.2-4.8,5-4.8c80.7,0.1,161.3,0.1,242,0c4.1,0,5.3,0.8,5.2,5.1C794,282,794.1,322.5,794.1,363"/></g><g><defs><rect id="SVGID_3_" width="1336.2" height="488.6"/></defs><clipPath id="SVGID_4_"><use xlink:href="#SVGID_3_" style="overflow:visible;"/></clipPath><path class="st1" d="M1336.1,362.5c0,40.3-0.1,80.7,0.1,121c0,4.3-1.2,5.1-5.2,5.1c-80.3-0.1-160.7-0.1-241,0c-3.8,0-5-0.8-5-4.8 c0.1-80.8,0.1-161.7,0-242.5c0-4.1,1.2-4.8,5-4.8c80.3,0.1,160.7,0.1,241,0c4.1,0,5.3,0.8,5.2,5.1 C1336.1,281.8,1336.1,322.1,1336.1,362.5"/></g><g><defs><rect id="SVGID_5_" width="1336.2" height="488.6"/></defs><clipPath id="SVGID_6_"><use xlink:href="#SVGID_5_" style="overflow:visible;"/></clipPath><path class="st2" d="M0.1,362.2c0-40.3,0.1-80.7-0.1-121c0-4,1.2-4.8,5-4.8c80.3,0.1,160.7,0.1,241,0c4.1,0,5.2,0.8,5.2,5.1 c-0.1,80.7-0.1,161.3,0,242c0,4.3-1.2,5.1-5.2,5.1c-80.2-0.1-160.3-0.1-240.5,0c-4.2,0-5.5-0.8-5.5-5.4 C0.2,442.9,0.1,402.6,0.1,362.2"/></g><g><defs><rect id="SVGID_7_" width="1336.2" height="488.6"/></defs><clipPath id="SVGID_8_"><use xlink:href="#SVGID_7_" style="overflow:visible;"/></clipPath><path class="st3" d="M271.1,362.2c0-40.3,0.1-80.7-0.1-121c0-4.1,1.2-4.8,5-4.8c80.3,0.1,160.7,0.1,241,0c4.1,0,5.2,0.8,5.2,5.1 c-0.1,80.7-0.1,161.3,0,242c0,4.3-1.2,5.1-5.2,5.1c-80.2-0.1-160.3-0.1-240.5,0c-4.3,0-5.5-0.8-5.5-5.4 C271.2,442.9,271.1,402.6,271.1,362.2"/></g><g><defs><rect id="SVGID_9_" width="1336.2" height="488.6"/></defs><clipPath id="SVGID_10_"><use xlink:href="#SVGID_9_" style="overflow:visible;"/></clipPath><path class="st4" d="M814.1,362.4c0-40.3,0-80.7-0.1-121c0-3.8,0.8-5,4.8-5c80.5,0.1,161,0.1,241.5,0c4,0,4.8,1.2,4.8,5 c-0.1,80.7-0.1,161.3,0,242c0,4.1-0.8,5.2-5.1,5.2c-80.3-0.1-160.7-0.1-241,0c-4.3,0-5.1-1.2-5.1-5.2 C814.2,443,814.1,402.7,814.1,362.4"/></g><g><defs><rect id="SVGID_11_" width="1336.2" height="488.6"/></defs><clipPath id="SVGID_12_"><use xlink:href="#SVGID_11_" style="overflow:visible;"/></clipPath><path class="st5" d="M613.1,445.8c5.3-16.2,10.3-31.7,15.4-47.1c1.4-4.2,2.8-8.3,4.3-12.4c1-2.9,0.2-4.9-2.4-6.8 c-16.3-11.6-32.6-23.4-48.8-35.1c-0.4-0.3-0.7-0.7-1-1.2c0.9-1.5,2.4-0.7,3.5-0.7c19.7-0.1,39.3-0.1,59,0c3,0,4.2-0.9,5.2-3.7 c6.2-19.3,12.6-38.5,18.9-57.8c0.2-0.6,0.2-1.3,1.5-1.4c4.5,13.4,9,26.8,13.5,40.3c2,6.2,4.3,12.3,5.8,18.6 c0.9,3.6,2.6,4.1,5.8,4.1c19-0.1,38-0.1,57-0.1h4.8l0.4,1c-27.5,19.9-55,39.7-82.5,59.6c0.1,0.2,0.2,0.5,0.3,0.7 c9.1-2.3,18.3-4.3,27.3-6.8c4.1-1.2,5.9-1.1,7.4,3.9c4,13.9,9,27.4,13.5,41.1c0.4,1.1,0.8,2.9,0.3,3.3c-1,0.8-2-0.4-2.9-1.1 c-16.2-11.9-32.3-23.7-48.5-35.6c-1.9-1.4-3.4-1.4-5.3,0c-16.1,11.9-32.3,23.7-48.6,35.5C616,444.7,614.9,445,613.1,445.8"/></g><g><defs><rect id="SVGID_13_" width="1336.2" height="488.6"/></defs><clipPath id="SVGID_14_"><use xlink:href="#SVGID_13_" style="overflow:visible;"/></clipPath><path class="st6" d="M1216.8,403.9c8.8-2.3,17.6-4.3,26.3-7c4.4-1.4,6.3-0.8,7.8,3.8c4.5,14.8,9.5,29.5,14.6,45.3 c-6.5-2.8-10.8-7-15.6-10.4c-12.8-9-25.4-18.3-37.8-27.8c-2.3-1.8-3.1,0.2-3.9,0.9c-13.9,9.9-27.8,20-41.6,30.1 c-3.2,2.3-6.3,4.6-9.4,6.9c-1.3-1.1-0.8-2-0.4-3.1c6.2-19,12.3-38,18.7-56.9c0.9-2.6,0.6-3.5-1.6-5 c-15.1-10.9-30.1-21.9-45.1-32.8c-2-1.5-4.1-2.9-7.2-5.2h31.6c10.3,0,20.7-0.2,31,0.1c4.2,0.1,6-1.2,7.2-5.2 c5.7-18.3,11.9-36.4,17.8-54.6c0.4-1.1,0.3-2.7,1.5-2.8c1.3-0.1,1.4,1.4,1.7,2.5c5.5,19,13,37.4,18.1,56.6 c0.8,2.9,2.3,3.6,5.2,3.6c21-0.1,42-0.1,64.3-0.1c-28.3,20.5-55.8,40.3-83.3,60.2C1216.6,403.1,1216.7,403.5,1216.8,403.9"/></g><g><defs><rect id="SVGID_15_" width="1336.2" height="488.6"/></defs><clipPath id="SVGID_16_"><use xlink:href="#SVGID_15_" style="overflow:visible;"/></clipPath><path class="st7" d="M215,342.5c-28.7,20.7-56.1,40.5-83.6,60.3c0.1,0.3,0.2,0.6,0.3,0.9c6.4-1.5,12.7-3,19.1-4.6 c4.4-1,9.5-4,12.9-2.6c3.3,1.3,3.3,7.6,4.7,11.7c3.9,11.5,7.6,23.1,11.4,34.7c0.2,0.7,0.1,1.6,0.2,3.5 c-8.4-6.1-16.2-11.7-23.9-17.3c-9.4-6.8-18.6-13.7-28-20.5c-1.5-1.1-2.5-1.8-4.7-0.1c-17,12.6-34.2,24.8-51.4,37.2 c-1.4-1.1-0.8-2.1-0.4-3.2c6.2-19,12.3-38,18.6-56.9c0.9-2.7,0.7-3.7-1.8-5.4c-17.1-12.1-33.9-24.5-51.8-37.6h5.7 c19.5,0,39,0,58.5,0c2.6,0,4-0.4,4.9-3.2c5.4-17.2,11-34.3,16.6-51.4c0.1-0.1,0.2-0.3,0.3-0.4c1.2-2.5,0.1-7.3,3.2-7.3 c2.2,0,2.4,4.8,3.3,7.5c5.5,16.5,10.9,33,16,49.5c1.2,4,2.9,5.3,7.2,5.3c18.8-0.3,37.6-0.1,56.5-0.1L215,342.5L215,342.5z"/></g><g><defs><rect id="SVGID_17_" width="1336.2" height="488.6"/></defs><clipPath id="SVGID_18_"><use xlink:href="#SVGID_17_" style="overflow:visible;"/></clipPath><path class="st8" d="M342.1,445c2.9-8.5,5.8-17.1,8.6-25.6c3.7-11.3,7.2-22.5,10.9-33.8c0.8-2.3,0.6-3.6-1.7-5.3 c-16-11.3-31.8-22.8-47.6-34.2c-1.1-0.8-2.1-1.5-3.5-2.5c2.1-1.5,3.6-1,5-1c19.1,0,38.3-0.1,57.5,0.1c3.7,0,4.9-1.3,6-4.5 c5.8-18.2,11.9-36.4,17.8-54.6c0.5-1.4,1-2.7,2.1-4.4c3.4,6.6,4.6,13.6,6.9,20.1c4.6,13,8.9,26.1,13,39.3c1,3.2,2.4,4,5.5,4 c20.6-0.1,41.3-0.1,62.5,0.8c-27.4,19.8-54.9,39.7-82.3,59.5c0.1,0.3,0.2,0.6,0.3,0.9c6.4-1.6,12.8-3.2,19.3-4.7 c3.6-0.9,7.4-1.3,10.9-2.6c2.4-0.9,2.8-0.3,3.5,1.8c4.6,14.9,9.5,29.7,14.3,44.5c0.3,1,0.5,1.8-0.5,3 c-10.2-7.4-20.5-14.8-30.7-22.3c-6.6-4.8-13.1-9.8-19.7-14.5c-2-1.4-3.7-1.6-6.1,0.2c-15.2,11.3-30.6,22.2-45.9,33.2 c-1.6,1.1-3.2,2.2-4.8,3.3C342.7,445.4,342.4,445.2,342.1,445"/></g><g><defs><rect id="SVGID_19_" width="1336.2" height="488.6"/></defs><clipPath id="SVGID_20_"><use xlink:href="#SVGID_19_" style="overflow:visible;"/></clipPath><path class="st9" d="M945.3,402.6c6.7,0.4,12.4-2.6,18.5-3.5c2.2-0.4,4.4-1.1,6.6-1.6c7.4-1.7,7.4-1.7,9.8,5.3 c4.6,14,9.2,28,14,42.5c-4.9-0.6-7.8-4.2-11.1-6.6c-13.9-9.9-27.7-20.1-41.4-30.3c-2.5-1.9-4.1-0.3-5.7,0.9 c-12.4,9-24.7,18.1-37.2,27c-4.3,3.1-8.3,6.7-13.3,8.9c-1-2.5,0.4-4.4,1-6.3c5.8-17.9,11.6-35.8,17.8-53.6 c1.2-3.4-0.7-4.2-2.5-5.5c-16.4-11.8-32.8-23.6-49.2-35.4c-0.4-0.3-0.6-0.7-1-1.2c1.2-1.4,2.8-0.6,4.1-0.6c19.3-0.1,38.7-0.1,58,0 c3.3,0,4.6-1,5.7-4.3c6.3-19.6,12.9-39.1,19.5-58.8c2.5,1.4,2.5,4.1,3.2,6.2c5.8,17.6,11.5,35.1,17.1,52.8c1,3.2,2.4,4.2,5.8,4.1 c20.5-0.2,41-0.1,62.2,1C999.8,363.2,972.5,382.9,945.3,402.6"/></g><g><defs><rect id="SVGID_21_" width="1336.2" height="488.6"/></defs><clipPath id="SVGID_22_"><use xlink:href="#SVGID_21_" style="overflow:visible;"/></clipPath><path class="st10" d="M136.4,126.6c3.1,9.5,6.3,18.9,9.4,28.3c2.3,6.9,4.4,13.7,6.6,20.6c0.6,1.8,1.1,3.6,1.2,5.9 c-2.7-1.9-5.4-3.8-8.1-5.7c-9.5-6.9-18.9-13.9-28.4-20.8c-6.9-5.1-13.9-10-20.8-15.1c-1.2-0.9-1.8-0.6-2.7,0 c-18.4,13.4-36.9,26.8-55.3,40.1c-0.7,0.5-1.1,1.4-2.5,1.5c2.1-6.6,4.2-12.9,6.3-19.3c5.2-16.1,10.4-32.2,15.7-48.2 c0.6-1.7,0-2.4-1.1-3.1C38.4,97.5,19.9,84.2,1.5,70.8C1,70.4,0.3,70.4,0,69.3h3.1c22.1,0,44.2-0.1,66.3,0.1c2.4,0,3.4-0.8,4.1-2.9 c5.5-17.1,11-34.2,16.5-51.2c1.5-4.7,3-9.4,4.5-14.1c0.2-0.5,0.4-0.9,1-1.2c5.3,16.4,10.6,32.8,16,49.2c1.9,5.9,4,11.7,5.7,17.6 c0.6,2.1,1.5,2.6,3.6,2.6c22-0.1,44-0.1,66-0.1h3.7c-2.2,2.3-4.5,3.7-6.7,5.3c-11.7,8.5-23.4,17.2-35.2,25.6 c-5.3,3.8-10.3,8.1-16.1,11.3c-1.5,0.1-2.8,0.6-4,1.5c-10.4,7.6-20.8,15.2-31.6,23c12.2-3.1,23.9-6.3,35.7-9.2 C133.8,126.4,135.1,125.6,136.4,126.6"/></g><g><defs><rect id="SVGID_23_" width="1336.2" height="488.6"/></defs><clipPath id="SVGID_24_"><use xlink:href="#SVGID_23_" style="overflow:visible;"/></clipPath><path class="st11" d="M464.8,117.3c-0.9,0-1.8,0-2.6,0c-3-0.1-6,0.9-7.1-3.8c-0.7-3.2-4.4-4.4-7.6-5c-5-1-10-1-14.8,1.3 c-2.3,1.1-3.6,3.2-3.4,5.5c0.3,3,2.4,5,5.3,6.2c6.7,2.8,13.9,3.4,20.7,5.3c5.7,1.6,11.3,3.3,15.9,7.7c5.5,5.2,5.8,15.7,3.5,21.1 c-3.7,8.5-11.1,12.4-19.6,14.4c-4.8,1.1-9.7,1.6-14.6,1.2c-8.5-0.7-16.8-2.4-22.9-9c-3.9-4.2-6-9.1-5.9-14.9 c0-1.4,0.5-1.8,1.8-1.8c4.3,0.1,8.6,0.1,12.9,0c1.1,0,1.5,0.1,1.8,1.5c1.4,7.4,5.5,9.9,13.5,10.8c3.9,0.4,7.6,0.1,11.3-1.1 c4.6-1.6,6.5-3.6,6.6-7.1c0.1-3.6-2.5-6.5-6.5-8.1c-6.2-2.4-12.8-3.1-19.2-4.7c-4.8-1.2-9.4-2.9-13.7-5.6 c-5.9-3.7-8.1-12.6-7-18.4c1.9-10.4,9.6-14.6,18.8-16.8c4.3-1,8.7-1.5,13.1-1.3c7.9,0.5,15.5,1.9,21.5,7.4c4,3.6,6.1,8.5,7,13.9 c0.2,1.1-0.3,1.5-1.5,1.5C469.6,117.2,467.2,117.3,464.8,117.3"/></g><g><defs><rect id="SVGID_25_" width="1336.2" height="488.6"/></defs><clipPath id="SVGID_26_"><use xlink:href="#SVGID_25_" style="overflow:visible;"/></clipPath><path class="st12" d="M384.7,160c-7,9-15.8,12.4-26.9,10.6c-5.1-0.8-9.7-2.3-13.5-5.8c-4.7-4.3-6.4-10.1-6.8-16.1 c-1.4-16.5-0.4-33-0.7-49.5c0-1.9,0.4-2.5,2.4-2.4c4.1,0.2,8.2,0.2,12.3,0c1.9-0.1,2.4,0.5,2.4,2.4c-0.1,15.1-0.3,30.2,0,45.3 c0.2,9.7,5,13.4,13,13.5c9.1,0.2,17.2-4.6,17.3-16.8c0.1-13.9,0.1-27.8,0-41.8c0-1.9,0.3-2.7,2.5-2.6c4.2,0.2,8.4,0.1,12.5,0 c1.5,0,2,0.3,2,1.9c0,22.9,0,45.7,0,68.6c0,1.5-0.3,2-1.9,2c-4.2-0.1-8.4-0.1-12.5,0c-1.5,0-2-0.4-2-1.9 C384.8,165,384.7,162.6,384.7,160"/></g><g><defs><rect id="SVGID_27_" width="1336.2" height="488.6"/></defs><clipPath id="SVGID_28_"><use xlink:href="#SVGID_27_" style="overflow:visible;"/></clipPath><path class="st13" d="M258,127c0,13.1-0.1,26.3,0.1,39.4c0,2.6-0.8,3-3.1,2.9c-4-0.2-8-0.2-12,0c-2.4,0.1-3.2-0.4-3.2-3.1 c0.1-26.2,0-52.3,0.1-78.5c0-2.8-0.9-3.3-3.4-3.2c-8.6,0.2-17.1,0-25.7,0.1c-1.9,0-2.7-0.3-2.6-2.5c0.2-3.6,0.1-7.2,0-10.8 c0-1.4,0.2-2,1.9-2c25.8,0.1,51.6,0.1,77.4,0c1.8,0,2.1,0.6,2,2.2c-0.1,3.6-0.2,7.2,0,10.8c0.1,2.1-0.7,2.3-2.5,2.3 c-8.8-0.1-17.5,0-26.3-0.1c-2.2,0-2.9,0.4-2.9,2.8C258.1,100.5,258,113.7,258,127"/></g><g><defs><rect id="SVGID_29_" width="1336.2" height="488.6"/></defs><clipPath id="SVGID_30_"><use xlink:href="#SVGID_29_" style="overflow:visible;"/></clipPath><path class="st14" d="M794.2,156.1c0,3.8,0,7.6,0,11.3c0,1.2-0.5,1.7-1.7,1.8c-6.2,0.6-12.4,1.1-18.5-0.6 c-6.7-1.9-9.6-5.8-10.1-12.7c-1.3-14.8-0.3-29.7-0.5-44.5c0-1.8-0.3-2.8-2.3-2.4c-0.1,0-0.2,0-0.3,0c-3-0.2-6,0.3-8.9-0.3 c-0.1-3.6-0.1-7.2-0.2-10.7c0-1.4,0.9-1.2,1.7-1.2c2.5,0,5.1-0.1,7.6,0c1.8,0.1,2.5-0.4,2.4-2.3c-0.2-5.7,0-11.5-0.1-17.2 c0-1.6,0.3-2.2,2-2.1c4.2,0.1,8.4,0.1,12.5,0c1.8-0.1,2.5,0.4,2.4,2.3c-0.1,5.7,0,11.5-0.1,17.2c0,1.6,0.3,2.2,2,2.1 c3.4-0.1,6.8,0,10.2-0.1c1.4,0,2,0.3,1.8,1.8c0,0.1,0,0.2,0,0.3c-0.2,3.4,0.4,6.8-0.3,10.1c-3.2,0.1-6.4,0.1-9.6,0.2 c-0.6,0-1.2,0.1-1.8,0c-1.9-0.3-2.4,0.4-2.4,2.3c0.1,12,0,23.9,0,35.9c0,1.3,0,2.5,0,3.8c0.1,2.9,2.3,5.3,5.2,5.3 C788.3,156.4,791.2,156.7,794.2,156.1"/></g><g><defs><rect id="SVGID_31_" width="1336.2" height="488.6"/></defs><clipPath id="SVGID_32_"><use xlink:href="#SVGID_31_" style="overflow:visible;"/></clipPath><path class="st15" d="M522.6,155.8c0,3.9,0,7.7,0,11.5c0,1.6-0.8,1.9-2.2,2c-5.4,0.3-10.7,1.1-16.1,0c-6.2-1.3-10.8-3.7-12.1-11.1 c-1-5.4-0.5-10.8-0.5-16.2c-0.1-10.2-0.1-20.4,0-30.7c0-1.7-0.3-2.4-2.2-2.3c-2.7,0.2-5.5,0-8.2,0.1c-1.5,0.1-2.1-0.3-2-1.9 c0.1-2.8,0.1-5.6,0-8.5c-0.1-1.5,0.3-2,1.9-2c2.8,0.1,5.6,0,8.5,0.1c1.5,0.1,2-0.4,2-1.9c-0.1-5.8,0-11.7-0.1-17.5 c0-1.8,0.4-2.3,2.2-2.3c4.1,0.2,8.2,0.1,12.3,0c1.5,0,2,0.4,1.9,1.9c-0.1,5.8,0,11.7-0.1,17.5c0,1.8,0.5,2.3,2.3,2.2 c3.5-0.2,7,0,10.5-0.1c1.6-0.1,2,0.5,1.9,2c-0.1,2.8-0.1,5.7,0,8.5c0.1,1.6-0.5,1.9-2,1.9c-3.5-0.1-7,0-10.5-0.1 c-1.5,0-2.2,0.2-2.2,2c0.1,12.9-0.1,25.9,0.1,38.8c0.1,4.9,2.3,7,6.6,6.6C517.2,156.1,519.8,156.8,522.6,155.8"/></g><g><defs><rect id="SVGID_33_" width="1336.2" height="488.6"/></defs><clipPath id="SVGID_34_"><use xlink:href="#SVGID_33_" style="overflow:visible;"/></clipPath><path class="st16" d="M662.8,119.3c0,15.8,0,31.5,0,47.3c0,2.2-0.5,2.8-2.7,2.7c-3.8-0.2-7.6-0.2-11.4,0c-1.9,0.1-2.4-0.5-2.4-2.4 c0.1-14.7,0-29.4,0-44.1c0-16.9,0-33.9,0-50.8c0-2.2,0.5-2.8,2.7-2.7c3.8,0.2,7.6,0.2,11.4,0c1.9-0.1,2.4,0.5,2.4,2.4 C662.7,87.6,662.8,103.4,662.8,119.3"/></g><g><defs><rect id="SVGID_35_" width="1336.2" height="488.6"/></defs><clipPath id="SVGID_36_"><use xlink:href="#SVGID_35_" style="overflow:visible;"/></clipPath><path class="st17" d="M300.6,108.7c4-7.8,10.2-12.3,18.4-14.1c2.1-0.5,4.5-0.3,6.7-0.1c1.5,0.1,2.6,0.9,2.4,2.9 c-0.3,3.8-0.2,7.6,0,11.4c0.1,1.8-0.7,2.3-2.2,1.9c-13.1-3.2-22.3,6.6-23.6,17.9c-1.3,11.1-0.2,22.3-0.6,33.4 c-0.1,2.3,1,5.3-0.5,6.7c-1.3,1.1-4.3,0.4-6.5,0.4c-3.1-0.1-7.2,1.3-8.9-0.6c-1.5-1.7-0.4-5.7-0.4-8.7c0-20.1,0-40.3-0.1-60.4 c0-2.2,0.5-2.8,2.7-2.7c3.5,0.2,7,0.2,10.5,0c1.7-0.1,2.1,0.5,2.1,2.1C300.5,102.2,300.6,105.5,300.6,108.7"/></g><g><defs><rect id="SVGID_37_" width="1336.2" height="488.6"/></defs><clipPath id="SVGID_38_"><use xlink:href="#SVGID_37_" style="overflow:visible;"/></clipPath><path class="st18" d="M632.4,133.3c0,11.2,0,22.4,0,33.6c0,1.9-0.5,2.5-2.4,2.4c-4.1-0.1-8.2-0.1-12.3,0c-1.4,0-1.8-0.4-1.8-1.8 c0-23,0-45.9,0-68.9c0-1.4,0.4-1.8,1.8-1.8c4.1,0.1,8.2,0.1,12.3,0c1.9-0.1,2.4,0.5,2.4,2.4C632.3,110.5,632.4,121.9,632.4,133.3"/></g><g><defs><rect id="SVGID_39_" width="1336.2" height="488.6"/></defs><clipPath id="SVGID_40_"><use xlink:href="#SVGID_39_" style="overflow:visible;"/></clipPath><path class="st19" d="M136.4,126.6c-12.6,3.2-25.2,6.4-37.8,9.6c-1.1,0.3-2.2,0.5-4.1,1c4.2-3.9,8.3-6.5,12.2-9.3 c7.4-5.5,15-10.9,22.4-16.3c1.2-0.8,2.2-1.6,3.3,0c0.7,4.3,2.6,8.2,3.8,12.3C136.5,124.7,137.3,125.6,136.4,126.6"/></g><g><defs><rect id="SVGID_41_" width="1336.2" height="488.6"/></defs><clipPath id="SVGID_42_"><use xlink:href="#SVGID_41_" style="overflow:visible;"/></clipPath><path class="st20" d="M624.2,69.5c2.6,0,6.1-1,7.6,0.3c1.7,1.5,0.5,5.1,0.5,7.8c0.1,2.2,0.8,5.2-0.3,6.5c-1.3,1.6-4.4,0.4-6.7,0.5 c-3,0.1-7,1.1-8.7-0.4c-1.9-1.7-0.5-5.8-0.6-8.9c-0.1-5.8,0-5.8,5.8-5.8h2.3C624.2,69.4,624.2,69.4,624.2,69.5"/></g><g><defs><rect id="SVGID_43_" width="1336.2" height="488.6"/></defs><clipPath id="SVGID_44_"><use xlink:href="#SVGID_43_" style="overflow:visible;"/></clipPath><path class="st21" d="M603.8,124c-1-7.9-4-15-9.7-20.6c-5-5-11.2-7.7-18.4-8.4c-10.9-1.1-20.5,0.6-27.5,10.5c0-2.5-0.1-4.8,0-7.1 c0-1.3-0.4-1.7-1.7-1.6c-3.6,0.1-7.2,0.2-10.8,0c-2.3-0.1-2.8,0.6-2.8,2.9c0.1,26.8,0,53.5,0,80.3c0,4.6,0.1,9.1,0,13.7 c0,1.5,0.4,2,1.9,1.9c2.5-0.1,5.1,0,7.6-0.1c2.2-0.1,5.1,0.9,6.4-0.4c1.3-1.4,0.4-4.2,0.4-6.4c0-9.1,0-18.2,0-27.6 c2.3,1.4,3.6,3.6,5.6,4.9c8.2,5.2,17.2,6.4,26.3,4.2c10.1-2.4,16.5-9.4,20.1-19.1C604.8,142.2,605,133.2,603.8,124 M582.7,151.1 c-2.8,3.6-6.5,5.8-10.9,6.4c-13.3,1.8-20.9-7.7-22.4-18.2c-1.3-8.6-0.9-16.8,4.1-24.3c3-4.6,7.5-6.6,12.9-7.1 c12.6-1.2,19.1,8.4,21,18.3c0.5,2.3,0.4,4.6,0.5,6.1C588.2,139.6,586.9,145.8,582.7,151.1"/></g><g><defs><rect id="SVGID_45_" width="1336.2" height="488.6"/></defs><clipPath id="SVGID_46_"><use xlink:href="#SVGID_45_" style="overflow:visible;"/></clipPath><path class="st22" d="M746.3,121.8c-2.1-9.8-7-17.7-16.1-22.6c-8-4.3-16.6-5.5-25.6-4.3c-13.3,1.8-23.2,9.3-27.8,22 c-2.9,7.9-3.1,16.1-1.8,24.3c1.8,11.3,7.2,20.3,17.7,25.6c7.8,3.9,16,4.9,24.7,3.6c7.2-1.1,13.7-3.6,19-8.6 c8.3-7.9,11.1-18.1,11.1-30.5C747.7,129,747.1,125.4,746.3,121.8 M728.7,145.1c-2.8,6.9-7.6,11.7-15.6,12.5 c-11.3,1.2-18.3-5.8-21.1-15.4c-0.9-3-1.7-6.1-1.3-8.7c-0.1-7.5,1.6-13.9,6-19.3c2.8-3.5,6.6-5.6,11.1-6.2 c12.1-1.4,19.5,6.6,22,16.2C731.8,131.3,731.5,138.3,728.7,145.1"/></g></g></svg>