<svg version="1.1" id="Layer_1" xmlns="http://www.w3.org/2000/svg" xmlns:xlink="http://www.w3.org/1999/xlink" x="0px" y="0px" viewBox="0 0 3603.1 1503.3" style="enable-background:new 0 0 3603.1 1503.3;" xml:space="preserve" width="100%" height="100%" preserveAspectRatio="none"><style type="text/css"> .st0{fill:#FFFFFF;} .st1{fill:#3CB4E5;} .st2{fill:none;stroke:#FFFFFF;stroke-width:12.2322;} .st3{fill:url(#XMLID_2_);} .st4{fill:url(#XMLID_3_);} .st5{enable-background:new ;} </style><g><path class="st0" d="M2777,1089.3l11.5-65.2c-11-3-23.5-5.3-37.4-7c-13.9-1.7-28.1-2.5-42.6-2.5c-31.8,0-59.1,4-82,12 c-22.9,8-40.9,19.3-54.1,33.9c-13.1,14.6-21.5,31.8-25,51.7c-4.3,24.5-1.2,44,9.5,58.4c10.7,14.4,29.8,24.2,57.3,29.4l47.8,8.9 c9.8,2,16.5,5,19.9,8.9c3.4,3.9,4.4,9.7,3.1,17.3c-1.7,9.8-7.4,17.3-16.9,22.4c-9.5,5.1-24,7.6-43.3,7.6 c-34.2,0-65.5-4.5-94.1-13.6l-11.5,65.2c27.4,8.9,59.3,13.4,95.5,13.4c28.6,0,53.9-4,75.8-11.8c21.9-7.9,39.6-19.2,52.8-33.8 c13.3-14.7,21.7-32.2,25.3-52.4c4.6-26,1.3-45.8-9.7-59.5c-11.1-13.6-30.3-23.2-57.6-28.6l-47.8-8.9c-9.5-1.9-16-4.9-19.5-8.9 c-3.5-4.1-4.6-9.5-3.4-16.2c3.6-20.4,26.6-30.6,69-30.6C2727.7,1079.3,2753.5,1082.6,2777,1089.3 M2527.4,1019.4h-80l19-107.6h-73 l-35.1,107.6h-49.6l-12.4,70.2h49.6l-22.2,126c-6.9,39-2.3,67.8,13.9,86.4c16.2,18.6,43,27.9,80.5,27.9c18.8,0,37.9-2.1,57.4-6.4 l12.5-70.5c-14,2.4-24.9,3.6-32.7,3.6c-11.9,0-21.1-1.7-27.7-5.2c-6.6-3.4-10.8-9.1-12.9-17.2c-2-8-1.8-18.9,0.6-32.6l19.8-112h80 L2527.4,1019.4z M2179.7,1088.1c-6.2-11.4-17.6-17.2-34.3-17.2c-16.9,0-30.6,5.7-41.3,17.3c-10.6,11.5-18.5,30.8-23.9,58h102.3 C2186.8,1118.8,2185.8,1099.5,2179.7,1088.1 M2260.6,1174.3l-4.1,23.4h-185.1c-2,16.3-0.7,29.2,3.6,38.6 c4.4,9.4,12.6,16.2,24.7,20.4c12.1,4.2,29.2,6.3,51.3,6.3c23.2,0,49.5-3.2,78.6-9.8l-11.8,66.6c-31,6.9-61.4,10.3-91.3,10.3 c-38.8,0-69.6-5.6-92.3-16.6c-22.7-11.1-37.9-28.2-45.7-51.4c-7.8-23.2-8.4-53.4-1.9-90.6c5.9-33.5,16.5-61.9,31.7-85.4 c15.2-23.5,34.5-41.3,57.8-53.4c23.3-12.1,50-18.1,80.1-18.1c43.1,0,73.6,13.6,91.3,40.8 C2265.5,1082.7,2269.8,1122.3,2260.6,1174.3 M1905.9,1019.4l-96,112.6h-35.1l45.5-258.1h-89.2l-79.4,450.4h89.2l21.3-121h35.7 l62,121h97l-78.8-158.3l122.9-146.6H1905.9z M1653.4,1097.9l14.2-80.5c-7.2-1.5-15.2-2.2-24.1-2.2c-17.7,0-34.1,3.6-49.3,10.7 c-15.2,7.2-28.3,18.1-39.2,32.7h-4.2l0-39.3H1478l-53.8,304.9h89.2l35.2-199.5c8.7-9.1,20-16.3,33.9-21.5 c13.9-5.2,27.7-7.8,41.3-7.8C1635.6,1095.4,1645.5,1096.3,1653.4,1097.9 M1303.4,1191.6l-41.2,3.1c-17,1.3-29.8,5.2-38.6,11.6 c-8.8,6.4-14.1,15.4-16.2,26.9c-2,11.3-0.1,20,5.7,25.9c5.8,5.9,15.3,8.9,28.5,8.9c8.8,0,17.5-1.5,26.4-4.6 c8.9-3,17.3-7.9,25.1-14.6L1303.4,1191.6z M1399.2,1143.1l-32,181.2h-73.6l-0.8-30.1h-4.2c-11.1,12.1-24.1,21-39,26.9 c-15,5.9-31,8.8-48.1,8.8c-20.4,0-37.4-3.7-51-11c-13.6-7.3-23.1-17.7-28.7-30.9s-6.8-28.8-3.7-46.4c5.2-29.1,19.3-51.7,42.5-67.7 c23.2-16,56.9-25.4,101.3-28.1l50.3-4.2l0.7-3.9c2.5-14.1,2.2-25.2-1-33.2c-3.1-8-9.4-13.7-18.7-17.2c-9.3-3.4-22.6-5.2-39.9-5.2 c-12.5,0-26.3,1-41.4,3.1c-15.2,2-29.6,5.1-43.6,9.2l11.8-66.9c15.2-4.1,31.8-7.2,49.9-9.5c18-2.2,35-3.4,51-3.4 c33.3,0,59.4,4.1,78.4,12.3c19,8.2,31.8,21.6,38.3,40.3C1404.4,1085.8,1404.8,1111.1,1399.2,1143.1 M1091.8,1134.7 c7.3-41.4,3.5-71.8-11.3-91.1c-14.8-19.3-37.8-29-69-29c-16.7,0-33.5,3.2-50.5,9.6c-16.9,6.4-32.9,16.4-47.9,30 c-5.8-13.6-14.7-23.6-26.9-30c-12.1-6.4-26.7-9.6-43.6-9.6c-35.3,0-65.9,11.9-91.9,35.7h-4.2l-0.7-30.9h-73.3l-53.8,304.9H708 l36.6-207.6c7.2-8.4,15.7-14.7,25.5-19c9.8-4.3,19.4-6.4,28.9-6.4c12.5,0,21.3,3.7,26.5,11s6.3,19.7,3.2,37.2l-32.6,184.8h87.2 l33.9-192.3c1.2-7.1,2.1-13.6,2.7-19.8c7.2-7.1,15.3-12.3,24.2-15.8c9-3.4,17.9-5.2,26.8-5.2c12.5,0,21.5,3.7,27.2,11.1 c5.7,7.4,7,19.8,3.9,37.1l-32.6,184.8h88.9L1091.8,1134.7z M500.1,1106.4c-8.4-12.7-22.4-19.1-42.3-19.1c-9.7,0-19.2,1.7-28.8,5.2 c-9.5,3.4-17.8,8.6-25,15.5l-26.6,150.8c10.4,2.2,21.9,3.4,34.5,3.4c26,0,46.5-7,61.6-21c15-14,25.3-36.7,30.8-68.2 C509.8,1141.3,508.4,1119.2,500.1,1106.4 M595.2,1165.9c-9.4,53.3-30.8,94-64,121.9c-33.3,28-77,41.9-131,41.9 c-9.8,0-21.5-0.7-35-2.2l-21,119.3h-89.2l75.4-427.5h74.7l-0.1,32.3h4.2c10.9-11.5,23.9-20.6,38.9-27.2c15-6.6,31.3-9.9,48.7-9.9 c23.6,0,43.9,5.2,60.8,15.7c16.9,10.5,29,27,36.1,49.6C600.8,1102.5,601.3,1131.2,595.2,1165.9 M313.7,941.3 c-9.6-1.5-19.8-2.2-30.5-2.2c-21.6,0-38,4.3-49.4,13c-11.4,8.6-18.7,22.3-22,41.1l-4.6,26.2h80l-12.4,70.2h-80l-41.4,234.7H64.7 l41.4-234.7H56.5l12.4-70.2h49.6l3.9-22c4.8-27.1,14.1-50.3,28-69.5c13.9-19.2,32-34,54.2-44.2c22.2-10.2,48-15.3,77.4-15.3 c15.2,0,29.9,1.1,44,3.4L313.7,941.3z"/><path class="st1" d="M1193.8,804.7c-209-141.1-267.7-519.8,83.6-668.8c-139.8,103.2-256,291.9-75.8,530.3 c122.8-82.3,350.1-226,505.5-615.2C1700.6,116.3,1695.4,427.8,1193.8,804.7"/><path class="st0" d="M1265,845.8c182.2,88.1,562.2,1.9,554.4-361.2c-47.3,205.4-186.8,291.3-351.4,295.2 c82.3-122.8,308.3-350.1,244.3-718.4C1681,448.1,1448.5,653.1,1265,845.8"/></g><line id="XMLID_62_" class="st2" x1="2926.2" y1="868.2" x2="2926.2" y2="1340.4"/><linearGradient id="XMLID_2_" gradientUnits="userSpaceOnUse" x1="3270.0359" y1="1616.0314" x2="3419.6548" y2="969.6774" gradientTransform="matrix(1 0 0 -1 0 2363.9148)"><stop offset="0.1194" style="stop-color:#FFFFFF"/><stop offset="0.5086" style="stop-color:#44B86B"/><stop offset="0.5279" style="stop-color:#3FB26C"/><stop offset="0.8507" style="stop-color:#007E7D"/><stop offset="1" style="stop-color:#006C7F"/></linearGradient><path id="XMLID_221_" class="st3" d="M3345.8,953.9c-16.5,0-31.8,1.8-47.1,5.5l10.4-47.1h112.5l6.7-36.1l-170,0.6l-28.7,168.2 l3.1-1.2v0.6c1.2-0.6,2.4-1.2,3.1-2.4l55-22l0,0c17.1-6.1,35.5-9.2,54.4-9.2c92.4,0,148.6,48.9,148.6,139.4s-56.3,163.9-148.6,163.9 c-51.4,0-103.4-22.6-133.9-58.7l-2.4,37.9c35.5,33,83.8,52.6,136.4,52.6c110.7,0,200-88.1,200-196.3 C3545.8,1041.9,3456.5,953.9,3345.8,953.9z"/><linearGradient id="XMLID_3_" gradientUnits="userSpaceOnUse" x1="3070.3076" y1="1566.2461" x2="3219.0728" y2="923.5825" gradientTransform="matrix(1 0 0 -1 0 2363.9148)"><stop offset="0.1194" style="stop-color:#FFFFFF"/><stop offset="0.5086" style="stop-color:#44B86B"/><stop offset="0.5279" style="stop-color:#3FB26C"/><stop offset="0.8507" style="stop-color:#007E7D"/><stop offset="1" style="stop-color:#006C7F"/></linearGradient><polygon id="XMLID_220_" class="st4" points="3079.1,922.7 3079.1,957.5 3111.6,941 3111.6,1337.3 3172.7,1337.3 3172.7,878.6 "/><g class="st5"><path class="st0" d="M3233,1184.9h-5.6v-26.4l-20-36h6.2l16.6,30.3l16.5-30.3h6.3l-20,36V1184.9z"/><path class="st0" d="M3261.9,1184.9v-62.4h37.4v5h-31.9v23.2h26.5v4.9h-26.5v24.3h31.9v4.9H3261.9z"/><path class="st0" d="M3305.9,1184.9l18-62.4h13l17.9,62.4h-5.5l-5-17.2h-27.8l-4.9,17.2H3305.9z M3327.9,1127.3l-10.1,35.4h25.1 l-10.1-35.4H3327.9z"/><path class="st0" d="M3370.4,1160.3v24.6h-5.6v-62.4h22.9c6.5,0,11.4,1.5,14.6,4.4c3.2,3,4.8,7.6,4.8,14c0,10-4,16.1-12,18.2 l12.8,25.7h-6.2l-12.3-24.6H3370.4z M3401.4,1141.1c0-4.7-1.1-8.1-3.3-10.3c-2.2-2.2-5.7-3.3-10.3-3.3h-17.3v27.9h17.3 C3396.8,1155.3,3401.4,1150.6,3401.4,1141.1z"/><path class="st0" d="M3436.9,1126.4c-9.6,0-14.5,3.7-14.5,11c0,4.3,1.1,7.2,3.3,8.7c2.2,1.5,6.5,2.9,12.8,4.1 c6.4,1.3,10.9,3,13.6,5.2c2.7,2.2,4.1,5.9,4.1,11.1c0,6.7-1.7,11.5-5,14.5c-3.3,3-8.2,4.4-14.6,4.4c-4.7,0-10.1-0.4-16.2-1.3 l-3.2-0.4l0.6-4.8c8.2,1,14.5,1.5,19,1.5s7.9-1.1,10.2-3.3c2.3-2.2,3.5-5.4,3.5-9.6s-1-7.1-3.1-8.6c-2.1-1.5-5.4-2.7-9.9-3.5 c-4.5-0.8-7.8-1.6-9.9-2.3c-2.1-0.7-4.1-1.7-5.9-3c-1.8-1.3-3.1-2.9-3.9-4.9c-0.8-2-1.2-4.5-1.2-7.6c0-10.9,6.6-16.3,19.8-16.3 c3.9,0,9.1,0.4,15.4,1.3l3,0.4l-0.4,4.8C3446.2,1126.9,3440.4,1126.4,3436.9,1126.4z"/></g></svg>