<svg version="1.1" id="Ñëîé_1" xmlns="http://www.w3.org/2000/svg" xmlns:xlink="http://www.w3.org/1999/xlink" x="0px" y="0px" viewBox="0 0 1000 612.3" style="enable-background:new 0 0 1000 612.3;" xml:space="preserve" width="100%" height="100%" preserveAspectRatio="none"><style type="text/css"> .st0{fill:#FFFFAF;} .st1{fill:#F5E080;} .st2{fill:#BFA34A;} .st3{fill:#FFE797;} .st4{fill:#E6C74A;} .st5{fill:#947833;} .st6{fill:#A38233;} .st7{fill:#EBD964;} .st8{fill:url(#SVGID_1_);} .st9{fill:url(#SVGID_2_);} .st10{fill:url(#SVGID_3_);} .st11{fill:url(#SVGID_4_);} .st12{fill:url(#SVGID_5_);} .st13{fill:url(#SVGID_6_);} .st14{fill:url(#SVGID_7_);} .st15{fill:url(#SVGID_8_);} .st16{fill:url(#SVGID_9_);} .st17{fill:url(#SVGID_10_);} </style><g><g><g><polygon class="st0" points="872.9,478.7 908.9,415.2 923.5,329.4 916,247.9 888.4,158 866.2,113.2 829,66 824,60.1 821.9,57.6 807.7,46.7 824,66 861.6,112.8 884.2,157.1 912.7,247 921,328.2 907.2,414.3 871.7,478.3 839.5,521.8 793.5,554.4 840.3,522.2 "/><polygon class="st1" points="886.7,472 910.6,423.1 927.7,352.8 925.2,290.1 915.2,224.5 896.4,167.6 859.1,99 824,60.1 829,66 866.2,113.2 888.4,158 916,247.9 923.5,329.4 908.9,415.2 872.9,478.7 840.3,522.2 793.5,554.4 792.6,555.2 742.5,582.8 710.7,597.1 722.4,597.5 748.7,586.6 796.8,564 796.8,564 852.4,516.4 "/></g><g><polygon class="st2" points="796,461.2 773,515.9 773.8,545.2 776.8,548.6 796.4,467 "/><polygon class="st3" points="799.3,525.1 799.3,525.1 796.4,467 776.8,548.6 784.7,556.5 "/><polygon class="st4" points="788.5,560.3 799.3,525.1 784.7,556.5 "/></g><g><polygon class="st3" points="822.8,439.4 811.5,486.2 812.7,495.4 829,460.7 "/><polygon class="st5" points="831.1,523 825.3,529.7 829.4,533.1 "/><polygon class="st2" points="825.3,529.7 831.1,523 836.6,493.8 829.4,461.6 829,460.7 812.7,495.4 817.3,523.5 "/></g><g><polygon class="st3" points="840.7,417.2 839.9,437.3 846.2,423.9 "/><polygon class="st5" points="864.2,499.6 864.2,485.8 856.2,495 "/><polygon class="st2" points="848.3,490.4 856.2,495 864.2,485.8 863.3,467 851.6,429.4 846.2,423.9 839.9,437.3 839.5,459.5 "/></g><g><polygon class="st3" points="855.8,385 853.7,382.1 854.5,387.1 855.8,403 861.2,392.2 "/><polygon class="st2" points="865.8,444.4 885.9,454 882.6,421 861.2,392.2 855.8,403 857,415.6 "/></g><g><polygon class="st0" points="886.7,370.4 864.6,352 872.5,380.4 872.9,382.1 882.1,394.2 889.7,404.7 896.8,408.5 "/><polygon class="st6" points="906,411.8 906,411.8 892.6,375.4 886.7,370.4 896.8,408.5 905.1,413.5 907.2,414.3 "/></g><g><polygon class="st5" points="874.2,324 878.4,339 910.6,351.6 903.5,339 "/><polygon class="st6" points="881.7,351.6 901.8,365.8 918.5,366.6 910.6,351.6 878.4,339 "/><polygon class="st0" points="874.2,324 865,319 873.4,336.9 878.4,339 "/><polygon class="st4" points="873.4,336.9 879.6,350.3 881.7,351.6 878.4,339 "/></g><g><polygon class="st2" points="906,303.5 898,296.4 882.1,289.7 892.2,306.4 "/><polygon class="st6" points="899.3,318.1 924.8,319.8 906,303.5 892.2,306.4 "/><polygon class="st5" points="881.3,308.9 888,317.7 899.3,318.1 892.2,306.4 "/><polygon class="st0" points="882.1,289.7 862.9,281.3 857.9,279.2 864.6,287.6 881.3,308.9 892.2,306.4 "/></g><g><polygon class="st0" points="847.4,248.7 878.8,274.6 886.7,276.7 880.5,251.2 "/><polygon class="st2" points="886.7,276.7 892.2,278 893.4,252.1 880.5,251.2 "/><polygon class="st5" points="907.6,282.2 919.4,269.6 895.1,252.5 893.4,252.1 892.2,278 "/></g><g><polygon class="st0" points="842.8,208.1 840.3,213.2 850.8,220.7 852.4,221.5 857,209 "/><polygon class="st1" points="833.2,207.7 840.3,213.2 842.8,208.1 "/><polygon class="st7" points="857,209 852.4,221.5 876.7,234.5 870.8,210.2 "/><polygon class="st2" points="870.8,210.2 876.7,234.5 878.4,235.3 894.7,231.6 895.1,221.1 878.4,210.7 "/><polygon class="st5" points="908.1,228.6 895.1,221.1 894.7,231.6 "/></g><g><polygon class="st1" points="818.6,168 843.2,185.6 856.2,189.7 834,166.3 "/><polygon class="st5" points="877.1,196 896.8,183.5 888.4,178 871.7,194.3 "/><polygon class="st0" points="847.8,164.7 834,166.3 856.2,189.7 861.6,191.4 "/><polygon class="st7" points="851.2,164.7 847.8,164.7 861.6,191.4 871.7,194.3 888.4,178 876.3,170.9 "/></g><g><polygon class="st0" points="815.6,132 819.8,142.9 823.6,145 839.9,149.2 830.3,131.2 "/><polygon class="st1" points="803.9,132.5 819.8,142.9 815.6,132 "/><polygon class="st7" points="880.5,142.5 856.2,131.6 839.5,130.8 830.3,131.2 839.9,149.2 854.5,152.9 "/></g><g><polygon class="st0" points="821.9,114.9 814.8,101.1 811.9,99.4 802.3,99 806,108.6 812.3,112.8 "/><polygon class="st1" points="788.9,98.2 806,108.6 802.3,99 "/><polygon class="st7" points="821.9,114.9 837.8,119.1 844.5,118.2 814.8,101.1 "/><polygon class="st2" points="860.4,109.9 834.9,101.1 814,99.8 814.8,101.1 844.5,118.2 855,117 "/><polygon class="st0" points="814.8,101.1 814,99.8 811.9,99.4 "/></g><g><polygon class="st0" points="796.8,66.4 788.9,66 793.1,76.4 803.1,79.3 "/><polygon class="st1" points="774.2,65.1 785.1,74.3 793.1,76.4 788.9,66 "/><polygon class="st2" points="828.2,82.3 834.5,76.4 833.6,75.6 810.2,67.2 796.8,66.4 803.1,79.3 812.7,81.9 "/><polygon class="st0" points="834.5,76.4 834.9,76 833.6,75.6 "/></g><g><polygon class="st6" points="850.8,590.4 870.4,582.4 853.3,573.6 845.8,590.4 "/><polygon class="st3" points="829,561.1 823.2,561.9 797.2,578.2 800.2,580.8 834,563.6 "/><polygon class="st2" points="800.2,580.8 811,590.8 845.8,590.4 853.3,573.6 834,563.6 "/><polygon class="st4" points="794.3,565.3 784.3,566.5 789.3,570.7 797.2,578.2 823.2,561.9 "/></g><g><polygon class="st0" points="865.4,547.7 896.4,532.2 888.4,529.7 874.2,529.3 873.8,529.7 "/><polygon class="st6" points="863.3,552.7 882.1,552.3 913.9,537.3 896.4,532.2 865.4,547.7 "/><polygon class="st3" points="844.9,552.7 855.8,552.7 865.4,547.7 873.8,529.7 841.2,550.2 "/><polygon class="st2" points="855.8,552.7 863.3,552.7 865.4,547.7 "/><polygon class="st4" points="873.8,529.3 851.2,528.9 826.1,538.5 841.2,550.2 873.8,529.7 874.2,529.3 "/></g><g><polygon class="st6" points="905.6,514.7 944,491.7 935.7,490.4 897.6,514.7 "/><polygon class="st2" points="898.4,485 893.8,486.7 880.9,514.7 897.6,514.7 935.7,490.4 924.8,488.8 "/><polygon class="st0" points="860.4,502.1 875,515.1 880.9,514.7 893.8,486.7 864.2,499.6 "/></g><g><polygon class="st6" points="966.2,435.2 954.1,435.6 960.3,441.1 "/><polygon class="st2" points="915.2,441.1 902.2,468.3 909.3,470.8 944.9,457.8 960.3,441.1 954.1,435.6 933.6,436.1 "/><polygon class="st0" points="910.6,441.9 894.3,453.2 888.4,464.1 902.2,468.3 915.2,441.1 "/></g><g><polygon class="st1" points="968.7,374.6 976.2,377.5 981.7,369.2 "/><polygon class="st2" points="943.6,384.6 940.7,386.7 952.8,406.4 966.2,393.8 976.2,377.5 968.7,374.6 "/><polygon class="st2" points="920.6,401.8 911.4,419.3 942.8,415.6 944,414.7 924.8,398.4 "/><polygon class="st0" points="924.8,398.4 944,414.7 952.8,406.4 940.7,386.7 "/></g><g><polygon class="st6" points="943.2,364.6 948.2,366.6 954.9,364.6 972,341.1 981.2,320.2 979.2,319 "/><polygon class="st5" points="979.2,319 976.6,317.3 952,328.2 933.2,347.4 928.6,358.7 943.2,364.6 "/><polygon class="st0" points="943.2,364.6 928.6,358.7 926.5,363.3 931.1,370.8 940.3,368.3 "/><polygon class="st1" points="982.1,315.2 976.6,317.3 979.2,319 981.2,320.2 983.8,314.4 "/><polygon class="st2" points="922.7,373.3 931.1,370.8 926.5,363.3 "/><polygon class="st4" points="940.3,368.3 948.2,366.6 943.2,364.6 "/></g><g><polygon class="st5" points="968.7,259.2 960.3,266.3 967.4,267.9 "/><polygon class="st1" points="963.3,289.7 964.9,285.5 967.4,267.9 960.3,266.3 944.9,278.4 936.5,292.2 941.1,295.1 "/><polygon class="st2" points="924.8,329 953.2,314.8 957,305.2 941.1,295.1 933.6,296.8 931.1,301 "/><polygon class="st3" points="941.1,295.1 957,305.2 963.3,289.7 "/><polygon class="st4" points="936.5,292.2 933.6,296.8 941.1,295.1 "/></g><g><polygon class="st0" points="959.5,209.4 962.4,195.2 960.3,197.3 958.2,199.4 959.9,203.1 959.9,203.1 "/><polygon class="st1" points="958.2,199.4 935.7,219.4 935.7,219.4 944.4,255.4 950.7,249.5 959.5,209.4 959.9,203.1 "/><polygon class="st2" points="924.8,244.1 921.9,275.5 944.4,255.4 935.7,219.4 "/></g><g><polygon class="st0" points="945.3,170.5 944,146.3 937.8,155 945.3,171.3 "/><polygon class="st1" points="945.3,171.3 937.8,155 924.8,172.2 933.6,210.2 937.3,206.5 "/><polygon class="st2" points="922.7,174.7 911.8,206.1 914.8,229.9 933.6,210.2 924.8,172.2 "/></g><g><polygon class="st0" points="924,114.1 921,90.2 914.3,104.9 923.5,124.1 "/><polygon class="st1" points="923.5,124.1 914.3,104.9 910.6,113.6 920.6,154.6 921.4,152.9 "/><polygon class="st2" points="910.6,113.6 902.6,132 898.4,155.5 897.2,162.6 898,166.7 901.4,186.4 920.6,154.6 "/></g><g><polygon class="st0" points="897.2,76.4 895.1,49.2 895.1,49.2 885.9,72.7 897.6,79.3 "/><polygon class="st1" points="878,120.3 878.4,122 888.4,132.9 900.1,112 897.6,79.3 885.9,72.7 879.2,89.8 "/><polygon class="st6" points="878.4,122 882.6,140 883,142.5 883.8,140.8 888.4,132.9 "/></g><g><polygon class="st3" points="852.9,22.9 852.9,32.1 857.9,33.8 "/><polygon class="st0" points="866.7,61.8 861.6,41.7 857.9,33.8 852.9,32.1 852,53.4 "/><polygon class="st1" points="852,66.8 854.5,89.8 862.5,105.7 864.6,108.2 870.4,76.8 866.7,61.8 852,53.4 "/><polygon class="st6" points="864.2,109.5 864.6,108.2 862.5,105.7 "/></g><g><polygon class="st3" points="821.1,7 822.8,22.1 828.6,24.1 "/><polygon class="st0" points="838.2,45.5 828.6,24.1 822.8,22.1 824,37.1 "/><polygon class="st1" points="824,38.4 828.2,58.4 837.8,76.4 839.1,47.1 838.2,45.5 824,37.1 "/></g><g><polygon class="st0" points="782.6,36.3 802.7,54.7 817.7,59.3 772.2,12 "/><polygon class="st1" points="809,33.8 771.7,10.8 772.2,12 817.7,59.3 822.8,60.9 "/></g></g><g><g><polygon class="st2" points="130.2,478.7 94.3,415.2 79.6,329.4 87.2,247.9 114.8,158 136.9,113.2 174.1,66 179.2,60.1 181.7,57.6 195.5,46.7 179.2,66 141.5,112.8 118.9,157.1 90.5,247 82.1,328.2 95.9,414.3 131.5,478.3 163.7,521.8 209.7,554.4 162.9,522.2 "/><polygon class="st0" points="116.4,472 92.6,423.1 75.5,352.8 78,290.1 88,224.5 106.8,167.6 144,99 179.2,60.1 174.1,66 136.9,113.2 114.8,158 87.2,247.9 79.6,329.4 94.3,415.2 130.2,478.7 162.9,522.2 209.7,554.4 210.9,555.2 260.7,582.8 292.5,597.1 280.8,597.5 254.4,586.6 206.3,564 206.3,564 150.7,516.4 "/></g><g><polygon class="st6" points="207.2,461.2 230.6,515.9 229.3,545.2 226.4,548.6 206.8,467 "/><polygon class="st1" points="204.3,525.1 204.3,525.1 206.8,467 226.4,548.6 218.5,556.5 "/><polygon class="st4" points="214.7,560.3 204.3,525.1 218.5,556.5 "/></g><g><polygon class="st5" points="180.4,439.4 191.7,486.2 190.5,495.4 174.1,460.7 "/><polygon class="st5" points="172.1,523 177.9,529.7 173.7,533.1 "/><polygon class="st1" points="177.9,529.7 172.1,523 166.6,493.8 173.7,461.6 174.1,460.7 190.5,495.4 186.3,523.5 "/></g><g><polygon class="st5" points="162.9,417.2 163.3,437.3 157,423.9 "/><polygon class="st5" points="139,499.6 139.4,485.8 147.4,495 "/><polygon class="st1" points="154.9,490.4 147.4,495 139.4,485.8 139.9,467 152,429.4 157,423.9 163.3,437.3 163.7,459.5 "/></g><g><polygon class="st5" points="147.4,385 149.5,382.1 149.1,387.1 147.4,403 141.9,392.2 "/><polygon class="st1" points="137.3,444.4 117.3,454 120.6,421 141.9,392.2 147.4,403 146.1,415.6 "/></g><g><polygon class="st0" points="116.9,370.4 106.4,408.5 98,413.5 97.2,411.8 110.6,375.4 "/><polygon class="st2" points="116.9,370.4 139,352 130.7,380.4 130.2,382.1 121,394.2 113.5,404.7 106.4,408.5 "/><polygon class="st6" points="98,413.5 95.9,414.3 97.2,411.8 "/></g><g><polygon class="st0" points="129,324 124.8,339 93,351.6 99.7,339 "/><polygon class="st2" points="121.5,351.6 101.4,365.8 84.7,366.6 93,351.6 124.8,339 "/><polygon class="st4" points="129,324 138.2,319 129.8,336.9 124.8,339 "/><polygon class="st5" points="129.8,336.9 123.5,350.3 121.5,351.6 124.8,339 "/></g><g><polygon class="st3" points="97.2,303.5 105.1,296.4 121,289.7 111,306.4 "/><polygon class="st2" points="103.9,318.1 78.4,319.8 97.2,303.5 111,306.4 "/><polygon class="st5" points="121.9,308.9 115.2,317.7 103.9,318.1 111,306.4 "/><polygon class="st1" points="121,289.7 140.3,281.3 145.3,279.2 138.6,287.6 121.9,308.9 111,306.4 "/></g><g><polygon class="st2" points="155.7,248.7 124.4,274.6 116.9,276.7 122.7,251.2 "/><polygon class="st0" points="116.9,276.7 111,278 109.7,252.1 122.7,251.2 "/><polygon class="st1" points="95.5,282.2 84.2,269.6 108.1,252.5 109.7,252.1 111,278 "/></g><g><polygon class="st5" points="160.3,208.1 162.9,213.2 152.4,220.7 150.7,221.5 146.1,209 "/><polygon class="st6" points="170.4,207.7 162.9,213.2 160.3,208.1 "/><polygon class="st2" points="146.1,209 150.7,221.5 126.5,234.5 132.3,210.2 "/><polygon class="st0" points="132.3,210.2 126.5,234.5 125.2,235.3 108.5,231.6 108.1,221.1 125.2,210.7 "/><polygon class="st1" points="95.5,228.6 108.1,221.1 108.5,231.6 "/></g><g><polygon class="st5" points="184.6,168 159.9,185.6 147,189.7 169.1,166.3 "/><polygon class="st2" points="126.1,196 106.4,183.5 114.8,178 131.5,194.3 "/><polygon class="st2" points="155.3,164.7 169.1,166.3 147,189.7 141.5,191.4 "/><polygon class="st0" points="152,164.7 155.3,164.7 141.5,191.4 131.5,194.3 114.8,178 126.9,170.9 "/></g><g><polygon class="st2" points="187.5,132 183.3,142.9 179.6,145 163.3,149.2 172.9,131.2 "/><polygon class="st5" points="199.7,132.5 183.3,142.9 187.5,132 "/><polygon class="st0" points="122.7,142.5 147,131.6 163.7,130.8 172.9,131.2 163.3,149.2 148.6,152.9 "/></g><g><polygon class="st2" points="181.3,114.9 188.4,101.1 191.3,99.4 200.9,99 197.1,108.6 190.9,112.8 "/><polygon class="st5" points="214.3,98.2 197.1,108.6 200.9,99 "/><polygon class="st1" points="181.3,114.9 165.4,119.1 158.7,118.2 188.4,101.1 "/><polygon class="st0" points="142.8,109.9 168.3,101.1 189.2,99.8 188.4,101.1 158.7,118.2 148.2,117 "/><polygon class="st0" points="188.4,101.1 189.2,99.8 191.3,99.4 "/></g><g><polygon class="st2" points="206.8,66.4 214.3,66 210.1,76.4 200.1,79.3 "/><polygon class="st5" points="228.9,65.1 218.1,74.3 210.1,76.4 214.3,66 "/><polygon class="st0" points="175,82.3 168.7,76.4 169.5,75.6 193,67.2 206.8,66.4 200.1,79.3 190.5,81.9 "/><polygon class="st0" points="168.7,76.4 168.3,76 169.5,75.6 "/></g><g><polygon class="st4" points="152.4,590.4 133.2,582.4 149.9,573.6 157.8,590.4 "/><polygon class="st2" points="174.1,561.1 180,561.9 205.9,578.2 203,580.8 169.1,563.6 "/><polygon class="st1" points="203,580.8 192.1,590.8 157.8,590.4 149.9,573.6 169.1,563.6 "/><polygon class="st6" points="218.9,566.5 208.9,565.3 180,561.9 205.9,578.2 213.9,570.7 213.9,570.7 "/></g><g><polygon class="st0" points="137.8,547.7 106.8,532.2 114.8,529.7 129,529.3 129.4,529.7 "/><polygon class="st4" points="140.3,552.7 121,552.3 89.3,537.3 106.8,532.2 137.8,547.7 "/><polygon class="st3" points="158.3,552.7 147.4,552.7 137.8,547.7 129.4,529.7 162,550.2 "/><polygon class="st4" points="147.4,552.7 140.3,552.7 137.8,547.7 "/><polygon class="st2" points="129.4,529.3 152,528.9 177.5,538.5 162,550.2 129.4,529.7 129,529.3 "/></g><g><polygon class="st7" points="97.6,514.7 59.1,491.7 67.5,490.4 105.6,514.7 "/><polygon class="st1" points="104.7,485 109.3,486.7 122.7,514.7 105.6,514.7 67.5,490.4 78.4,488.8 "/><polygon class="st2" points="142.8,502.1 128.1,515.1 122.7,514.7 109.3,486.7 139,499.6 "/></g><g><polygon class="st0" points="37.4,435.2 49.1,435.6 42.8,441.1 "/><polygon class="st1" points="88,441.1 101,468.3 93.9,470.8 58.3,457.8 42.8,441.1 49.1,435.6 69.6,436.1 "/><polygon class="st6" points="92.6,441.9 108.9,453.2 114.8,464.1 101,468.3 88,441.1 "/></g><g><polygon class="st7" points="34.9,374.6 26.9,377.5 21.5,369.2 "/><polygon class="st0" points="59.6,384.6 62.5,386.7 50.4,406.4 37,393.8 26.9,377.5 34.9,374.6 "/><polygon class="st6" points="82.6,401.8 91.8,419.3 60.4,415.6 59.1,414.7 78.4,398.4 "/><polygon class="st2" points="78.4,398.4 59.1,414.7 50.4,406.4 62.5,386.7 "/></g><g><polygon class="st0" points="60,364.6 55,366.6 48.3,364.6 31.1,341.1 21.9,320.2 24,319 "/><polygon class="st1" points="24,319 26.5,317.3 51.2,328.2 70.4,347.4 74.6,358.7 60,364.6 "/><polygon class="st5" points="60,364.6 74.6,358.7 76.7,363.3 72.1,370.8 62.9,368.3 "/><polygon class="st3" points="21.1,315.2 19.4,314.4 21.9,320.2 24,319 26.5,317.3 "/><polygon class="st6" points="80.5,373.3 72.1,370.8 76.7,363.3 "/><polygon class="st3" points="62.9,368.3 55,366.6 60,364.6 "/></g><g><polygon class="st0" points="34.5,259.2 42.8,266.3 35.7,267.9 "/><polygon class="st1" points="39.9,289.7 38.2,285.5 35.7,267.9 42.8,266.3 58.3,278.4 67.1,292.2 62.1,295.1 "/><polygon class="st2" points="78.4,329 49.9,314.8 46.2,305.2 62.1,295.1 70,296.8 72.1,301 "/><polygon class="st3" points="62.1,295.1 46.2,305.2 39.9,289.7 "/><polygon class="st6" points="67.1,292.2 70,296.8 62.1,295.1 "/></g><g><polygon class="st0" points="43.7,209.4 40.7,195.2 42.8,197.3 44.9,199.4 43.2,203.1 43.2,203.1 "/><polygon class="st1" points="44.9,199.4 67.5,219.4 67.5,219.4 58.7,255.4 52.5,249.5 43.7,209.4 43.2,203.1 "/><polygon class="st2" points="78.4,244.1 81.3,275.5 58.7,255.4 67.5,219.4 "/></g><g><polygon class="st0" points="57.9,170.5 59.1,146.3 65.4,155 57.9,171.3 "/><polygon class="st1" points="57.9,171.3 65.4,155 78.4,172.2 69.6,210.2 66.3,206.5 "/><polygon class="st2" points="80.5,174.7 91.8,206.1 88.4,229.9 69.6,210.2 78.4,172.2 "/></g><g><polygon class="st0" points="79.2,114.1 82.1,90.2 88.8,104.9 79.6,124.1 "/><polygon class="st1" points="79.6,124.1 88.8,104.9 92.6,113.6 83,154.6 81.7,152.9 "/><polygon class="st2" points="92.6,113.6 100.5,132 104.7,155.5 106,162.6 105.1,166.7 102.2,186.4 83,154.6 "/></g><g><polygon class="st0" points="106,76.4 108.1,49.2 108.5,49.2 117.3,72.7 105.6,79.3 "/><polygon class="st1" points="125.2,120.3 125.2,122 114.8,132.9 103.1,112 105.6,79.3 117.3,72.7 124,89.8 "/><polygon class="st6" points="114.8,132.9 119.4,140.8 120.2,142.5 120.6,140 125.2,122 "/></g><g><polygon class="st3" points="150.3,22.9 150.3,32.1 145.3,33.8 "/><polygon class="st0" points="136.5,61.8 141.5,41.7 145.3,33.8 150.3,32.1 151.1,53.4 "/><polygon class="st1" points="151.1,66.8 148.6,89.8 140.7,105.7 138.6,108.2 132.7,76.8 136.5,61.8 151.1,53.4 "/><polygon class="st6" points="139,109.5 138.6,108.2 140.7,105.7 "/></g><g><polygon class="st3" points="182.1,7 180.8,22.1 174.6,24.1 "/><polygon class="st0" points="164.9,45.5 174.6,24.1 180.8,22.1 179.2,37.1 "/><polygon class="st1" points="179.2,38.4 175,58.4 165.4,76.4 164.5,47.1 164.9,45.5 179.2,37.1 "/></g><g><polygon class="st1" points="220.6,36.3 200.5,54.7 185.4,59.3 231,12 "/><polygon class="st0" points="194.2,33.8 231.4,10.8 231,12 185.4,59.3 180.4,60.9 "/></g></g></g><g><linearGradient id="SVGID_1_" gradientUnits="userSpaceOnUse" x1="276.9168" y1="1173.4337" x2="375.4066" y2="974.2656" gradientTransform="matrix(1 0 0 1 0 -904.2)"><stop offset="0" style="stop-color:#BFA34A"/><stop offset="0.3455" style="stop-color:#F5E080"/><stop offset="0.5212" style="stop-color:#FFFFAF"/><stop offset="0.5694" style="stop-color:#F7F092"/><stop offset="0.6222" style="stop-color:#F0E379"/><stop offset="0.6703" style="stop-color:#ECDC69"/><stop offset="0.7091" style="stop-color:#EBD964"/><stop offset="1" style="stop-color:#BFA34A"/></linearGradient><path class="st8" d="M300,213.2l19.2,79.9l2.5,10.9h0.4l2.1-10.9l17.1-79.9h14.2l-25.5,105h-17.6l-18.8-79.9l-2.1-11.3h-0.4 l-2.5,11.3l-18.4,79.9h-17.6l-25.5-105h15.1l17.1,80.3l2.1,10.9h0.4l2.5-10.9l19.2-80.3C283.7,213.2,300,213.2,300,213.2z"/><linearGradient id="SVGID_2_" gradientUnits="userSpaceOnUse" x1="362.4336" y1="1215.722" x2="460.9235" y2="1016.554" gradientTransform="matrix(1 0 0 1 0 -904.2)"><stop offset="0" style="stop-color:#BFA34A"/><stop offset="0.3455" style="stop-color:#F5E080"/><stop offset="0.5212" style="stop-color:#FFFFAF"/><stop offset="0.5694" style="stop-color:#F7F092"/><stop offset="0.6222" style="stop-color:#F0E379"/><stop offset="0.6703" style="stop-color:#ECDC69"/><stop offset="0.7091" style="stop-color:#EBD964"/><stop offset="1" style="stop-color:#BFA34A"/></linearGradient><path class="st9" d="M377.8,213.2h14.6v105h-14.6V213.2z"/><linearGradient id="SVGID_3_" gradientUnits="userSpaceOnUse" x1="422.2469" y1="1245.3" x2="520.7363" y2="1046.1324" gradientTransform="matrix(1 0 0 1 0 -904.2)"><stop offset="0" style="stop-color:#BFA34A"/><stop offset="0.3455" style="stop-color:#F5E080"/><stop offset="0.5212" style="stop-color:#FFFFAF"/><stop offset="0.5694" style="stop-color:#F7F092"/><stop offset="0.6222" style="stop-color:#F0E379"/><stop offset="0.6703" style="stop-color:#ECDC69"/><stop offset="0.7091" style="stop-color:#EBD964"/><stop offset="1" style="stop-color:#BFA34A"/></linearGradient><path class="st10" d="M489.9,318.1l-49.8-72.3l-6.3-9.6h-0.4v11.3v70.3h-13v-105h13l53.1,79.5h0.4l-0.4-11.3v-68.2h12.5v105h-9.2 V318.1z"/><linearGradient id="SVGID_4_" gradientUnits="userSpaceOnUse" x1="507.5958" y1="1287.5056" x2="606.0852" y2="1088.3375" gradientTransform="matrix(1 0 0 1 0 -904.2)"><stop offset="0" style="stop-color:#BFA34A"/><stop offset="0.3455" style="stop-color:#F5E080"/><stop offset="0.5212" style="stop-color:#FFFFAF"/><stop offset="0.5694" style="stop-color:#F7F092"/><stop offset="0.6222" style="stop-color:#F0E379"/><stop offset="0.6703" style="stop-color:#ECDC69"/><stop offset="0.7091" style="stop-color:#EBD964"/><stop offset="1" style="stop-color:#BFA34A"/></linearGradient><path class="st11" d="M596.1,318.1l-49.8-72.3l-6.3-9.6h-0.4v11.3v70.3h-13v-105h13l53.1,79.5h0.4l-0.4-11.3v-68.2h12.5v105h-9.2 L596.1,318.1L596.1,318.1z"/><linearGradient id="SVGID_5_" gradientUnits="userSpaceOnUse" x1="589.0782" y1="1327.7992" x2="687.5681" y2="1128.6312" gradientTransform="matrix(1 0 0 1 0 -904.2)"><stop offset="0" style="stop-color:#BFA34A"/><stop offset="0.3455" style="stop-color:#F5E080"/><stop offset="0.5212" style="stop-color:#FFFFAF"/><stop offset="0.5694" style="stop-color:#F7F092"/><stop offset="0.6222" style="stop-color:#F0E379"/><stop offset="0.6703" style="stop-color:#ECDC69"/><stop offset="0.7091" style="stop-color:#EBD964"/><stop offset="1" style="stop-color:#BFA34A"/></linearGradient><path class="st12" d="M701.1,305.2l-0.4,13h-66.9v-105h64.4l0.4,13h-50.6v31.4h43.5v12.1h-43.5v35.5H701.1z"/><linearGradient id="SVGID_6_" gradientUnits="userSpaceOnUse" x1="662.8347" y1="1364.2722" x2="761.3241" y2="1165.1041" gradientTransform="matrix(1 0 0 1 0 -904.2)"><stop offset="0" style="stop-color:#BFA34A"/><stop offset="0.3455" style="stop-color:#F5E080"/><stop offset="0.5212" style="stop-color:#FFFFAF"/><stop offset="0.5694" style="stop-color:#F7F092"/><stop offset="0.6222" style="stop-color:#F0E379"/><stop offset="0.6703" style="stop-color:#ECDC69"/><stop offset="0.7091" style="stop-color:#EBD964"/><stop offset="1" style="stop-color:#BFA34A"/></linearGradient><path class="st13" d="M769.6,271.3l27.6,46.8h-17.1l-23.8-44.3h-21.3v44.3h-14.2v-105h35.5c23,0,33.9,9.6,33.9,30.1 C790.1,259.2,783,269.2,769.6,271.3z M756.7,225.7h-21.3v36.8h20.9c13.4,0,19.7-5,19.7-18.8C775.5,230.7,769.6,225.7,756.7,225.7z"/></g><g><linearGradient id="SVGID_7_" gradientUnits="userSpaceOnUse" x1="335.7314" y1="1283.3457" x2="609.6442" y2="1404.62" gradientTransform="matrix(1 0 0 1 0 -904.2)"><stop offset="0" style="stop-color:#BFA34A"/><stop offset="0.3455" style="stop-color:#F5E080"/><stop offset="0.5212" style="stop-color:#FFFFAF"/><stop offset="0.5694" style="stop-color:#F7F092"/><stop offset="0.6222" style="stop-color:#F0E379"/><stop offset="0.6703" style="stop-color:#ECDC69"/><stop offset="0.7091" style="stop-color:#EBD964"/><stop offset="1" style="stop-color:#BFA34A"/></linearGradient><path class="st14" d="M366.5,429.4L366.5,429.4l43.5,0.4l-0.4,11.3h-59.8v-8.4c23.8-22.6,47.3-41.8,47.3-59 c0-8.8-5.9-15.5-20.1-15.5c-8.8,0-17.6,3.8-23.8,9.2l-3.3-10.5c7.1-5.9,17.6-10,29.3-10c20.1,0,30.5,9.6,30.5,25.5 C410,391.7,391.6,408.5,366.5,429.4z"/><linearGradient id="SVGID_8_" gradientUnits="userSpaceOnUse" x1="350.8649" y1="1249.1639" x2="624.7777" y2="1370.4384" gradientTransform="matrix(1 0 0 1 0 -904.2)"><stop offset="0" style="stop-color:#BFA34A"/><stop offset="0.3455" style="stop-color:#F5E080"/><stop offset="0.5212" style="stop-color:#FFFFAF"/><stop offset="0.5694" style="stop-color:#F7F092"/><stop offset="0.6222" style="stop-color:#F0E379"/><stop offset="0.6703" style="stop-color:#ECDC69"/><stop offset="0.7091" style="stop-color:#EBD964"/><stop offset="1" style="stop-color:#BFA34A"/></linearGradient><path class="st15" d="M463.9,442.8c-23.4,0-33.5-13.4-33.5-47.7c0-35.5,9.6-47.7,33.5-47.7c23.4,0,33,12.5,33,47.7 C497,429.4,487.4,442.8,463.9,442.8z M463.9,358.3c-14.6,0-21.3,7.1-21.3,36.4c0,30.1,6.7,36.8,21.3,36.8s20.9-7.1,20.9-36.8 C484.9,365,478.2,358.3,463.9,358.3z"/><linearGradient id="SVGID_9_" gradientUnits="userSpaceOnUse" x1="364.6252" y1="1218.0851" x2="638.5381" y2="1339.3594" gradientTransform="matrix(1 0 0 1 0 -904.2)"><stop offset="0" style="stop-color:#BFA34A"/><stop offset="0.3455" style="stop-color:#F5E080"/><stop offset="0.5212" style="stop-color:#FFFFAF"/><stop offset="0.5694" style="stop-color:#F7F092"/><stop offset="0.6222" style="stop-color:#F0E379"/><stop offset="0.6703" style="stop-color:#ECDC69"/><stop offset="0.7091" style="stop-color:#EBD964"/><stop offset="1" style="stop-color:#BFA34A"/></linearGradient><path class="st16" d="M530.4,431.9h16.7v-57.7l0.4-10l-0.4-0.4l-8.4,5.4l-11.3,7.1l-1.3-10.9l26.8-18h7.5v84.1h16.3v9.6h-45.2v-9.2 C531.7,431.9,530.4,431.9,530.4,431.9z"/><linearGradient id="SVGID_10_" gradientUnits="userSpaceOnUse" x1="377.6958" y1="1188.5636" x2="651.6086" y2="1309.838" gradientTransform="matrix(1 0 0 1 0 -904.2)"><stop offset="0" style="stop-color:#BFA34A"/><stop offset="0.3455" style="stop-color:#F5E080"/><stop offset="0.5212" style="stop-color:#FFFFAF"/><stop offset="0.5694" style="stop-color:#F7F092"/><stop offset="0.6222" style="stop-color:#F0E379"/><stop offset="0.6703" style="stop-color:#ECDC69"/><stop offset="0.7091" style="stop-color:#EBD964"/><stop offset="1" style="stop-color:#BFA34A"/></linearGradient><path class="st17" d="M627.5,442.3c-8.8,0-14.6-1.3-21.7-4.2l1.7-10.5c6.3,2.5,11.7,3.8,18.8,3.8c17.6,0,25.5-10,26.8-34.7h-0.4 c-6.3,5-13.8,7.5-22.6,7.5c-20.5,0-30.1-10.9-30.1-27.6c0-18,10-29.3,31.4-29.3c21.3,0,33.5,14.2,33.5,43.1 C664.3,427.7,652.1,442.3,627.5,442.3z M630.8,357.9c-13,0-19.2,6.3-19.2,18c0,11.3,6.3,18,20.1,18c8.4,0,15.5-2.5,20.5-8.4 C652.1,365.4,643.8,357.9,630.8,357.9z"/></g></svg>