<svg xmlns="http://www.w3.org/2000/svg" xmlns:xlink="http://www.w3.org/1999/xlink" width="164" height="52" viewBox="0 0 164 52">
  <defs>
    <clipPath id="clip-path">
      <rect id="Rectangle_70" data-name="Rectangle 70" width="160" height="48.669" transform="translate(0 0)" fill="none"/>
    </clipPath>
    <clipPath id="clip-AppStore">
      <rect width="164" height="52"/>
    </clipPath>
  </defs>
  <g id="AppStore" clip-path="url(#clip-AppStore)">
    <g id="Group_1980" data-name="Group 1980" transform="translate(2 1.665)">
      <g id="Group_157" data-name="Group 157" transform="translate(0 0)" clip-path="url(#clip-path)">
        <path id="Path_124" data-name="Path 124" d="M153.893,48.855H6.107A6.125,6.125,0,0,1,0,42.748V6.107A6.125,6.125,0,0,1,6.107,0H153.893A6.125,6.125,0,0,1,160,6.107V42.748a6.125,6.125,0,0,1-6.107,6.107" transform="translate(0 0)"/>
        <path id="Path_125" data-name="Path 125" d="M153.893.977a5.135,5.135,0,0,1,5.13,5.13V42.748a5.135,5.135,0,0,1-5.13,5.13H6.107a5.135,5.135,0,0,1-5.13-5.13V6.107A5.135,5.135,0,0,1,6.107.977Zm0-.977H6.107A6.125,6.125,0,0,0,0,6.107V42.748a6.125,6.125,0,0,0,6.107,6.107H153.893A6.125,6.125,0,0,0,160,42.748V6.107A6.125,6.125,0,0,0,153.893,0" transform="translate(0 0)" fill="#a6a6a6"/>
        <path id="Path_126" data-name="Path 126" d="M29.436,21.559a6.043,6.043,0,0,1,2.879-5.071,6.187,6.187,0,0,0-4.876-2.636c-2.051-.215-4.039,1.227-5.085,1.227-1.065,0-2.674-1.205-4.407-1.17a6.492,6.492,0,0,0-5.463,3.332c-2.362,4.089-.6,10.1,1.662,13.406,1.132,1.618,2.455,3.427,4.187,3.362,1.694-.07,2.327-1.08,4.371-1.08,2.026,0,2.62,1.08,4.386,1.039,1.819-.029,2.963-1.626,4.056-3.26A13.38,13.38,0,0,0,33,26.932a5.841,5.841,0,0,1-3.565-5.373" transform="translate(2.515 3.062)" fill="#fff"/>
        <path id="Path_127" data-name="Path 127" d="M24.15,12.841a5.953,5.953,0,0,0,1.362-4.264A6.057,6.057,0,0,0,21.594,10.6a5.659,5.659,0,0,0-1.4,4.105,5.006,5.006,0,0,0,3.954-1.869" transform="translate(4.464 1.899)" fill="#fff"/>
        <path id="Path_128" data-name="Path 128" d="M48.436,29H42.656l-1.389,4.1H38.818l5.477-15.167h2.544L52.314,33.1h-2.49Zm-5.182-1.892h4.583l-2.26-6.653h-.062Z" transform="translate(8.593 3.97)" fill="#fff"/>
        <path id="Path_129" data-name="Path 129" d="M61.438,26.85c0,3.436-1.839,5.644-4.614,5.644a3.749,3.749,0,0,1-3.48-1.935h-.053v5.477H51.022V21.321h2.2V23.16h.042a3.921,3.921,0,0,1,3.521-1.955c2.807,0,4.656,2.218,4.656,5.645m-2.333,0c0-2.239-1.157-3.711-2.923-3.711-1.734,0-2.9,1.5-2.9,3.711,0,2.228,1.166,3.72,2.9,3.72,1.766,0,2.923-1.461,2.923-3.72" transform="translate(11.295 4.694)" fill="#fff"/>
        <path id="Path_130" data-name="Path 130" d="M71.4,26.85c0,3.436-1.839,5.644-4.614,5.644a3.749,3.749,0,0,1-3.48-1.935h-.053v5.477H60.987V21.321h2.2V23.16h.042a3.921,3.921,0,0,1,3.521-1.955c2.807,0,4.656,2.218,4.656,5.645m-2.333,0c0-2.239-1.157-3.711-2.923-3.711-1.734,0-2.9,1.5-2.9,3.711,0,2.228,1.166,3.72,2.9,3.72,1.766,0,2.923-1.461,2.923-3.72" transform="translate(13.501 4.694)" fill="#fff"/>
        <path id="Path_131" data-name="Path 131" d="M76.522,28.922c.169,1.5,1.629,2.492,3.626,2.492,1.913,0,3.289-.988,3.289-2.344,0-1.177-.831-1.882-2.8-2.365l-1.965-.474c-2.786-.673-4.078-1.975-4.078-4.089,0-2.616,2.28-4.414,5.518-4.414,3.2,0,5.4,1.8,5.477,4.414H83.3c-.138-1.513-1.389-2.427-3.217-2.427s-3.079.925-3.079,2.269c0,1.072.8,1.7,2.753,2.186l1.672.41c3.111.736,4.4,1.986,4.4,4.205,0,2.837-2.261,4.614-5.855,4.614-3.364,0-5.634-1.736-5.781-4.479Z" transform="translate(16.426 3.924)" fill="#fff"/>
        <path id="Path_132" data-name="Path 132" d="M88.442,19.157v2.617h2.1v1.8h-2.1v6.1c0,.948.421,1.389,1.346,1.389A6.963,6.963,0,0,0,90.534,31V32.79a6.207,6.207,0,0,1-1.26.105c-2.239,0-3.112-.84-3.112-2.985V23.571H84.553v-1.8h1.609V19.157Z" transform="translate(18.718 4.241)" fill="#fff"/>
        <path id="Path_133" data-name="Path 133" d="M90.456,26.854c0-3.48,2.048-5.666,5.245-5.666s5.246,2.186,5.246,5.666S98.916,32.52,95.7,32.52s-5.245-2.178-5.245-5.666m8.177,0c0-2.387-1.094-3.795-2.933-3.795s-2.933,1.419-2.933,3.795c0,2.4,1.093,3.794,2.933,3.794s2.933-1.4,2.933-3.794" transform="translate(20.025 4.69)" fill="#fff"/>
        <path id="Path_134" data-name="Path 134" d="M100.577,21.32h2.164V23.2h.053a2.64,2.64,0,0,1,2.66-2,3.438,3.438,0,0,1,.778.085v2.123a3.165,3.165,0,0,0-1.02-.137,2.287,2.287,0,0,0-2.366,2.544v6.559h-2.269Z" transform="translate(22.265 4.694)" fill="#fff"/>
        <path id="Path_135" data-name="Path 135" d="M115.583,29.134c-.305,2.008-2.26,3.386-4.761,3.386-3.217,0-5.214-2.156-5.214-5.613s2.008-5.718,5.119-5.718c3.06,0,4.983,2.1,4.983,5.455v.778H107.9v.137a2.881,2.881,0,0,0,2.975,3.133,2.5,2.5,0,0,0,2.554-1.556Zm-7.673-3.3h5.528a2.659,2.659,0,0,0-2.711-2.807,2.8,2.8,0,0,0-2.817,2.807" transform="translate(23.379 4.69)" fill="#fff"/>
        <path id="Path_136" data-name="Path 136" d="M42.694,8.588c2.161,0,3.428,1.328,3.428,3.621,0,2.328-1.258,3.667-3.428,3.667H40.062V8.588Zm-1.5,6.257h1.374c1.524,0,2.4-.949,2.4-2.621a2.3,2.3,0,0,0-2.4-2.606H41.193Z" transform="translate(8.869 1.901)" fill="#fff"/>
        <path id="Path_137" data-name="Path 137" d="M46.071,12.818c0-1.773.991-2.853,2.6-2.853s2.593,1.08,2.593,2.853-.987,2.858-2.593,2.858-2.6-1.076-2.6-2.858m4.071,0c0-1.192-.535-1.889-1.475-1.889s-1.474.7-1.474,1.889.531,1.893,1.474,1.893,1.475-.7,1.475-1.893" transform="translate(10.199 2.206)" fill="#fff"/>
        <path id="Path_138" data-name="Path 138" d="M57.072,15.551H55.946L54.809,11.5h-.085l-1.132,4.05H52.476l-1.516-5.5h1.1l.986,4.2h.082l1.13-4.2H55.3l1.131,4.2h.085l.981-4.2h1.085Z" transform="translate(11.281 2.225)" fill="#fff"/>
        <path id="Path_139" data-name="Path 139" d="M58.244,10.071h1.044v.873h.082a1.647,1.647,0,0,1,1.642-.98,1.789,1.789,0,0,1,1.9,2.046v3.56H61.83V12.283c0-.884-.385-1.323-1.187-1.323a1.261,1.261,0,0,0-1.313,1.394v3.217H58.244Z" transform="translate(12.894 2.206)" fill="#fff"/>
        <rect id="Rectangle_69" data-name="Rectangle 69" width="1.086" height="7.647" transform="translate(77.539 10.13)" fill="#fff"/>
        <path id="Path_140" data-name="Path 140" d="M65.609,12.818c0-1.773.991-2.853,2.6-2.853s2.593,1.08,2.593,2.853-.987,2.858-2.593,2.858-2.6-1.076-2.6-2.858m4.071,0c0-1.192-.535-1.889-1.475-1.889s-1.474.7-1.474,1.889.531,1.893,1.474,1.893,1.475-.7,1.475-1.893" transform="translate(14.524 2.206)" fill="#fff"/>
        <path id="Path_141" data-name="Path 141" d="M70.791,14.015c0-.991.738-1.561,2.046-1.642l1.49-.087v-.474c0-.581-.384-.91-1.126-.91-.606,0-1.026.224-1.146.612H71c.111-.945,1-1.551,2.247-1.551,1.379,0,2.157.686,2.157,1.849V15.57H74.362V14.8h-.085a1.851,1.851,0,0,1-1.653.864,1.661,1.661,0,0,1-1.833-1.645m3.536-.47v-.459l-1.344.085c-.757.05-1.1.308-1.1.793s.43.783,1.02.783a1.3,1.3,0,0,0,1.424-1.2" transform="translate(15.671 2.206)" fill="#fff"/>
        <path id="Path_142" data-name="Path 142" d="M75.739,13.188c0-1.738.893-2.838,2.283-2.838a1.812,1.812,0,0,1,1.687.965h.081V8.294h1.086V15.94H79.836v-.868h-.087a1.909,1.909,0,0,1-1.727.96c-1.4,0-2.283-1.1-2.283-2.843m1.121,0c0,1.166.55,1.869,1.469,1.869s1.48-.712,1.48-1.864-.572-1.869-1.48-1.869-1.469.707-1.469,1.864" transform="translate(16.767 1.836)" fill="#fff"/>
        <path id="Path_143" data-name="Path 143" d="M83.621,12.818c0-1.773.991-2.853,2.6-2.853s2.592,1.08,2.592,2.853-.986,2.858-2.592,2.858-2.6-1.076-2.6-2.858m4.071,0c0-1.192-.535-1.889-1.475-1.889s-1.474.7-1.474,1.889.531,1.893,1.474,1.893,1.475-.7,1.475-1.893" transform="translate(18.512 2.206)" fill="#fff"/>
        <path id="Path_144" data-name="Path 144" d="M89.06,10.071H90.1v.873h.082a1.647,1.647,0,0,1,1.642-.98,1.789,1.789,0,0,1,1.9,2.046v3.56H92.646V12.283c0-.884-.385-1.323-1.187-1.323a1.261,1.261,0,0,0-1.313,1.394v3.217H89.06Z" transform="translate(19.716 2.206)" fill="#fff"/>
        <path id="Path_145" data-name="Path 145" d="M98.261,8.931v1.395h1.192v.914H98.261v2.829c0,.575.237.828.778.828a3.694,3.694,0,0,0,.414-.026v.905a3.633,3.633,0,0,1-.591.055c-1.207,0-1.688-.425-1.688-1.485V11.239H96.3v-.914h.872V8.931Z" transform="translate(21.319 1.977)" fill="#fff"/>
        <path id="Path_146" data-name="Path 146" d="M100.1,8.294h1.076v3.03h.086a1.694,1.694,0,0,1,1.677-.984,1.812,1.812,0,0,1,1.894,2.051v3.551h-1.087V12.658c0-.878-.409-1.324-1.176-1.324a1.285,1.285,0,0,0-1.384,1.395v3.212H100.1Z" transform="translate(22.158 1.836)" fill="#fff"/>
        <path id="Path_147" data-name="Path 147" d="M110.044,14.086a2.232,2.232,0,0,1-2.383,1.591c-1.576,0-2.54-1.081-2.54-2.838s.984-2.874,2.536-2.874c1.53,0,2.454,1.045,2.454,2.773v.379h-3.884v.061a1.453,1.453,0,0,0,1.464,1.576A1.32,1.32,0,0,0,109,14.086Zm-3.818-1.772H109a1.327,1.327,0,0,0-1.353-1.425,1.407,1.407,0,0,0-1.424,1.425" transform="translate(23.271 2.206)" fill="#fff"/>
      </g>
    </g>
  </g>
</svg>
