<svg xmlns="http://www.w3.org/2000/svg" xmlns:xlink="http://www.w3.org/1999/xlink" width="164" height="52" viewBox="0 0 164 52">
  <defs>
    <clipPath id="clip-path">
      <rect id="Rectangle_68" data-name="Rectangle 68" width="160" height="49.278" fill="none"/>
    </clipPath>
    <clipPath id="clip-google_play">
      <rect width="164" height="52"/>
    </clipPath>
  </defs>
  <g id="google_play" data-name="google play" clip-path="url(#clip-google_play)">
    <rect width="164" height="52" fill="#fff"/>
    <g id="Group_1979" data-name="Group 1979" transform="translate(2 1.697)">
      <g id="Group_155" data-name="Group 155" transform="translate(0 -0.336)" clip-path="url(#clip-path)">
        <path id="Path_104" data-name="Path 104" d="M153.893,48.855H6.107A6.125,6.125,0,0,1,0,42.748V6.107A6.125,6.125,0,0,1,6.107,0H153.893A6.125,6.125,0,0,1,160,6.107V42.748a6.125,6.125,0,0,1-6.107,6.107" transform="translate(0 0.204)"/>
        <path id="Path_105" data-name="Path 105" d="M153.893.977a5.135,5.135,0,0,1,5.13,5.13V42.748a5.135,5.135,0,0,1-5.13,5.13H6.107a5.135,5.135,0,0,1-5.13-5.13V6.107A5.135,5.135,0,0,1,6.107.977Zm0-.977H6.107A6.125,6.125,0,0,0,0,6.107V42.748a6.125,6.125,0,0,0,6.107,6.107H153.893A6.125,6.125,0,0,0,160,42.748V6.107A6.125,6.125,0,0,0,153.893,0" transform="translate(0 0.204)" fill="#a6a6a6"/>
        <path id="Path_106" data-name="Path 106" d="M46.374,11.466a3.139,3.139,0,0,1-.865,2.323,3.352,3.352,0,0,1-2.556,1.032,3.585,3.585,0,0,1-3.616-3.636,3.585,3.585,0,0,1,3.616-3.637A3.87,3.87,0,0,1,44.4,7.82a2.9,2.9,0,0,1,1.119.768l-.641.642a2.172,2.172,0,0,0-.832-.608A2.752,2.752,0,0,0,42.952,8.4a2.618,2.618,0,0,0-1.925.787,2.742,2.742,0,0,0-.778,1.995,2.735,2.735,0,0,0,.778,1.992,2.614,2.614,0,0,0,1.925.788,2.582,2.582,0,0,0,1.729-.584,2.318,2.318,0,0,0,.8-1.6H42.952v-.835h3.372a2.927,2.927,0,0,1,.049.524" transform="translate(8.708 1.875)" fill="#fff"/>
        <path id="Path_107" data-name="Path 107" d="M42.975,14.964a3.71,3.71,0,0,1-3.739-3.757,3.706,3.706,0,0,1,3.739-3.758,4.014,4.014,0,0,1,1.494.28,3.007,3.007,0,0,1,1.164.8l.075.085-.816.818-.085-.1a2.074,2.074,0,0,0-.787-.574,2.648,2.648,0,0,0-1.044-.209,2.513,2.513,0,0,0-1.839.751,2.61,2.61,0,0,0-.741,1.909,2.627,2.627,0,0,0,.743,1.905,2.669,2.669,0,0,0,3.489.2,2.178,2.178,0,0,0,.738-1.389H42.852v-1.08h3.6l.017.1a3.084,3.084,0,0,1,.05.545,3.269,3.269,0,0,1-.9,2.41,3.476,3.476,0,0,1-2.643,1.067m0-7.272a3.462,3.462,0,0,0-3.494,3.515,3.464,3.464,0,0,0,3.494,3.514,3.253,3.253,0,0,0,2.468-.994,3.037,3.037,0,0,0,.832-2.24,2.932,2.932,0,0,0-.031-.4H43.1v.594h2.542l-.015.134a2.45,2.45,0,0,1-.842,1.683,2.712,2.712,0,0,1-1.808.613,2.742,2.742,0,0,1-2.01-.824,2.86,2.86,0,0,1-.815-2.078,2.871,2.871,0,0,1,.813-2.079A2.744,2.744,0,0,1,42.975,8.3a2.905,2.905,0,0,1,1.142.227,2.339,2.339,0,0,1,.788.544l.467-.468a2.8,2.8,0,0,0-.994-.651,3.756,3.756,0,0,0-1.4-.264" transform="translate(8.686 1.853)" fill="#fff"/>
        <path id="Path_108" data-name="Path 108" d="M50.213,7.676V8.53H47.043v2.207H49.9v.837H47.043v2.207h3.169v.856H46.149V7.676Z" transform="translate(10.216 1.904)" fill="#fff"/>
        <path id="Path_109" data-name="Path 109" d="M50.357,14.781H46.05v-7.2h4.307v1.1H47.186v1.964h2.858v1.078H47.186v1.965h3.171Zm-4.064-.243h3.82v-.613H46.943V11.473H49.8v-.592H46.943V8.431h3.171V7.82h-3.82Z" transform="translate(10.194 1.882)" fill="#fff"/>
        <path id="Path_110" data-name="Path 110" d="M53.079,8.531v6.107h-.9V8.531H50.241V7.677h4.783v.854Z" transform="translate(11.122 1.904)" fill="#fff"/>
        <path id="Path_111" data-name="Path 111" d="M53.224,14.781h-1.14V8.674H50.14v-1.1h5.027v1.1H53.224Zm-.9-.243h.652V8.431h1.943V7.82H50.384v.611h1.943Z" transform="translate(11.1 1.882)" fill="#fff"/>
        <rect id="Rectangle_67" data-name="Rectangle 67" width="0.894" height="6.961" transform="translate(69.605 9.58)" fill="#fff"/>
        <path id="Path_112" data-name="Path 112" d="M58.027,14.781H56.889v-7.2h1.138Zm-.894-.243h.651V7.82h-.651Z" transform="translate(12.594 1.882)" fill="#fff"/>
        <path id="Path_113" data-name="Path 113" d="M61.484,8.531v6.107h-.9V8.531H58.646V7.677h4.783v.854Z" transform="translate(12.983 1.904)" fill="#fff"/>
        <path id="Path_114" data-name="Path 114" d="M61.628,14.781H60.49V8.674H58.546v-1.1h5.026v1.1H61.628Zm-.894-.243h.651V8.431h1.944V7.82h-4.54v.611h1.944Z" transform="translate(12.961 1.882)" fill="#fff"/>
        <path id="Path_115" data-name="Path 115" d="M72.112,11.185a3.531,3.531,0,0,1-1.03,2.586,3.614,3.614,0,0,1-5.094,0,3.527,3.527,0,0,1-1.031-2.586A3.528,3.528,0,0,1,65.988,8.6a3.6,3.6,0,0,1,5.094.011,3.514,3.514,0,0,1,1.03,2.576m-6.241,0a2.755,2.755,0,0,0,.758,1.992,2.553,2.553,0,0,0,1.905.788,2.522,2.522,0,0,0,1.9-.788,2.711,2.711,0,0,0,.768-1.992,2.712,2.712,0,0,0-.768-1.993,2.522,2.522,0,0,0-1.9-.788,2.553,2.553,0,0,0-1.905.788,2.756,2.756,0,0,0-.758,1.993" transform="translate(14.38 1.875)" fill="#fff"/>
        <path id="Path_116" data-name="Path 116" d="M68.556,14.964a3.55,3.55,0,0,1-2.633-1.087,3.655,3.655,0,0,1-1.065-2.67,3.666,3.666,0,0,1,1.065-2.674,3.726,3.726,0,0,1,5.268.012,3.642,3.642,0,0,1,1.064,2.661,3.657,3.657,0,0,1-1.064,2.67,3.582,3.582,0,0,1-2.634,1.087m0-7.272A3.318,3.318,0,0,0,66.1,8.706a3.426,3.426,0,0,0-1,2.5,3.422,3.422,0,0,0,1,2.5,3.49,3.49,0,0,0,4.921,0,3.424,3.424,0,0,0,.994-2.5,3.411,3.411,0,0,0-.994-2.49,3.308,3.308,0,0,0-2.461-1.025m0,6.417a2.688,2.688,0,0,1-1.993-.824,2.889,2.889,0,0,1-.791-2.078,2.894,2.894,0,0,1,.79-2.079A2.686,2.686,0,0,1,68.556,8.3a2.653,2.653,0,0,1,1.985.824,2.844,2.844,0,0,1,.8,2.079,2.843,2.843,0,0,1-.8,2.078,2.661,2.661,0,0,1-1.984.824m0-5.562a2.418,2.418,0,0,0-1.819.751,2.622,2.622,0,0,0-.723,1.909,2.647,2.647,0,0,0,.724,1.907,2.448,2.448,0,0,0,1.817.751,2.387,2.387,0,0,0,1.808-.751,2.605,2.605,0,0,0,.735-1.907A2.613,2.613,0,0,0,70.365,9.3a2.387,2.387,0,0,0-1.809-.751" transform="translate(14.358 1.853)" fill="#fff"/>
        <path id="Path_117" data-name="Path 117" d="M72.735,14.637h-.894V7.676h1.089l3.382,5.414h.039l-.039-1.341V7.676h.9v6.961h-.933l-3.54-5.678H72.7l.039,1.341Z" transform="translate(15.904 1.904)" fill="#fff"/>
        <path id="Path_118" data-name="Path 118" d="M77.352,14.781H76.228L72.852,9.364l.026.955v4.462H71.742v-7.2h1.279l3.218,5.153-.026-.955v-4.2h1.138Zm-.988-.243h.744V7.82h-.651v3.951l.042,1.463h-.231L72.884,7.82h-.9v6.718h.65V10.323l-.042-1.463h.232Z" transform="translate(15.882 1.882)" fill="#fff"/>
        <path id="Path_119" data-name="Path 119" d="M70.473,22.676a4.934,4.934,0,1,0,4.953,4.934,4.864,4.864,0,0,0-4.953-4.934m0,7.924a2.854,2.854,0,0,1-2.785-2.99,2.792,2.792,0,1,1,5.569,0,2.854,2.854,0,0,1-2.785,2.99m-10.8-7.924a4.934,4.934,0,1,0,4.953,4.934,4.864,4.864,0,0,0-4.953-4.934m0,7.924a2.854,2.854,0,0,1-2.785-2.99,2.792,2.792,0,1,1,5.569,0,2.854,2.854,0,0,1-2.785,2.99m-12.853-6.41v2.093h5.009a4.361,4.361,0,0,1-1.14,2.635,5.127,5.127,0,0,1-3.869,1.533,5.57,5.57,0,0,1,0-11.139,5.334,5.334,0,0,1,3.775,1.495l1.477-1.477a7.3,7.3,0,0,0-5.252-2.112,7.664,7.664,0,1,0,0,15.326,7.006,7.006,0,0,0,5.346-2.15,6.918,6.918,0,0,0,1.813-4.9,6.844,6.844,0,0,0-.112-1.308Zm52.562,1.626a4.586,4.586,0,0,0-4.224-3.14A4.69,4.69,0,0,0,90.5,27.61a4.828,4.828,0,0,0,4.9,4.934,4.909,4.909,0,0,0,4.111-2.187l-1.682-1.121A2.815,2.815,0,0,1,95.4,30.6,2.51,2.51,0,0,1,93,29.105l6.6-2.729Zm-6.729,1.645a2.707,2.707,0,0,1,2.58-2.879,1.911,1.911,0,0,1,1.832,1.047Zm-5.363,4.784h2.168v-14.5H87.286Zm-3.552-8.467H83.66a3.421,3.421,0,0,0-2.6-1.1,4.939,4.939,0,0,0,0,9.869,3.367,3.367,0,0,0,2.6-1.121h.075v.71c0,1.888-1.009,2.9-2.635,2.9a2.73,2.73,0,0,1-2.485-1.756l-1.888.784A4.7,4.7,0,0,0,81.1,36.974c2.542,0,4.691-1.495,4.691-5.14V22.975H83.735ZM81.249,30.6A2.831,2.831,0,0,1,78.5,27.629a2.853,2.853,0,0,1,2.747-3.008,2.78,2.78,0,0,1,2.636,3.008A2.757,2.757,0,0,1,81.249,30.6m28.285-12.857h-5.187v14.5h2.164V26.751h3.023a4.511,4.511,0,1,0,0-9.008m.056,6.99h-3.079V19.761h3.079a2.487,2.487,0,1,1,0,4.972m13.378-2.084a4.066,4.066,0,0,0-3.863,2.22l1.922.8A2.05,2.05,0,0,1,123,24.608a2.084,2.084,0,0,1,2.277,1.866v.149a4.794,4.794,0,0,0-2.258-.559c-2.07,0-4.178,1.138-4.178,3.265a3.35,3.35,0,0,0,3.6,3.19,3.055,3.055,0,0,0,2.762-1.417h.075v1.119h2.09v-5.56c0-2.575-1.922-4.012-4.4-4.012m-.261,7.949c-.71,0-1.7-.354-1.7-1.231,0-1.12,1.231-1.549,2.295-1.549a3.858,3.858,0,0,1,1.977.485,2.625,2.625,0,0,1-2.575,2.295m12.276-7.631L132.5,29.254h-.074l-2.576-6.288H127.52l3.862,8.788-2.2,4.889h2.258l5.952-13.677Zm-19.5,9.279h2.164v-14.5h-2.164Z" transform="translate(8.643 4.016)" fill="#fff"/>
        <path id="Path_120" data-name="Path 120" d="M23.074,19.424l-13,13.8,0,.009a3.515,3.515,0,0,0,5.174,2.118l.042-.024,14.637-8.446Z" transform="translate(2.229 4.504)" fill="#ea4335"/>
        <path id="Path_121" data-name="Path 121" d="M33.926,18.165l-.012-.009-6.319-3.663-7.119,6.335,7.145,7.143,6.285-3.626a3.515,3.515,0,0,0,.021-6.18" transform="translate(4.533 3.413)" fill="#fbbc04"/>
        <path id="Path_122" data-name="Path 122" d="M10.092,9.277a3.448,3.448,0,0,0-.12.9V34.569a3.382,3.382,0,0,0,.121.9l13.45-13.449Z" transform="translate(2.208 2.258)" fill="#4285f4"/>
        <path id="Path_123" data-name="Path 123" d="M23.17,22.848l6.73-6.729L15.28,7.643a3.519,3.519,0,0,0-5.209,2.1v0Z" transform="translate(2.229 1.785)" fill="#34a853"/>
      </g>
    </g>
  </g>
</svg>
