<svg xmlns="http://www.w3.org/2000/svg" xmlns:xlink="http://www.w3.org/1999/xlink" width="33" height="33" viewBox="0 0 33 33">
  <defs>
    <clipPath id="clip-IG">
      <rect width="33" height="33"/>
    </clipPath>
  </defs>
  <g id="IG" clip-path="url(#clip-IG)">
    <g id="Group_1989" data-name="Group 1989" transform="translate(1531.525 9649.658)">
      <path id="Oval" d="M15.887,0A15.887,15.887,0,1,1,0,15.887,15.887,15.887,0,0,1,15.887,0Z" transform="translate(-1530.912 -9649.045)" fill="#41b8ea"/>
      <g id="Group_1988" data-name="Group 1988">
        <path id="Path_246" data-name="Path 246" d="M34.478,26.708c2.531,0,2.831.01,3.83.055a5.242,5.242,0,0,1,1.76.326,3.138,3.138,0,0,1,1.8,1.8,5.248,5.248,0,0,1,.327,1.76c.046,1,.055,1.3.055,3.83s-.01,2.831-.055,3.83a5.248,5.248,0,0,1-.327,1.76,3.138,3.138,0,0,1-1.8,1.8,5.242,5.242,0,0,1-1.76.326c-1,.045-1.3.055-3.83.055s-2.831-.01-3.83-.055a5.242,5.242,0,0,1-1.76-.326,3.138,3.138,0,0,1-1.8-1.8,5.242,5.242,0,0,1-.327-1.76c-.045-1-.055-1.3-.055-3.83s.01-2.831.055-3.83a5.242,5.242,0,0,1,.327-1.76,3.138,3.138,0,0,1,1.8-1.8,5.242,5.242,0,0,1,1.76-.326c1-.045,1.3-.055,3.83-.055m0-1.708c-2.574,0-2.9.011-3.908.057a6.958,6.958,0,0,0-2.3.44A4.846,4.846,0,0,0,25.5,28.27a6.958,6.958,0,0,0-.44,2.3C25.011,31.581,25,31.9,25,34.478s.011,2.9.057,3.908a6.958,6.958,0,0,0,.44,2.3,4.846,4.846,0,0,0,2.772,2.772,6.958,6.958,0,0,0,2.3.44c1.011.046,1.334.057,3.908.057s2.9-.011,3.908-.057a6.958,6.958,0,0,0,2.3-.44,4.846,4.846,0,0,0,2.772-2.772,6.958,6.958,0,0,0,.44-2.3c.046-1.011.057-1.334.057-3.908s-.011-2.9-.057-3.908a6.958,6.958,0,0,0-.44-2.3A4.846,4.846,0,0,0,40.687,25.5a6.958,6.958,0,0,0-2.3-.44C37.375,25.011,37.053,25,34.478,25" transform="translate(-1549.503 -9667.636)" fill="#fff"/>
        <path id="Path_247" data-name="Path 247" d="M50.543,45.676a4.867,4.867,0,1,0,4.867,4.867,4.867,4.867,0,0,0-4.867-4.867m0,8.027a3.159,3.159,0,1,1,3.16-3.159,3.16,3.16,0,0,1-3.16,3.159" transform="translate(-1565.566 -9683.7)" fill="#fff"/>
        <path id="Path_248" data-name="Path 248" d="M87.362,40.85a1.137,1.137,0,1,1-1.137-1.137,1.137,1.137,0,0,1,1.137,1.137" transform="translate(-1596.188 -9679.067)" fill="#fff"/>
      </g>
    </g>
  </g>
</svg>
