<svg xmlns="http://www.w3.org/2000/svg" xmlns:xlink="http://www.w3.org/1999/xlink" width="33" height="33" viewBox="0 0 33 33">
  <defs>
    <clipPath id="clip-Linkedin">
      <rect width="33" height="33"/>
    </clipPath>
  </defs>
  <g id="Linkedin" clip-path="url(#clip-Linkedin)">
    <g id="Group_1987" data-name="Group 1987" transform="translate(1486.542 9664.959)">
      <g id="Group_1985" data-name="Group 1985" transform="translate(-77 -174)">
        <path id="Path_240" data-name="Path 240" d="M224.7,15.957A15.957,15.957,0,1,1,208.747,0,15.957,15.957,0,0,1,224.7,15.957" transform="translate(-1601.789 -9490.416)" fill="#41b8ea"/>
        <path id="Path_241" data-name="Path 241" d="M252.873,51.524c.227-.255.413-.513.646-.733a3.546,3.546,0,0,1,2.551-1.007,5.907,5.907,0,0,1,1.6.2,3.136,3.136,0,0,1,2.227,2.342A9.813,9.813,0,0,1,260.2,55c0,1.907-.006,3.814,0,5.72,0,.179-.05.225-.225.224q-1.473-.012-2.947,0c-.173,0-.21-.052-.21-.216q.008-2.721,0-5.443a4.887,4.887,0,0,0-.158-1.351,1.519,1.519,0,0,0-1.671-1.184,1.826,1.826,0,0,0-1.919,1.823,6.8,6.8,0,0,0-.052.851c0,1.765,0,3.529,0,5.294,0,.176-.043.228-.223.226q-1.484-.013-2.969,0c-.159,0-.2-.042-.2-.2q.007-5.241,0-10.481c0-.173.056-.213.22-.212q1.41.01,2.819,0c.173,0,.218.054.214.218-.01.417,0,.835,0,1.253" transform="translate(-1644.811 -9527.961)" fill="#fefefe"/>
      </g>
      <path id="Path_242" data-name="Path 242" d="M226,56.56c0,1.728,0,3.457,0,5.185,0,.192-.047.25-.246.248-.982-.011-1.964-.008-2.946,0-.157,0-.2-.038-.2-.2q.007-5.249,0-10.5c0-.145.035-.2.189-.2,1,.007,1.992.008,2.989,0,.191,0,.218.072.217.236q-.007,2.614,0,5.228" transform="translate(-1700.322 -9703.005)" fill="#fefefe"/>
      <path id="Path_243" data-name="Path 243" d="M225.257,26.553A1.962,1.962,0,1,1,223.3,24.6a1.968,1.968,0,0,1,1.958,1.952" transform="translate(-1699.309 -9681.929)" fill="#fefefe"/>
    </g>
  </g>
</svg>
