<svg xmlns="http://www.w3.org/2000/svg" xmlns:xlink="http://www.w3.org/1999/xlink" width="179" height="36" viewBox="0 0 179 36">
  <defs>
    <clipPath id="clip-logo">
      <rect width="179" height="36"/>
    </clipPath>
  </defs>
  <g id="logo" clip-path="url(#clip-logo)">
    <g id="Group_1990" data-name="Group 1990" transform="translate(-254 -8850.153)">
      <path id="Path_1" data-name="Path 1" d="M59.759,12.639a4.8,4.8,0,0,0,1.362-3.556C61.092,6,58.661,3.925,55.078,3.925a9.209,9.209,0,0,0-7.2,3.35,11.076,11.076,0,0,0-2.548,7.2c.059,4.566,2.786,7.2,7.5,7.2a14.773,14.773,0,0,0,6.285-1.3l.12-.061-.445-3.942-.237.12a10.052,10.052,0,0,1-4.566,1.037A3.723,3.723,0,0,1,50.9,16.317a3.134,3.134,0,0,1-.474-1.423c4.649.117,7.7-.626,9.335-2.255m-8.894-1.69a3.848,3.848,0,0,1,3.646-3.084c1.008,0,1.631.474,1.631,1.245a1.2,1.2,0,0,1-.357.89C55.164,10.653,53.592,10.949,50.865,10.949Z" transform="translate(314.072 8857.095)" fill="#132a4a"/>
      <path id="Path_2" data-name="Path 2" d="M57.327,8.291H50.538l-4.329,5.07c-.413.533-.829,1.037-1.186,1.511L47.544.761l-5.93,2.164L37.7,25.1l-.029.206h5.544l.947-5.3,1.394-1.394,2.758,6.7H55.1L49.973,15.258Z" transform="translate(304.438 8853.111)" fill="#132a4a"/>
      <path id="Path_3" data-name="Path 3" d="M17.636,3.924a6.819,6.819,0,0,0-5.16,2.46l.237-2.106h-4.5L4.029,28.052l5.6-2.045.888-4.95a7.148,7.148,0,0,0,3.054.621c6.165,0,9.753-5.75,9.694-11.294-.059-3.913-2.252-6.461-5.632-6.461m-4.3,13.725a3.093,3.093,0,0,1-2.076-.712l.565-3.468c.533-3.113,2.133-5.219,3.911-5.219,1.839,0,1.986,1.959,1.986,2.551.059,3.172-1.839,6.848-4.385,6.848" transform="translate(262.073 8857.094)" fill="#132a4a"/>
      <path id="Path_4" data-name="Path 4" d="M11.056,12.669,11.8,8.49H8.537l.117-.653c.149-.861.712-2.815,2.756-2.815a5.051,5.051,0,0,1,.978.088L13.162.752A12.142,12.142,0,0,0,11.264.6,8.213,8.213,0,0,0,6.253,2.322,9.219,9.219,0,0,0,3.082,8.013l-.088.5H.8l-.741,4.15H2.252L0,25.535H5.571L7.826,12.669Z" transform="translate(257 8852.912)" fill="#132a4a"/>
      <path id="Path_5" data-name="Path 5" d="M41.252,11.335c.416-2.4.088-4.24-.949-5.515-1.066-1.245-2.844-1.9-5.277-1.9A15.459,15.459,0,0,0,28.208,5.4l-.117.059L28.5,9.2l.237-.12a10.546,10.546,0,0,1,4.744-1.245,2.882,2.882,0,0,1,2.223.682,1.523,1.523,0,0,1,.267,1.245l-.029.088c-6.226,0-10.2,2.372-10.939,6.522a4.693,4.693,0,0,0,.89,3.764,4.77,4.77,0,0,0,3.764,1.572,7.456,7.456,0,0,0,5.07-1.9v1.541h4.776ZM35.175,15.07a5.362,5.362,0,0,1-.237.831,3.349,3.349,0,0,1-2.876,1.807,1.68,1.68,0,0,1-1.274-.474,1.491,1.491,0,0,1-.237-1.274c.3-1.631,1.956-2.49,4.92-2.49Z" transform="translate(288.378 8857.091)" fill="#132a4a"/>
      <path id="Path_6" data-name="Path 6" d="M61.337,19.461l-.178.029a9.747,9.747,0,0,1-1.333.059,1.1,1.1,0,0,1-1.245-.915,1.215,1.215,0,0,1,0-.3,14.539,14.539,0,0,1,.237-2.074l1.039-5.515h3.023l.712-4.062H60.6l.831-4.622L55.913,4.076l-.474,2.609H53.3l-.709,4.062h2.1l-1.186,6.432a14.4,14.4,0,0,0-.3,3.143c.032,2.343,1.722,3.766,4.566,3.766a10.137,10.137,0,0,0,2.817-.357Z" transform="translate(323.225 8854.748)" fill="#132a4a"/>
      <path id="Path_7" data-name="Path 7" d="M65.715,10.889C64.35,10.238,63.758,9.7,63.758,9.14c0-.77.8-1.274,1.986-1.274a7.225,7.225,0,0,1,3.262.741l.176.088.709-4.062a10.268,10.268,0,0,0-4.03-.68c-4.417,0-7.469,2.431-7.439,5.9.029,1.868,1.272,3.409,3.705,4.6,1.661.8,1.986,1.362,2.015,1.986,0,.8-.741,1.333-1.927,1.333a11.193,11.193,0,0,1-4.3-1.125l-.178-.09-.712,4.121a10.34,10.34,0,0,0,4.8,1.066c4.832,0,7.8-2.311,7.74-6.043,0-2.553-2.047-3.915-3.854-4.805" transform="translate(328.808 8857.124)" fill="#132a4a"/>
      <path id="Path_8" data-name="Path 8" d="M38.9,5.7a4.474,4.474,0,0,0-3.588-1.482,7.083,7.083,0,0,0-3.409.829,9.394,9.394,0,0,0-2.37,1.866,4.072,4.072,0,0,0-4.182-2.7,7.1,7.1,0,0,0-5.395,2.4l.5-2.905-5.1,1.866-2.815,16.04h5.424l1.749-9.873a4.045,4.045,0,0,1,.416-1.245,3.149,3.149,0,0,1,2.58-1.778,1.609,1.609,0,0,1,1.245.5,3.641,3.641,0,0,1,.355,2.817l-1.749,9.574h5.424l1.749-9.9a4.531,4.531,0,0,1,.416-1.274A3.023,3.023,0,0,1,32.7,8.724a1.634,1.634,0,0,1,1.276.5c.474.565.592,1.6.325,3.084L32.672,21.59H38.1l1.751-9.961c.445-2.607.117-4.654-.949-5.928" transform="translate(272.796 8856.828)" fill="#132a4a"/>
      <path id="Path_9" data-name="Path 9" d="M45.99,4.26A6.481,6.481,0,0,0,44.863,4.2a6.228,6.228,0,0,0-5.009,3.082l.621-3.556L35.318,5.6,32.5,21.6h5.542l1.514-8.6a5.521,5.521,0,0,1,.3-1.127,3.959,3.959,0,0,1,3.854-2.519,7.535,7.535,0,0,1,1.333.117l.178.029.919-5.216Z" transform="translate(297.927 8856.846)" fill="#132a4a"/>
      <path id="Path_10" data-name="Path 10" d="M70.653,26.07c.355-.267.682-.5,1.037-.741.267-.208.861-.653.861-.653C84.556,15.518,86.869,8.7,88.677.013c-5.395,13.548-13.548,17.52-17.906,20.425a11.7,11.7,0,0,1-2.223-11.8,11.47,11.47,0,0,1,6.522-6.61A13.29,13.29,0,0,0,65.527,10.3a13.566,13.566,0,0,0,5.1,15.832c0-.061,0-.061.029-.061" transform="translate(338.482 8852.169)" fill="#41b7e9"/>
      <path id="Path_11" data-name="Path 11" d="M87.238,17.4a11.85,11.85,0,0,1-10.614,7.53c2.964-4.358,9.755-12.1,7.53-24.93-.709,10.67-4.118,16.334-12.272,24.277-.978.949-2.015,1.927-3.143,2.964a3.05,3.05,0,0,0-.3.3,6.107,6.107,0,0,0,.682.269A13.714,13.714,0,0,0,86.942,20.1a12.739,12.739,0,0,0,.829-4.744,12.011,12.011,0,0,1-.533,2.047" transform="translate(343.183 8852.154)" fill="#132a4a"/>
      <rect id="Rectangle_1" data-name="Rectangle 1" width="173.957" height="32.993" transform="translate(257 8852.153)" fill="none"/>
    </g>
  </g>
</svg>
