<svg xmlns="http://www.w3.org/2000/svg" xmlns:xlink="http://www.w3.org/1999/xlink" width="141" height="64" viewBox="0 0 141 64">
  <defs>
    <clipPath id="clip-path">
      <rect id="Rectangle_472" data-name="Rectangle 472" width="138.466" height="60.75" fill="none"/>
    </clipPath>
    <clipPath id="clip-TrustPilot">
      <rect width="141" height="64"/>
    </clipPath>
  </defs>
  <g id="TrustPilot" clip-path="url(#clip-TrustPilot)">
    <g id="Group_1978" data-name="Group 1978" transform="translate(1 2)">
      <path id="Path_506" data-name="Path 506" d="M0,134.406H25.963V108.443H0Zm28.126,0H54.091V108.443H28.126Zm28.126,0H82.215V108.443H56.252Zm28.124,0h25.963V108.443H84.376ZM112.5,108.443l0,25.963h25.962V108.443Z" transform="translate(0 -73.656)" fill="#00b67a"/>
      <path id="Path_507" data-name="Path 507" d="M21.226,135.216l3.949-1,1.65,5.084Zm9.087-6.572H23.362L21.226,122.1l-2.136,6.545H12.139l5.625,4.056-2.136,6.545,5.625-4.056,3.462-2.488Zm19.039,6.572,3.949-1,1.65,5.084Zm9.087-6.572H51.488L49.352,122.1l-2.136,6.545H40.265L45.89,132.7l-2.136,6.545,5.628-4.056,3.462-2.488Zm19.038,6.572,3.949-1,1.65,5.084Zm9.087-6.572H79.614L77.478,122.1l-2.136,6.545H68.391l5.625,4.056-2.136,6.545,5.625-4.056,3.462-2.488Zm19.039,6.572,3.949-1,1.65,5.084Zm9.087-6.572H107.74L105.6,122.1l-2.136,6.545H96.515l5.625,4.056L100,139.246l5.625-4.056,3.462-2.488Zm19.039,6.572,3.949-1,1.65,5.084Zm9.087-6.572h-6.951l-2.136-6.544-2.136,6.545h-6.951l5.625,4.056-2.136,6.545,5.626-4.056,3.462-2.488Z" transform="translate(-8.245 -82.932)" fill="#fff"/>
      <g id="Group_1905" data-name="Group 1905">
        <g id="Group_1904" data-name="Group 1904" clip-path="url(#clip-path)">
          <path id="Path_508" data-name="Path 508" d="M86.614,28.678H99.938v2.48H94.692V45.141H91.816V31.159H86.592Zm12.753,4.544h2.458v2.3h.044a2.9,2.9,0,0,1,.461-.944,3.657,3.657,0,0,1,.812-.834,3.6,3.6,0,0,1,1.053-.615,3.066,3.066,0,0,1,1.164-.241c.308,0,.527.022.636.022a1.914,1.914,0,0,0,.351.044v2.524a4.374,4.374,0,0,0-.571-.085,4.966,4.966,0,0,0-.571-.044,3.047,3.047,0,0,0-1.251.263,3.171,3.171,0,0,0-1.031.765,4.169,4.169,0,0,0-.7,1.274,5.369,5.369,0,0,0-.263,1.756v5.661H99.324ZM118.42,45.141h-2.59V43.473h-.044a3.674,3.674,0,0,1-1.448,1.449,3.823,3.823,0,0,1-1.954.549,4.345,4.345,0,0,1-3.4-1.164,5.087,5.087,0,0,1-1.053-3.512V33.222h2.633v7.305a3.114,3.114,0,0,0,.615,2.217,2.167,2.167,0,0,0,1.69.658,3.236,3.236,0,0,0,1.383-.263,2.388,2.388,0,0,0,.9-.68,2.677,2.677,0,0,0,.5-1.032,4.884,4.884,0,0,0,.154-1.3V33.217h2.633V45.141Zm4.478-3.822a2.071,2.071,0,0,0,.879,1.624,3.455,3.455,0,0,0,1.822.461,6.013,6.013,0,0,0,.834-.066,3.678,3.678,0,0,0,.878-.219,1.543,1.543,0,0,0,.68-.483,1.123,1.123,0,0,0,.241-.812,1.18,1.18,0,0,0-.373-.834,3.109,3.109,0,0,0-.878-.527,7.562,7.562,0,0,0-1.229-.33c-.461-.085-.922-.2-1.405-.308s-.966-.241-1.427-.4a4.09,4.09,0,0,1-1.229-.636,2.74,2.74,0,0,1-.856-1.01,3.151,3.151,0,0,1-.33-1.514,2.6,2.6,0,0,1,.483-1.624,3.5,3.5,0,0,1,1.207-1.053,5.487,5.487,0,0,1,1.624-.571,9.3,9.3,0,0,1,1.69-.154,7.547,7.547,0,0,1,1.756.2,4.439,4.439,0,0,1,1.515.636,3.478,3.478,0,0,1,1.119,1.142,3.954,3.954,0,0,1,.571,1.691h-2.744a1.689,1.689,0,0,0-.856-1.274,3.541,3.541,0,0,0-1.559-.33c-.176,0-.417.022-.658.044a3.866,3.866,0,0,0-.725.176,1.716,1.716,0,0,0-.571.373.88.88,0,0,0-.241.636.966.966,0,0,0,.33.765,3,3,0,0,0,.878.5,7.646,7.646,0,0,0,1.229.33c.461.085.944.2,1.427.307s.944.241,1.405.4a3.842,3.842,0,0,1,1.229.636,3.163,3.163,0,0,1,.878.988,3.027,3.027,0,0,1,.33,1.47,3.2,3.2,0,0,1-.482,1.8,4.112,4.112,0,0,1-1.251,1.207,6.191,6.191,0,0,1-1.713.68,9.2,9.2,0,0,1-1.869.219,7.867,7.867,0,0,1-2.085-.263,5.313,5.313,0,0,1-1.668-.765,3.679,3.679,0,0,1-1.1-1.3,4.226,4.226,0,0,1-.439-1.844h2.656v.022Zm8.67-8.1h2v-3.6H136.2V33.2h2.371v1.954H136.2v6.366a6.862,6.862,0,0,0,.044.725,1.521,1.521,0,0,0,.154.5.859.859,0,0,0,.373.308,1.957,1.957,0,0,0,.7.109,4.574,4.574,0,0,0,.548-.022,4.707,4.707,0,0,0,.549-.085v2.039c-.286.044-.571.066-.856.085a5.483,5.483,0,0,1-.857.044,5.667,5.667,0,0,1-1.668-.2,2.4,2.4,0,0,1-.988-.571,2.036,2.036,0,0,1-.482-.944,7.445,7.445,0,0,1-.154-1.317V35.17h-2V33.216Zm8.846,0h2.48v1.624h.044a3.261,3.261,0,0,1,1.537-1.493,4.977,4.977,0,0,1,2.151-.461,5.411,5.411,0,0,1,2.458.5,4.613,4.613,0,0,1,1.734,1.359,5.677,5.677,0,0,1,1.032,2.019,8.867,8.867,0,0,1,.044,4.785,6.446,6.446,0,0,1-.944,2,4.676,4.676,0,0,1-1.6,1.383,4.737,4.737,0,0,1-2.283.527,6.675,6.675,0,0,1-1.142-.109,4.853,4.853,0,0,1-1.1-.33,3.947,3.947,0,0,1-.966-.594,3.357,3.357,0,0,1-.747-.834h-.044v5.946h-2.634V33.222Zm9.2,5.971a5.358,5.358,0,0,0-.219-1.558,3.973,3.973,0,0,0-.636-1.339,3.514,3.514,0,0,0-1.031-.944A2.81,2.81,0,0,0,146.3,35a2.915,2.915,0,0,0-2.5,1.142,5.2,5.2,0,0,0-.834,3.073,5.677,5.677,0,0,0,.219,1.668,3.723,3.723,0,0,0,.658,1.317,3.134,3.134,0,0,0,1.053.878,2.967,2.967,0,0,0,1.427.33,2.917,2.917,0,0,0,1.514-.373,3.541,3.541,0,0,0,1.032-.944,3.87,3.87,0,0,0,.571-1.339,7.568,7.568,0,0,0,.176-1.558Zm4.631-10.514h2.633v2.48h-2.633Zm0,4.544h2.633V45.141h-2.633Zm4.979-4.542h2.633V45.141h-2.633Zm10.667,16.792a6.271,6.271,0,0,1-2.548-.482,5.777,5.777,0,0,1-1.887-1.3,5.64,5.64,0,0,1-1.164-2,7.809,7.809,0,0,1-.417-2.524,7.14,7.14,0,0,1,.417-2.5,5.846,5.846,0,0,1,1.164-2,5.266,5.266,0,0,1,1.887-1.3,6.661,6.661,0,0,1,2.548-.483,6.272,6.272,0,0,1,2.548.483,5.465,5.465,0,0,1,1.888,1.3,5.645,5.645,0,0,1,1.164,2,7.676,7.676,0,0,1,.417,2.5,7.168,7.168,0,0,1-.417,2.524,6.214,6.214,0,0,1-1.164,2,5.27,5.27,0,0,1-1.888,1.3,6.584,6.584,0,0,1-2.544.482Zm0-2.085a3.032,3.032,0,0,0,1.514-.373,3.176,3.176,0,0,0,1.054-.966,4.137,4.137,0,0,0,.615-1.339,5.984,5.984,0,0,0,0-3.051,3.937,3.937,0,0,0-.615-1.339,3.334,3.334,0,0,0-1.054-.944A3.091,3.091,0,0,0,169.889,35a3.033,3.033,0,0,0-1.514.373,3.371,3.371,0,0,0-1.053.944,3.933,3.933,0,0,0-.615,1.339,5.985,5.985,0,0,0,0,3.051,3.933,3.933,0,0,0,.615,1.339,3.4,3.4,0,0,0,1.053.966,2.878,2.878,0,0,0,1.519.373Zm6.8-10.163h2v-3.6h2.633V33.2h2.371v1.954h-2.371V41.52a6.76,6.76,0,0,0,.044.725,1.524,1.524,0,0,0,.154.5.856.856,0,0,0,.373.307,1.945,1.945,0,0,0,.7.11,4.578,4.578,0,0,0,.549-.022,4.8,4.8,0,0,0,.549-.085V45.1c-.285.044-.571.066-.856.085a5.43,5.43,0,0,1-.856.044,5.683,5.683,0,0,1-1.669-.2,2.4,2.4,0,0,1-.988-.571,2.038,2.038,0,0,1-.483-.944,7.448,7.448,0,0,1-.154-1.316V35.173h-2V33.22Z" transform="translate(-46.32 -19.84)"/>
          <path id="Path_509" data-name="Path 509" d="M25.327,9.2H15.651L12.672,0l-3,9.2L0,9.184l7.826,5.693-3,9.2,7.826-5.693,7.826,5.693-2.979-9.2Z" transform="translate(0 0)" fill="#00b67a"/>
          <path id="Path_510" data-name="Path 510" d="M45,48.453l-.67-2.08-4.829,3.507Z" transform="translate(-26.833 -31.497)" fill="#005128"/>
        </g>
      </g>
    </g>
  </g>
</svg>
