<svg xmlns="http://www.w3.org/2000/svg" xmlns:xlink="http://www.w3.org/1999/xlink" width="33" height="33" viewBox="0 0 33 33">
  <defs>
    <clipPath id="clip-twitter">
      <rect width="33" height="33"/>
    </clipPath>
  </defs>
  <g id="twitter" clip-path="url(#clip-twitter)">
    <g id="Group_1982" data-name="Group 1982" transform="translate(1540.613 9491.029)">
      <ellipse id="Oval" cx="15.887" cy="15.887" rx="15.887" ry="15.887" transform="translate(-1540 -9490.416)" fill="#41b8ea"/>
      <path id="Shape" d="M18.509,1.781a7.576,7.576,0,0,1-2.181.6A3.808,3.808,0,0,0,18,.278a7.6,7.6,0,0,1-2.411.921A3.8,3.8,0,0,0,9.115,4.663,10.779,10.779,0,0,1,1.288.695a3.8,3.8,0,0,0,1.175,5.07,3.771,3.771,0,0,1-1.72-.475c0,.016,0,.032,0,.048A3.8,3.8,0,0,0,3.789,9.061a3.812,3.812,0,0,1-1.715.066,3.8,3.8,0,0,0,3.547,2.637A7.619,7.619,0,0,1,.905,13.389,7.647,7.647,0,0,1,0,13.336a10.741,10.741,0,0,0,5.82,1.706,10.731,10.731,0,0,0,10.8-10.8c0-.165,0-.329-.011-.491a7.7,7.7,0,0,0,1.9-1.965Z" transform="translate(-1533 -9480.815)" fill="#fff"/>
    </g>
  </g>
</svg>
