<svg xmlns="http://www.w3.org/2000/svg" xmlns:xlink="http://www.w3.org/1999/xlink" width="33" height="33" viewBox="0 0 33 33">
  <defs>
    <clipPath id="clip-WhatsApp">
      <rect width="33" height="33"/>
    </clipPath>
  </defs>
  <g id="WhatsApp" clip-path="url(#clip-WhatsApp)">
    <g id="Group_1984" data-name="Group 1984" transform="translate(1453.544 9490.959)">
      <path id="Path_236" data-name="Path 236" d="M31.914,15.957A15.957,15.957,0,1,1,15.957,0,15.957,15.957,0,0,1,31.914,15.957" transform="translate(-1453.001 -9490.416)" fill="#41b8ea"/>
      <path id="Path_237" data-name="Path 237" d="M43.348,26.186A9.82,9.82,0,0,0,27.893,38.03L26.5,43.117l5.205-1.365A9.812,9.812,0,0,0,36.4,42.947h0a9.82,9.82,0,0,0,6.946-16.761M36.4,41.289h0a8.153,8.153,0,0,1-4.154-1.137l-.3-.177-3.089.81.825-3.01-.194-.309A8.162,8.162,0,1,1,36.4,41.289m4.477-6.111c-.245-.123-1.452-.716-1.677-.8s-.388-.123-.552.123-.634.8-.777.962-.286.184-.532.061a6.7,6.7,0,0,1-1.973-1.217A7.393,7.393,0,0,1,34,32.61c-.143-.246-.015-.378.108-.5s.245-.287.368-.43a1.68,1.68,0,0,0,.245-.409.452.452,0,0,0-.021-.43c-.061-.123-.552-1.33-.756-1.821s-.4-.414-.552-.421-.307-.009-.47-.009a.9.9,0,0,0-.654.307,2.749,2.749,0,0,0-.859,2.046,4.772,4.772,0,0,0,1,2.537,10.935,10.935,0,0,0,4.191,3.7A14.128,14.128,0,0,0,38,37.7a3.362,3.362,0,0,0,1.545.1,2.527,2.527,0,0,0,1.656-1.166,2.052,2.052,0,0,0,.143-1.166c-.061-.1-.225-.164-.47-.286" transform="translate(-1472.625 -9508.213)" fill="#fff" fill-rule="evenodd"/>
    </g>
  </g>
</svg>
