<svg id="Layer_1" xmlns="http://www.w3.org/2000/svg" viewBox="0 0 131.67 63.21" width="100%" height="100%" preserveAspectRatio="none"><defs><style>.cls-1{fill:#00afc9;}.cls-2{fill:#fff;}</style></defs><path class="cls-1" d="M57.85,26.36c-7.25-4.89-9.29-18,2.9-23.19-4.85,3.57-8.88,10.12-2.63,18.39C62.38,18.7,70.26,13.72,75.65.22,75.43,2.49,75.25,13.29,57.85,26.36Z"/><path class="cls-2" d="M60.32,27.79c6.32,3.05,19.5.06,19.23-12.53-1.64,7.12-6.48,10.1-12.19,10.24C70.22,21.24,78.05,13.36,75.84.58,74.75,14,66.69,21.1,60.32,27.79Z"/><path class="cls-2" d="M13,38.6a8.81,8.81,0,0,0-1.48-.11,3.93,3.93,0,0,0-2.38.62,3,3,0,0,0-1.06,2l-.23,1.26h3.86l-.59,3.39H7.24l-2,11.32H1L3,45.75H.57l.59-3.39h2.4l.19-1.06A8,8,0,0,1,5.1,37.94a6.65,6.65,0,0,1,2.61-2.13,8.91,8.91,0,0,1,3.74-.74,13.29,13.29,0,0,1,2.12.17L13,38.6ZM25.76,49.43a9.49,9.49,0,0,1-3.09,5.89,9.49,9.49,0,0,1-6.32,2,13.83,13.83,0,0,1-1.69-.11l-1,5.76H9.34L13,42.36h3.6v1.56h.2a5.83,5.83,0,0,1,1.88-1.31A5.74,5.74,0,0,1,21,42.13a5.51,5.51,0,0,1,2.93.76,4.15,4.15,0,0,1,1.74,2.4,8.81,8.81,0,0,1,.08,4.14Zm-4.59-2.87a2.28,2.28,0,0,0-2-.92,4.2,4.2,0,0,0-1.39.25,3.29,3.29,0,0,0-1.21.75l-1.28,7.27a7.73,7.73,0,0,0,1.66.16,4.19,4.19,0,0,0,3-1,5.75,5.75,0,0,0,1.49-3.29,4.72,4.72,0,0,0-.2-3.21Zm28.55,1.37L48.1,57.07H43.82l1.57-8.91a2.37,2.37,0,0,0-.19-1.79,1.54,1.54,0,0,0-1.31-.54,3.57,3.57,0,0,0-1.3.25,3.52,3.52,0,0,0-1.17.76,7,7,0,0,1-.13.95l-1.63,9.28H35.45L37,48.16a2.48,2.48,0,0,0-.15-1.8,1.47,1.47,0,0,0-1.28-.53,3.37,3.37,0,0,0-1.39.31,3.52,3.52,0,0,0-1.23.91l-1.77,10H26.9l2.59-14.71H33l0,1.49h.2a6.37,6.37,0,0,1,4.43-1.72,4.47,4.47,0,0,1,2.11.47A2.87,2.87,0,0,1,41.1,44a7.29,7.29,0,0,1,2.31-1.44,6.82,6.82,0,0,1,2.44-.47,3.92,3.92,0,0,1,3.32,1.4c.72.93.9,2.4.55,4.4Zm14.83.4L63,57.07H59.46l0-1.45h-.2a5.13,5.13,0,0,1-1.89,1.3,6.33,6.33,0,0,1-2.32.42,5.21,5.21,0,0,1-2.46-.53,3,3,0,0,1-1.38-1.49A3.93,3.93,0,0,1,51,53.08a4.81,4.81,0,0,1,2-3.27,9.75,9.75,0,0,1,4.89-1.36l2.42-.2,0-.19a3.06,3.06,0,0,0,0-1.6,1.42,1.42,0,0,0-.9-.82,5.7,5.7,0,0,0-1.93-.25,16.28,16.28,0,0,0-2,.14,13.82,13.82,0,0,0-2.11.45L54,42.75a17.79,17.79,0,0,1,2.41-.46,21.71,21.71,0,0,1,2.46-.16,9.83,9.83,0,0,1,3.78.59,3.21,3.21,0,0,1,1.85,2,7.41,7.41,0,0,1,.07,3.66Zm-6.61,2.49a3.56,3.56,0,0,0-1.86.56,1.94,1.94,0,0,0-.78,1.29,1.37,1.37,0,0,0,.27,1.26,1.92,1.92,0,0,0,1.38.43,3.89,3.89,0,0,0,1.28-.23,3.63,3.63,0,0,0,1.21-.7l.49-2.76-2,.15Zm19.19-4.67A7.06,7.06,0,0,0,75.7,46a5.7,5.7,0,0,0-2,.38,4.38,4.38,0,0,0-1.63,1l-1.7,9.63h-4.3l2.59-14.71h3.51v1.9h.2a4.94,4.94,0,0,1,1.9-1.58,5.41,5.41,0,0,1,2.37-.52,6,6,0,0,1,1.17.11l-.69,3.88ZM89,42.36h4.59l-5.93,7.07,3.8,7.64H86.78l-3-5.83H82.07l-1,5.83h-4.3l3.83-21.73h4.3L82.68,47.79h1.69L89,42.36Zm17.11,7.48-.2,1.13H97a3.52,3.52,0,0,0,.18,1.86,1.92,1.92,0,0,0,1.19,1,8,8,0,0,0,2.47.3,17.24,17.24,0,0,0,3.8-.47l-.57,3.22a20.34,20.34,0,0,1-4.4.5,10.14,10.14,0,0,1-4.45-.81A4.13,4.13,0,0,1,93,54.07a9.19,9.19,0,0,1-.09-4.37,11.08,11.08,0,0,1,1.53-4.12A7.23,7.23,0,0,1,97.22,43a8.17,8.17,0,0,1,3.86-.88q3.12,0,4.41,2t.62,5.74Zm-3.91-4.16a1.68,1.68,0,0,0-1.65-.83,2.59,2.59,0,0,0-2,.83,5.79,5.79,0,0,0-1.15,2.8h4.93a4.7,4.7,0,0,0-.14-2.8Zm16.62-3.32-.59,3.39h-3.86l-1,5.41a4.18,4.18,0,0,0,0,1.57,1.25,1.25,0,0,0,.63.83,3,3,0,0,0,1.33.24,9.46,9.46,0,0,0,1.58-.17l-.6,3.4a12.71,12.71,0,0,1-2.77.31A5,5,0,0,1,109.66,56c-.78-.9-1-2.29-.67-4.17l1.07-6.08h-2.39l.6-3.39h2.39l1.7-5.19h3.52L115,42.36Zm11.73,3.38a13.38,13.38,0,0,0-3.74-.49c-2,0-3.15.5-3.33,1.48a.92.92,0,0,0,.17.78,1.62,1.62,0,0,0,.94.43l2.3.43a4.59,4.59,0,0,1,2.78,1.38,3.49,3.49,0,0,1,.47,2.87,5,5,0,0,1-1.22,2.53,6.14,6.14,0,0,1-2.55,1.63,10.81,10.81,0,0,1-3.66.58,14.89,14.89,0,0,1-4.6-.65l.55-3.15a14.87,14.87,0,0,0,4.54.66,4.54,4.54,0,0,0,2.09-.37,1.46,1.46,0,0,0,.81-1.08,1,1,0,0,0-.14-.83,1.72,1.72,0,0,0-1-.43l-2.31-.43a4.32,4.32,0,0,1-2.76-1.42,3.57,3.57,0,0,1-.46-2.82,4.93,4.93,0,0,1,1.21-2.5,6.18,6.18,0,0,1,2.61-1.63,12.14,12.14,0,0,1,3.95-.58,17.53,17.53,0,0,1,2.06.12,13.15,13.15,0,0,1,1.8.34l-.55,3.15Z"/></svg>