<svg xmlns="http://www.w3.org/2000/svg" width="262" height="66.124" viewBox="0 0 262 66.124">
  <g id="FP_partners_logo" data-name="FP partners logo" transform="translate(-65.8 68.9)">
    <g id="Group_5" data-name="Group 5" transform="translate(65.8 -68.9)">
      <g id="Group_3" data-name="Group 3" transform="translate(0 4.897)">
        <g id="Group_2" data-name="Group 2">
          <path id="Path_1" data-name="Path 1" d="M185.725-45.645a6.919,6.919,0,0,0,1.989-5.2c0-4.591-3.673-7.652-8.876-7.652a13.886,13.886,0,0,0-10.713,4.9,16.57,16.57,0,0,0-3.826,10.56c.153,6.734,4.132,10.56,11.019,10.56a20.2,20.2,0,0,0,9.182-1.989l.153-.153-.612-5.815-.306.153A14.5,14.5,0,0,1,177-38.758a5.567,5.567,0,0,1-4.591-1.836,5.142,5.142,0,0,1-.765-2.143C178.839-42.125,183.277-43.2,185.725-45.645Zm-13.161-2.449c.612-2.3,2.449-4.591,5.356-4.591,1.53,0,2.449.765,2.449,1.836a1.738,1.738,0,0,1-.459,1.224C178.992-48.553,176.7-48.093,172.564-48.093Z" transform="translate(-13.558 69.519)" fill="#0b121c"/>
          <path id="Path_2" data-name="Path 2" d="M176.724-54.281h-9.947l-6.428,7.5a21.9,21.9,0,0,0-1.683,2.3L162.339-65.3l-8.723,3.214L147.8-29.336v.306h8.111l1.377-7.8,1.99-2.143,4.132,9.947h9.947l-7.652-14.845Z" transform="translate(-22.309 65.912)" fill="#0b121c"/>
          <g id="Group_1" data-name="Group 1">
            <path id="Path_3" data-name="Path 3" d="M94.7-58.5a10.2,10.2,0,0,0-7.652,3.673l.306-3.061H80.621L74.5-22.842,82.764-25.9l1.377-7.346a10.145,10.145,0,0,0,4.438.918c9.029,0,14.386-8.417,14.232-16.681C102.812-54.674,99.6-58.5,94.7-58.5ZM88.273-38.3a4.168,4.168,0,0,1-3.061-1.071l.765-5.2c.765-4.591,3.061-7.652,5.815-7.652S94.7-49.318,94.7-48.4C94.854-43.655,91.946-38.3,88.273-38.3Z" transform="translate(-61.186 69.519)" fill="#0b121c"/>
            <path id="Path_4" data-name="Path 4" d="M82.022-47.948l1.071-6.121H78.349l.153-.918c.153-1.224,1.071-4.132,4.132-4.132a4.237,4.237,0,0,1,1.377.153l1.071-6.428a16.864,16.864,0,0,0-2.755-.306,12.672,12.672,0,0,0-7.346,2.449,13.81,13.81,0,0,0-4.591,8.417l-.153.765H67.024l-1.071,6.121h3.214L65.8-28.971h8.264l3.367-18.977Z" transform="translate(-65.8 65.7)" fill="#0b121c"/>
          </g>
          <path id="Path_5" data-name="Path 5" d="M144.006-47.634c.612-3.52.153-6.275-1.377-8.111s-4.132-2.755-7.8-2.755a24.5,24.5,0,0,0-10.1,2.143l-.153.153.612,5.509.306-.153a15.889,15.889,0,0,1,7.04-1.836c1.53,0,2.755.306,3.214,1.071a2.973,2.973,0,0,1,.459,1.836v.153c-9.182,0-15,3.52-16.069,9.641a6.735,6.735,0,0,0,1.377,5.509,6.835,6.835,0,0,0,5.509,2.3,10.8,10.8,0,0,0,7.5-2.755v2.3h7.04Zm-8.876,5.509c-.153.459-.153.918-.306,1.224a4.842,4.842,0,0,1-4.285,2.6,2.087,2.087,0,0,1-1.836-.765A2.373,2.373,0,0,1,128.4-40.9c.459-2.449,2.908-3.673,7.193-3.673Z" transform="translate(-37.032 69.519)" fill="#0b121c"/>
          <path id="Path_6" data-name="Path 6" d="M193.161-36.89h-.306a8.726,8.726,0,0,1-1.989.153,1.623,1.623,0,0,1-1.836-1.836,18.842,18.842,0,0,1,.306-3.061l1.53-8.111H195.3l1.071-5.968h-4.438l1.224-6.887h0l-8.111,2.908-.765,3.826h-3.214L180-49.9h3.061l-1.683,9.488a27.29,27.29,0,0,0-.459,4.591c0,3.52,2.6,5.509,6.734,5.509a17.068,17.068,0,0,0,4.132-.459Z" transform="translate(-5.231 67.344)" fill="#0b121c"/>
          <path id="Path_7" data-name="Path 7" d="M202.6-48.246c-1.989-.918-2.908-1.683-2.908-2.6,0-1.071,1.224-1.836,2.908-1.836a12.249,12.249,0,0,1,4.9,1.071l.306.153,1.071-5.968a15.42,15.42,0,0,0-5.968-1.071c-6.581,0-11.019,3.52-11.019,8.723,0,2.755,1.836,5.05,5.509,6.734,2.449,1.224,2.908,1.989,2.908,2.908,0,1.224-1.071,1.989-2.755,1.989a15.808,15.808,0,0,1-6.275-1.683l-.306-.153L189.9-33.861a15.96,15.96,0,0,0,7.04,1.53c7.04,0,11.478-3.367,11.478-8.876C208.264-44.88,205.357-46.869,202.6-48.246Z" transform="translate(0.019 69.519)" fill="#0b121c"/>
          <path id="Path_8" data-name="Path 8" d="M132.025-56.092a6.907,6.907,0,0,0-5.356-2.143,11.184,11.184,0,0,0-5.05,1.224,19.918,19.918,0,0,0-3.52,2.755c-.765-2.449-3.061-3.979-6.121-3.979a10.678,10.678,0,0,0-7.958,3.52L104.784-59h0l-7.5,2.755L93-32.525h7.958l2.6-14.539a12.85,12.85,0,0,1,.612-1.836A4.5,4.5,0,0,1,108-51.5a2.534,2.534,0,0,1,1.836.765,4.963,4.963,0,0,1,.459,4.132l-2.449,14.079H115.8l2.6-14.539a6.479,6.479,0,0,1,.612-1.836,4.371,4.371,0,0,1,3.826-2.449,2.293,2.293,0,0,1,1.836.765c.765.765.918,2.449.459,4.591l-2.449,13.62h7.958l2.6-14.692C134.014-51.042,133.555-54.1,132.025-56.092Z" transform="translate(-51.374 69.253)" fill="#0b121c"/>
          <path id="Path_9" data-name="Path 9" d="M156.395-58.135a5.738,5.738,0,0,0-1.683-.153,9.085,9.085,0,0,0-7.346,4.591h0l.918-5.2-7.652,2.755L136.5-32.578h8.264l2.3-12.7c.153-.612.306-1.224.459-1.683a5.874,5.874,0,0,1,5.662-3.673c.765,0,1.377.153,1.989.153h.306l1.377-7.652Z" transform="translate(-28.303 69.307)" fill="#0b121c"/>
        </g>
      </g>
      <g id="Group_4" data-name="Group 4" transform="translate(216.376)">
        <path id="Path_10" data-name="Path 10" d="M217-26.05c.612-.459,1.071-.765,1.683-1.224.459-.306,1.377-1.071,1.377-1.071,19.742-15,23.568-26.322,26.475-40.555-8.876,22.19-22.19,28.771-29.383,33.515a19.181,19.181,0,0,1-3.673-19.436,19.183,19.183,0,0,1,10.713-10.866,22.058,22.058,0,0,0-15.763,13.62A22.651,22.651,0,0,0,217-26.05Z" transform="translate(-207.188 68.9)" fill="#0b121c"/>
        <path id="Path_11" data-name="Path 11" d="M247.214-40.282a19.652,19.652,0,0,1-17.446,12.4c4.9-7.193,16.069-19.895,12.4-41.014-1.224,17.446-6.734,26.782-20.2,39.943h0c-1.53,1.53-3.367,3.214-5.2,4.9l-.459.459h0c.306.153.765.306,1.071.459,11.937,4.438,24.945-1.224,29.23-12.7a23.318,23.318,0,0,0,1.377-7.8A8.34,8.34,0,0,1,247.214-40.282Z" transform="translate(-202.354 68.9)" fill="#0b121c"/>
      </g>
    </g>
    <text id="Partners" transform="translate(187.845 -7.776)" fill="#0b121c" font-size="19" font-family="HelveticaNeueLTPro-MdIt, Helvetica Neue LT Pro" font-weight="500" font-style="italic"><tspan x="0" y="0">Partners</tspan></text>
  </g>
</svg>
