<svg id="china" xmlns="http://www.w3.org/2000/svg" xmlns:xlink="http://www.w3.org/1999/xlink" width="43.675" height="43.669" viewBox="0 0 43.675 43.669">
  <defs>
    <clipPath id="clip-path">
      <path id="Path_831" data-name="Path 831" d="M43.63,22.325A21.305,21.305,0,1,1,22.325,1.02,21.306,21.306,0,0,1,43.63,22.325Z" transform="translate(-1.02 -1.02)" fill="none"/>
    </clipPath>
  </defs>
  <path id="Path_825" data-name="Path 825" d="M43.675,21.835a21.837,21.837,0,1,0-.005,0Z" fill="#cccbca"/>
  <g id="Group_2001" data-name="Group 2001" transform="translate(0.53 0.53)" clip-path="url(#clip-path)">
    <rect id="Rectangle_597" data-name="Rectangle 597" width="63.911" height="42.605" fill="#e23725"/>
    <path id="Path_826" data-name="Path 826" d="M32.71,33.39H28.9l-1.173-3.618s-.042-.021-.047,0L26.506,33.39h-3.8s-.021.005-.026.016,0,.021.01.026l3.078,2.237L24.59,39.287s0,.021.01.026a.033.033,0,0,0,.031,0l3.078-2.237,3.078,2.237a.052.052,0,0,0,.016.005.019.019,0,0,0,.016-.005c.01-.005.01-.016.01-.026l-1.178-3.618,3.078-2.237a.064.064,0,0,0,.01-.026c0-.01-.01-.016-.026-.016Z" transform="translate(-11.436 -14.841)" fill="#fcdc2e"/>
    <path id="Path_827" data-name="Path 827" d="M48.218,29.659a.076.076,0,0,0,.021.01h.005s.021-.01.021-.021l.109-1.251,1.225-.28s.021-.01.021-.021a.029.029,0,0,0-.016-.026l-1.152-.493.109-1.251s-.005-.021-.016-.026a.066.066,0,0,0-.031.005l-.825.945-1.158-.493s-.021,0-.026.005-.01.021,0,.031l.649,1.075-.825.945a.059.059,0,0,0,0,.031.019.019,0,0,0,.026.01l1.225-.28.644,1.075Z" transform="translate(-22.806 -13.176)" fill="#fcdc2e"/>
    <path id="Path_828" data-name="Path 828" d="M52.966,35.291s-.016.016-.016.026a.022.022,0,0,0,.021.021l1.236.213.177,1.246s.01.021.021.021h0s.021,0,.021-.01l.587-1.111,1.236.213h0s.026-.01.026-.026a.027.027,0,0,0-.01-.021l-.872-.893.587-1.111v-.026c-.005-.01-.021-.01-.031-.005l-1.127.55-.872-.9s-.021-.01-.031-.005a.019.019,0,0,0-.01.026l.177,1.241-1.127.55Z" transform="translate(-25.991 -16.623)" fill="#fcdc2e"/>
    <path id="Path_829" data-name="Path 829" d="M56.425,44.427a.036.036,0,0,0-.026-.016l-1.256.042-.431-1.178s-.01-.021-.026-.016a.019.019,0,0,0-.021.021l-.343,1.21-1.256.047s-.021.005-.026.021,0,.021.01.026l1.038.7-.343,1.21s0,.021.01.026h.026l.986-.774,1.038.7a.059.059,0,0,0,.031,0c.01-.005.01-.021.01-.026l-.431-1.178.992-.774s.01-.021.005-.026Z" transform="translate(-26.035 -21.331)" fill="#fcdc2e"/>
    <path id="Path_830" data-name="Path 830" d="M49.642,52.294l-1.178-.441.057-1.256s-.005-.021-.016-.026a.039.039,0,0,0-.026.005l-.784.981-1.178-.446s-.021,0-.026.005a.033.033,0,0,0,0,.031l.69,1.049-.784.981a.059.059,0,0,0,0,.031.04.04,0,0,0,.026.01l1.215-.332.69,1.049a.036.036,0,0,0,.021.01h.005a.058.058,0,0,0,.021-.026l.057-1.256,1.21-.332s.021-.01.021-.021a.029.029,0,0,0-.016-.026Z" transform="translate(-22.84 -24.847)" fill="#fcdc2e"/>
  </g>
</svg>
