<?xml version="1.0" encoding="UTF-8"?><svg id="Layer_2" xmlns="http://www.w3.org/2000/svg" xmlns:xlink="http://www.w3.org/1999/xlink" viewBox="0 0 123.13 84.13"><defs><style>.cls-1{fill:#fff;}.cls-2{fill:#bb2025;}.cls-3{fill:#1a6b36;}.cls-4{fill:#cccbca;}.cls-5{clip-path:url(#clippath);}.cls-6{fill:none;}.cls-7{fill:#231f20;}</style><clipPath id="clippath"><path class="cls-6" d="m102.59,42.06c0,22.66-18.37,41.03-41.04,41.03s-41.04-18.37-41.04-41.03S38.89,1.02,61.55,1.02s41.04,18.37,41.04,41.04Z"/></clipPath></defs><g id="Layer_1-2"><path class="cls-4" d="m103.62,42.06c0,23.23-18.83,42.06-42.06,42.06s-42.06-18.83-42.06-42.06S38.32,0,61.55,0s42.06,18.83,42.06,42.06Z"/><g class="cls-5"><rect class="cls-7" y="1.01" width="123.12" height="24.63"/><rect class="cls-3" y="58.47" width="123.12" height="24.62"/><rect class="cls-2" y="29.74" width="123.13" height="24.62"/><rect class="cls-1" x="0" y="25.64" width="123.12" height="4.1"/><path class="cls-1" d="m75.68,65.99l-24.18-41.87c.37-1.44-.42-2.8-1.19-4.12-2.14-3.71-4.54-6.19-6.18-7.61-.02-.01-.05-.02-.06,0-.02.01-.03.03-.03.06.41,2.13,1.35,5.45,3.5,9.17.76,1.33,1.55,2.69,2.97,3.09l24.17,41.87s.03.03.05.03c0,0,.02,0,.02-.01l.9-.51s.02-.02.03-.04c0-.01,0-.03,0-.04Z"/><path class="cls-7" d="m74.74,66.67c-.05,0-.09-.02-.12-.06l-24.16-41.85c-1.43-.41-2.22-1.79-2.99-3.11-2.15-3.72-3.09-7.05-3.5-9.19-.01-.06.01-.11.06-.14.04-.03.12-.03.17.01,1.64,1.43,4.05,3.91,6.2,7.62.77,1.34,1.56,2.71,1.2,4.16l24.16,41.84s.02.05.01.1c-.01.04-.04.07-.07.08l-.89.51s-.05.02-.07.02ZM44.14,12.5c.42,2.13,1.36,5.41,3.47,9.07.76,1.31,1.53,2.66,2.93,3.04.02,0,.04.02.05.04l24.16,41.85.86-.49-24.16-41.84s-.01-.04,0-.06c.36-1.4-.41-2.74-1.17-4.05-2.12-3.67-4.49-6.12-6.12-7.55Z"/><path class="cls-1" d="m47.44,65.99l24.18-41.87c-.37-1.44.42-2.8,1.19-4.12,2.14-3.71,4.55-6.19,6.18-7.61.02-.01.05-.02.06,0,.03.01.03.03.03.06-.41,2.13-1.35,5.45-3.5,9.17-.76,1.33-1.55,2.69-2.97,3.09l-24.17,41.87s-.03.03-.05.03c0,0-.02,0-.03-.01l-.9-.51s-.02-.02-.03-.04c0-.01,0-.03,0-.04Z"/><path class="cls-7" d="m48.39,66.67s.09-.02.12-.06l24.16-41.85c1.43-.41,2.22-1.79,2.99-3.11,2.15-3.72,3.09-7.05,3.5-9.19.01-.06-.01-.11-.06-.14-.04-.03-.12-.03-.17.01-1.64,1.43-4.05,3.91-6.2,7.62-.77,1.34-1.56,2.71-1.2,4.16l-24.16,41.84s-.02.05-.01.1c.01.04.04.07.07.08l.89.51s.05.02.07.02Zm30.59-54.17c-.42,2.13-1.36,5.41-3.47,9.07-.76,1.31-1.53,2.66-2.93,3.04-.02,0-.04.02-.05.04l-24.16,41.85-.86-.49,24.16-41.84s.01-.04,0-.06c-.36-1.4.41-2.74,1.17-4.05,2.12-3.67,4.49-6.12,6.12-7.55Z"/><rect class="cls-1" x="0" y="54.36" width="123.12" height="4.1"/><path class="cls-2" d="m73.87,42.05c0,13.6-5.51,24.62-12.31,24.62s-12.31-11.02-12.31-24.62,5.51-24.62,12.31-24.62,12.31,11.02,12.31,24.62Z"/><path class="cls-7" d="m50.91,54.35c1.05-3.62,1.65-7.81,1.65-12.29s-.61-8.67-1.65-12.3c-1.05,3.62-1.65,7.81-1.65,12.3s.61,8.67,1.65,12.29Z"/><path class="cls-7" d="m72.22,54.35c1.05-3.62,1.65-7.81,1.65-12.29s-.61-8.67-1.65-12.3c-1.05,3.62-1.65,7.81-1.65,12.3s.61,8.67,1.65,12.29Z"/><path class="cls-1" d="m63.67,42.05c0-1.43-.65-2.64-1.53-3.02.19-.41,2.04-4.47,2.04-10.77,0-6.61-2.04-10.77-2.06-10.81-.01-.02-.04-.04-.06-.03-.03,0-.05.03-.05.06v21.5c-.15-.05-.3-.07-.46-.07s-.31.03-.46.07v-21.5s-.02-.05-.04-.06c-.03,0-.06,0-.07.03-.02.04-2.06,4.2-2.06,10.81s1.85,10.36,2.04,10.77c-.88.38-1.53,1.58-1.53,3.02s.65,2.64,1.53,3.01c-.2.41-2.04,4.47-2.04,10.77,0,6.61,2.04,10.76,2.06,10.81,0,.02.03.03.05.03h.01s.04-.03.04-.06v-21.5c.15.05.3.08.46.08s.31-.03.46-.08v21.5s.02.05.05.06h.01s.04-.01.05-.03c.02-.04,2.06-4.2,2.06-10.81s-1.85-10.36-2.04-10.77c.88-.38,1.53-1.59,1.53-3.01Z"/></g></g></svg>