<?xml version="1.0" encoding="UTF-8"?><svg id="Layer_2" xmlns="http://www.w3.org/2000/svg" xmlns:xlink="http://www.w3.org/1999/xlink" viewBox="0 0 124.13 84.13"><defs><style>.cls-1{fill:#fff;}.cls-2{fill:#252165;}.cls-3{fill:#ffc92b;}.cls-4{fill:#cd2326;}.cls-5{fill:#cccbca;}.cls-6{clip-path:url(#clippath);}.cls-7{fill:none;}</style><clipPath id="clippath"><path class="cls-7" d="m83.1,42.07c0,22.67-18.37,41.04-41.03,41.04S1.02,64.73,1.02,42.07,19.4,1.03,42.06,1.03s41.03,18.37,41.03,41.04Z"/></clipPath></defs><g id="Layer_1-2"><path class="cls-5" d="m84.13,42.06c0,23.23-18.83,42.06-42.06,42.06S0,65.29,0,42.06,18.83,0,42.06,0s42.06,18.83,42.06,42.06Z"/><g class="cls-6"><rect class="cls-1" x="1.02" y="77.24" width="123.11" height="5.86"/><rect class="cls-1" x="1.02" y="65.52" width="123.11" height="5.86"/><rect class="cls-1" x="1.02" y="53.79" width="123.11" height="5.86"/><rect class="cls-4" x="1.02" y="71.38" width="123.11" height="5.86"/><rect class="cls-4" x="1.02" y="59.65" width="123.11" height="5.86"/><rect class="cls-4" x="1.02" y="47.93" width="123.11" height="5.87"/><rect class="cls-1" x="62.58" y="42.07" width="61.55" height="5.86"/><rect class="cls-1" x="62.58" y="30.34" width="61.55" height="5.86"/><rect class="cls-4" x="62.58" y="24.48" width="61.55" height="5.87"/><rect class="cls-1" x="62.58" y="18.62" width="61.55" height="5.86"/><rect class="cls-4" x="62.58" y="12.76" width="61.55" height="5.86"/><rect class="cls-1" x="62.58" y="6.9" width="61.55" height="5.86"/><rect class="cls-4" x="62.58" y="1.03" width="61.55" height="5.86"/><path class="cls-3" d="m33.72,37.12c-1.41.48-2.88.73-4.38.73-7.37,0-13.37-5.98-13.37-13.33s5.99-13.33,13.37-13.33c1.6,0,3.16.28,4.64.82.08.03.17,0,.2-.08.04-.08.01-.17-.06-.22-2.55-1.72-5.54-2.63-8.63-2.63-8.51,0-15.44,6.9-15.44,15.39s6.93,15.39,15.44,15.39c2.98,0,5.87-.85,8.36-2.45.07-.05.09-.14.06-.22-.04-.08-.13-.11-.21-.08Z"/><path class="cls-3" d="m53.42,27.17l-6.33-2.68,6.33-2.66c.08-.03.12-.11.1-.19-.01-.08-.08-.13-.17-.13l-6.9.27,4.52-5.08c.06-.06.06-.15,0-.21-.05-.06-.13-.09-.2-.05l-6.1,3.16,1.82-6.49c.02-.08-.01-.16-.08-.19-.07-.04-.16-.02-.21.05l-4.09,5.43-1.24-6.62c-.02-.08-.08-.14-.17-.14h0c-.08,0-.15.06-.16.13l-1.27,6.62-4.07-5.44c-.05-.06-.13-.08-.21-.05-.07.04-.11.12-.09.19l1.8,6.5-6.09-3.18c-.07-.04-.16-.02-.21.05-.05.06-.05.16,0,.21l4.51,5.09-6.9-.29c-.08,0-.15.05-.17.13-.01.08.03.16.1.19l6.33,2.67-6.33,2.66c-.08.03-.12.11-.1.19.01.08.08.14.17.13l6.9-.27-4.53,5.08c-.05.06-.06.15,0,.21.05.07.14.08.21.05l6.1-3.16-1.82,6.49c-.02.08.01.16.08.2.07.04.16.01.21-.05l4.09-5.43,1.25,6.63c.01.08.08.13.17.13h0c.08,0,.15-.06.16-.13l1.27-6.62,4.07,5.44c.05.07.13.09.21.05.07-.04.11-.12.09-.2l-1.8-6.5,6.09,3.18s.06.02.09.02c.09.01.17-.07.17-.17,0-.06-.03-.11-.08-.14l-4.48-5.06,6.9.29c.08,0,.15-.05.17-.13.01-.08-.03-.16-.1-.19Z"/><path class="cls-2" d="m1.02,1.04v46.89h61.56V1.04H1.02Zm32.84,36.39c-2.5,1.6-5.39,2.45-8.36,2.45-8.51,0-15.44-6.9-15.44-15.39s6.93-15.39,15.44-15.39c3.1,0,6.08.91,8.63,2.63.07.05.1.14.06.22-.04.08-.13.11-.2.08-1.48-.55-3.05-.82-4.64-.82-7.37,0-13.37,5.98-13.37,13.33s5.99,13.33,13.37,13.33c1.5,0,2.97-.25,4.38-.73.08-.03.17,0,.21.08.04.08.01.17-.06.22Zm19.55-10.25c.07.03.11.11.1.19-.02.08-.08.13-.17.13l-6.9-.29,4.48,5.06s.08.08.08.14c0,.1-.08.18-.17.17-.03,0-.06,0-.09-.02l-6.09-3.18,1.8,6.5c.02.08-.01.16-.09.2-.08.04-.16.01-.21-.05l-4.07-5.44-1.27,6.62c-.01.08-.08.13-.16.13-.08,0-.16-.06-.17-.13l-1.25-6.63-4.09,5.43c-.05.06-.14.08-.21.05-.07-.04-.11-.12-.08-.2l1.82-6.49-6.1,3.16c-.07.04-.16.02-.21-.05-.05-.06-.04-.15,0-.21l4.53-5.08-6.9.27c-.09,0-.16-.05-.17-.13-.02-.08.02-.16.1-.19l6.33-2.66-6.33-2.67c-.07-.03-.11-.11-.1-.19.02-.08.09-.13.17-.13l6.9.29-4.51-5.09c-.06-.06-.06-.15,0-.21.05-.06.14-.08.21-.05l6.09,3.18-1.8-6.5c-.02-.08.02-.16.09-.19.08-.04.16-.02.21.05l4.07,5.44,1.27-6.62c.01-.08.08-.13.16-.13.08,0,.15.06.17.14l1.24,6.62,4.09-5.43c.05-.07.14-.08.21-.05.07.04.11.12.08.19l-1.82,6.49,6.1-3.16c.07-.04.16-.02.2.05.05.06.05.16,0,.21l-4.52,5.08,6.9-.27c.09,0,.16.05.17.13.02.08-.02.16-.1.19l-6.33,2.66,6.33,2.68Z"/><polygon class="cls-4" points="62.58 36.21 62.58 42.07 62.58 42.07 124.13 42.07 124.13 36.21 62.58 36.21"/></g></g></svg>