<?xml version="1.0" encoding="UTF-8"?><svg id="Layer_2" xmlns="http://www.w3.org/2000/svg" xmlns:xlink="http://www.w3.org/1999/xlink" viewBox="0 0 123.11 84.13"><defs><style>.cls-1{fill:#fff;}.cls-2{fill:#c62338;}.cls-3{fill:#cccbca;}.cls-4{clip-path:url(#clippath);}.cls-5{fill:none;}.cls-6{fill:#243b80;}.cls-7{fill:#231f20;}</style><clipPath id="clippath"><path class="cls-5" d="m102.58,42.06c0,22.67-18.37,41.04-41.04,41.04s-41.04-18.37-41.04-41.04S38.88,1.03,61.54,1.03s41.04,18.37,41.04,41.04Z"/></clipPath></defs><g id="Layer_1-2"><path class="cls-3" d="m103.6,42.06c0,23.23-18.83,42.06-42.06,42.06s-42.06-18.83-42.06-42.06S38.31,0,61.54,0s42.06,18.83,42.06,42.06Z"/><g class="cls-4"><rect class="cls-1" y="1.05" width="123.11" height="82.08"/><path class="cls-6" d="m48.25,33.21c-2.45,3.68-1.46,8.64,2.22,11.09,3.67,2.45,8.63,1.46,11.09-2.22,2.45-3.68,7.42-4.67,11.09-2.22,3.68,2.46,4.67,7.42,2.21,11.1-4.89,7.35-14.83,9.34-22.18,4.43-7.35-4.9-9.34-14.82-4.43-22.18"/><path class="cls-2" d="m50.47,44.31c3.67,2.45,8.63,1.46,11.09-2.22,2.45-3.68,7.42-4.67,11.09-2.22,3.56,2.38,4.6,7.12,2.44,10.75,4.61-7.31,2.57-17-4.65-21.83-7.35-4.91-17.29-2.92-22.18,4.43-.08.12-.15.23-.22.35-2.16,3.63-1.12,8.36,2.44,10.74Z"/><path class="cls-7" d="m31.57,31.79l2.21,1.48s.03.01.04.01h.01s.04-.02.04-.04l8.88-13.31s0-.03,0-.05c0-.01-.02-.03-.02-.04l-2.23-1.48s-.07,0-.09.02l-8.87,13.32s-.02.07.02.09Z"/><path class="cls-7" d="m30.46,31.05s.02.01.04.01c0,0,0,0,.01,0,.01,0,.03-.02.04-.03l8.87-13.32s0-.07-.02-.09l-2.22-1.47s-.03-.02-.05,0c-.01,0-.03.01-.04.02l-8.87,13.32s-.01.07.02.09l2.22,1.49Z"/><path class="cls-7" d="m43.85,20.58s-.07-.02-.09.02l-8.88,13.31s-.01.03-.01.05c0,.01.02.04.02.04l2.22,1.48s.02,0,.04,0c.02,0,.05,0,.06-.03l8.88-13.31s.01-.08-.02-.1l-2.22-1.48Z"/><path class="cls-7" d="m92.65,53.12s-.03,0-.05,0c-.01,0-.03.02-.04.03l-4.06,6.11s-.01.07.01.09l2.22,1.48s.02.02.04.02c0,0,0,0,0,0,.02,0,.04-.01.04-.03l4.07-6.1s.01-.07-.02-.09l-2.22-1.48Z"/><path class="cls-7" d="m87.4,58.61s.02,0,.05,0h0s.04-.02.04-.03l4.07-6.1s.02-.08-.02-.1l-2.21-1.48s-.08-.02-.09.02l-4.07,6.1s-.01.07.02.1l2.22,1.48Z"/><path class="cls-7" d="m86.74,59.59l-2.22-1.48s-.03-.01-.05-.01c-.01,0-.03.02-.04.03l-4.07,6.1s-.01.04-.01.06c0,.01.02.03.03.04l2.23,1.48s.03,0,.04,0c.02,0,.04,0,.06-.03l4.07-6.1s0-.08-.03-.1Z"/><path class="cls-7" d="m81.86,54.9l2.22,1.47s.02.02.04.02h.01s.04-.02.04-.04l4.06-6.09s.02-.07-.01-.09l-2.22-1.48s-.04,0-.05,0c-.01,0-.03,0-.04.02l-4.07,6.1s-.01.07.02.1Z"/><path class="cls-7" d="m87.85,60.34s-.03-.01-.05,0c-.02,0-.03,0-.04.02l-4.07,6.11s0,.07.02.1l2.23,1.47s.02.01.03.01c.02,0,.04-.01.06-.03l4.06-6.09s.01-.08-.02-.1l-2.22-1.48Z"/><path class="cls-7" d="m83.45,57.41s-.02-.03-.04-.04l-2.21-1.47s-.08,0-.09.02l-4.08,6.1s0,.04,0,.05c0,.02.02.03.03.04l2.22,1.48s.02.02.04.02c.01,0,.03-.02.05-.04l4.07-6.1s.02-.04.02-.06Z"/><path class="cls-7" d="m88.5,24.93l4.06,6.1s.03.02.04.03c0,0,.01,0,.01,0,.02,0,.03,0,.04-.01l2.22-1.49s.04-.05.02-.09l-4.07-6.11s-.02-.02-.04-.03c-.02,0-.03,0-.05.01l-2.22,1.48s-.04.06-.01.09Z"/><path class="cls-7" d="m87.75,23.83s.02.02.04.03h.02s.02,0,.03-.01l2.22-1.48s.05-.05.02-.09l-4.06-6.1s-.07-.04-.09-.01l-2.23,1.47s-.03.03-.03.05,0,.04,0,.04l4.07,6.11Z"/><path class="cls-7" d="m85.91,35.47s.03.03.04.03h.01s.03,0,.04,0l2.22-1.48s.04-.06.01-.09l-4.06-6.1s-.06-.04-.09-.02l-2.22,1.48s-.03.02-.03.05c0,.02,0,.03.01.05l4.07,6.1Z"/><path class="cls-7" d="m81.11,28.26s.03.02.05.02c.01,0,.03,0,.04,0l2.21-1.48s.03-.04.04-.04c0-.02,0-.04-.02-.06l-4.07-6.1s-.06-.04-.09-.02l-2.22,1.48s-.03.02-.03.04c0,.02,0,.04,0,.06l4.08,6.1Z"/><path class="cls-7" d="m89.24,33.25s.02.03.04.04h.01s.02-.01.04-.01l2.21-1.48s.04-.06.02-.09l-8.88-13.32s-.06-.03-.09-.02l-2.23,1.48s-.02.03-.03.04c0,.02,0,.04.01.05l8.88,13.31Z"/><path class="cls-7" d="m37.2,48.7s-.06-.04-.09-.02l-2.22,1.48s-.02.03-.02.04c0,.02,0,.04.01.06l8.88,13.31s.04.04.05.04c.02,0,.04,0,.04-.02l2.22-1.48s.04-.06.02-.1l-8.88-13.31Z"/><path class="cls-7" d="m33.78,50.91l-2.21,1.48s-.03.02-.04.04c0,.02,0,.04.02.05l4.07,6.1s.02.03.04.03h0s.04,0,.04,0l2.23-1.48s.03-.06.02-.1l-4.07-6.1s-.06-.04-.1-.02Z"/><path class="cls-7" d="m38.69,58.13s-.07-.03-.09-.01l-2.22,1.48s-.03.02-.03.04c0,.02,0,.04,0,.06l4.07,6.1s.04.03.06.03c0,0,.02,0,.03,0l2.23-1.48s.02-.03.02-.04c0-.02,0-.04,0-.06l-4.07-6.1Z"/><path class="cls-7" d="m30.55,53.14s-.06-.04-.09-.02l-2.22,1.48s-.02.02-.03.04c0,0,0,.03,0,.05l8.87,13.31s.04.03.06.03c.01,0,.03,0,.04-.01l2.22-1.47s.02-.03.02-.05c0-.02,0-.04,0-.05l-8.87-13.32Z"/></g></g></svg>