<svg xmlns="http://www.w3.org/2000/svg" xmlns:xlink="http://www.w3.org/1999/xlink" width="264.047" height="212.202" viewBox="0 0 264.047 212.202">
  <defs>
    <clipPath id="clip-path">
      <rect id="Rectangle_10" data-name="Rectangle 10" width="264.047" height="207.042" fill="none"/>
    </clipPath>
    <clipPath id="clip-path-2">
      <rect id="Rectangle_11" data-name="Rectangle 11" width="264.047" height="207.042" fill="rgba(178,178,178,0.6)"/>
    </clipPath>
  </defs>
  <g id="Group_162" data-name="Group 162" transform="translate(20128 213)">
    <text id="Investment_Trends_Report" data-name="Investment
Trends Report" transform="translate(-19996 -21.798)" fill="#a5a5a5" font-size="16" font-family="EuclidSquare-Light, Euclid Square" font-weight="300" letter-spacing="-0.02em"><tspan x="-40.52" y="0">Investment</tspan><tspan x="-49.896" y="17">Trends Report</tspan></text>
    <text id="_1_Best_Education_Material" data-name="#1 Best
Education
Material" transform="translate(-19996 -130)" fill="#606060" font-size="26" font-family="EuclidSquare-SemiBold, Euclid Square" font-weight="600"><tspan x="-44.72" y="0">#1 Best</tspan><tspan x="-62.985" y="29">Education</tspan><tspan x="-52.689" y="58">Material</tspan></text>
    <g id="Group_26" data-name="Group 26" transform="translate(-20128 -213)" clip-path="url(#clip-path-2)">
      <path id="Path_152" data-name="Path 152" d="M347.192,111.891l3.917-2.1a13.521,13.521,0,0,0,7.2-13.053l-.319-4.432-3.919,2.1a13.521,13.521,0,0,0-7.2,13.045Z" transform="translate(-95.93 -25.531)" fill="rgba(178,178,178,0.6)" fill-rule="evenodd"/>
      <path id="Path_153" data-name="Path 153" d="M339.938,163.372l4.4-.7a13.482,13.482,0,0,0,11.078-9.973l1.155-4.307-4.407.7a13.478,13.478,0,0,0-11.07,9.972Z" transform="translate(-94.021 -41.043)" fill="rgba(178,178,178,0.6)" fill-rule="evenodd"/>
      <path id="Path_154" data-name="Path 154" d="M316.465,208.656l4.376.851a13.487,13.487,0,0,0,13.822-5.582l2.561-3.655-4.385-.846A13.489,13.489,0,0,0,319.029,205Z" transform="translate(-87.529 -55.085)" fill="rgba(178,178,178,0.6)" fill-rule="evenodd"/>
      <path id="Path_155" data-name="Path 155" d="M279.739,242.887l3.732,2.39a13.5,13.5,0,0,0,14.907-.1l3.715-2.442-3.751-2.395a13.5,13.5,0,0,0-14.9.1Z" transform="translate(-77.371 -65.869)" fill="rgba(178,178,178,0.6)" fill-rule="evenodd"/>
      <path id="Path_156" data-name="Path 156" d="M329.334,67.8l-2.115-3.858a13.519,13.519,0,0,0-13.131-7.057l-4.388.363,2.123,3.861a13.526,13.526,0,0,0,13.124,7.05Z" transform="translate(-85.658 -15.719)" fill="rgba(178,178,178,0.6)" fill-rule="evenodd"/>
      <path id="Path_157" data-name="Path 157" d="M340.456,113.036l-.731-4.325a13.489,13.489,0,0,0-10.072-10.984l-4.253-1.1.737,4.333a13.488,13.488,0,0,0,10.069,10.978Z" transform="translate(-90 -26.725)" fill="rgba(178,178,178,0.6)" fill-rule="evenodd"/>
      <path id="Path_158" data-name="Path 158" d="M334.961,160.663l.862-4.3a13.493,13.493,0,0,0-5.486-13.858l-3.582-2.549-.859,4.319a13.5,13.5,0,0,0,5.486,13.843Z" transform="translate(-90.061 -38.709)" fill="rgba(178,178,178,0.6)" fill-rule="evenodd"/>
      <path id="Path_159" data-name="Path 159" d="M313.515,202.911l2.245-3.8a13.49,13.49,0,0,0-.619-14.888l-2.545-3.6-2.245,3.8a13.5,13.5,0,0,0,.62,14.879Z" transform="translate(-85.302 -49.959)" fill="rgba(178,178,178,0.6)" fill-rule="evenodd"/>
      <path id="Path_160" data-name="Path 160" d="M278.062,235.882l3.488-2.729a13.486,13.486,0,0,0,4.855-14.091l-1.073-4.3-3.49,2.739a13.492,13.492,0,0,0-4.848,14.082Z" transform="translate(-76.495 -59.399)" fill="rgba(178,178,178,0.6)" fill-rule="evenodd"/>
      <path id="Path_161" data-name="Path 161" d="M325.419,40.793l2.366-3.718a13.494,13.494,0,0,0-.133-14.9l-2.433-3.678-2.363,3.727a13.512,13.512,0,0,0,.135,14.892Z" transform="translate(-88.696 -5.115)" fill="rgba(178,178,178,0.6)" fill-rule="evenodd"/>
      <path id="Path_162" data-name="Path 162" d="M344.046,87.069l3.517-2.69a13.49,13.49,0,0,0,4.99-14.046l-1.03-4.314L348,68.723a13.514,13.514,0,0,0-4.983,14.034Z" transform="translate(-94.767 -18.26)" fill="rgba(178,178,178,0.6)" fill-rule="evenodd"/>
      <path id="Path_163" data-name="Path 163" d="M345.885,137.535l4.21-1.434a13.48,13.48,0,0,0,9.216-11.719l.4-4.432-4.215,1.44a13.482,13.482,0,0,0-9.208,11.711Z" transform="translate(-95.666 -33.176)" fill="rgba(178,178,178,0.6)" fill-rule="evenodd"/>
      <path id="Path_164" data-name="Path 164" d="M329.843,187.325l4.456.13a13.488,13.488,0,0,0,12.734-7.747l1.937-4.024-4.466-.125a13.481,13.481,0,0,0-12.724,7.746Z" transform="translate(-91.229 -48.555)" fill="rgba(178,178,178,0.6)" fill-rule="evenodd"/>
      <path id="Path_165" data-name="Path 165" d="M299.424,227.583l4.146,1.612a13.566,13.566,0,0,0,14.595-3.034l3.161-3.134-4.152-1.612a13.565,13.565,0,0,0-14.586,3.037Z" transform="translate(-82.816 -60.978)" fill="rgba(178,178,178,0.6)" fill-rule="evenodd"/>
      <path id="Path_166" data-name="Path 166" d="M318.1,46.617l-2.744-3.445a13.486,13.486,0,0,0-14.139-4.72l-4.275,1.107,2.758,3.453a13.485,13.485,0,0,0,14.134,4.714Z" transform="translate(-82.13 -10.509)" fill="rgba(178,178,178,0.6)" fill-rule="evenodd"/>
      <path id="Path_167" data-name="Path 167" d="M336.88,90.056,335.4,85.918a13.494,13.494,0,0,0-11.839-9.046l-4.385-.34,1.484,4.143a13.489,13.489,0,0,0,11.837,9.04Z" transform="translate(-88.277 -21.168)" fill="rgba(178,178,178,0.6)" fill-rule="evenodd"/>
      <path id="Path_168" data-name="Path 168" d="M339.984,136.764l.079-4.381a13.49,13.49,0,0,0-7.876-12.653l-3.968-1.861-.082,4.386a13.474,13.474,0,0,0,7.874,12.648Z" transform="translate(-90.757 -32.6)" fill="rgba(178,178,178,0.6)" fill-rule="evenodd"/>
      <path id="Path_169" data-name="Path 169" d="M326.112,182.887l1.531-4.106a13.513,13.513,0,0,0-3.246-14.55l-3.132-3.07-1.533,4.114a13.512,13.512,0,0,0,3.248,14.544Z" transform="translate(-88.188 -44.575)" fill="rgba(178,178,178,0.6)" fill-rule="evenodd"/>
      <path id="Path_170" data-name="Path 170" d="M297.419,220.931l2.848-3.368a13.511,13.511,0,0,0,1.874-14.788l-1.919-3.975-2.851,3.377a13.52,13.52,0,0,0-1.869,14.777Z" transform="translate(-81.347 -54.985)" fill="rgba(178,178,178,0.6)" fill-rule="evenodd"/>
      <path id="Path_171" data-name="Path 171" d="M336.845,63.16l2.968-3.269a13.5,13.5,0,0,0,2.393-14.714l-1.777-4.043-2.97,3.275a13.5,13.5,0,0,0-2.387,14.7Z" transform="translate(-92.346 -11.377)" fill="rgba(178,178,178,0.6)" fill-rule="evenodd"/>
      <path id="Path_172" data-name="Path 172" d="M311.771,30.117l-.657-4.668A11.327,11.327,0,0,0,302.892,16l-4.534-1.3.661,4.673a11.34,11.34,0,0,0,8.219,9.443Z" transform="translate(-82.521 -4.066)" fill="rgba(178,178,178,0.6)" fill-rule="evenodd"/>
      <path id="Path_173" data-name="Path 173" d="M13.41,111.889l-3.917-2.1a13.526,13.526,0,0,1-7.2-13.053l.32-4.431,3.919,2.1a13.525,13.525,0,0,1,7.194,13.046Z" transform="translate(-0.624 -25.531)" fill="rgba(178,178,178,0.6)" fill-rule="evenodd"/>
      <path id="Path_174" data-name="Path 174" d="M18.7,163.371l-4.4-.7A13.479,13.479,0,0,1,3.227,152.7l-1.156-4.307,4.409.7a13.48,13.48,0,0,1,11.068,9.972Z" transform="translate(-0.573 -41.043)" fill="rgba(178,178,178,0.6)" fill-rule="evenodd"/>
      <path id="Path_175" data-name="Path 175" d="M40.6,208.655l-4.377.851a13.479,13.479,0,0,1-13.82-5.582l-2.562-3.656,4.385-.845A13.491,13.491,0,0,1,38.036,205Z" transform="translate(-5.487 -55.085)" fill="rgba(178,178,178,0.6)" fill-rule="evenodd"/>
      <path id="Path_176" data-name="Path 176" d="M76.715,242.886l-3.731,2.389a13.5,13.5,0,0,1-14.908-.1l-3.714-2.442,3.751-2.394a13.494,13.494,0,0,1,14.9.1Z" transform="translate(-15.036 -65.868)" fill="rgba(178,178,178,0.6)" fill-rule="evenodd"/>
      <path id="Path_177" data-name="Path 177" d="M28.161,67.8l2.115-3.858A13.512,13.512,0,0,1,43.407,56.88l4.387.362L45.672,61.1a13.528,13.528,0,0,1-13.123,7.05Z" transform="translate(-7.789 -15.719)" fill="rgba(178,178,178,0.6)" fill-rule="evenodd"/>
      <path id="Path_178" data-name="Path 178" d="M18.788,113.034l.731-4.324A13.487,13.487,0,0,1,29.592,97.727l4.252-1.1-.737,4.334a13.491,13.491,0,0,1-10.071,10.976Z" transform="translate(-5.196 -26.725)" fill="rgba(178,178,178,0.6)" fill-rule="evenodd"/>
      <path id="Path_179" data-name="Path 179" d="M26.032,160.661l-.862-4.3A13.491,13.491,0,0,1,30.654,142.5l3.584-2.551.859,4.319a13.5,13.5,0,0,1-5.488,13.844Z" transform="translate(-6.884 -38.709)" fill="rgba(178,178,178,0.6)" fill-rule="evenodd"/>
      <path id="Path_180" data-name="Path 180" d="M47.933,202.909l-2.245-3.794a13.492,13.492,0,0,1,.617-14.889l2.547-3.6,2.243,3.8a13.5,13.5,0,0,1-.619,14.879Z" transform="translate(-12.099 -49.958)" fill="rgba(178,178,178,0.6)" fill-rule="evenodd"/>
      <path id="Path_181" data-name="Path 181" d="M83.017,235.88l-3.486-2.729a13.484,13.484,0,0,1-4.855-14.091l1.071-4.3,3.493,2.737a13.5,13.5,0,0,1,4.847,14.083Z" transform="translate(-20.537 -59.399)" fill="rgba(178,178,178,0.6)" fill-rule="evenodd"/>
      <path id="Path_182" data-name="Path 182" d="M36.033,40.791,33.67,37.073A13.5,13.5,0,0,1,33.8,22.168l2.434-3.678L38.6,22.218a13.511,13.511,0,0,1-.136,14.891Z" transform="translate(-8.71 -5.114)" fill="rgba(178,178,178,0.6)" fill-rule="evenodd"/>
      <path id="Path_183" data-name="Path 183" d="M17.013,87.067,13.5,84.378A13.493,13.493,0,0,1,8.5,70.33l1.031-4.314,3.52,2.706a13.512,13.512,0,0,1,4.982,14.034Z" transform="translate(-2.244 -18.259)" fill="rgba(178,178,178,0.6)" fill-rule="evenodd"/>
      <path id="Path_184" data-name="Path 184" d="M13.83,137.533,9.618,136.1A13.481,13.481,0,0,1,.4,124.381L0,119.949l4.217,1.44A13.477,13.477,0,0,1,13.424,133.1Z" transform="translate(0 -33.176)" fill="rgba(178,178,178,0.6)" fill-rule="evenodd"/>
      <path id="Path_185" data-name="Path 185" d="M27.844,187.325l-4.455.128a13.492,13.492,0,0,1-12.734-7.747l-1.937-4.024,4.468-.125A13.484,13.484,0,0,1,25.91,183.3Z" transform="translate(-2.411 -48.555)" fill="rgba(178,178,178,0.6)" fill-rule="evenodd"/>
      <path id="Path_186" data-name="Path 186" d="M57.2,227.583l-4.146,1.61a13.565,13.565,0,0,1-14.595-3.034L35.3,223.027l4.153-1.613a13.568,13.568,0,0,1,14.585,3.037Z" transform="translate(-9.764 -60.978)" fill="rgba(178,178,178,0.6)" fill-rule="evenodd"/>
      <path id="Path_187" data-name="Path 187" d="M38.81,46.615l2.744-3.445a13.485,13.485,0,0,1,14.138-4.72l4.276,1.108-2.759,3.451a13.479,13.479,0,0,1-14.132,4.714Z" transform="translate(-10.734 -10.508)" fill="rgba(178,178,178,0.6)" fill-rule="evenodd"/>
      <path id="Path_188" data-name="Path 188" d="M21.352,90.054l1.484-4.138A13.494,13.494,0,0,1,34.675,76.87l4.385-.34-1.484,4.143a13.5,13.5,0,0,1-11.839,9.041Z" transform="translate(-5.906 -21.167)" fill="rgba(178,178,178,0.6)" fill-rule="evenodd"/>
      <path id="Path_189" data-name="Path 189" d="M20.457,136.762l-.079-4.381a13.487,13.487,0,0,1,7.876-12.652l3.968-1.863.082,4.388A13.474,13.474,0,0,1,24.428,134.9Z" transform="translate(-5.636 -32.6)" fill="rgba(178,178,178,0.6)" fill-rule="evenodd"/>
      <path id="Path_190" data-name="Path 190" d="M35.188,182.887l-1.533-4.107A13.515,13.515,0,0,1,36.9,164.229l3.132-3.07,1.533,4.114a13.511,13.511,0,0,1-3.249,14.544Z" transform="translate(-9.064 -44.574)" fill="rgba(178,178,178,0.6)" fill-rule="evenodd"/>
      <path id="Path_191" data-name="Path 191" d="M63.981,220.931l-2.848-3.368a13.511,13.511,0,0,1-1.877-14.788l1.921-3.975,2.85,3.377a13.521,13.521,0,0,1,1.87,14.777Z" transform="translate(-16.004 -54.985)" fill="rgba(178,178,178,0.6)" fill-rule="evenodd"/>
      <path id="Path_192" data-name="Path 192" d="M24.517,63.158,21.55,59.889a13.5,13.5,0,0,1-2.395-14.714l1.779-4.045,2.97,3.275a13.5,13.5,0,0,1,2.387,14.7Z" transform="translate(-4.969 -11.376)" fill="rgba(178,178,178,0.6)" fill-rule="evenodd"/>
      <path id="Path_193" data-name="Path 193" d="M48.1,30.116l.658-4.668A11.33,11.33,0,0,1,56.981,16l4.535-1.3-.663,4.674a11.334,11.334,0,0,1-8.219,9.441Z" transform="translate(-13.304 -4.066)" fill="rgba(178,178,178,0.6)" fill-rule="evenodd"/>
    </g>
    <text id="_2x_WINNER" data-name="2x WINNER" transform="translate(-20056 -179)" fill="#606060" font-size="22" font-family="EuclidSquare-SemiBold, Euclid Square" font-weight="600"><tspan x="0" y="0">2x WINNER</tspan></text>
    <g id="Group_140" data-name="Group 140" transform="translate(-8656.639 6108)">
      <g id="Group_77" data-name="Group 77">
        <path id="Path_57" data-name="Path 57" d="M152.99,0,151.7,3.969h-4.172L150.9,6.42l-1.289,3.967,3.375-2.452,3.375,2.452L155.077,6.42l3.375-2.452h-4.172Z" transform="translate(-11485.665 -6321)" fill="#606060"/>
        <path id="Path_58" data-name="Path 58" d="M134.709,0l-1.29,3.969h-4.171l3.375,2.452-1.289,3.967,3.375-2.452,3.375,2.452-1.29-3.967,3.375-2.452H136Z" transform="translate(-11480.609 -6321)" fill="#606060"/>
      </g>
    </g>
  </g>
</svg>
