<svg version="1.1" id="Layer_1" xmlns="http://www.w3.org/2000/svg" xmlns:xlink="http://www.w3.org/1999/xlink" x="0px" y="0px" viewBox="0 0 613.33 316" style="enable-background:new 0 0 613.33 316;" xml:space="preserve" width="100%" height="100%" preserveAspectRatio="none"><style type="text/css"> .st0{fill:#FFFFFF;} .st1{fill:#00BEFF;} </style><g><path class="st0" d="M68.58,197.93c-2.08-0.32-4.29-0.48-6.62-0.48c-4.67,0-8.24,0.94-10.71,2.81c-2.47,1.87-4.06,4.84-4.77,8.91 l-1,5.68h17.35l-2.68,15.23H42.78l-8.97,50.88H14.59l8.97-50.88H12.81l2.69-15.23h10.76l0.84-4.77c1.04-5.88,3.06-10.91,6.07-15.08 c3.01-4.17,6.93-7.36,11.75-9.58c4.82-2.21,10.42-3.32,16.78-3.32c3.3,0,6.48,0.24,9.54,0.73L68.58,197.93L68.58,197.93z M129.62,246.64c-2.04,11.56-6.67,20.38-13.88,26.44c-7.21,6.06-16.68,9.09-28.41,9.09c-2.14,0-4.67-0.16-7.59-0.48l-4.56,25.87 H55.84l16.35-92.7h16.2l-0.03,7.01h0.91c2.37-2.5,5.19-4.46,8.44-5.89c3.25-1.43,6.78-2.14,10.56-2.14c5.12,0,9.51,1.14,13.18,3.41 c3.67,2.28,6.28,5.86,7.83,10.76C130.83,232.89,130.95,239.11,129.62,246.64z M108.99,233.74c-1.81-2.76-4.87-4.14-9.18-4.14 c-2.1,0-4.18,0.37-6.24,1.12c-2.07,0.75-3.87,1.86-5.43,3.36l-5.77,32.69c2.25,0.48,4.75,0.73,7.49,0.73 c5.64,0,10.09-1.52,13.35-4.56c3.26-3.04,5.48-7.97,6.68-14.78C111.1,241.3,110.8,236.5,108.99,233.74z M237.29,239.87 c1.58-8.98,0.77-15.57-2.44-19.76c-3.21-4.19-8.2-6.28-14.97-6.28c-3.63,0-7.28,0.69-10.94,2.08c-3.67,1.39-7.13,3.56-10.39,6.5 c-1.25-2.94-3.2-5.11-5.83-6.5c-2.64-1.39-5.79-2.08-9.45-2.08c-7.66,0-14.3,2.58-19.92,7.73h-0.91l-0.15-6.71h-15.89l-11.66,66.11 h19.34l7.94-45.02c1.57-1.81,3.41-3.18,5.53-4.11c2.12-0.93,4.2-1.39,6.26-1.39c2.7,0,4.61,0.8,5.74,2.39 c1.13,1.59,1.36,4.28,0.69,8.07l-7.07,40.07h18.92l7.36-41.7c0.27-1.53,0.46-2.96,0.57-4.29c1.56-1.53,3.31-2.67,5.25-3.41 c1.94-0.75,3.88-1.12,5.82-1.12c2.7,0,4.66,0.81,5.89,2.42c1.23,1.61,1.51,4.29,0.85,8.04l-7.07,40.07h19.28L237.29,239.87 L237.29,239.87z M303.95,241.68l-6.93,39.28h-15.96l-0.18-6.53h-0.91c-2.4,2.62-5.22,4.56-8.46,5.83c-3.24,1.27-6.72,1.9-10.43,1.9 c-4.43,0-8.12-0.79-11.06-2.39c-2.94-1.59-5.02-3.83-6.22-6.71c-1.21-2.88-1.47-6.23-0.79-10.06c1.12-6.32,4.18-11.22,9.21-14.68 c5.02-3.46,12.34-5.5,21.96-6.1l10.92-0.91l0.15-0.85c0.54-3.06,0.47-5.46-0.21-7.19c-0.68-1.73-2.04-2.97-4.06-3.72 c-2.03-0.75-4.91-1.12-8.66-1.12c-2.7,0-5.69,0.22-8.97,0.66c-3.28,0.44-6.43,1.11-9.45,1.99l2.56-14.5 c3.3-0.89,6.9-1.57,10.82-2.06c3.91-0.48,7.6-0.72,11.07-0.72c7.21,0,12.88,0.89,17,2.66c4.12,1.77,6.89,4.68,8.31,8.73 C305.07,229.27,305.17,234.76,303.95,241.68z M283.18,252.2l-8.94,0.67c-3.68,0.28-6.46,1.12-8.36,2.51 c-1.9,1.39-3.07,3.33-3.51,5.83c-0.43,2.46-0.02,4.33,1.25,5.62c1.26,1.29,3.33,1.93,6.19,1.93c1.89,0,3.81-0.33,5.74-1 c1.93-0.66,3.75-1.72,5.45-3.17L283.18,252.2z M359.07,231.89l3.08-17.46c-1.55-0.32-3.3-0.48-5.23-0.48 c-3.83,0-7.39,0.78-10.69,2.33c-3.3,1.55-6.13,3.92-8.5,7.1h-0.91l-0.01-8.52h-15.77l-11.66,66.11h19.34l7.63-43.27 c1.88-1.97,4.33-3.53,7.35-4.65c3.02-1.13,6-1.69,8.94-1.69C355.21,231.35,357.36,231.53,359.07,231.89L359.07,231.89z M413.83,214.85l-20.8,24.41h-7.62l9.87-55.96h-19.34l-17.22,97.66h19.34l4.63-26.23h7.74l13.45,26.23h21.03l-17.09-34.32 l26.64-31.79H413.83L413.83,214.85z M490.73,248.45l-0.89,5.08H449.7c-0.43,3.55-0.16,6.34,0.79,8.37 c0.95,2.04,2.74,3.51,5.36,4.41c2.62,0.91,6.33,1.36,11.12,1.36c5.04,0,10.72-0.7,17.05-2.12L481.48,280 c-6.71,1.49-13.31,2.24-19.8,2.24c-8.42,0-15.09-1.2-20.01-3.6c-4.92-2.4-8.22-6.11-9.91-11.15c-1.69-5.04-1.83-11.58-0.4-19.64 c1.28-7.25,3.57-13.42,6.86-18.52c3.3-5.1,7.47-8.95,12.53-11.57c5.06-2.62,10.85-3.93,17.37-3.93c9.35,0,15.95,2.95,19.8,8.85 C491.79,228.58,492.72,237.17,490.73,248.45z M473.18,229.75c-1.34-2.48-3.82-3.72-7.44-3.72c-3.67,0-6.65,1.25-8.94,3.75 c-2.29,2.5-4.02,6.69-5.18,12.57h22.18C474.72,236.43,474.51,232.23,473.18,229.75z M548.59,214.85h-17.35l4.11-23.33h-15.84 l-7.62,23.33h-10.76l-2.69,15.23h10.76l-4.82,27.32c-1.49,8.46-0.49,14.7,3.01,18.73c3.5,4.03,9.32,6.04,17.46,6.04 c4.07,0,8.22-0.46,12.45-1.39l2.7-15.29c-3.03,0.53-5.4,0.79-7.09,0.79c-2.58,0-4.58-0.37-6-1.12c-1.42-0.75-2.35-1.99-2.79-3.72 c-0.44-1.73-0.4-4.09,0.13-7.07l4.28-24.29h17.35L548.59,214.85L548.59,214.85z M602.7,230.02l2.49-14.14 c-2.38-0.64-5.09-1.15-8.1-1.51c-3.02-0.36-6.1-0.54-9.24-0.54c-6.89,0-12.81,0.87-17.77,2.6c-4.96,1.73-8.87,4.18-11.72,7.34 c-2.85,3.16-4.66,6.9-5.42,11.21c-0.94,5.32-0.25,9.54,2.06,12.66c2.31,3.12,6.45,5.25,12.41,6.38l10.36,1.93 c2.14,0.44,3.57,1.09,4.31,1.93c0.74,0.85,0.96,2.1,0.67,3.75c-0.38,2.14-1.6,3.76-3.67,4.86c-2.07,1.11-5.2,1.66-9.39,1.66 c-7.42,0-14.21-0.99-20.39-2.96l-2.49,14.14c5.94,1.93,12.85,2.9,20.7,2.9c6.2,0,11.68-0.86,16.44-2.57 c4.75-1.71,8.57-4.16,11.45-7.34c2.88-3.18,4.71-6.97,5.48-11.36c0.99-5.64,0.29-9.94-2.11-12.9c-2.4-2.96-6.56-5.02-12.48-6.19 l-10.36-1.93c-2.07-0.4-3.47-1.05-4.22-1.93c-0.75-0.89-1-2.05-0.74-3.51c0.78-4.43,5.77-6.65,14.95-6.65 C592,227.85,597.6,228.57,602.7,230.02L602.7,230.02z"/><g><path class="st1" d="M259.42,168.3c-45.31-30.59-58.06-112.72,18.13-145c-30.3,22.38-55.51,63.3-16.43,114.98 c26.62-17.84,75.9-49,109.6-133.39C369.3,19.05,368.17,86.6,259.42,168.3z"/><path class="st0" d="M274.86,177.23c39.5,19.11,121.91,0.42,120.22-78.31c-10.26,44.55-40.5,63.16-76.18,64.01 c17.84-26.62,66.84-75.9,52.96-155.76C365.06,90.99,314.64,135.45,274.86,177.23z"/></g></g></svg>