<svg version="1.1" id="Layer_1" xmlns="http://www.w3.org/2000/svg" xmlns:xlink="http://www.w3.org/1999/xlink" x="0px" y="0px" viewBox="0 0 765.96 179.74" style="enable-background:new 0 0 765.96 179.74;" xml:space="preserve" width="100%" height="100%" preserveAspectRatio="none"><style type="text/css"> .st0{fill:#FFFFFF;} .st1{fill:#00BDFF;} </style><g><g><path class="st0" d="M71.88,28.26c-2.07-0.32-4.26-0.48-6.58-0.48c-4.64,0-8.19,0.93-10.64,2.79c-2.45,1.87-4.03,4.81-4.74,8.86 l-1,5.65h17.23l-2.67,15.13H46.25l-8.91,50.55h-19.1l8.91-50.55H16.47l2.67-15.13h10.69l0.83-4.74 c1.03-5.84,3.04-10.84,6.04-14.98c2.99-4.14,6.88-7.31,11.68-9.52c4.79-2.2,10.35-3.3,16.67-3.3c3.28,0,6.44,0.24,9.49,0.72 L71.88,28.26z"/><path class="st0" d="M112.93,78.16c-1.19,6.77-3.41,11.66-6.64,14.68c-3.23,3.02-7.66,4.53-13.26,4.53c-2.72,0-5.2-0.24-7.44-0.72 l5.73-32.48c1.54-1.48,3.34-2.59,5.39-3.34c2.05-0.74,4.12-1.11,6.2-1.11c4.28,0,7.33,1.37,9.12,4.11 C113.83,66.58,114.13,71.36,112.93,78.16 M132.19,58.13c-1.55-4.86-4.14-8.43-7.78-10.69c-3.65-2.26-8.02-3.39-13.1-3.39 c-3.76,0-7.26,0.71-10.5,2.13c-3.23,1.42-6.03,3.37-8.38,5.86h-0.9l0.03-6.97H75.47l-16.25,92.11h19.22l4.53-25.69 c2.91,0.32,5.42,0.48,7.54,0.48c11.65,0,21.06-3.01,28.23-9.03c7.16-6.03,11.76-14.78,13.79-26.27 C133.85,69.17,133.74,63,132.19,58.13"/><path class="st0" d="M239.51,69.93l-7.2,40.83h-19.16l7.02-39.81c0.66-3.72,0.38-6.38-0.85-7.98c-1.22-1.6-3.17-2.4-5.85-2.4 c-1.92,0-3.85,0.37-5.78,1.11c-1.93,0.74-3.67,1.87-5.22,3.39c-0.11,1.32-0.31,2.74-0.57,4.27l-7.31,41.42H175.8l7.02-39.81 c0.66-3.76,0.43-6.43-0.69-8.02c-1.13-1.58-3.03-2.37-5.71-2.37c-2.04,0-4.11,0.46-6.22,1.38c-2.1,0.92-3.93,2.28-5.49,4.08 l-7.89,44.73h-19.21l11.59-65.69h15.79l0.15,6.67h0.9c5.59-5.12,12.19-7.68,19.79-7.68c3.65,0,6.77,0.69,9.4,2.07 c2.62,1.38,4.55,3.53,5.79,6.46c3.24-2.92,6.68-5.07,10.33-6.46c3.65-1.38,7.28-2.07,10.87-2.07c6.73,0,11.69,2.08,14.88,6.25 C240.27,54.46,241.08,61.01,239.51,69.93"/><path class="st0" d="M282.93,94.49c-1.69,1.45-3.5,2.5-5.42,3.15c-1.92,0.66-3.82,0.99-5.7,0.99c-2.84,0-4.89-0.64-6.14-1.92 c-1.25-1.29-1.67-3.14-1.24-5.59c0.44-2.48,1.6-4.41,3.49-5.79c1.88-1.38,4.65-2.21,8.31-2.49l8.88-0.66L282.93,94.49z M305.44,55.37c-1.41-4.02-4.16-6.91-8.26-8.68c-4.09-1.76-9.72-2.64-16.89-2.64c-3.44,0-7.1,0.24-10.99,0.72 c-3.89,0.48-7.47,1.17-10.75,2.04l-2.54,14.41c3-0.88,6.13-1.54,9.39-1.98c3.26-0.44,6.23-0.66,8.91-0.66 c3.72,0,6.59,0.37,8.6,1.11c2.01,0.74,3.35,1.97,4.03,3.69c0.68,1.72,0.75,4.11,0.22,7.15l-0.15,0.83l-10.85,0.9 c-9.55,0.6-16.83,2.62-21.82,6.06c-4.99,3.44-8.04,8.31-9.15,14.59c-0.67,3.81-0.41,7.14,0.79,9.99c1.2,2.86,3.26,5.09,6.18,6.67 c2.92,1.59,6.59,2.37,10.99,2.37c3.68,0,7.14-0.63,10.36-1.89c3.23-1.26,6.03-3.19,8.41-5.79h0.9l0.17,6.48h15.86l6.88-39.02 C306.95,64.85,306.85,59.4,305.44,55.37"/><path class="st0" d="M360.5,62.01c-1.7-0.36-3.83-0.54-6.39-0.54c-2.92,0-5.88,0.56-8.88,1.68c-3,1.12-5.44,2.66-7.3,4.62 l-7.58,42.99h-19.21l11.58-65.69h15.67l0.01,8.47h0.9c2.36-3.16,5.18-5.51,8.45-7.05c3.28-1.54,6.81-2.31,10.62-2.31 c1.92,0,3.65,0.16,5.2,0.48L360.5,62.01z"/><polygon class="st0" points="414.91,45.07 435.39,45.07 408.92,76.66 425.91,110.76 405.02,110.76 391.65,84.7 383.97,84.7 379.37,110.76 360.15,110.76 377.26,13.73 396.48,13.73 386.67,69.33 394.24,69.33 "/><path class="st0" d="M474.49,72.39h-22.04c1.15-5.84,2.86-10.01,5.14-12.49c2.28-2.48,5.24-3.72,8.89-3.72 c3.6,0,6.07,1.24,7.39,3.69C475.21,62.34,475.41,66.51,474.49,72.39 M488.54,52.85c-3.83-5.86-10.39-8.8-19.68-8.8 c-6.48,0-12.24,1.31-17.26,3.9c-5.02,2.6-9.17,6.44-12.45,11.5c-3.28,5.07-5.55,11.2-6.82,18.4c-1.41,8.01-1.28,14.51,0.4,19.51 c1.68,5,4.96,8.7,9.84,11.08c4.89,2.38,11.52,3.58,19.88,3.58c6.44,0,13-0.74,19.67-2.22l2.53-14.36 c-6.3,1.41-11.94,2.11-16.95,2.11c-4.76,0-8.45-0.45-11.05-1.36c-2.6-0.9-4.37-2.36-5.32-4.38c-0.94-2.02-1.2-4.79-0.78-8.32 h39.87l0.89-5.04C493.29,67.25,492.37,58.71,488.54,52.85"/><path class="st0" d="M548.81,45.07l-2.67,15.13H528.9l-4.25,24.13c-0.52,2.97-0.57,5.31-0.13,7.03c0.43,1.72,1.36,2.95,2.77,3.69 c1.41,0.74,3.4,1.11,5.96,1.11c1.68,0,4.03-0.26,7.05-0.78l-2.68,15.2c-4.21,0.92-8.33,1.38-12.38,1.38 c-8.09,0-13.87-2.01-17.35-6c-3.48-4-4.48-10.21-2.99-18.61l4.79-27.14H499l2.67-15.13h10.69l7.57-23.18h15.74l-4.09,23.18H548.81 z"/><path class="st0" d="M602.57,60.14c-5.07-1.44-10.63-2.16-16.67-2.16c-9.13,0-14.08,2.2-14.86,6.6c-0.25,1.44-0.01,2.6,0.74,3.48 c0.74,0.88,2.15,1.52,4.2,1.92l10.29,1.92c5.88,1.16,10.01,3.21,12.39,6.15c2.38,2.95,3.08,7.22,2.09,12.82 c-0.76,4.36-2.58,8.12-5.44,11.29c-2.86,3.16-6.65,5.6-11.38,7.3c-4.72,1.7-10.17,2.55-16.33,2.55c-7.8,0-14.66-0.96-20.57-2.88 l2.48-14.05c6.14,1.96,12.89,2.94,20.26,2.94c4.16,0,7.28-0.55,9.33-1.65c2.06-1.1,3.27-2.71,3.65-4.83 c0.29-1.64,0.07-2.88-0.66-3.72c-0.73-0.84-2.16-1.48-4.28-1.92l-10.29-1.92c-5.93-1.12-10.04-3.23-12.33-6.33 c-2.3-3.1-2.98-7.3-2.04-12.58c0.75-4.28,2.55-7.99,5.39-11.13c2.83-3.14,6.72-5.57,11.64-7.3c4.93-1.72,10.82-2.58,17.66-2.58 c3.13,0,6.18,0.18,9.18,0.53c3,0.36,5.69,0.87,8.05,1.5L602.57,60.14z"/><path class="st1" d="M653.44,127.02c-32.36-21.84-41.46-80.5,12.94-103.56c-21.64,15.98-39.64,45.21-11.73,82.12 c19.01-12.74,54.2-34.99,78.27-95.26C731.92,20.43,731.11,68.67,653.44,127.02"/><path class="st0" d="M664.47,133.4c28.21,13.65,87.07,0.3,85.85-55.93c-7.33,31.82-28.92,45.1-54.41,45.72 c12.74-19.02,47.73-54.21,37.82-111.25C728.88,71.81,692.88,103.56,664.47,133.4"/></g><g><path class="st0" d="M310.29,121.8h20.44l-0.61,3.45h-16.37l-2.37,13.42h15.1l-0.61,3.45h-15.1l-2.95,16.73h-4.07L310.29,121.8z"/><path class="st0" d="M339.64,159.31c-3.7,0-6.28-1.18-7.76-3.56c-1.48-2.37-1.82-5.84-1.01-10.42c0.81-4.57,2.38-8.05,4.71-10.44 c2.33-2.39,5.33-3.58,8.99-3.58s6.23,1.19,7.71,3.58c1.48,2.39,1.81,5.87,1.01,10.44c-0.81,4.57-2.37,8.05-4.68,10.42 C346.29,158.12,343.31,159.31,339.64,159.31z M340.22,156.05c2.47,0,4.43-0.85,5.87-2.55c1.44-1.7,2.48-4.42,3.14-8.16 c0.66-3.74,0.56-6.46-0.29-8.16c-0.85-1.7-2.5-2.55-4.94-2.55c-2.47,0-4.43,0.85-5.87,2.55c-1.44,1.7-2.48,4.42-3.14,8.16 c-0.66,3.74-0.57,6.46,0.26,8.16C336.09,155.2,337.74,156.05,340.22,156.05z"/><path class="st0" d="M362.05,131.82h3.36l-0.29,3.4h0.25c1.18-0.73,2.57-1.47,4.18-2.2c1.6-0.73,3.2-1.28,4.79-1.65h1.07 l-0.71,4.01h-1.53c-1.53,0.23-3.01,0.59-4.44,1.08c-1.43,0.48-2.69,1.06-3.79,1.73l-3.65,20.68h-4.02L362.05,131.82z"/><path class="st0" d="M385.22,159.31c-3.7,0-6.3-1.16-7.83-3.48c-1.52-2.32-1.9-5.67-1.13-10.04c0.83-4.71,2.4-8.29,4.72-10.74 c2.31-2.45,5.3-3.68,8.96-3.68c3.05,0,5.16,0.99,6.34,2.98c1.18,1.99,1.42,4.93,0.73,8.84c-0.15,0.83-0.29,1.53-0.44,2.08 c-0.15,0.55-0.3,1.08-0.46,1.58h-16.02c-0.39,3.17-0.1,5.5,0.88,6.99c0.97,1.49,2.68,2.23,5.12,2.23c2.27,0,4.8-0.5,7.59-1.5 l-0.31,3.21c-1.2,0.47-2.52,0.84-3.96,1.13C387.97,159.17,386.57,159.31,385.22,159.31z M389.28,134.52 c-4.27,0-7.14,3.1-8.61,9.31h12.51c0.51-3.3,0.46-5.68-0.17-7.14C392.39,135.25,391.15,134.52,389.28,134.52z"/><path class="st0" d="M398.13,158.46l11.6-13.62l-6.45-12.72l0.05-0.3h4.27l4.32,8.96l0.88,1.95h0.25l1.46-1.95l7.43-8.96h4.27 l-0.05,0.3l-10.99,13.02l6.86,13.32l-0.07,0.4h-4.27l-4.63-9.77l-0.92-2h-0.25l-1.57,2l-7.98,9.77h-4.27L398.13,158.46z"/><path class="st0" d="M450.54,159.41c-1.9,0-3.56-0.25-4.98-0.75c-1.42-0.5-2.58-1.22-3.49-2.15c-0.9-0.93-1.52-2.07-1.84-3.4 c-0.32-1.34-0.34-2.85-0.04-4.56c0.41-2.3,1.27-4.27,2.59-5.91c1.32-1.63,3.06-2.89,5.21-3.75c-0.7-1.2-1.14-2.44-1.3-3.73 c-0.16-1.29-0.11-2.71,0.17-4.28c0.56-3.17,1.87-5.58,3.94-7.21c2.07-1.64,4.8-2.45,8.19-2.45c1.25,0,2.52,0.14,3.79,0.43 c1.27,0.28,2.65,0.74,4.13,1.38l-0.04,0.25l-1.16,2.85h-0.31c-2.45-1.1-4.69-1.65-6.72-1.65c-4.47,0-7.11,2.25-7.9,6.76 c-0.21,1.2-0.23,2.32-0.06,3.36c0.17,1.04,0.56,2.04,1.17,3c0.61,0.97,1.44,1.95,2.51,2.93c1.06,0.99,2.36,2.03,3.9,3.13 l4.61,3.26c0.27-0.77,0.51-1.58,0.73-2.43c0.22-0.85,0.41-1.76,0.58-2.73l0.61-3.45l3.69-0.15l-0.64,3.6 c-0.24,1.37-0.53,2.65-0.88,3.83c-0.34,1.19-0.75,2.31-1.21,3.38l3.49,2.4l-0.05,0.3l-2.1,2.95h-0.36l-2.88-2.1 C460.86,157.11,456.4,159.41,450.54,159.41z M455.98,146.69c-1.38-1-2.59-1.94-3.62-2.83c-1.03-0.89-1.91-1.76-2.64-2.63 c-3.08,1.5-4.9,3.87-5.47,7.11c-0.42,2.4-0.01,4.31,1.26,5.71c1.26,1.4,3.2,2.1,5.81,2.1c4.41,0,7.72-1.87,9.94-5.61 L455.98,146.69z"/><path class="st0" d="M500.53,159.36c-5.45-0.03-9.2-1.58-11.26-4.66c-2.05-3.07-2.51-7.84-1.36-14.32c0.58-3.3,1.4-6.16,2.45-8.56 c1.05-2.41,2.37-4.38,3.94-5.93c1.58-1.55,3.43-2.7,5.56-3.43c2.13-0.73,4.57-1.1,7.31-1.1c0.95,0,1.97,0.06,3.07,0.18 c1.1,0.12,2.22,0.28,3.37,0.48l-0.6,3.41c-0.95-0.17-1.95-0.3-2.98-0.4c-1.03-0.1-2.02-0.15-2.97-0.15 c-2.17,0-4.07,0.28-5.71,0.83c-1.64,0.55-3.07,1.44-4.29,2.68c-1.22,1.24-2.23,2.84-3.03,4.81c-0.8,1.97-1.46,4.37-1.96,7.21 c-0.48,2.74-0.66,5.08-0.53,7.04c0.13,1.95,0.57,3.56,1.31,4.81c0.75,1.25,1.82,2.17,3.23,2.75c1.4,0.59,3.16,0.88,5.26,0.88 c0.37,0,0.83-0.01,1.38-0.05c0.55-0.03,1.12-0.08,1.7-0.12c0.58-0.05,1.16-0.12,1.74-0.2c0.57-0.08,1.11-0.18,1.6-0.28l-0.59,3.35 c-0.93,0.27-1.96,0.47-3.11,0.6C502.93,159.29,501.75,159.36,500.53,159.36z"/><path class="st0" d="M519.77,121.8h20.44l-0.61,3.45h-16.37l-2.37,13.42h15.1l-0.61,3.45h-15.1l-2.95,16.73h-4.07L519.77,121.8z"/><path class="st0" d="M547.06,159.56c-1.32,0-2.6-0.04-3.84-0.12c-1.24-0.08-2.42-0.21-3.54-0.38l6.52-37.01 c1.78-0.27,3.43-0.46,4.96-0.58c1.53-0.12,2.89-0.17,4.07-0.17c5.9,0,9.94,1.54,12.13,4.61c2.19,3.07,2.7,7.9,1.54,14.47 c-0.59,3.37-1.46,6.26-2.59,8.66c-1.14,2.4-2.6,4.39-4.38,5.96c-1.79,1.57-3.9,2.72-6.35,3.45 C553.12,159.19,550.28,159.56,547.06,159.56z M548.79,156.1c4.51,0,8.04-1.25,10.6-3.76c2.56-2.5,4.32-6.49,5.29-11.97 c0.49-2.77,0.67-5.14,0.54-7.11c-0.13-1.97-0.58-3.59-1.35-4.86c-0.78-1.27-1.9-2.2-3.37-2.78c-1.47-0.59-3.31-0.88-5.52-0.88 c-0.85,0-1.73,0.03-2.64,0.1c-0.91,0.07-1.78,0.17-2.62,0.3l-5.4,30.65c0.9,0.1,1.69,0.18,2.38,0.23 C547.38,156.08,548.08,156.1,548.79,156.1z"/><path class="st0" d="M578.47,159.41c-1.08,0-2.2-0.09-3.36-0.28c-1.15-0.18-2.55-0.46-4.18-0.83l0.57-3.26 c1.22,0.37,2.45,0.66,3.68,0.88c1.23,0.22,2.44,0.33,3.63,0.33c1.73,0,3.12-0.4,4.18-1.2c1.06-0.8,1.71-1.94,1.97-3.4 c0.25-1.4,0.03-2.47-0.65-3.21c-0.68-0.73-1.77-1.28-3.27-1.65c-0.85-0.2-1.7-0.42-2.58-0.68c-0.87-0.25-1.64-0.64-2.31-1.18 c-0.67-0.53-1.17-1.28-1.49-2.23c-0.32-0.95-0.34-2.23-0.06-3.83c0.42-2.4,1.53-4.28,3.31-5.63c1.78-1.35,4.04-2.03,6.79-2.03 c0.98,0,1.95,0.06,2.89,0.18c0.95,0.12,2.19,0.34,3.72,0.68l-0.68,3.26c-1.4-0.33-2.54-0.57-3.41-0.7 c-0.88-0.13-1.72-0.2-2.53-0.2c-1.73,0-3.14,0.39-4.24,1.15c-1.1,0.77-1.77,1.84-2.01,3.21c-0.15,0.83-0.13,1.52,0.04,2.05 c0.18,0.53,0.47,0.97,0.89,1.3c0.42,0.33,0.93,0.6,1.54,0.8c0.61,0.2,1.25,0.4,1.93,0.6c1.04,0.27,1.98,0.59,2.83,0.98 c0.85,0.39,1.55,0.88,2.1,1.48c0.56,0.6,0.93,1.34,1.14,2.2c0.2,0.87,0.19,1.95-0.04,3.26c-0.44,2.47-1.58,4.41-3.44,5.83 C583.57,158.7,581.25,159.41,578.47,159.41z"/></g></g></svg>