<svg id="Layer_1" xmlns="http://www.w3.org/2000/svg" viewBox="0 0 118.11 44.99" width="100%" height="100%" preserveAspectRatio="none"><defs><style>.cls-1{fill:#21a46e;}.cls-2{fill:#24ac7a;}.cls-3{fill:#fff;}.cls-4{fill:#0a532c;}.cls-5{fill:#fefefe;}</style></defs><path class="cls-1" d="M70.19,11.26q0,5.33,0,10.65c0,.38-.1.45-.46.45H48.35c-.33,0-.44-.07-.44-.42q0-10.73,0-21.44c0-.36.11-.43.44-.43H69.74c.36,0,.46.08.46.45Q70.19,5.89,70.19,11.26Z"/><path class="cls-1" d="M118.1,11.22c0,3.56,0,7.13,0,10.69,0,.38-.1.45-.46.45H96.35c-.34,0-.44-.07-.44-.42q0-10.73,0-21.44c0-.36.1-.43.44-.43h21.3c.36,0,.46.08.46.45C118.1,4.09,118.1,7.65,118.1,11.22Z"/><path class="cls-1" d="M0,11.2C0,7.63,0,4.07,0,.5,0,.14.11.07.44.07h21.3c.36,0,.47.08.47.45q0,10.7,0,21.39c0,.38-.11.45-.47.45H.49c-.38,0-.49-.07-.49-.47C0,18.33,0,14.76,0,11.2Z"/><path class="cls-1" d="M24,11.2c0-3.57,0-7.13,0-10.7,0-.36.1-.43.44-.43H45.7c.36,0,.46.08.46.45q0,10.7,0,21.39c0,.38-.1.45-.46.45H24.44c-.37,0-.49-.07-.49-.47C24,18.33,24,14.76,24,11.2Z"/><path class="cls-1" d="M72,11.21c0-3.57,0-7.13,0-10.7,0-.33.07-.44.43-.44H93.73c.35,0,.43.11.42.44,0,7.13,0,14.26,0,21.39,0,.36-.08.47-.45.46H72.4c-.37,0-.45-.1-.45-.46C72,18.34,72,14.77,72,11.21Z"/><path class="cls-2" d="M14.26,37.68c.33,1,.66,2,1,3,.24.71.47,1.43.7,2.15a2.74,2.74,0,0,1,.13.61c-.29-.19-.57-.39-.85-.59l-3-2.17c-.72-.53-1.46-1-2.17-1.58a.2.2,0,0,0-.28,0L4,43.27c-.07,0-.12.15-.27.16.23-.69.44-1.35.66-2,.54-1.68,1.08-3.36,1.64-5a.25.25,0,0,0-.11-.33L.16,31.85S0,31.82,0,31.7H7.25a.37.37,0,0,0,.42-.3c.57-1.79,1.15-3.57,1.73-5.36.16-.49.32-1,.47-1.47a.24.24,0,0,1,.1-.13q.84,2.58,1.67,5.14c.2.62.42,1.22.6,1.84a.31.31,0,0,0,.37.28H19.9a4.2,4.2,0,0,1-.7.55c-1.22.9-2.44,1.8-3.67,2.68a18.12,18.12,0,0,1-1.69,1.17.73.73,0,0,0-.41.16l-3.31,2.4c1.27-.33,2.5-.66,3.73-1C14,37.67,14.12,37.58,14.26,37.68Z"/><path class="cls-3" d="M48.58,36.71h-.27c-.31,0-.63.09-.74-.4s-.45-.46-.8-.53a2.41,2.41,0,0,0-1.54.14.56.56,0,0,0-.35.57.8.8,0,0,0,.55.65,17.52,17.52,0,0,0,2.16.55,3.67,3.67,0,0,1,1.66.8,2.19,2.19,0,0,1,.36,2.2,2.72,2.72,0,0,1-2,1.51,4.58,4.58,0,0,1-1.52.12,3.41,3.41,0,0,1-2.4-.94A2.2,2.2,0,0,1,43,39.82c0-.15,0-.18.2-.18h1.34c.11,0,.16,0,.19.15.14.77.57,1,1.41,1.14a2.79,2.79,0,0,0,1.18-.12c.48-.17.68-.38.7-.75a.92.92,0,0,0-.68-.84,17.36,17.36,0,0,0-2-.5,4.78,4.78,0,0,1-1.43-.58,2,2,0,0,1-.74-1.92,2.23,2.23,0,0,1,2-1.76,4.47,4.47,0,0,1,1.37-.13,3.51,3.51,0,0,1,2.25.77,2.43,2.43,0,0,1,.73,1.46c0,.12,0,.16-.15.15Z"/><path class="cls-3" d="M40.22,41.18a2.75,2.75,0,0,1-2.81,1.1A2.61,2.61,0,0,1,36,41.67,2.47,2.47,0,0,1,35.28,40c-.14-1.72,0-3.44-.07-5.17,0-.19,0-.26.24-.25h1.29c.19,0,.25,0,.25.25,0,1.57,0,3.15,0,4.73,0,1,.52,1.4,1.36,1.41a1.62,1.62,0,0,0,1.8-1.76c0-1.45,0-2.91,0-4.36,0-.2,0-.28.26-.27.44,0,.88,0,1.31,0,.16,0,.21,0,.21.2v7.17c0,.15,0,.21-.2.21H40.42c-.16,0-.21,0-.2-.2S40.22,41.45,40.22,41.18Z"/><path class="cls-3" d="M27,37.73c0,1.37,0,2.74,0,4.12,0,.26-.08.31-.33.3-.41,0-.83,0-1.25,0-.25,0-.33,0-.33-.32,0-2.74,0-5.47,0-8.21,0-.29-.09-.34-.35-.34-.89,0-1.79,0-2.68,0-.2,0-.29,0-.28-.26,0-.38,0-.75,0-1.13,0-.15,0-.21.19-.21,2.7,0,5.39,0,8.09,0,.18,0,.21.06.21.23,0,.37,0,.75,0,1.12s-.07.25-.26.24H27.27c-.23,0-.31,0-.31.29C27,35,27,36.34,27,37.73Z"/><path class="cls-3" d="M83,40.77V42c0,.13,0,.18-.18.2a5,5,0,0,1-1.93-.07,1.3,1.3,0,0,1-1.06-1.32c-.13-1.55,0-3.1-.06-4.65,0-.19,0-.3-.24-.26h0a5.87,5.87,0,0,1-.94,0c0-.37,0-.74,0-1.12,0-.15.09-.13.18-.13.27,0,.53,0,.8,0s.26,0,.25-.25c0-.6,0-1.2,0-1.8,0-.16,0-.23.22-.22h1.31c.19,0,.26,0,.25.25,0,.59,0,1.19,0,1.79,0,.17,0,.23.22.23.35,0,.71,0,1.06,0,.15,0,.22,0,.19.18v0a7.47,7.47,0,0,1,0,1.06H81.8c-.19,0-.25,0-.25.25,0,1.25,0,2.5,0,3.75,0,.13,0,.26,0,.4a.55.55,0,0,0,.54.55A4.77,4.77,0,0,0,83,40.77Z"/><path class="cls-3" d="M54.63,40.74v1.2c0,.17-.09.2-.23.21a6.75,6.75,0,0,1-1.68,0A1.37,1.37,0,0,1,51.45,41a9.66,9.66,0,0,1-.05-1.7c0-1.06,0-2.13,0-3.2,0-.18,0-.25-.23-.24s-.57,0-.86,0-.21,0-.2-.2,0-.59,0-.88,0-.22.2-.21.59,0,.88,0,.21,0,.21-.21c0-.61,0-1.22,0-1.83,0-.18,0-.24.23-.23H52.9c.16,0,.21,0,.21.2,0,.61,0,1.22,0,1.83,0,.2,0,.25.23.24.37,0,.74,0,1.1,0,.17,0,.21,0,.2.2s0,.6,0,.89-.05.2-.21.2H53.33c-.16,0-.23,0-.23.21,0,1.35,0,2.71,0,4.06,0,.51.24.73.69.68A3,3,0,0,0,54.63,40.74Z"/><path class="cls-3" d="M69.28,36.92c0,1.65,0,3.3,0,4.95,0,.22-.05.29-.28.28a11.81,11.81,0,0,0-1.19,0c-.2,0-.25,0-.25-.25,0-1.54,0-3.07,0-4.61,0-1.77,0-3.54,0-5.31,0-.23.05-.3.28-.28.39,0,.79,0,1.19,0,.2,0,.25.05.25.25C69.28,33.61,69.28,35.27,69.28,36.92Z"/><path class="cls-3" d="M31.43,35.82a2.66,2.66,0,0,1,1.92-1.47,2.35,2.35,0,0,1,.7,0c.16,0,.27.09.25.31,0,.39,0,.79,0,1.19,0,.19-.07.23-.23.2a2,2,0,0,0-2.46,1.87c-.13,1.17,0,2.33-.06,3.5,0,.24.1.56-.06.69s-.44,0-.67,0-.75.14-.93-.06-.05-.6-.05-.91q0-3.16,0-6.32c0-.23.06-.3.29-.28s.73,0,1.09,0c.18,0,.23,0,.22.22C31.42,35.13,31.43,35.48,31.43,35.82Z"/><path class="cls-3" d="M66.11,38.39c0,1.17,0,2.34,0,3.51,0,.2,0,.26-.25.25-.42,0-.85,0-1.28,0-.15,0-.19,0-.19-.19q0-3.6,0-7.2c0-.15,0-.19.19-.19h1.28c.2,0,.25,0,.25.25C66.1,36,66.11,37.2,66.11,38.39Z"/><path class="cls-4" d="M14.26,37.68l-3.95,1-.43.1a14.09,14.09,0,0,1,1.27-1c.78-.58,1.57-1.13,2.35-1.71.12-.08.23-.17.34,0,.08.45.28.86.4,1.29C14.27,37.48,14.35,37.58,14.26,37.68Z"/><path class="cls-3" d="M65.25,31.72c.28,0,.64-.11.8,0s0,.53,0,.81.09.54,0,.68-.46,0-.7,0-.73.11-.91,0,0-.61-.06-.93c0-.61,0-.61.61-.61h.24Z"/><path class="cls-5" d="M54.19,18.59c.47-1.43.92-2.8,1.36-4.17.13-.37.26-.73.38-1.1a.47.47,0,0,0-.21-.6q-2.16-1.55-4.31-3.1s-.06-.06-.09-.1.21-.07.31-.07c1.74,0,3.47,0,5.21,0a.4.4,0,0,0,.46-.33C57.84,7.42,58.41,5.72,59,4c0,0,0-.11.13-.12.4,1.18.8,2.37,1.19,3.56.18.55.38,1.09.52,1.64.07.32.23.37.51.37h5.46l0,.09L59.53,14.8l0,.07c.81-.2,1.62-.38,2.42-.61.36-.1.52-.09.65.34.35,1.23.79,2.43,1.19,3.64,0,.1.07.26,0,.3s-.17,0-.26-.1l-4.28-3.15a.35.35,0,0,0-.47,0c-1.43,1.06-2.86,2.1-4.29,3.14A2.87,2.87,0,0,1,54.19,18.59Z"/><path class="cls-5" d="M107.56,14.88c.77-.21,1.56-.38,2.32-.62.39-.13.56-.08.69.34.4,1.31.84,2.61,1.29,4a6.88,6.88,0,0,1-1.38-.91c-1.13-.8-2.24-1.62-3.34-2.46-.21-.16-.28,0-.35.07-1.24.88-2.46,1.77-3.68,2.66l-.84.61c-.11-.09-.07-.18,0-.28.55-1.67,1.08-3.36,1.65-5,.07-.23,0-.31-.14-.44-1.34-1-2.66-1.94-4-2.9l-.64-.46h2.79c.92,0,1.83,0,2.74,0a.54.54,0,0,0,.64-.46c.51-1.62,1-3.22,1.58-4.83,0-.1,0-.24.13-.25s.12.12.15.22c.48,1.68,1.15,3.31,1.59,5,.07.25.21.32.46.32h5.68l-7.35,5.32Z"/><path class="cls-5" d="M19,9.45l-7.39,5.33,0,.08,1.69-.4c.39-.09.84-.35,1.14-.23s.3.67.42,1c.34,1,.67,2,1,3.06a1.85,1.85,0,0,1,0,.31L13.81,17.1l-2.48-1.81a.28.28,0,0,0-.42,0c-1.5,1.11-3,2.19-4.54,3.28-.12-.1-.07-.18,0-.28.55-1.68,1.09-3.36,1.65-5,.08-.24.06-.32-.16-.48-1.51-1.07-3-2.17-4.58-3.32H8.91c.23,0,.36,0,.44-.28.48-1.52,1-3,1.46-4.55l0,0c.11-.22,0-.64.28-.64s.21.43.28.66c.49,1.46,1,2.92,1.42,4.38a.54.54,0,0,0,.64.47c1.66,0,3.32,0,5,0Z"/><path class="cls-5" d="M30.24,18.51,31,16.25l1-3a.34.34,0,0,0-.15-.47c-1.41-1-2.81-2-4.21-3l-.31-.23a.6.6,0,0,1,.44-.09c1.7,0,3.39,0,5.08,0a.46.46,0,0,0,.53-.4c.52-1.61,1-3.21,1.58-4.82a1.34,1.34,0,0,1,.18-.39,13.88,13.88,0,0,1,.61,1.78c.4,1.15.79,2.31,1.15,3.47a.41.41,0,0,0,.48.36c1.82,0,3.65,0,5.52.07l-7.27,5.25,0,.08,1.71-.42a7.89,7.89,0,0,0,1-.23c.21-.08.24,0,.3.16.41,1.32.84,2.62,1.26,3.93a.23.23,0,0,1,0,.27l-2.72-2c-.58-.42-1.15-.86-1.74-1.28a.39.39,0,0,0-.54,0c-1.34,1-2.7,2-4.06,2.93l-.42.29Z"/><path class="cls-5" d="M83.55,14.77a7.81,7.81,0,0,0,1.64-.31c.2,0,.39-.1.59-.15.65-.15.66-.15.86.47l1.24,3.76c-.44-.05-.69-.37-1-.58-1.23-.88-2.45-1.78-3.66-2.68-.22-.17-.36,0-.5.07-1.1.8-2.19,1.61-3.29,2.39a7.06,7.06,0,0,1-1.17.79c-.1-.22,0-.39.09-.56.51-1.58,1-3.17,1.57-4.74.1-.3-.06-.37-.22-.49L75.36,9.62a.48.48,0,0,1-.09-.11c.11-.12.25-.06.36-.06,1.71,0,3.42,0,5.13,0a.44.44,0,0,0,.5-.38c.55-1.74,1.14-3.46,1.73-5.2.21.12.21.36.28.55.51,1.55,1,3.1,1.51,4.66.08.29.21.37.51.37,1.81,0,3.62,0,5.49.08Z"/><path class="cls-3" d="M63.12,37.41a3.52,3.52,0,0,0-1-2.15,3.07,3.07,0,0,0-1.93-.88,2.79,2.79,0,0,0-2.87,1.1c0-.26,0-.5,0-.74s0-.17-.17-.17c-.38,0-.76,0-1.13,0s-.3.06-.3.3q0,4.18,0,8.39c0,.48,0,1,0,1.43,0,.16.05.21.21.21s.53,0,.79,0,.53.1.67,0,0-.45,0-.68V41.29c.24.15.37.37.59.51a3.45,3.45,0,0,0,2.74.43,2.92,2.92,0,0,0,2.11-2A5.78,5.78,0,0,0,63.12,37.41Zm-2.2,2.84a1.68,1.68,0,0,1-1.14.67A2.05,2.05,0,0,1,57.43,39a3.47,3.47,0,0,1,.43-2.54,1.71,1.71,0,0,1,1.35-.75,2.07,2.07,0,0,1,2.2,1.91,4.05,4.05,0,0,1,.05.64A2.88,2.88,0,0,1,60.92,40.25Z"/><path class="cls-3" d="M78,37.19a3.29,3.29,0,0,0-1.68-2.36,4.34,4.34,0,0,0-2.68-.45,3.42,3.42,0,0,0-2.9,2.3,5,5,0,0,0-.18,2.55,3.4,3.4,0,0,0,1.85,2.67,4.14,4.14,0,0,0,2.57.37,3.48,3.48,0,0,0,2-.9,4.11,4.11,0,0,0,1.16-3.19A3.54,3.54,0,0,0,78,37.19Zm-1.83,2.43a1.93,1.93,0,0,1-1.64,1.31,2,2,0,0,1-2.2-1.62,2.28,2.28,0,0,1-.13-.91,3,3,0,0,1,.63-2A1.75,1.75,0,0,1,74,35.73a2.07,2.07,0,0,1,2.31,1.7A3.42,3.42,0,0,1,76.18,39.62Z"/></svg>