<svg version="1.1" id="Layer_1" xmlns="http://www.w3.org/2000/svg" xmlns:xlink="http://www.w3.org/1999/xlink" x="0px" y="0px" viewBox="0 0 269 133" style="enable-background:new 0 0 269 133;" xml:space="preserve" width="100%" height="100%" preserveAspectRatio="none"><style type="text/css"> .st0{fill:#00AFC9;} .st1{fill:#F9F9F9;} </style><g><g><path class="st0" d="M115.98,75.5c-18.86-12.73-24.17-46.92,7.54-60.36c-12.61,9.31-23.11,26.35-6.84,47.86 c11.08-7.43,31.59-20.4,45.62-55.53C161.73,13.37,161.26,41.49,115.98,75.5z"/><path class="st1" d="M122.41,79.22c16.44,7.96,50.75,0.17,50.04-32.6c-4.27,18.55-16.86,26.29-31.72,26.64 c7.43-11.08,27.83-31.59,22.05-64.84C159.96,43.32,138.97,61.83,122.41,79.22z"/></g><g><path class="st1" d="M36.03,86.28c-0.86-0.13-1.78-0.2-2.75-0.2c-1.94,0-3.43,0.39-4.45,1.17c-1.02,0.78-1.69,2.01-1.98,3.7 l-0.42,2.36h7.21l-1.12,6.33h-7.21l-3.73,21.14H13.6l3.73-21.14h-4.47l1.12-6.33h4.47l0.35-1.98c0.43-2.44,1.27-4.53,2.52-6.26 c1.25-1.73,2.88-3.06,4.88-3.98c2-0.92,4.33-1.38,6.97-1.38c1.37,0,2.69,0.1,3.96,0.3L36.03,86.28L36.03,86.28z"/><path class="st1" d="M61.26,98.77c-0.65-2.03-1.73-3.52-3.25-4.47c-1.52-0.95-3.35-1.42-5.48-1.42c-1.57,0-3.04,0.3-4.39,0.89 c-1.35,0.6-2.52,1.41-3.51,2.45h-0.38l0.01-2.91h-6.73l-6.79,38.52h8.03l1.9-10.75c1.21,0.13,2.27,0.2,3.15,0.2 c4.87,0,8.81-1.26,11.8-3.78c3-2.52,4.92-6.18,5.77-10.99C61.95,103.39,61.9,100.81,61.26,98.77z M53.2,107.15 c-0.5,2.83-1.42,4.88-2.78,6.14c-1.35,1.26-3.2,1.9-5.54,1.9c-1.14,0-2.18-0.1-3.11-0.3l2.4-13.58c0.65-0.62,1.4-1.08,2.26-1.39 c0.86-0.31,1.72-0.46,2.59-0.46c1.79,0,3.06,0.57,3.82,1.72C53.58,102.31,53.7,104.3,53.2,107.15z"/><path class="st1" d="M106.14,103.71l-3.01,17.07h-8.01l2.94-16.65c0.27-1.56,0.16-2.67-0.35-3.34c-0.51-0.67-1.33-1-2.45-1 c-0.8,0-1.61,0.15-2.42,0.46c-0.81,0.31-1.54,0.78-2.18,1.42c-0.05,0.55-0.13,1.15-0.24,1.78l-3.06,17.33h-7.86l2.94-16.65 c0.28-1.57,0.18-2.69-0.29-3.35c-0.47-0.66-1.26-0.99-2.39-0.99c-0.85,0-1.72,0.19-2.6,0.58c-0.88,0.39-1.65,0.95-2.3,1.71 l-3.3,18.71h-8.04l4.84-27.47h6.6l0.06,2.79h0.38c2.34-2.14,5.1-3.21,8.28-3.21c1.52,0,2.83,0.29,3.93,0.87 c1.1,0.58,1.9,1.48,2.42,2.7c1.35-1.22,2.8-2.12,4.32-2.7c1.52-0.58,3.04-0.87,4.55-0.87c2.81,0,4.88,0.87,6.22,2.61 C106.45,97.24,106.79,99.97,106.14,103.71L106.14,103.71z"/><path class="st1" d="M133.71,97.62c-0.59-1.68-1.74-2.89-3.45-3.63c-1.71-0.74-4.06-1.1-7.06-1.1c-1.44,0-2.97,0.1-4.6,0.3 c-1.63,0.2-3.12,0.49-4.49,0.85l-1.06,6.03c1.25-0.37,2.56-0.64,3.93-0.83c1.36-0.18,2.61-0.28,3.73-0.28 c1.56,0,2.76,0.15,3.6,0.46c0.84,0.31,1.4,0.82,1.69,1.54c0.28,0.72,0.31,1.72,0.09,2.99l-0.06,0.35l-4.54,0.38 c-3.99,0.25-7.04,1.1-9.12,2.54c-2.09,1.44-3.36,3.47-3.83,6.1c-0.28,1.59-0.17,2.98,0.33,4.18c0.5,1.2,1.36,2.13,2.58,2.79 c1.22,0.66,2.75,0.99,4.6,0.99c1.54,0,2.98-0.26,4.33-0.79c1.35-0.53,2.52-1.34,3.52-2.42h0.38l0.08,2.71h6.63l2.88-16.32 C134.34,101.58,134.3,99.3,133.71,97.62z M124.29,113.98c-0.71,0.6-1.46,1.04-2.27,1.32c-0.8,0.28-1.6,0.42-2.38,0.42 c-1.19,0-2.05-0.27-2.57-0.8c-0.52-0.53-0.7-1.31-0.52-2.33c0.18-1.04,0.67-1.85,1.46-2.42c0.79-0.58,1.95-0.92,3.47-1.04 l3.72-0.28L124.29,113.98z"/><path class="st1" d="M156.73,100.39c-0.71-0.15-1.6-0.23-2.67-0.23c-1.22,0-2.46,0.23-3.71,0.7c-1.25,0.47-2.27,1.11-3.05,1.93 l-3.17,17.98h-8.04l4.84-27.47h6.55l0,3.54h0.38c0.99-1.32,2.16-2.31,3.53-2.95c1.37-0.65,2.85-0.97,4.44-0.97 c0.8,0,1.53,0.07,2.17,0.2L156.73,100.39L156.73,100.39z"/><polygon class="st1" points="179.49,93.31 188.05,93.31 176.98,106.52 184.09,120.78 175.35,120.78 169.76,109.88 166.55,109.88 164.62,120.78 156.59,120.78 163.74,80.2 171.78,80.2 167.68,103.46 170.84,103.46 179.49,93.31 "/><path class="st1" d="M210.28,96.56c-1.6-2.45-4.34-3.68-8.23-3.68c-2.71,0-5.12,0.54-7.22,1.63c-2.1,1.09-3.84,2.69-5.2,4.81 c-1.37,2.12-2.32,4.68-2.85,7.7c-0.59,3.35-0.53,6.07,0.17,8.16c0.7,2.09,2.08,3.64,4.12,4.63c2.04,1,4.81,1.49,8.31,1.49 c2.7,0,5.44-0.31,8.23-0.93l1.06-6c-2.63,0.59-4.99,0.88-7.09,0.88c-1.99,0-3.53-0.19-4.62-0.57c-1.09-0.38-1.83-0.99-2.23-1.83 c-0.39-0.85-0.5-2-0.33-3.48h16.68l0.37-2.11C212.27,102.59,211.88,99.02,210.28,96.56z M204.4,104.74h-9.22 c0.48-2.44,1.2-4.18,2.15-5.22c0.95-1.04,2.19-1.56,3.72-1.56c1.51,0,2.54,0.51,3.09,1.54 C204.7,100.53,204.79,102.27,204.4,104.74z"/><path class="st1" d="M235.48,93.31l-1.12,6.33h-7.21l-1.78,10.09c-0.22,1.24-0.24,2.22-0.05,2.94c0.18,0.72,0.57,1.23,1.16,1.54 c0.59,0.31,1.42,0.46,2.49,0.46c0.7,0,1.68-0.11,2.95-0.33l-1.12,6.35c-1.76,0.39-3.48,0.58-5.18,0.58c-3.38,0-5.8-0.84-7.25-2.51 c-1.45-1.67-1.87-4.27-1.25-7.78l2-11.35h-4.47l1.12-6.33h4.47l3.17-9.69h6.58l-1.71,9.69H235.48L235.48,93.31z"/><path class="st1" d="M257.96,99.61c-2.12-0.6-4.44-0.9-6.97-0.9c-3.82,0-5.89,0.92-6.21,2.76c-0.11,0.6,0,1.09,0.31,1.46 c0.31,0.37,0.9,0.64,1.76,0.8l4.3,0.8c2.46,0.49,4.19,1.34,5.18,2.57c1,1.23,1.29,3.02,0.88,5.36c-0.32,1.82-1.08,3.4-2.28,4.72 c-1.2,1.32-2.78,2.34-4.76,3.05c-1.98,0.71-4.25,1.07-6.83,1.07c-3.26,0-6.13-0.4-8.6-1.21l1.04-5.88 c2.57,0.82,5.39,1.23,8.47,1.23c1.74,0,3.04-0.23,3.9-0.69c0.86-0.46,1.37-1.13,1.53-2.02c0.12-0.69,0.03-1.21-0.28-1.56 c-0.31-0.35-0.9-0.62-1.79-0.8l-4.3-0.8c-2.48-0.47-4.2-1.35-5.16-2.65c-0.96-1.3-1.25-3.05-0.86-5.26 c0.32-1.79,1.07-3.34,2.25-4.66c1.19-1.31,2.81-2.33,4.87-3.05c2.06-0.72,4.52-1.08,7.38-1.08c1.31,0,2.59,0.07,3.84,0.23 c1.25,0.15,2.38,0.36,3.37,0.63L257.96,99.61L257.96,99.61z"/></g></g></svg>