<?xml version="1.0" encoding="UTF-8"?>
<svg id="Layer_1" data-name="Layer 1" xmlns="http://www.w3.org/2000/svg" viewBox="0 0 1080 1080">
  <defs>
    <style>
      .cls-1 {
        fill: #32b5e2;
      }
    </style>
  </defs>
  <path class="cls-1" d="m240.59,976.98c13.44-9.95,25.75-18.79,39.19-27.64,10.08-7.74,32.47-24.32,32.47-24.32C765.74,583.43,853.08,329.18,921.38,5.27c-203.79,505.2-511.71,653.33-676.31,761.67-105.25-120.5-142.2-286.32-83.98-439.98,43.67-116.07,135.49-202.3,246.34-246.52C246.19,118.03,107.35,227.47,46.88,388.87c-82.86,217.78,2.24,458.77,192.59,590.32h0q0-2.21,1.12-2.21Z"/>
  <path class="cls-1" d="m1044.55,653.08c-54.21,141.78-177.88,238.89-322.31,270.36-29.82,6.5-52.32-26.63-34.6-51.19,122.84-170.25,314.71-444.84,240.46-868.09-26.87,397.97-155.64,609.11-463.56,905.38h0c-36.95,35.38-76.14,71.86-118.69,110.55-3.36,3.32-7.84,6.63-11.2,11.05h0c8.96,3.32,16.8,7.74,25.75,9.95,273.21,101.7,574.41-27.64,672.95-287.42,22.39-58.59,32.47-118.29,31.35-176.88-4.48,25.43-11.2,51.96-20.15,76.28Z"/>
</svg>