<svg xmlns="http://www.w3.org/2000/svg" xmlns:xlink="http://www.w3.org/1999/xlink" width="194" height="190" viewBox="0 0 194 190">
  <defs>
    <clipPath id="clip-path">
      <rect id="Rectangle_739" data-name="Rectangle 739" width="182.476" height="182.476" transform="translate(0 0)" fill="none"/>
    </clipPath>
    <clipPath id="clip-register_for_platform">
      <rect width="194" height="190"/>
    </clipPath>
  </defs>
  <g id="register_for_platform" data-name="register for platform" clip-path="url(#clip-register_for_platform)">
    <g id="Group_2186" data-name="Group 2186" transform="translate(6 3.999)">
      <g id="Group_2186-2" data-name="Group 2186" transform="translate(0 0.001)" clip-path="url(#clip-path)">
        <path id="Path_1734" data-name="Path 1734" d="M169.147,0H13.315A13.319,13.319,0,0,0,0,13.316V169.162a13.337,13.337,0,0,0,13.315,13.315H169.161a13.337,13.337,0,0,0,13.315-13.315V13.316A13.322,13.322,0,0,0,169.147,0m-10.956,141.27h-97.9a8.407,8.407,0,0,1-15.67,0H24.3v-6.116H44.628a8.407,8.407,0,0,1,15.67,0h97.9v6.116Zm0-24.688a4.36,4.36,0,0,1-4.35,4.35H28.651a4.345,4.345,0,0,1-4.35-4.35V41.8a4.33,4.33,0,0,1,4.35-4.35h125.2a4.345,4.345,0,0,1,4.35,4.35v74.78Z" transform="translate(0 -0.001)" fill="#41b8ea"/>
        <path id="Path_1735" data-name="Path 1735" d="M1113.378,883.438a24.43,24.43,0,1,0,24.441,24.442,24.434,24.434,0,0,0-24.441-24.442m8.237,25.315-10,8.887a2.226,2.226,0,0,1-3.706-1.664V899.748a2.219,2.219,0,0,1,3.529-1.782l10,7.305a2.234,2.234,0,0,1,.177,3.482" transform="translate(-1022.152 -829.239)" fill="#fff"/>
        <path id="Path_1736" data-name="Path 1736" d="M789.814,2181.871a4.354,4.354,0,1,1-4.354,4.354,4.355,4.355,0,0,1,4.354-4.354" transform="translate(-737.272 -2048.013)" fill="#fff"/>
        <path id="Path_1737" data-name="Path 1737" d="M1106.294,2548.647h-51.606a.777.777,0,0,1-.777-.776V2534.3a.777.777,0,0,1,.777-.777h51.606a.777.777,0,0,1,.777.777v13.568a.777.777,0,0,1-.777.776" transform="translate(-989.254 -2378.093)" fill="#fff"/>
        <path id="Path_1738" data-name="Path 1738" d="M1158.233,2609.115h3.161a1.611,1.611,0,0,1,1.716,1.617,1.432,1.432,0,0,1-.928,1.47v.016c.632.173.813.773.854,1.372a3.068,3.068,0,0,0,.246,1.388h-1.289a7.031,7.031,0,0,1-.205-1.4c-.09-.616-.329-.886-.977-.886h-1.289v2.291h-1.289Zm1.289,2.652h1.412c.583,0,.886-.247.886-.838,0-.566-.3-.813-.886-.813h-1.412Z" transform="translate(-1087.175 -2449.045)" fill="#41b8ea"/>
        <path id="Path_1739" data-name="Path 1739" d="M1254.85,2609.114h4.384v1.084h-3.095v1.256h2.841v1h-2.841v1.437h3.161v1.084h-4.45Z" transform="translate(-1177.865 -2449.045)" fill="#41b8ea"/>
        <path id="Path_1740" data-name="Path 1740" d="M1341.908,2612.175a1.97,1.97,0,0,1-1.609.8,3.077,3.077,0,0,1,0-6.142,2.345,2.345,0,0,1,2.471,2.07h-1.231a1.2,1.2,0,0,0-1.24-.986c-1.157,0-1.593.986-1.593,2.012,0,.977.435,1.962,1.593,1.962a1.26,1.26,0,0,0,1.4-1.264h-1.3v-.96h2.463v3.169h-.821Z" transform="translate(-1255.366 -2446.908)" fill="#41b8ea"/>
        <rect id="Rectangle_738" data-name="Rectangle 738" width="1.289" height="5.862" transform="translate(88.537 160.07)" fill="#41b8ea"/>
        <path id="Path_1741" data-name="Path 1741" d="M1477.831,2610.895c0,.78.607,1.084,1.3,1.084.452,0,1.141-.131,1.141-.731,0-.64-.887-.729-1.74-.969-.871-.213-1.749-.583-1.749-1.666,0-1.207,1.133-1.774,2.192-1.774,1.223,0,2.348.534,2.348,1.889h-1.248c-.041-.7-.533-.887-1.157-.887-.41,0-.887.172-.887.665,0,.452.279.518,1.749.887.435.1,1.741.386,1.741,1.708,0,1.075-.838,1.88-2.439,1.88-1.3,0-2.521-.641-2.5-2.085Z" transform="translate(-1385.995 -2446.908)" fill="#41b8ea"/>
        <path id="Path_1742" data-name="Path 1742" d="M1563.724,2610.2h-1.757v-1.083h4.8v1.083h-1.757v4.779h-1.289Z" transform="translate(-1466.14 -2449.045)" fill="#41b8ea"/>
        <path id="Path_1743" data-name="Path 1743" d="M1651.225,2609.114h4.384v1.084h-3.1v1.256h2.841v1h-2.841v1.437h3.161v1.084h-4.45Z" transform="translate(-1549.922 -2449.045)" fill="#41b8ea"/>
        <path id="Path_1744" data-name="Path 1744" d="M1737.939,2609.115h3.161a1.611,1.611,0,0,1,1.716,1.617,1.432,1.432,0,0,1-.928,1.47v.016c.632.173.813.773.854,1.372a3.078,3.078,0,0,0,.246,1.388H1741.7a7.041,7.041,0,0,1-.205-1.4c-.09-.616-.328-.886-.977-.886h-1.289v2.291h-1.289Zm1.289,2.652h1.412c.583,0,.887-.247.887-.838,0-.566-.3-.813-.887-.813h-1.412Z" transform="translate(-1631.316 -2449.045)" fill="#41b8ea"/>
      </g>
    </g>
  </g>
</svg>
