<svg xmlns="http://www.w3.org/2000/svg" xmlns:xlink="http://www.w3.org/1999/xlink" width="246" height="190" viewBox="0 0 246 190">
  <defs>
    <clipPath id="clip-path">
      <rect id="Rectangle_729" data-name="Rectangle 729" width="235.16" height="178.967" fill="none"/>
    </clipPath>
    <clipPath id="clip-path-2">
      <path id="Path_1647" data-name="Path 1647" d="M792.829,213.707a27.949,27.949,0,1,0,27.949-27.949,27.949,27.949,0,0,0-27.949,27.949" transform="translate(-792.829 -185.758)" fill="none"/>
    </clipPath>
    <clipPath id="clip-register_for_a_demo">
      <rect width="246" height="190"/>
    </clipPath>
  </defs>
  <g id="register_for_a_demo" data-name="register for a demo" clip-path="url(#clip-register_for_a_demo)">
    <g id="Group_2169" data-name="Group 2169" transform="translate(5 6)">
      <g id="Group_2166" data-name="Group 2166" transform="translate(0 0)">
        <g id="Group_2165" data-name="Group 2165" transform="translate(0 0)" clip-path="url(#clip-path)">
          <path id="Path_1611" data-name="Path 1611" d="M230.671,178.963H4.365A4.365,4.365,0,0,1,0,174.6V4.36A4.365,4.365,0,0,1,4.365,0H230.671a4.364,4.364,0,0,1,4.364,4.364V174.6a4.364,4.364,0,0,1-4.364,4.364" transform="translate(0 0.004)" fill="#fff"/>
          <path id="Path_1612" data-name="Path 1612" d="M236.036,14.1H1V4.334A4.339,4.339,0,0,1,5.339,0H231.7a4.339,4.339,0,0,1,4.339,4.339Z" transform="translate(-0.876 0.005)" fill="#e6e6e6"/>
          <path id="Path_1613" data-name="Path 1613" d="M86.372,38.995A2.576,2.576,0,1,1,83.8,36.419a2.576,2.576,0,0,1,2.576,2.576" transform="translate(-71.152 -31.904)" fill="#ff1d25"/>
          <path id="Path_1614" data-name="Path 1614" d="M156.76,38.995a2.576,2.576,0,1,1-2.576-2.576,2.576,2.576,0,0,1,2.576,2.576" transform="translate(-132.814 -31.904)" fill="#fbb03b"/>
          <path id="Path_1615" data-name="Path 1615" d="M229.395,38.995a2.576,2.576,0,1,1-2.576-2.576,2.576,2.576,0,0,1,2.576,2.576" transform="translate(-196.445 -31.904)" fill="#44aa27"/>
          <path id="Path_1616" data-name="Path 1616" d="M816.677,1229.825H778.047a1.571,1.571,0,0,1-1.571-1.571v-8.741a1.57,1.57,0,0,1,1.571-1.569h38.631a1.57,1.57,0,0,1,1.57,1.569v8.741a1.571,1.571,0,0,1-1.57,1.571" transform="translate(-680.221 -1066.963)" fill="#41b8ea"/>
          <path id="Path_1617" data-name="Path 1617" d="M850.818,1249.735l.91-.089a1.107,1.107,0,0,0,.333.673,1.008,1.008,0,0,0,.678.214,1.037,1.037,0,0,0,.681-.191.567.567,0,0,0,.229-.447.421.421,0,0,0-.1-.28.774.774,0,0,0-.337-.2q-.164-.056-.749-.2a2.538,2.538,0,0,1-1.055-.459,1.217,1.217,0,0,1-.226-1.594,1.255,1.255,0,0,1,.578-.469,2.327,2.327,0,0,1,.912-.161,1.955,1.955,0,0,1,1.313.382,1.35,1.35,0,0,1,.463,1.021l-.936.041a.8.8,0,0,0-.258-.514.945.945,0,0,0-.592-.157,1.068,1.068,0,0,0-.639.168.336.336,0,0,0-.148.287.356.356,0,0,0,.139.281,2.457,2.457,0,0,0,.86.309,4.564,4.564,0,0,1,1.009.334,1.3,1.3,0,0,1,.512.471,1.458,1.458,0,0,1-.036,1.483,1.325,1.325,0,0,1-.626.517,2.626,2.626,0,0,1-1.008.169,2,2,0,0,1-1.349-.406,1.763,1.763,0,0,1-.562-1.183" transform="translate(-745.347 -1092.006)" fill="#fff"/>
          <rect id="Rectangle_726" data-name="Rectangle 726" width="0.935" height="4.633" transform="translate(109.996 154.603)" fill="#fff"/>
          <path id="Path_1618" data-name="Path 1618" d="M903.072,1249.539v-.78h2.016v1.845a2.541,2.541,0,0,1-.852.5,3.1,3.1,0,0,1-1.13.216,2.531,2.531,0,0,1-1.267-.305,1.941,1.941,0,0,1-.812-.872,2.82,2.82,0,0,1-.271-1.234,2.665,2.665,0,0,1,.3-1.286,2.044,2.044,0,0,1,.888-.863,2.4,2.4,0,0,1,1.109-.231,2.215,2.215,0,0,1,1.348.362,1.634,1.634,0,0,1,.624,1l-.929.174a.982.982,0,0,0-.368-.539,1.112,1.112,0,0,0-.675-.2,1.266,1.266,0,0,0-.975.389,1.637,1.637,0,0,0-.362,1.153,1.814,1.814,0,0,0,.367,1.237,1.224,1.224,0,0,0,.96.412,1.607,1.607,0,0,0,.589-.116,2.022,2.022,0,0,0,.507-.279v-.588Z" transform="translate(-789.095 -1092.006)" fill="#fff"/>
          <path id="Path_1619" data-name="Path 1619" d="M942.741,1251.8v-4.633h.91l1.9,3.093v-3.093h.869v4.633h-.939l-1.867-3.021v3.021Z" transform="translate(-825.875 -1092.565)" fill="#fff"/>
          <rect id="Rectangle_727" data-name="Rectangle 727" width="0.935" height="4.633" transform="translate(123.3 154.603)" fill="#fff"/>
          <path id="Path_1620" data-name="Path 1620" d="M1009.453,1251.8v-4.633h.91l1.9,3.093v-3.093h.869v4.633h-.939l-1.867-3.021v3.021Z" transform="translate(-884.317 -1092.565)" fill="#fff"/>
          <path id="Path_1621" data-name="Path 1621" d="M688.214,963.7H607.586a2.293,2.293,0,0,1-2.293-2.293V950.025a2.293,2.293,0,0,1,2.293-2.293h80.628a2.293,2.293,0,0,1,2.293,2.293V961.4a2.293,2.293,0,0,1-2.293,2.293" transform="translate(-530.259 -830.247)" fill="#ccc"/>
          <path id="Path_1622" data-name="Path 1622" d="M645.173,996.072l-.007-5.241,1.977,0a4.822,4.822,0,0,1,.8.049,1.576,1.576,0,0,1,.647.244,1.284,1.284,0,0,1,.421.505,1.706,1.706,0,0,1-.264,1.847,2.041,2.041,0,0,1-1.537.465l-1.344,0,0,2.13Zm.69-2.75,1.355,0a1.439,1.439,0,0,0,.954-.252.892.892,0,0,0,.281-.7.947.947,0,0,0-.167-.563.779.779,0,0,0-.438-.309,2.983,2.983,0,0,0-.647-.046l-1.34,0Z" transform="translate(-565.189 -868.002)" fill="#333"/>
          <path id="Path_1623" data-name="Path 1623" d="M684.879,1005.15a2.4,2.4,0,0,1-.687.43,1.994,1.994,0,0,1-.71.126,1.378,1.378,0,0,1-.962-.3,1.007,1.007,0,0,1-.337-.78,1.058,1.058,0,0,1,.458-.88,1.552,1.552,0,0,1,.463-.211,4.57,4.57,0,0,1,.572-.1,5.827,5.827,0,0,0,1.147-.223c0-.088,0-.144,0-.168a.711.711,0,0,0-.183-.554,1.077,1.077,0,0,0-.733-.217,1.136,1.136,0,0,0-.67.16.973.973,0,0,0-.319.563l-.629-.085a1.553,1.553,0,0,1,.281-.653,1.239,1.239,0,0,1,.568-.383,2.542,2.542,0,0,1,.861-.135,2.28,2.28,0,0,1,.79.114,1.033,1.033,0,0,1,.447.287,1,1,0,0,1,.2.438,3.556,3.556,0,0,1,.033.593v.858a8.976,8.976,0,0,0,.043,1.135,1.427,1.427,0,0,0,.163.456h-.672a1.37,1.37,0,0,1-.129-.469m-.056-1.437a4.681,4.681,0,0,1-1.051.244,2.42,2.42,0,0,0-.561.13.557.557,0,0,0-.254.209.57.57,0,0,0,.107.735.837.837,0,0,0,.57.171,1.318,1.318,0,0,0,.661-.163,1,1,0,0,0,.425-.446,1.559,1.559,0,0,0,.1-.643Z" transform="translate(-597.617 -877.559)" fill="#333"/>
          <path id="Path_1624" data-name="Path 1624" d="M714.71,1004.448l.636-.1a.891.891,0,0,0,.3.586,1.039,1.039,0,0,0,.685.2,1,1,0,0,0,.658-.181.539.539,0,0,0,.214-.424.391.391,0,0,0-.19-.343,2.807,2.807,0,0,0-.658-.217,6,6,0,0,1-.981-.308.936.936,0,0,1-.557-.87.98.98,0,0,1,.115-.471,1.047,1.047,0,0,1,.316-.359,1.326,1.326,0,0,1,.409-.188,1.926,1.926,0,0,1,.556-.078,2.2,2.2,0,0,1,.785.127,1.069,1.069,0,0,1,.5.348,1.357,1.357,0,0,1,.223.588l-.629.086a.688.688,0,0,0-.249-.457.907.907,0,0,0-.581-.164,1.054,1.054,0,0,0-.633.148.428.428,0,0,0-.189.343.356.356,0,0,0,.079.225.563.563,0,0,0,.247.171q.1.036.568.164a7.944,7.944,0,0,1,.953.3.967.967,0,0,1,.424.337.945.945,0,0,1,.155.551,1.08,1.08,0,0,1-.187.606,1.212,1.212,0,0,1-.541.441,1.967,1.967,0,0,1-.8.156,1.784,1.784,0,0,1-1.128-.306,1.431,1.431,0,0,1-.5-.911" transform="translate(-626.111 -877.523)" fill="#333"/>
          <path id="Path_1625" data-name="Path 1625" d="M744.24,1004.407l.636-.1a.89.89,0,0,0,.3.586,1.038,1.038,0,0,0,.685.2,1,1,0,0,0,.657-.181.54.54,0,0,0,.214-.424.391.391,0,0,0-.19-.343,2.792,2.792,0,0,0-.658-.217,6.04,6.04,0,0,1-.982-.307.938.938,0,0,1-.557-.87.976.976,0,0,1,.115-.47,1.042,1.042,0,0,1,.316-.36,1.332,1.332,0,0,1,.409-.188,1.955,1.955,0,0,1,.556-.078,2.2,2.2,0,0,1,.785.128,1.068,1.068,0,0,1,.5.348,1.359,1.359,0,0,1,.222.588l-.629.087a.688.688,0,0,0-.249-.457.912.912,0,0,0-.581-.164,1.05,1.05,0,0,0-.633.147.428.428,0,0,0-.189.344.354.354,0,0,0,.079.225.564.564,0,0,0,.247.171q.1.036.569.164a8.013,8.013,0,0,1,.953.3.972.972,0,0,1,.424.338.942.942,0,0,1,.155.55,1.082,1.082,0,0,1-.187.606,1.211,1.211,0,0,1-.541.44,1.969,1.969,0,0,1-.8.156,1.785,1.785,0,0,1-1.128-.306,1.43,1.43,0,0,1-.5-.911" transform="translate(-651.981 -877.487)" fill="#333"/>
          <path id="Path_1626" data-name="Path 1626" d="M773.264,1006.07l-1.167-3.795h.665l.607,2.191.226.814q.014-.06.2-.783l.6-2.224h.661l.571,2.2.191.726.217-.733.648-2.2h.625l-1.182,3.8h-.669l-.607-2.273-.147-.647-.765,2.922Z" transform="translate(-676.385 -878.023)" fill="#333"/>
          <path id="Path_1627" data-name="Path 1627" d="M816.557,1003.539a1.955,1.955,0,0,1,.584-1.563,1.765,1.765,0,0,1,1.193-.423,1.7,1.7,0,0,1,1.28.511,1.952,1.952,0,0,1,.5,1.417,2.508,2.508,0,0,1-.219,1.153,1.554,1.554,0,0,1-.639.653,1.862,1.862,0,0,1-.917.233,1.7,1.7,0,0,1-1.29-.509,2.042,2.042,0,0,1-.494-1.472m.661,0a1.618,1.618,0,0,0,.32,1.092,1.059,1.059,0,0,0,1.6,0,1.655,1.655,0,0,0,.317-1.112,1.569,1.569,0,0,0-.321-1.067,1.06,1.06,0,0,0-1.6,0,1.611,1.611,0,0,0-.317,1.091" transform="translate(-715.333 -877.397)" fill="#333"/>
          <path id="Path_1628" data-name="Path 1628" d="M851.262,1005.394l-.005-3.8h.579v.576a1.567,1.567,0,0,1,.408-.533.714.714,0,0,1,.413-.129,1.254,1.254,0,0,1,.662.206l-.221.6a.92.92,0,0,0-.472-.139.613.613,0,0,0-.379.128.685.685,0,0,0-.239.352,2.518,2.518,0,0,0-.106.751l0,1.987Z" transform="translate(-745.732 -877.359)" fill="#333"/>
          <path id="Path_1629" data-name="Path 1629" d="M871.826,995.747v-.479a1.183,1.183,0,0,1-1.061.567,1.489,1.489,0,0,1-.835-.25,1.648,1.648,0,0,1-.591-.7,2.422,2.422,0,0,1-.211-1.032,2.706,2.706,0,0,1,.189-1.031,1.491,1.491,0,0,1,.567-.71,1.518,1.518,0,0,1,.847-.248,1.264,1.264,0,0,1,.612.144,1.28,1.28,0,0,1,.437.377l0-1.88h.64l.007,5.241Zm-2.037-1.892a1.65,1.65,0,0,0,.309,1.09.926.926,0,0,0,.726.359.909.909,0,0,0,.716-.346,1.588,1.588,0,0,0,.293-1.053,1.784,1.784,0,0,0-.3-1.144.924.924,0,0,0-.741-.364.891.891,0,0,0-.716.352,1.727,1.727,0,0,0-.286,1.1" transform="translate(-761.387 -867.719)" fill="#333"/>
          <path id="Path_1630" data-name="Path 1630" d="M1229.6,986.915h-.527v-1.4a1.348,1.348,0,0,0-1.346-1.346h0a1.351,1.351,0,0,0-1.35,1.349v1.4h-.526v-1.4a1.876,1.876,0,0,1,1.876-1.876h0a1.872,1.872,0,0,1,1.873,1.873Z" transform="translate(-1073.886 -861.704)" fill="#333"/>
          <path id="Path_1631" data-name="Path 1631" d="M1226.812,1013.669h-3.681a.424.424,0,0,1-.424-.424v-2.965a.424.424,0,0,1,.424-.424h3.681a.424.424,0,0,1,.424.424v2.965a.424.424,0,0,1-.424.424" transform="translate(-1071.135 -884.67)" fill="#333"/>
          <path id="Path_1632" data-name="Path 1632" d="M1238.052,1018.495a.483.483,0,1,1-.483-.483.483.483,0,0,1,.483.483" transform="translate(-1083.732 -891.815)" fill="#ccc"/>
          <rect id="Rectangle_728" data-name="Rectangle 728" width="0.483" height="0.943" transform="translate(153.596 126.936)" fill="#ccc"/>
          <path id="Path_1633" data-name="Path 1633" d="M688.214,787.572H607.586a2.293,2.293,0,0,1-2.293-2.293V773.9a2.294,2.294,0,0,1,2.293-2.294h80.628a2.293,2.293,0,0,1,2.293,2.294v11.379a2.293,2.293,0,0,1-2.293,2.293" transform="translate(-530.259 -675.955)" fill="#ccc"/>
          <path id="Path_1634" data-name="Path 1634" d="M648.7,814.5h.693v3.028a3.589,3.589,0,0,1-.179,1.255,1.531,1.531,0,0,1-.645.756,2.285,2.285,0,0,1-1.224.292,2.52,2.52,0,0,1-1.205-.254,1.449,1.449,0,0,1-.668-.735,3.492,3.492,0,0,1-.2-1.313V814.5h.694v3.024a2.952,2.952,0,0,0,.127,1.006.966.966,0,0,0,.436.5,1.511,1.511,0,0,0,.756.175,1.444,1.444,0,0,0,1.09-.347,2,2,0,0,0,.326-1.333Z" transform="translate(-565.278 -713.536)" fill="#333"/>
          <path id="Path_1635" data-name="Path 1635" d="M685.093,828.213l.636-.1a.888.888,0,0,0,.3.586,1.04,1.04,0,0,0,.685.2,1.008,1.008,0,0,0,.658-.18.541.541,0,0,0,.214-.424.391.391,0,0,0-.189-.343,2.8,2.8,0,0,0-.658-.218,5.983,5.983,0,0,1-.981-.309.936.936,0,0,1-.556-.871.98.98,0,0,1,.116-.47,1.036,1.036,0,0,1,.316-.359,1.31,1.31,0,0,1,.409-.188,1.942,1.942,0,0,1,.556-.077,2.193,2.193,0,0,1,.785.129,1.069,1.069,0,0,1,.5.349,1.356,1.356,0,0,1,.222.588l-.629.086a.688.688,0,0,0-.248-.457.909.909,0,0,0-.581-.165,1.054,1.054,0,0,0-.633.147.428.428,0,0,0-.189.343.354.354,0,0,0,.079.225.565.565,0,0,0,.247.172q.1.036.568.164a7.947,7.947,0,0,1,.953.3.968.968,0,0,1,.424.338.943.943,0,0,1,.154.551,1.084,1.084,0,0,1-.187.606,1.214,1.214,0,0,1-.542.44,1.972,1.972,0,0,1-.8.155,1.786,1.786,0,0,1-1.128-.307,1.429,1.429,0,0,1-.495-.912" transform="translate(-600.166 -723.136)" fill="#333"/>
          <path id="Path_1636" data-name="Path 1636" d="M717.782,828.124l.665.082a1.62,1.62,0,0,1-.583.9,1.974,1.974,0,0,1-2.408-.191,2,2,0,0,1-.488-1.439,2.1,2.1,0,0,1,.493-1.487,1.669,1.669,0,0,1,1.28-.529,1.624,1.624,0,0,1,1.244.518,2.06,2.06,0,0,1,.482,1.459c0,.038,0,.1,0,.172h-2.831a1.459,1.459,0,0,0,.354.958,1.053,1.053,0,0,0,.793.332.985.985,0,0,0,.6-.186,1.236,1.236,0,0,0,.4-.593m-2.113-1.04h2.12a1.283,1.283,0,0,0-.243-.719.986.986,0,0,0-.8-.372,1.024,1.024,0,0,0-.746.3,1.177,1.177,0,0,0-.334.794" transform="translate(-626.338 -723.136)" fill="#333"/>
          <path id="Path_1637" data-name="Path 1637" d="M749.488,829.346v-3.8h.579v.576a1.574,1.574,0,0,1,.409-.533.715.715,0,0,1,.413-.129,1.256,1.256,0,0,1,.661.207l-.222.6a.921.921,0,0,0-.472-.14.612.612,0,0,0-.379.127.685.685,0,0,0-.24.352,2.5,2.5,0,0,0-.107.751v1.988Z" transform="translate(-656.578 -723.136)" fill="#333"/>
          <path id="Path_1638" data-name="Path 1638" d="M769.213,829.346v-3.8h.579v.54a1.365,1.365,0,0,1,1.208-.626,1.59,1.59,0,0,1,.631.123.994.994,0,0,1,.431.324,1.243,1.243,0,0,1,.2.475,3.661,3.661,0,0,1,.036.626v2.334h-.644v-2.31a1.725,1.725,0,0,0-.075-.588.615.615,0,0,0-.266-.311.849.849,0,0,0-.448-.116,1.042,1.042,0,0,0-.709.261,1.286,1.286,0,0,0-.3.99v2.073Z" transform="translate(-673.858 -723.136)" fill="#333"/>
          <path id="Path_1639" data-name="Path 1639" d="M803,828.878a2.392,2.392,0,0,1-.688.429,1.986,1.986,0,0,1-.71.125,1.38,1.38,0,0,1-.961-.306,1.009,1.009,0,0,1-.336-.781,1.039,1.039,0,0,1,.127-.51,1.05,1.05,0,0,1,.333-.37,1.563,1.563,0,0,1,.463-.211,4.593,4.593,0,0,1,.572-.1,5.885,5.885,0,0,0,1.148-.222q0-.132,0-.168a.71.71,0,0,0-.182-.554,1.077,1.077,0,0,0-.733-.218,1.137,1.137,0,0,0-.67.159.972.972,0,0,0-.32.563l-.629-.086a1.554,1.554,0,0,1,.282-.652,1.239,1.239,0,0,1,.568-.383,2.541,2.541,0,0,1,.862-.134,2.277,2.277,0,0,1,.79.114,1.039,1.039,0,0,1,.447.288,1.011,1.011,0,0,1,.2.438,3.6,3.6,0,0,1,.032.594v.858a9.119,9.119,0,0,0,.041,1.135,1.439,1.439,0,0,0,.163.456h-.672a1.353,1.353,0,0,1-.129-.468m-.054-1.437a4.715,4.715,0,0,1-1.051.243,2.417,2.417,0,0,0-.561.129.558.558,0,0,0-.254.209.569.569,0,0,0,.105.735.84.84,0,0,0,.57.171,1.331,1.331,0,0,0,.661-.162,1,1,0,0,0,.425-.445,1.55,1.55,0,0,0,.1-.643Z" transform="translate(-701.091 -723.136)" fill="#333"/>
          <path id="Path_1640" data-name="Path 1640" d="M834.9,829.346v-3.8h.576v.532a1.349,1.349,0,0,1,.475-.448,1.335,1.335,0,0,1,.676-.17,1.252,1.252,0,0,1,.692.175.939.939,0,0,1,.38.49,1.363,1.363,0,0,1,1.173-.665,1.157,1.157,0,0,1,.869.313,1.338,1.338,0,0,1,.3.964v2.606h-.64v-2.392a1.768,1.768,0,0,0-.063-.556.537.537,0,0,0-.227-.273.706.706,0,0,0-.386-.1.9.9,0,0,0-.665.266,1.173,1.173,0,0,0-.264.853v2.206h-.644v-2.467a1.086,1.086,0,0,0-.157-.644.6.6,0,0,0-.515-.214.934.934,0,0,0-.5.143.811.811,0,0,0-.334.418,2.353,2.353,0,0,0-.1.794v1.97Z" transform="translate(-731.407 -723.136)" fill="#333"/>
          <path id="Path_1641" data-name="Path 1641" d="M885.185,828.124l.665.082a1.624,1.624,0,0,1-.583.9,1.974,1.974,0,0,1-2.408-.191,2,2,0,0,1-.488-1.439,2.1,2.1,0,0,1,.493-1.487,1.67,1.67,0,0,1,1.28-.529,1.624,1.624,0,0,1,1.244.518,2.062,2.062,0,0,1,.483,1.459c0,.038,0,.1,0,.172h-2.831a1.459,1.459,0,0,0,.354.958,1.053,1.053,0,0,0,.794.332.984.984,0,0,0,.6-.186,1.236,1.236,0,0,0,.4-.593m-2.113-1.04h2.12a1.288,1.288,0,0,0-.243-.719.987.987,0,0,0-.8-.372,1.022,1.022,0,0,0-.745.3,1.173,1.173,0,0,0-.334.794" transform="translate(-772.99 -723.136)" fill="#333"/>
          <path id="Path_1642" data-name="Path 1642" d="M1231.755,809.726a1.537,1.537,0,1,1-1.523-1.739,1.642,1.642,0,0,1,1.523,1.739" transform="translate(-1076.392 -707.826)" fill="#333"/>
          <path id="Path_1643" data-name="Path 1643" d="M1223.423,844.608h-5.8v-1.37a1.483,1.483,0,0,1,1.482-1.483h2.837a1.483,1.483,0,0,1,1.482,1.483Z" transform="translate(-1066.68 -737.408)" fill="#333"/>
          <path id="Path_1644" data-name="Path 1644" d="M848.727,213.708a27.949,27.949,0,1,1-27.949-27.949,27.949,27.949,0,0,1,27.949,27.949" transform="translate(-694.547 -162.731)" fill="#29abe2"/>
        </g>
      </g>
      <g id="Group_2168" data-name="Group 2168" transform="translate(98.282 23.028)">
        <g id="Group_2167" data-name="Group 2167" clip-path="url(#clip-path-2)">
          <path id="Path_1645" data-name="Path 1645" d="M949.169,320.292a9.792,9.792,0,0,0,9.781-9.781v-2.07a9.781,9.781,0,1,0-19.562,0v2.07a9.792,9.792,0,0,0,9.781,9.781" transform="translate(-921.22 -284.664)" fill="#e1e2e3"/>
          <path id="Path_1646" data-name="Path 1646" d="M904.662,491.327H893.931A11.485,11.485,0,0,0,882.459,502.8v11.658a4.956,4.956,0,0,0,4.951,4.95h23.774a4.956,4.956,0,0,0,4.951-4.95V502.8a11.485,11.485,0,0,0-11.472-11.472" transform="translate(-871.348 -453.448)" fill="#e1e2e3"/>
        </g>
      </g>
    </g>
  </g>
</svg>
