<svg id="Group_152" data-name="Group 152" xmlns="http://www.w3.org/2000/svg" xmlns:xlink="http://www.w3.org/1999/xlink" width="101.411" height="86.402" viewBox="0 0 101.411 86.402">
  <defs>
    <clipPath id="clip-path">
      <rect id="Rectangle_200" data-name="Rectangle 200" width="101.411" height="86.402" fill="#132a4a"/>
    </clipPath>
  </defs>
  <g id="Group_101" data-name="Group 101" transform="translate(0 0)">
    <g id="Group_135" data-name="Group 135" transform="translate(0 0)" clip-path="url(#clip-path)">
      <path id="Path_79225" data-name="Path 79225" d="M99.586,0l-21.2.99a1.745,1.745,0,0,0-1.151,2.975l4.237,4.239L36.77,41.347,16.9,16.981a1.743,1.743,0,0,0-2.507-.2L.588,28.983A1.743,1.743,0,0,0,0,30.289V44.238a1.744,1.744,0,0,0,2.9,1.306l12.446-11L35.121,58.791a1.744,1.744,0,0,0,2.4.295l54.2-40.633,5.724,5.726a1.745,1.745,0,0,0,2.975-1.153l.99-21.2A1.742,1.742,0,0,0,99.586,0m-2.467,18.92-4-4a1.744,1.744,0,0,0-2.279-.162L36.765,55.289,16.9,30.931a1.745,1.745,0,0,0-1.21-.636q-.071-.005-.141-.005a1.751,1.751,0,0,0-1.156.438l-10.9,9.642V31.075L15.344,20.592,35.121,44.841a1.742,1.742,0,0,0,2.389.3L85.169,9.8a1.746,1.746,0,0,0,.2-2.635L82.487,4.291l15.348-.717Z" transform="translate(0 0.001)" fill="#132a4a"/>
      <path id="Path_79226" data-name="Path 79226" d="M14.949,29.552H2.744A1.744,1.744,0,0,0,1,31.3V62.682a1.744,1.744,0,0,0,1.744,1.744H14.949a1.744,1.744,0,0,0,1.744-1.744V31.3a1.744,1.744,0,0,0-1.744-1.744M13.206,60.938H4.487v-27.9h8.718Z" transform="translate(0.744 21.977)" fill="#132a4a"/>
      <path id="Path_79227" data-name="Path 79227" d="M30.949,37.552H18.744A1.744,1.744,0,0,0,17,39.3V56.732a1.744,1.744,0,0,0,1.744,1.744H30.949a1.744,1.744,0,0,0,1.744-1.744V39.3a1.744,1.744,0,0,0-1.744-1.744M29.206,54.989H20.487V41.039h8.718Z" transform="translate(12.642 27.926)" fill="#132a4a"/>
      <path id="Path_79228" data-name="Path 79228" d="M46.949,29.552H34.744A1.744,1.744,0,0,0,33,31.3V62.682a1.744,1.744,0,0,0,1.744,1.744H46.949a1.744,1.744,0,0,0,1.744-1.744V31.3a1.744,1.744,0,0,0-1.744-1.744M45.206,60.938H36.487v-27.9h8.718Z" transform="translate(24.541 21.977)" fill="#132a4a"/>
      <path id="Path_79229" data-name="Path 79229" d="M61.949,18.552H49.744A1.744,1.744,0,0,0,48,20.3V70.862a1.744,1.744,0,0,0,1.744,1.744H61.949a1.744,1.744,0,0,0,1.744-1.744V20.3a1.744,1.744,0,0,0-1.744-1.744M60.206,69.118H51.487V22.039h8.718Z" transform="translate(35.696 13.797)" fill="#132a4a"/>
    </g>
  </g>
</svg>
