<svg xmlns="http://www.w3.org/2000/svg" xmlns:xlink="http://www.w3.org/1999/xlink" width="62" height="95" viewBox="0 0 62 95">
  <defs>
    <clipPath id="clip-path">
      <rect id="Rectangle_198" data-name="Rectangle 198" width="62" height="95" transform="translate(-0.081 0.464)" fill="#132a4a"/>
    </clipPath>
  </defs>
  <g id="Group_149" data-name="Group 149" transform="translate(0.081 -0.464)">
    <g id="Group_131" data-name="Group 131" transform="translate(0 0)" clip-path="url(#clip-path)">
      <path id="Path_79215" data-name="Path 79215" d="M5.636,43.9H7.271V47.17h3.271V43.9h1.636a1.635,1.635,0,0,0,1.636-1.636V25.907a1.635,1.635,0,0,0-1.636-1.636H10.542V21H7.271v3.271H5.636A1.635,1.635,0,0,0,4,25.907V42.263A1.635,1.635,0,0,0,5.636,43.9M7.271,27.542h3.271V40.627H7.271Z" transform="translate(2.199 13.566)" fill="#132a4a"/>
      <path id="Path_79216" data-name="Path 79216" d="M13.636,40.9h1.636V44.17h3.271V40.9h1.636a1.635,1.635,0,0,0,1.636-1.636V22.907a1.635,1.635,0,0,0-1.636-1.636H18.542V18H15.271v3.271H13.636A1.635,1.635,0,0,0,12,22.907V39.263A1.635,1.635,0,0,0,13.636,40.9m1.636-16.356h3.271V37.627H15.271Z" transform="translate(7.284 11.66)" fill="#132a4a"/>
      <path id="Path_79217" data-name="Path 79217" d="M21.636,43.9h1.636V47.17h3.271V43.9h1.636a1.635,1.635,0,0,0,1.636-1.636V25.907a1.635,1.635,0,0,0-1.636-1.636H26.542V21H23.271v3.271H21.636A1.635,1.635,0,0,0,20,25.907V42.263A1.635,1.635,0,0,0,21.636,43.9m1.636-16.356h3.271V40.627H23.271Z" transform="translate(12.368 13.566)" fill="#132a4a"/>
      <path id="Path_79218" data-name="Path 79218" d="M29.636,40.9h1.636V44.17h3.271V40.9h1.636a1.635,1.635,0,0,0,1.636-1.636V22.907a1.635,1.635,0,0,0-1.636-1.636H34.542V18H31.271v3.271H29.636A1.635,1.635,0,0,0,28,22.907V39.263A1.635,1.635,0,0,0,29.636,40.9m1.636-16.356h3.271V37.627H31.271Z" transform="translate(17.453 11.66)" fill="#132a4a"/>
      <path id="Path_79219" data-name="Path 79219" d="M8.178,94.865h45.8a8.187,8.187,0,0,0,8.178-8.178V8.178A8.187,8.187,0,0,0,53.975,0H8.178A8.187,8.187,0,0,0,0,8.178V86.687a8.187,8.187,0,0,0,8.178,8.178M44.161,8.178H17.992V3.271h26.17Zm-40.89,0A4.913,4.913,0,0,1,8.178,3.271H14.72V9.814a1.635,1.635,0,0,0,1.636,1.636H45.8a1.635,1.635,0,0,0,1.636-1.636V3.271h6.542a4.913,4.913,0,0,1,4.907,4.907V86.687a4.913,4.913,0,0,1-4.907,4.907H8.178a4.913,4.913,0,0,1-4.907-4.907Z" transform="translate(-0.344 0.219)" fill="#132a4a"/>
      <path id="Path_79220" data-name="Path 79220" d="M15,52.542A6.542,6.542,0,1,0,21.542,46,6.549,6.549,0,0,0,15,52.542m6.542-3.271a3.271,3.271,0,1,1-3.271,3.271,3.274,3.274,0,0,1,3.271-3.271" transform="translate(9.19 29.456)" fill="#132a4a"/>
    </g>
  </g>
</svg>
