<svg xmlns="http://www.w3.org/2000/svg" xmlns:xlink="http://www.w3.org/1999/xlink" width="108" height="88" viewBox="0 0 108 88">
  <defs>
    <clipPath id="clip-path">
      <rect id="Rectangle_197" data-name="Rectangle 197" width="108" height="88" transform="translate(-0.004 -0.416)" fill="#132a4a"/>
    </clipPath>
  </defs>
  <g id="Group_151" data-name="Group 151" transform="translate(0.004 0.417)">
    <g id="Group_126" data-name="Group 126" transform="translate(0 0)" clip-path="url(#clip-path)">
      <path id="Path_79203" data-name="Path 79203" d="M15.285,12.714H13.428V9H9.714v3.714H7.857A1.856,1.856,0,0,0,6,14.571V25.713A1.856,1.856,0,0,0,7.857,27.57H9.714v3.714h3.714V27.57h1.857a1.856,1.856,0,0,0,1.857-1.857V14.571a1.856,1.856,0,0,0-1.857-1.857M13.428,23.856H9.714V16.428h3.714Z" transform="translate(5.142 7.965)" fill="#132a4a"/>
      <path id="Path_79204" data-name="Path 79204" d="M23.285,9.714H21.428V6H17.714V9.714H15.857A1.856,1.856,0,0,0,14,11.571V22.713a1.856,1.856,0,0,0,1.857,1.857h1.857v3.714h3.714V24.57h1.857a1.856,1.856,0,0,0,1.857-1.857V11.571a1.856,1.856,0,0,0-1.857-1.857M21.428,20.856H17.714V13.428h3.714Z" transform="translate(11.998 5.394)" fill="#132a4a"/>
      <path id="Path_79205" data-name="Path 79205" d="M31.285,13.714H29.428V10H25.714v3.714H23.857A1.856,1.856,0,0,0,22,15.571V26.713a1.856,1.856,0,0,0,1.857,1.857h1.857v3.714h3.714V28.57h1.857a1.856,1.856,0,0,0,1.857-1.857V15.571a1.856,1.856,0,0,0-1.857-1.857M29.428,24.856H25.714V17.428h3.714Z" transform="translate(18.854 8.822)" fill="#132a4a"/>
      <path id="Path_79206" data-name="Path 79206" d="M39.285,10.714H37.428V7H33.714v3.714H31.857A1.856,1.856,0,0,0,30,12.571V23.713a1.856,1.856,0,0,0,1.857,1.857h1.857v3.714h3.714V25.57h1.857a1.856,1.856,0,0,0,1.857-1.857V12.571a1.856,1.856,0,0,0-1.857-1.857M37.428,21.856H33.714V14.428h3.714Z" transform="translate(25.71 6.251)" fill="#132a4a"/>
      <path id="Path_79207" data-name="Path 79207" d="M47.285,13.714H45.428V10H41.714v3.714H39.857A1.856,1.856,0,0,0,38,15.571V26.713a1.856,1.856,0,0,0,1.857,1.857h1.857v3.714h3.714V28.57h1.857a1.856,1.856,0,0,0,1.857-1.857V15.571a1.856,1.856,0,0,0-1.857-1.857M45.428,24.856H41.714V17.428h3.714Z" transform="translate(32.566 8.822)" fill="#132a4a"/>
      <path id="Path_79208" data-name="Path 79208" d="M55.285,10.714H53.428V7H49.714v3.714H47.857A1.856,1.856,0,0,0,46,12.571V23.713a1.856,1.856,0,0,0,1.857,1.857h1.857v3.714h3.714V25.57h1.857a1.856,1.856,0,0,0,1.857-1.857V12.571a1.856,1.856,0,0,0-1.857-1.857M53.428,21.856H49.714V14.428h3.714Z" transform="translate(39.422 6.251)" fill="#132a4a"/>
      <path id="Path_79209" data-name="Path 79209" d="M30.286,34.238A2.786,2.786,0,1,0,27.5,31.453a2.787,2.787,0,0,0,2.786,2.785" transform="translate(23.568 24.819)" fill="#132a4a"/>
      <path id="Path_79210" data-name="Path 79210" d="M9.285,65H40.854V76.137H26a1.856,1.856,0,0,0-1.857,1.857v7.428A1.856,1.856,0,0,0,26,87.279h55.71a1.857,1.857,0,0,0,1.857-1.857V77.994a1.857,1.857,0,0,0-1.857-1.857H66.852V65H98.421a9.3,9.3,0,0,0,9.285-9.285V9.285A9.3,9.3,0,0,0,98.421,0H9.285A9.3,9.3,0,0,0,0,9.285V55.71A9.3,9.3,0,0,0,9.285,65m70.566,18.57h-52V79.851h52ZM63.138,76.137H44.568V65h18.57ZM3.714,9.285A5.578,5.578,0,0,1,9.285,3.714H98.421a5.578,5.578,0,0,1,5.571,5.571v37.14H3.714ZM103.992,50.139V55.71a5.578,5.578,0,0,1-5.571,5.571H9.285A5.578,5.578,0,0,1,3.714,55.71V50.139Z" transform="translate(0 0.252)" fill="#132a4a"/>
    </g>
  </g>
</svg>
