<svg id="Group_148" data-name="Group 148" xmlns="http://www.w3.org/2000/svg" xmlns:xlink="http://www.w3.org/1999/xlink" width="96.38" height="95.179" viewBox="0 0 96.38 95.179">
  <defs>
    <clipPath id="clip-path">
      <rect id="Rectangle_196" data-name="Rectangle 196" width="96.381" height="95.179" fill="#132a4a"/>
    </clipPath>
  </defs>
  <g id="Group_124" data-name="Group 124" clip-path="url(#clip-path)">
    <path id="Path_79197" data-name="Path 79197" d="M13.373,39.538H18.3v8.205h3.282V39.538H26.5A1.642,1.642,0,0,0,28.142,37.9V19.846A1.642,1.642,0,0,0,26.5,18.205H21.578V10H18.3v8.205H13.373a1.642,1.642,0,0,0-1.641,1.641V37.9a1.642,1.642,0,0,0,1.641,1.641m1.641-18.051H24.86V36.256H15.014Z" transform="translate(7.52 6.41)" fill="#132a4a"/>
    <path id="Path_79198" data-name="Path 79198" d="M27.373,36.538H32.3v8.205h3.282V36.538H40.5A1.642,1.642,0,0,0,42.142,34.9V16.846A1.642,1.642,0,0,0,40.5,15.205H35.578V7H32.3v8.205H27.373a1.642,1.642,0,0,0-1.641,1.641V34.9a1.642,1.642,0,0,0,1.641,1.641m1.641-18.051H38.86V33.256H29.014Z" transform="translate(16.495 4.487)" fill="#132a4a"/>
    <path id="Path_79199" data-name="Path 79199" d="M47.373,40.41h1.641v3.282H52.3V40.41h1.641a1.642,1.642,0,0,0,1.641-1.641V28.923a1.642,1.642,0,0,0-1.641-1.641H52.3V24H49.014v3.282H47.373a1.642,1.642,0,0,0-1.641,1.641v9.846a1.642,1.642,0,0,0,1.641,1.641m1.641-9.846H52.3v6.564H49.014Z" transform="translate(29.315 15.385)" fill="#132a4a"/>
    <path id="Path_79200" data-name="Path 79200" d="M10.307,93.886,27.543,64.034a33.008,33.008,0,1,0-10.092-5.817L.22,88.062a1.64,1.64,0,0,0,.6,2.242L8.066,94.49a1.645,1.645,0,0,0,2.242-.6M9,33.014A29.731,29.731,0,1,1,38.728,62.746,29.764,29.764,0,0,1,9,33.014M20.08,60.229a32.788,32.788,0,0,0,4.413,2.526L8.286,90.824l-4.4-2.542Z" transform="translate(0)" fill="#132a4a"/>
    <path id="Path_79201" data-name="Path 79201" d="M54.373,35.41h1.641v3.282H59.3V35.41h1.641a1.642,1.642,0,0,0,1.641-1.641V23.923a1.642,1.642,0,0,0-1.641-1.641H59.3V19H56.014v3.282H54.373a1.642,1.642,0,0,0-1.641,1.641v9.846a1.642,1.642,0,0,0,1.641,1.641m1.641-9.846H59.3v6.564H56.014Z" transform="translate(33.802 12.179)" fill="#132a4a"/>
    <rect id="Rectangle_195" data-name="Rectangle 195" width="59.077" height="3.282" transform="translate(29.099 91.897)" fill="#132a4a"/>
    <path id="Path_79202" data-name="Path 79202" d="M76.809,44c-9.191,0-10.754,11.487-19.692,11.487S46.612,44,37.424,44C28.3,44,27,52.205,17.732,52.205v3.282c10.33,0,12.457-8.205,19.692-8.205,7.061,0,9.1,11.487,19.692,11.487S69.739,47.282,76.809,47.282Z" transform="translate(11.367 28.205)" fill="#132a4a"/>
  </g>
</svg>
