<svg xmlns="http://www.w3.org/2000/svg" xmlns:xlink="http://www.w3.org/1999/xlink" width="73" height="103" viewBox="0 0 73 103">
  <defs>
    <clipPath id="clip-path">
      <rect id="Rectangle_199" data-name="Rectangle 199" width="73" height="103" transform="translate(-0.229 -0.12)" fill="#132a4a"/>
    </clipPath>
  </defs>
  <g id="Group_150" data-name="Group 150" transform="translate(0.229 0.12)">
    <g id="Group_100" data-name="Group 100" transform="translate(0 0)">
      <g id="Group_133" data-name="Group 133" transform="translate(0 0)" clip-path="url(#clip-path)">
        <path id="Path_79221" data-name="Path 79221" d="M20.271,4.271a2.634,2.634,0,1,0,3.725,0,2.633,2.633,0,0,0-3.725,0" transform="translate(14.46 3.121)" fill="#132a4a"/>
        <path id="Path_79222" data-name="Path 79222" d="M8.78,101.85H64.973a8.79,8.79,0,0,0,8.78-8.78V15.8a8.79,8.79,0,0,0-8.78-8.78H45.479a8.78,8.78,0,0,0-17.206,0H8.78A8.79,8.79,0,0,0,0,15.8V93.07a8.79,8.79,0,0,0,8.78,8.78M54.437,21.072V17.56h7.024V87.8H12.292V17.56h7.024v3.512a1.757,1.757,0,0,0,1.756,1.756H52.681a1.757,1.757,0,0,0,1.756-1.756M22.828,10.536h7.024A1.757,1.757,0,0,0,31.609,8.78a5.268,5.268,0,1,1,10.536,0A1.757,1.757,0,0,0,43.9,10.536h7.024v8.78h-28.1ZM3.512,15.8A5.275,5.275,0,0,1,8.78,10.536H19.316v3.512h-8.78A1.757,1.757,0,0,0,8.78,15.8V89.558a1.757,1.757,0,0,0,1.756,1.756H63.217a1.757,1.757,0,0,0,1.756-1.756V15.8a1.757,1.757,0,0,0-1.756-1.756h-8.78V10.536H64.973A5.275,5.275,0,0,1,70.241,15.8V93.07a5.275,5.275,0,0,1-5.268,5.268H8.78A5.275,5.275,0,0,1,3.512,93.07Z" transform="translate(-0.283 0.476)" fill="#132a4a"/>
        <path id="Path_79223" data-name="Path 79223" d="M22.738,41.909A3.516,3.516,0,0,1,19.226,38.4H15.714a7.032,7.032,0,0,0,7.024,7.024h.5v4.265h3.512V45.421h.5a7.024,7.024,0,1,0,0-14.048h-.5V24.348h.5a3.516,3.516,0,0,1,3.512,3.512h3.512a7.032,7.032,0,0,0-7.024-7.024h-.5V16.571H23.24v4.265h-.5a7.024,7.024,0,1,0,0,14.048h.5v7.024Zm0-10.536a3.512,3.512,0,0,1,0-7.024h.5v7.024Zm4.014,3.512h.5a3.512,3.512,0,0,1,0,7.024h-.5Z" transform="translate(11.598 13.004)" fill="#132a4a"/>
        <path id="Path_79224" data-name="Path 79224" d="M37.165,39.936l2.469,2.527-6.366,6.366L23.93,42.6a1.754,1.754,0,0,0-1.947,0L11.446,49.627l1.947,2.922,9.562-6.376,9.563,6.376a1.757,1.757,0,0,0,2.214-.22l7.354-7.356,2.441,2.5a1.759,1.759,0,0,0,3.012-1.208l.088-7.449a1.757,1.757,0,0,0-1.737-1.775l-7.449-.088a1.755,1.755,0,0,0-1.277,2.983" transform="translate(8.371 28.409)" fill="#132a4a"/>
      </g>
    </g>
  </g>
</svg>
