<svg xmlns="http://www.w3.org/2000/svg" width="88.963" height="88.963" viewBox="0 0 88.963 88.963">
  <g id="Group_153" data-name="Group 153" transform="translate(0.6 0.6)">
    <g id="Group_130" data-name="Group 130" transform="translate(0 0)">
      <path id="Path_79211" data-name="Path 79211" d="M50.121,65.733a2.66,2.66,0,0,0,0-3.836L24.308,38.665A2.583,2.583,0,0,0,20,40.583V87.046a2.583,2.583,0,0,0,4.308,1.918ZM25.163,46.378,44.535,63.815,25.163,81.251Z" transform="translate(13.892 -19.933)" fill="#132a4a" stroke="#fff" stroke-width="1.2"/>
      <path id="Path_79214" data-name="Path 79214" d="M87.763,43.881A43.881,43.881,0,1,0,43.881,87.763,43.93,43.93,0,0,0,87.763,43.881m-82.6,0A38.719,38.719,0,1,1,43.881,82.6,38.763,38.763,0,0,1,5.163,43.881" fill="#132a4a" stroke="#fff" stroke-width="1.2"/>
    </g>
  </g>
</svg>
