<?xml version="1.0" encoding="UTF-8"?>
<!DOCTYPE svg PUBLIC "-//W3C//DTD SVG 1.1//EN" "http://www.w3.org/Graphics/SVG/1.1/DTD/svg11.dtd">
<!-- Creator: CorelDRAW X7 -->
<svg xmlns="http://www.w3.org/2000/svg" xml:space="preserve" width="4.99241in" height="3.26545in" version="1.1" style="shape-rendering:geometricPrecision; text-rendering:geometricPrecision; image-rendering:optimizeQuality; fill-rule:evenodd; clip-rule:evenodd"
viewBox="0 0 353459 231192"
 xmlns:xlink="http://www.w3.org/1999/xlink"
 data-name="Capa 1">
 <defs>
  <style type="text/css">
   <![CDATA[
    .str0 {stroke:black;stroke-width:1361.35}
    .fil2 {fill:black}
    .fil1 {fill:#F29B4A}
    .fil3 {fill:#F29C4A}
    .fil0 {fill:white}
    .fil4 {fill:black;fill-rule:nonzero}
   ]]>
  </style>
 </defs>
 <g id="Layer_x0020_1">
  <metadata id="CorelCorpID_0Corel-Layer"/>
  <path class="fil0 str0" d="M332355 230511l-311251 0c-11437,0 -20423,-9258 -20423,-20696l0 -188711c0,-11437 9258,-20423 20423,-20423l307711 0c13343,0 23963,10892 23963,23963l0 185716c1,10893 -8986,20151 -20423,20151z"/>
  <g id="_2046793952336">
   <g>
    <rect class="fil1" x="30090" y="174960" width="293006" height="2723"/>
   </g>
  </g>
  <g id="_2046793953008">
   <g>
    <path class="fil2" d="M176739 109713c410,-414 641,-974 641,-1558 0,-583 -231,-1144 -641,-1558 -413,413 -645,974 -645,1558 0,584 232,1145 645,1558l0 0z"/>
   </g>
   <g>
    <path class="fil2" d="M216729 162660l-79975 0 0 -2099 79975 0 0 2099zm-73450 -12834l66925 0 0 6405 -66925 0 0 -6405zm19934 -28077l6788 0 0 23748 -6788 0 0 -23748zm-4330 23568l-4798 0 0 -23364 4798 0 0 23364zm-12401 -28042l-924 0c-474,-478 -741,-1125 -741,-1799 0,-673 267,-1321 741,-1799l0 0 29385 -19549c664,44 1297,306 1799,743l32910 18039 0 0c474,478 741,1125 741,1799 0,1410 -1142,2553 -2552,2554l-61359 0 0 12zm52952 28042l-4798 0 0 -23364 4798 0 0 23364zm-25091 -23364l4797 0 0 23364 -4797 0 0 -23364zm9151 -192l6789 0 0 23748 -6801 0 12 -23748zm33402 34470l-2398 0 0 -7196c0,0 0,0 0,0 0,-1929 -1561,-3496 -3490,-3503l-7257 1 0 -23784 4102 0c3878,-4 7020,-3151 7020,-7028 0,-1861 -740,-3649 -2055,-4966l1 0 -31112 -18782c-1412,-1164 -3143,-1880 -4965,-2050 -1871,0 -3263,1199 -4966,2051l-31087 18769 0 0c-1319,1318 -2061,3108 -2061,4972 0,3764 2967,6860 6726,7022l4414 0 0 23748 -7328 0c-1925,6 -3484,1565 -3491,3490l0 7196 -2398 0c0,0 0,0 0,0 -2292,0 -4150,1858 -4150,4150 0,3 0,8 0,12l0 2399c0,2291 1858,4149 4150,4149l80357 0c2292,0 4150,-1858 4150,-4149l0 -2399c0,0 0,0 0,0 0,-2294 -1856,-4155 -4149,-4162l-13 60zm0 0l0 0 0 0z"/>
   </g>
  </g>
  <g>
   <g>
    <path class="fil3" d="M222076 203993c303,-2035 3341,-3515 4758,-4440 -810,0 -1620,0 -2430,0 -1316,0 -3442,2035 -4050,3238 -1417,2497 -607,5273 1924,6105 2025,740 6075,185 5771,-3330 -101,-2405 -2632,-3053 -4455,-2498 -506,93 -1113,647 -1518,925zm-102 833c0,1110 0,2312 810,2775 1013,463 2531,185 2835,-648 405,-832 203,-2312 -607,-2590 -810,-370 -2633,-185 -3038,463z"/>
    <path class="fil3" d="M233111 204641l1417 462c709,-370 911,-1017 2531,-740 912,278 1114,1110 912,2220 -507,2035 -4151,740 -4961,555l-405 1296c1417,555 2632,925 4454,647 4556,-555 4354,-6291 -405,-6013 -1113,93 -1316,463 -1923,740 101,-462 303,-740 303,-1202 0,-463 0,-1018 102,-1388l4454 -93 102 -1480 -6277 -92 -304 5088z"/>
    <path class="fil3" d="M207497 200015c0,370 101,925 303,1203 1114,-93 3645,-740 4253,185 303,647 101,1572 -304,1850 -608,278 -1620,93 -2227,278l0 1202c810,185 1822,-92 2429,370 507,278 608,1388 304,2035 -810,1203 -4252,185 -4657,93l-405 1203c1417,1017 5265,1017 6581,0 709,-556 1316,-1388 911,-2683 -304,-1203 -1012,-1295 -2227,-1758 1012,-370 1721,-555 1923,-1573 810,-3607 -5062,-3422 -6884,-2405z"/>
    <path class="fil3" d="M245969 206769c-1519,462 -810,2775 1012,2312 1620,-463 911,-3053 -1012,-2312z"/>
   </g>
   <g>
    <path class="fil2" d="M105579 201110l2936 0 0 7864 2329 0 0 -7864 6378 0 0 7771 2329 93 0 -3608 1822 0c304,555 1823,3423 2227,3608l2329 0c-203,-555 -1013,-1666 -1316,-2221 -911,-1480 -506,-832 -2025,-1572 1316,-185 1822,-278 2531,-1018 506,-647 607,-1758 304,-2683 -507,-1942 -2835,-1942 -5164,-1942 -4859,0 -9820,0 -14680,0l0 1572zm13972 2961c607,92 2024,92 2632,0 810,-185 1013,-555 1013,-1480 0,-926 -102,-1388 -1013,-1481 -608,-92 -2025,-92 -2632,0l0 2961z"/>
    <path class="fil2" d="M191230 208511l-405 -1388c-1417,370 -3645,1111 -4556,-184 -709,-1018 -810,-3423 -202,-4626 607,-1573 2632,-1203 4555,-1203 1215,0 4860,-92 5771,93l102 7771 2227 0 0 -7864 2936 0 0 -1572c-3139,0 -6176,0 -9314,0 -2936,92 -6277,-370 -7897,1387 -1924,2128 -1924,7679 2733,8141 1924,185 2531,-92 4050,-555z"/>
    <path class="fil2" d="M144456 208974l1924 0c101,-1203 0,-2683 0,-3886 0,-1387 -304,-2405 -304,-3608 405,556 608,1388 911,2036 506,925 3139,4348 3746,5458l2329 0 0 -9436 -1924 0c-202,1017 0,2867 0,3978 0,1202 405,2682 405,3607 -1113,-2497 -810,-1757 -2227,-3885 -709,-1295 -1620,-2498 -2430,-3700l-2430 0 0 9436z"/>
    <path class="fil2" d="M158934 207123l-405 1388c1721,555 3746,1018 5771,278 2126,-741 1923,-3331 1215,-4256 -1317,-1573 -4354,-1110 -4860,-1850 -304,-555 -304,-1573 1316,-1665 1417,-93 1924,92 3139,277l303 -1387c-2227,-740 -6682,-1111 -6884,2128 -101,2220 1316,2775 3341,3145 1012,185 2126,185 2025,1295 0,2220 -4253,832 -4961,647z"/>
    <path class="fil2" d="M130080 208974l2025 0 607 -1666 4151 0c202,648 405,1203 506,1666l2531 0c-506,-1666 -2328,-6106 -3240,-8326 -405,-1295 102,-1110 -2530,-1110 -405,0 -810,1572 -1114,2220 -304,833 -709,1665 -1013,2405 -607,1573 -1316,3238 -1923,4811zm3138 -2868l3139 0c0,-463 -608,-1850 -810,-2405 -304,-925 -405,-1665 -709,-2591 -202,648 -405,1758 -708,2591 -203,462 -810,1942 -912,2405z"/>
    <path class="fil2" d="M169919 208974l2024 0 608 -1666 4151 0c202,648 405,1203 506,1666l2531 0c-506,-1666 -2329,-6106 -3240,-8326 -405,-1295 101,-1110 -2531,-1110 -405,0 -810,1572 -1113,2220 -304,833 -709,1665 -1013,2405 -607,1573 -1316,3238 -1923,4811zm3138 -2868l3138 0c0,-463 -607,-1850 -810,-2405 -303,-925 -405,-1665 -708,-2591 -203,648 -405,1758 -709,2591 -202,462 -810,1942 -911,2405z"/>
   </g>
  </g>
  <g>
   <path class="fil4" d="M91173 44299c957,0 1769,-84 2435,-250 666,-167 1238,-396 1717,-687l873 3121c-499,292 -1207,552 -2122,781 -916,229 -2029,343 -3340,343 -1477,0 -2840,-234 -4089,-702 -1249,-468 -2325,-1145 -3230,-2029 -906,-884 -1608,-1956 -2107,-3215 -500,-1259 -750,-2679 -750,-4261 0,-1540 245,-2934 734,-4182 489,-1249 1176,-2315 2060,-3200 884,-884 1961,-1566 3231,-2044 1269,-479 2684,-718 4245,-718 1331,0 2429,125 3293,374 863,250 1566,521 2107,812l-968 3153c-541,-292 -1139,-536 -1795,-734 -655,-198 -1389,-296 -2200,-296 -854,0 -1655,125 -2404,374 -749,250 -1404,650 -1966,1202 -562,551 -1004,1259 -1327,2122 -322,864 -483,1910 -483,3137 0,1186 156,2211 468,3075 312,863 743,1576 1295,2138 551,562 1196,983 1935,1264 739,281 1535,422 2388,422z"/>
   <path id="1" class="fil4" d="M103502 47264l-4151 0 0 -22287 4151 0 0 8740c604,-478 1296,-874 2076,-1186 781,-312 1629,-468 2544,-468 874,0 1639,130 2295,390 655,260 1196,624 1623,1092 426,469 743,1030 951,1686 209,656 313,1368 313,2138l0 9895 -4152 0 0 -9177c0,-1020 -208,-1748 -624,-2185 -416,-437 -1020,-655 -1810,-655 -541,0 -1098,130 -1670,390 -572,260 -1088,608 -1546,1045l0 10582z"/>
   <path id="2" class="fil4" d="M126725 32375l4152 0 0 14889 -3090 0 -437 -1686 -125 0c-229,229 -494,463 -796,703 -302,239 -655,457 -1061,655 -406,198 -864,359 -1374,484 -509,125 -1076,187 -1701,187 -1602,0 -2866,-447 -3792,-1342 -926,-895 -1389,-2216 -1389,-3964l0 -9926 4151 0 0 9583c0,894 214,1540 640,1935 427,395 973,593 1639,593 749,0 1389,-156 1919,-468 531,-313 953,-677 1264,-1093l0 -10550z"/>
   <path id="3" class="fil4" d="M132968 32375l4526 0 2653 7085 999 3621 125 0 968 -3652 2309 -7054 4246 0 -5463 15420c-312,853 -660,1669 -1045,2450 -386,780 -854,1503 -1405,2169 -552,666 -1202,1259 -1951,1779 -749,520 -1633,947 -2653,1280l-1717 -3215c1166,-416 2143,-1020 2934,-1810 791,-791 1332,-1738 1623,-2841l125 -406 -6274 -14826z"/>
   <path id="4" class="fil4" d="M163807 40896l-9894 0 0 125c0,1186 416,2071 1248,2653 832,583 1904,874 3215,874 833,0 1566,-83 2201,-249 634,-167 1212,-365 1732,-594l749 2903c-562,271 -1269,505 -2122,703 -853,197 -1863,296 -3028,296 -1124,0 -2180,-151 -3168,-452 -989,-302 -1852,-765 -2591,-1389 -739,-625 -1326,-1416 -1763,-2373 -438,-957 -656,-2101 -656,-3433 0,-1186 177,-2263 531,-3231 353,-967 858,-1795 1513,-2481 656,-687 1442,-1223 2357,-1608 916,-385 1935,-577 3059,-577 2019,0 3626,614 4822,1841 1197,1228 1795,2945 1795,5151l0 1841zm-4245 -2840c0,-396 -46,-780 -140,-1155 -94,-375 -245,-702 -453,-983 -208,-281 -468,-505 -780,-671 -312,-167 -697,-250 -1155,-250 -832,0 -1519,281 -2060,843 -541,561 -864,1321 -968,2278l5556 -62z"/>
   <path id="5" class="fil4" d="M170893 47264l-4151 0 0 -14889 3246 0 499 1904c687,-708 1441,-1254 2263,-1639 822,-385 1732,-577 2731,-577 1644,0 2903,447 3777,1342 874,895 1311,2195 1311,3902l0 9957 -4151 0 0 -9520c0,-770 -188,-1379 -562,-1826 -375,-448 -926,-671 -1654,-671 -541,0 -1109,150 -1701,452 -594,302 -1129,713 -1608,1233l0 10332z"/>
   <polygon id="6" class="fil4" points="195708,42270 195708,47264 191588,47264 191588,24977 195708,24977 195708,38212 200702,32375 205727,32375 199984,38649 206008,47264 201108,47264 196925,41052 "/>
   <path id="7" class="fil4" d="M212219 47264l-4151 0 0 -22287 4151 0 0 8740c604,-478 1296,-874 2076,-1186 781,-312 1629,-468 2544,-468 874,0 1639,130 2295,390 655,260 1196,624 1623,1092 426,469 743,1030 952,1686 208,656 312,1368 312,2138l0 9895 -4152 0 0 -9177c0,-1020 -208,-1748 -624,-2185 -416,-437 -1019,-655 -1810,-655 -541,0 -1098,130 -1670,390 -572,260 -1088,608 -1546,1045l0 10582z"/>
   <path id="8" class="fil4" d="M240312 39710c0,1228 -198,2331 -593,3309 -396,978 -942,1805 -1639,2481 -697,676 -1514,1197 -2450,1561 -936,364 -1946,546 -3028,546 -1082,0 -2086,-166 -3012,-499 -926,-333 -1727,-822 -2403,-1467 -677,-645 -1207,-1441 -1592,-2388 -385,-947 -578,-2024 -578,-3231 0,-1269 198,-2398 593,-3386 396,-989 942,-1821 1639,-2497 697,-677 1514,-1192 2450,-1546 937,-353 1946,-530 3028,-530 1082,0 2086,166 3012,499 926,333 1727,817 2404,1452 676,634 1207,1430 1591,2387 385,958 578,2061 578,3309zm-4276 156c0,-853 -94,-1581 -281,-2185 -188,-603 -437,-1092 -749,-1467 -312,-374 -677,-650 -1093,-827 -416,-177 -843,-265 -1280,-265 -437,0 -853,78 -1248,234 -396,156 -749,416 -1062,780 -311,364 -561,848 -748,1452 -188,603 -281,1362 -281,2278 0,812 93,1514 281,2107 187,593 442,1077 764,1451 323,375 687,656 1093,843 405,188 827,281 1264,281 437,0 853,-78 1248,-234 396,-156 750,-421 1062,-796 312,-374 561,-858 749,-1451 187,-593 281,-1327 281,-2201z"/>
   <path id="9" class="fil4" d="M243527 33686c895,-520 1842,-921 2840,-1202 999,-281 2060,-421 3184,-421 895,0 1712,104 2450,312 739,208 1374,536 1905,983 530,448 936,1020 1217,1717 281,697 421,1535 421,2513l0 9676 -3215 0 -374 -1530 -125 0c-479,583 -1088,1041 -1826,1374 -739,333 -1597,499 -2575,499 -812,0 -1530,-119 -2154,-359 -624,-239 -1155,-562 -1592,-967 -437,-406 -765,-890 -983,-1452 -219,-562 -328,-1165 -328,-1810 0,-853 182,-1587 546,-2201 365,-614 869,-1118 1514,-1514 645,-395 1400,-686 2263,-874 864,-187 1795,-281 2794,-281l1872 0 0 -905c0,-686 -213,-1191 -639,-1513 -427,-323 -1025,-484 -1795,-484 -603,0 -1223,93 -1857,281 -635,187 -1337,488 -2107,905l-1436 -2747zm7866 7054l-1342 31c-1270,42 -2154,255 -2653,640 -500,385 -750,848 -750,1389 0,708 214,1192 640,1452 427,260 911,390 1452,390 541,0 1056,-156 1545,-468 489,-312 858,-676 1108,-1093l0 -2341zm3183 -10581l-3090 0 -1935 -2404 -1966 2404 -3184 0 3933 -4433 2403 0 3839 4433z"/>
   <path id="10" class="fil4" d="M263223 47264l-4152 0 0 -14889 3247 0 499 1904c687,-708 1441,-1254 2263,-1639 822,-385 1732,-577 2731,-577 1644,0 2903,447 3777,1342 874,895 1311,2195 1311,3902l0 9957 -4152 0 0 -9520c0,-770 -187,-1379 -561,-1826 -375,-448 -926,-671 -1655,-671 -541,0 -1108,150 -1701,452 -593,302 -1129,713 -1607,1233l0 10332z"/>
   <path id="11" class="fil4" d="M111072 81118l-4151 0 0 -14888 3246 0 499 1903c687,-707 1441,-1253 2263,-1638 822,-385 1732,-578 2731,-578 1644,0 2903,448 3777,1343 874,894 1311,2195 1311,3901l0 9957 -4151 0 0 -9520c0,-770 -188,-1378 -562,-1826 -375,-447 -926,-671 -1654,-671 -541,0 -1109,151 -1701,453 -594,301 -1129,713 -1608,1233l0 10331z"/>
   <path id="12" class="fil4" d="M124213 71286c0,-811 161,-1550 484,-2216 322,-666 770,-1233 1342,-1701 572,-468 1248,-827 2029,-1077 780,-250 1639,-375 2575,-375 354,0 739,26 1155,79 416,51 801,129 1155,234l6367 0 0 2621 -1342 0 -1935 -280c270,333 494,749 671,1248 177,499 265,999 265,1498 0,1582 -567,2856 -1701,3824 -1134,968 -2689,1452 -4666,1452 -521,0 -978,-42 -1374,-125 -520,208 -780,551 -780,1030 0,333 114,582 343,749 229,166 635,250 1218,250l3340 0c1643,0 2959,358 3948,1076 989,718 1483,1868 1483,3449 0,812 -193,1556 -578,2232 -385,677 -931,1259 -1638,1748 -708,489 -1561,869 -2560,1139 -999,271 -2112,406 -3340,406 -2268,0 -4063,-400 -5384,-1202 -1322,-801 -1982,-1950 -1982,-3449 0,-686 229,-1285 686,-1794 458,-510 1093,-911 1904,-1202 -291,-208 -582,-505 -873,-890 -292,-384 -437,-868 -437,-1451 0,-687 207,-1280 624,-1779 416,-500 946,-895 1592,-1186 -312,-167 -619,-380 -921,-640 -302,-260 -578,-567 -827,-921 -250,-354 -453,-760 -609,-1217 -156,-458 -234,-968 -234,-1530zm3995 10332c-312,166 -572,385 -780,655 -208,271 -312,614 -312,1030 0,604 276,1108 827,1514 551,406 1503,609 2856,609 1353,0 2341,-229 2965,-687 624,-457 937,-978 937,-1560 0,-583 -198,-989 -593,-1218 -396,-229 -1010,-343 -1842,-343l-4058 0zm4713 -10363c0,-812 -218,-1425 -655,-1842 -437,-416 -988,-624 -1654,-624 -687,0 -1244,208 -1670,624 -427,417 -640,1020 -640,1811 0,832 219,1456 655,1873 437,416 989,624 1655,624 686,0 1243,-208 1670,-624 426,-417 639,-1031 639,-1842z"/>
   <path id="13" class="fil4" d="M141849 67541c894,-521 1841,-921 2840,-1202 999,-281 2060,-422 3184,-422 894,0 1711,104 2450,313 739,208 1373,535 1904,983 531,447 936,1019 1217,1717 281,697 422,1534 422,2512l0 9676 -3215 0 -375 -1529 -125 0c-478,583 -1087,1041 -1826,1373 -738,333 -1597,500 -2575,500 -811,0 -1529,-120 -2153,-359 -625,-240 -1156,-562 -1592,-968 -437,-406 -765,-889 -984,-1451 -218,-562 -327,-1165 -327,-1811 0,-853 182,-1586 546,-2200 364,-614 869,-1119 1514,-1514 645,-395 1399,-687 2263,-874 863,-187 1795,-281 2793,-281l1873 0 0 -905c0,-687 -213,-1191 -640,-1514 -426,-322 -1025,-484 -1794,-484 -604,0 -1223,94 -1858,281 -634,188 -1337,489 -2107,905l-1435 -2746zm7865 7054l-1342 31c-1269,42 -2154,255 -2653,640 -499,385 -749,848 -749,1389 0,707 213,1191 640,1451 426,260 910,391 1451,391 541,0 1056,-156 1545,-469 489,-312 859,-676 1108,-1092l0 -2341zm3184 -10582l-3090 0 -1935 -2403 -1967 2403 -3184 0 3933 -4432 2404 0 3839 4432z"/>
   <path id="14" class="fil4" d="M161544 81118l-4151 0 0 -14888 3246 0 500 1903c686,-707 1441,-1253 2262,-1638 822,-385 1733,-578 2732,-578 1644,0 2903,448 3777,1343 874,894 1311,2195 1311,3901l0 9957 -4152 0 0 -9520c0,-770 -187,-1378 -562,-1826 -374,-447 -926,-671 -1654,-671 -541,0 -1108,151 -1701,453 -593,301 -1129,713 -1608,1233l0 10331z"/>
   <path id="15" class="fil4" d="M186390 81118l-4151 0 0 -22286 4151 0 0 8740c604,-479 1296,-874 2076,-1187 781,-311 1628,-468 2544,-468 874,0 1639,130 2294,391 656,260 1197,624 1623,1092 427,468 744,1030 952,1686 209,655 313,1368 313,2138l0 9894 -4152 0 0 -9176c0,-1020 -208,-1748 -624,-2185 -417,-437 -1020,-656 -1810,-656 -542,0 -1098,130 -1670,390 -573,261 -1088,609 -1546,1046l0 10581z"/>
   <path id="16" class="fil4" d="M200249 67541c895,-521 1842,-921 2841,-1202 999,-281 2060,-422 3183,-422 895,0 1712,104 2451,313 738,208 1373,535 1904,983 530,447 936,1019 1217,1717 281,697 422,1534 422,2512l0 9676 -3215 0 -375 -1529 -125 0c-478,583 -1087,1041 -1826,1373 -739,333 -1597,500 -2575,500 -812,0 -1530,-120 -2154,-359 -624,-240 -1155,-562 -1592,-968 -437,-406 -764,-889 -983,-1451 -218,-562 -328,-1165 -328,-1811 0,-853 183,-1586 547,-2200 364,-614 868,-1119 1513,-1514 646,-395 1400,-687 2264,-874 863,-187 1794,-281 2793,-281l1873 0 0 -905c0,-687 -213,-1191 -640,-1514 -427,-322 -1025,-484 -1795,-484 -603,0 -1222,94 -1857,281 -635,188 -1337,489 -2107,905l-1436 -2746zm7866 7054l-1342 31c-1269,42 -2154,255 -2653,640 -500,385 -749,848 -749,1389 0,707 213,1191 640,1451 426,260 910,391 1451,391 541,0 1056,-156 1545,-469 489,-312 858,-676 1108,-1092l0 -2341zm-5774 -15232l4151 0 2185 4650 -2934 0 -3402 -4650z"/>
   <path id="17" class="fil4" d="M219945 81118l-4151 0 0 -14888 3246 0 499 1903c687,-707 1441,-1253 2263,-1638 822,-385 1733,-578 2732,-578 1644,0 2902,448 3776,1343 874,894 1311,2195 1311,3901l0 9957 -4151 0 0 -9520c0,-770 -187,-1378 -562,-1826 -374,-447 -926,-671 -1654,-671 -541,0 -1108,151 -1701,453 -593,301 -1129,713 -1608,1233l0 10331z"/>
   <path id="18" class="fil4" d="M233086 71286c0,-811 161,-1550 484,-2216 322,-666 770,-1233 1342,-1701 572,-468 1249,-827 2029,-1077 780,-250 1639,-375 2575,-375 354,0 739,26 1155,79 416,51 801,129 1155,234l6367 0 0 2621 -1342 0 -1935 -280c271,333 494,749 671,1248 177,499 266,999 266,1498 0,1582 -568,2856 -1702,3824 -1134,968 -2689,1452 -4666,1452 -520,0 -978,-42 -1374,-125 -520,208 -780,551 -780,1030 0,333 115,582 343,749 229,166 635,250 1218,250l3340 0c1643,0 2960,358 3948,1076 989,718 1483,1868 1483,3449 0,812 -193,1556 -578,2232 -385,677 -931,1259 -1638,1748 -708,489 -1561,869 -2560,1139 -999,271 -2112,406 -3340,406 -2268,0 -4063,-400 -5384,-1202 -1321,-801 -1982,-1950 -1982,-3449 0,-686 229,-1285 687,-1794 457,-510 1092,-911 1904,-1202 -292,-208 -583,-505 -874,-890 -292,-384 -437,-868 -437,-1451 0,-687 208,-1280 624,-1779 416,-500 947,-895 1592,-1186 -312,-167 -619,-380 -921,-640 -302,-260 -578,-567 -827,-921 -250,-354 -453,-760 -609,-1217 -156,-458 -234,-968 -234,-1530zm3995 10332c-312,166 -572,385 -780,655 -208,271 -312,614 -312,1030 0,604 276,1108 827,1514 551,406 1504,609 2856,609 1353,0 2341,-229 2966,-687 624,-457 936,-978 936,-1560 0,-583 -198,-989 -593,-1218 -396,-229 -1009,-343 -1842,-343l-4058 0zm4714 -10363c0,-812 -219,-1425 -656,-1842 -437,-416 -988,-624 -1654,-624 -687,0 -1243,208 -1670,624 -427,417 -640,1020 -640,1811 0,832 219,1456 655,1873 437,416 989,624 1655,624 687,0 1243,-208 1670,-624 426,-417 640,-1031 640,-1842z"/>
   <polygon class="fil4" points="162451,30705 159361,30705 157426,28301 155460,30705 152276,30705 156209,26272 158612,26272 "/>
  </g>
 </g>
</svg>
