<svg version="1.1" id="Layer_4" xmlns="http://www.w3.org/2000/svg" xmlns:xlink="http://www.w3.org/1999/xlink" x="0px" y="0px" viewBox="0 0 572.9 105.7" style="enable-background:new 0 0 572.9 105.7;" xml:space="preserve" width="100%" height="100%" preserveAspectRatio="none"><style type="text/css"> .st0{fill:#FFFFFF;} .st1{fill:#43B9EA;} .st2{fill:none;stroke:#FFFFFF;stroke-width:2;} .st3{fill:url(#XMLID_2_);} .st4{fill:url(#XMLID_3_);} .st5{enable-background:new ;} </style><g id="XMLID_63_"><g id="XMLID_202_"><path id="XMLID_219_" class="st0" d="M36.7,19.6c-1.2-0.2-2.5-0.3-3.9-0.3c-2.8,0-4.9,0.6-6.3,1.7c-1.5,1.1-2.4,2.9-2.8,5.3 L23,29.7h10.3l-1.6,9H21.4l-5.3,30.2H4.7L10,38.7H3.6l1.6-9h6.4l0.5-2.8c0.6-3.5,1.8-6.5,3.6-8.9c1.8-2.5,4.1-4.4,7-5.7 s6.2-2,10-2c2,0,3.8,0.1,5.7,0.4L36.7,19.6z"/><path id="XMLID_216_" class="st0" d="M61.2,49.4c-0.7,4-2,7-4,8.8c-1.9,1.8-4.6,2.7-7.9,2.7c-1.6,0-3.1-0.1-4.4-0.4l3.4-19.4 c0.9-0.9,2-1.5,3.2-2c1.2-0.4,2.5-0.7,3.7-0.7c2.6,0,4.4,0.8,5.4,2.5C61.7,42.5,61.9,45.4,61.2,49.4 M72.7,37.5 c-0.9-2.9-2.5-5-4.6-6.4c-2.2-1.3-4.8-2-7.8-2c-2.2,0-4.3,0.4-6.3,1.3c-1.9,0.8-3.6,2-5,3.5h-0.5v-4.2h-9.6l-9.7,55h11.5l2.7-15.3 c1.7,0.2,3.2,0.3,4.5,0.3c7,0,12.6-1.8,16.8-5.4c4.3-3.6,7-8.8,8.2-15.7C73.7,44.1,73.6,40.4,72.7,37.5"/><path id="XMLID_215_" class="st0" d="M136.7,44.5l-4.3,24.4H121l4.2-23.8c0.4-2.2,0.2-3.8-0.5-4.8s-1.9-1.4-3.5-1.4 c-1.1,0-2.3,0.2-3.4,0.7c-1.2,0.4-2.2,1.1-3.1,2c-0.1,0.8-0.2,1.6-0.3,2.5L110,68.8H98.7l4.2-23.8c0.4-2.2,0.3-3.8-0.4-4.8 c-0.7-0.9-1.8-1.4-3.4-1.4c-1.2,0-2.5,0.3-3.7,0.8c-1.3,0.5-2.3,1.4-3.3,2.4l-4.7,26.7H75.9l6.9-39.2h9.4l0.1,4h0.5 c3.3-3.1,7.3-4.6,11.8-4.6c2.2,0,4,0.4,5.6,1.2c1.6,0.8,2.7,2.1,3.5,3.9c1.9-1.7,4-3,6.2-3.9c2.2-0.8,4.3-1.2,6.5-1.2 c4,0,7,1.2,8.9,3.7C137.2,35.3,137.7,39.2,136.7,44.5"/><path id="XMLID_212_" class="st0" d="M162.6,59.2c-1,0.9-2.1,1.5-3.2,1.9c-1.1,0.4-2.3,0.6-3.4,0.6c-1.7,0-2.9-0.4-3.7-1.1 c-0.7-0.8-1-1.9-0.7-3.3c0.3-1.5,1-2.6,2.1-3.5c1.1-0.8,2.8-1.3,5-1.5l5.3-0.4L162.6,59.2z M176.1,35.8c-0.8-2.4-2.5-4.1-4.9-5.2 s-5.8-1.6-10.1-1.6c-2.1,0-4.2,0.1-6.6,0.4c-2.3,0.3-4.5,0.7-6.4,1.2l-1.5,8.6c1.8-0.5,3.7-0.9,5.6-1.2c1.9-0.3,3.7-0.4,5.3-0.4 c2.2,0,3.9,0.2,5.1,0.7c1.2,0.4,2,1.2,2.4,2.2s0.4,2.5,0.1,4.3l-0.1,0.5l-6.5,0.5c-5.7,0.4-10,1.6-13,3.6c-3,2.1-4.8,5-5.5,8.7 c-0.4,2.3-0.2,4.3,0.5,6s1.9,3,3.7,4c1.7,0.9,3.9,1.4,6.6,1.4c2.2,0,4.3-0.4,6.2-1.1c1.9-0.8,3.6-1.9,5-3.5h0.5l0.1,3.9h9.5 l4.1-23.3C177,41.5,176.9,38.2,176.1,35.8"/><path id="XMLID_211_" class="st0" d="M208.9,39.8c-1-0.2-2.3-0.3-3.8-0.3c-1.7,0-3.5,0.3-5.3,1s-3.2,1.6-4.4,2.8L190.9,69h-11.5 l6.9-39.2h9.4v5.1h0.5c1.4-1.9,3.1-3.3,5-4.2c2-0.9,4.1-1.4,6.3-1.4c1.1,0,2.2,0.1,3.1,0.3L208.9,39.8z"/><polygon id="XMLID_210_" class="st0" points="241.4,29.7 253.6,29.7 237.8,48.5 248,68.9 235.5,68.9 227.5,53.3 222.9,53.3 220.2,68.9 208.7,68.9 218.9,11 230.4,11 224.5,44.2 229.1,44.2 "/><path id="XMLID_207_" class="st0" d="M277,46h-13.2c0.7-3.5,1.7-6,3.1-7.5s3.1-2.2,5.3-2.2c2.2,0,3.6,0.7,4.4,2.2 C277.4,40,277.5,42.5,277,46 M285.3,34.3c-2.3-3.5-6.2-5.3-11.7-5.3c-3.9,0-7.3,0.8-10.3,2.3c-3,1.6-5.5,3.8-7.4,6.9 c-2,3-3.3,6.7-4.1,11C251,54,251,57.9,252,60.8c1,3,3,5.2,5.9,6.6c2.9,1.4,6.9,2.1,11.9,2.1c3.8,0,7.8-0.4,11.7-1.3l1.5-8.6 c-3.8,0.8-7.1,1.3-10.1,1.3c-2.8,0-5-0.3-6.6-0.8s-2.6-1.4-3.2-2.6c-0.6-1.2-0.7-2.9-0.5-5h23.8l0.5-3 C288.2,42.9,287.6,37.8,285.3,34.3"/><path id="XMLID_206_" class="st0" d="M321.3,29.7l-1.6,9h-10.3l-2.5,14.4c-0.3,1.8-0.3,3.2-0.1,4.2c0.3,1,0.8,1.8,1.7,2.2 c0.8,0.4,2,0.7,3.6,0.7c1,0,2.4-0.2,4.2-0.5l-1.6,9.1c-2.5,0.5-5,0.8-7.4,0.8c-4.8,0-8.3-1.2-10.4-3.6s-2.7-6.1-1.8-11.1l2.9-16.2 h-6.4l1.6-9h6.4l4.5-13.8h9.4L311,29.7H321.3z"/><path id="XMLID_205_" class="st0" d="M353.4,38.7c-3-0.9-6.3-1.3-10-1.3c-5.4,0-8.4,1.3-8.9,3.9c-0.2,0.9,0,1.6,0.4,2.1 s1.3,0.9,2.5,1.1l6.1,1.1c3.5,0.7,6,1.9,7.4,3.7s1.8,4.3,1.2,7.7c-0.5,2.6-1.5,4.8-3.2,6.7c-1.7,1.9-4,3.3-6.8,4.4 c-2.8,1-6.1,1.5-9.7,1.5c-4.7,0-8.7-0.6-12.3-1.7l1.5-8.4c3.7,1.2,7.7,1.8,12.1,1.8c2.5,0,4.3-0.3,5.6-1c1.2-0.7,2-1.6,2.2-2.9 c0.2-1,0-1.7-0.4-2.2s-1.3-0.9-2.6-1.1l-6.1-1.1c-3.5-0.7-6-1.9-7.4-3.8c-1.4-1.9-1.8-4.4-1.2-7.5c0.4-2.6,1.5-4.8,3.2-6.6 c1.7-1.9,4-3.3,6.9-4.4c2.9-1,6.5-1.5,10.5-1.5c1.9,0,3.7,0.1,5.5,0.3c1.8,0.2,3.4,0.5,4.8,0.9L353.4,38.7z"/><path id="XMLID_204_" class="st1" d="M383.7,78.6c-19.3-13-24.7-48,7.7-61.8c-12.9,9.5-23.7,27-7,49c11.3-7.6,32.3-20.9,46.7-56.9 C430.6,15,430.1,43.8,383.7,78.6"/><path id="XMLID_203_" class="st0" d="M390.3,82.4c16.8,8.1,52,0.2,51.2-33.4c-4.4,19-17.3,26.9-32.5,27.3 c7.6-11.3,28.5-32.4,22.6-66.4C428.8,45.6,407.3,64.6,390.3,82.4"/></g><g id="XMLID_64_"><path id="XMLID_194_" class="st0" d="M193.3,77.8h11.2l-0.3,1.9h-8.9L194,87h8.2l-0.3,1.9h-8.2l-1.6,9.1h-2.2L193.3,77.8z"/><path id="XMLID_191_" class="st0" d="M209.3,98.3c-2,0-3.4-0.6-4.2-1.9s-1-3.2-0.6-5.7s1.3-4.4,2.6-5.7c1.3-1.3,2.9-2,4.9-2 s3.4,0.7,4.2,2s1,3.2,0.5,5.7c-0.4,2.5-1.3,4.4-2.6,5.7C212.9,97.7,211.3,98.3,209.3,98.3z M209.6,96.5c1.4,0,2.4-0.5,3.2-1.4 s1.4-2.4,1.7-4.5c0.4-2,0.3-3.5-0.2-4.5c-0.5-0.9-1.4-1.4-2.7-1.4c-1.4,0-2.4,0.5-3.2,1.4s-1.4,2.4-1.7,4.5 c-0.4,2-0.3,3.5,0.1,4.5C207.3,96.1,208.2,96.5,209.6,96.5z"/><path id="XMLID_189_" class="st0" d="M221.5,83.3h1.8l-0.2,1.9h0.1c0.6-0.4,1.4-0.8,2.3-1.2c0.9-0.4,1.7-0.7,2.6-0.9h0.6l-0.4,2.2 h-0.8c-0.8,0.1-1.6,0.3-2.4,0.6c-0.8,0.3-1.5,0.6-2.1,0.9l-2,11.3h-2.2L221.5,83.3z"/><path id="XMLID_186_" class="st0" d="M234.2,98.3c-2,0-3.4-0.6-4.3-1.9c-0.8-1.3-1-3.1-0.6-5.5c0.5-2.6,1.3-4.5,2.6-5.9 c1.3-1.3,2.9-2,4.9-2c1.7,0,2.8,0.5,3.5,1.6c0.6,1.1,0.8,2.7,0.4,4.8c-0.1,0.5-0.2,0.8-0.2,1.1c-0.1,0.3-0.2,0.6-0.2,0.9h-8.7 c-0.2,1.7-0.1,3,0.5,3.8c0.5,0.8,1.5,1.2,2.8,1.2c1.2,0,2.6-0.3,4.1-0.8l-0.2,1.7c-0.7,0.3-1.4,0.5-2.2,0.6 C235.7,98.2,234.9,98.3,234.2,98.3z M236.4,84.8c-2.3,0-3.9,1.7-4.7,5.1h6.8c0.3-1.8,0.3-3.1-0.1-3.9 C238.1,85.2,237.4,84.8,236.4,84.8z"/><path id="XMLID_184_" class="st0" d="M241.2,97.8l6.3-7.4l-3.5-6.9v-0.2h2.3l2.4,4.9l0.5,1.1h0.1l0.8-1.1l4.1-4.9h2.3v0.2l-6,7.1 l3.7,7.3v0.2h-2.3l-2.5-5.3l-0.5-1.1h-0.1l-0.9,1.1l-4.4,5.3h-2.3V97.8z"/><path id="XMLID_181_" class="st0" d="M269.8,98.4c-1,0-1.9-0.1-2.7-0.4c-0.8-0.3-1.4-0.7-1.9-1.2s-0.8-1.1-1-1.9 c-0.2-0.7-0.2-1.6,0-2.5c0.2-1.3,0.7-2.3,1.4-3.2c0.7-0.9,1.7-1.6,2.8-2c-0.4-0.7-0.6-1.3-0.7-2s-0.1-1.5,0.1-2.3 c0.3-1.7,1-3,2.2-3.9c1.1-0.9,2.6-1.3,4.5-1.3c0.7,0,1.4,0.1,2.1,0.2c0.7,0.2,1.4,0.4,2.3,0.8v0.1l-0.6,1.6h-0.2 c-1.3-0.6-2.6-0.9-3.7-0.9c-2.4,0-3.9,1.2-4.3,3.7c-0.1,0.7-0.1,1.3,0,1.8c0.1,0.6,0.3,1.1,0.6,1.6c0.3,0.5,0.8,1.1,1.4,1.6 s1.3,1.1,2.1,1.7l2.5,1.8c0.1-0.4,0.3-0.9,0.4-1.3c0.1-0.5,0.2-1,0.3-1.5l0.3-1.9l2-0.1l-0.3,2c-0.1,0.7-0.3,1.4-0.5,2.1 c-0.2,0.6-0.4,1.3-0.7,1.8l1.9,1.3v0.2l-1.1,1.6h-0.2l-1.6-1.1C275.5,97.1,273,98.4,269.8,98.4z M272.8,91.4 c-0.8-0.5-1.4-1.1-2-1.5c-0.6-0.5-1-1-1.4-1.4c-1.7,0.8-2.7,2.1-3,3.9c-0.2,1.3,0,2.4,0.7,3.1c0.7,0.8,1.7,1.1,3.2,1.1 c2.4,0,4.2-1,5.4-3.1L272.8,91.4z"/><path id="XMLID_179_" class="st0" d="M297.1,98.3c-3,0-5-0.9-6.1-2.5c-1.1-1.7-1.4-4.3-0.7-7.8c0.3-1.8,0.8-3.4,1.3-4.7 c0.6-1.3,1.3-2.4,2.2-3.2s1.9-1.5,3-1.9c1.2-0.4,2.5-0.6,4-0.6c0.5,0,1.1,0,1.7,0.1s1.2,0.2,1.8,0.3l-0.3,1.9 c-0.5-0.1-1.1-0.2-1.6-0.2c-0.6-0.1-1.1-0.1-1.6-0.1c-1.2,0-2.2,0.2-3.1,0.5s-1.7,0.8-2.3,1.5c-0.7,0.7-1.2,1.5-1.7,2.6 c-0.4,1.1-0.8,2.4-1.1,3.9c-0.3,1.5-0.4,2.8-0.3,3.8s0.3,1.9,0.7,2.6c0.4,0.7,1,1.2,1.8,1.5s1.7,0.5,2.9,0.5c0.2,0,0.5,0,0.8,0 s0.6,0,0.9-0.1c0.3,0,0.6-0.1,0.9-0.1s0.6-0.1,0.9-0.2l-0.3,1.8c-0.5,0.1-1.1,0.3-1.7,0.3C298.4,98.3,297.8,98.3,297.1,98.3z"/><path id="XMLID_177_" class="st0" d="M307.6,77.8h11.2l-0.3,1.9h-8.9l-1.3,7.3h8.2l-0.3,1.9H308l-1.6,9.1H304L307.6,77.8z"/><path id="XMLID_174_" class="st0" d="M322.5,98.4c-0.7,0-1.4,0-2.1-0.1c-0.7,0-1.3-0.1-1.9-0.2L322,78c1-0.1,1.9-0.3,2.7-0.3 c0.8-0.1,1.6-0.1,2.2-0.1c3.2,0,5.4,0.8,6.6,2.5s1.5,4.3,0.8,7.9c-0.3,1.8-0.8,3.4-1.4,4.7c-0.6,1.3-1.4,2.4-2.4,3.3 s-2.1,1.5-3.5,1.9C325.8,98.2,324.3,98.4,322.5,98.4z M323.5,96.5c2.5,0,4.4-0.7,5.8-2.1s2.4-3.5,2.9-6.5c0.3-1.5,0.4-2.8,0.3-3.9 s-0.3-2-0.7-2.7c-0.4-0.7-1-1.2-1.8-1.5s-1.8-0.5-3-0.5c-0.5,0-0.9,0-1.4,0.1c-0.5,0-1,0.1-1.4,0.2L321,96.4 c0.5,0.1,0.9,0.1,1.3,0.1C322.7,96.5,323.1,96.5,323.5,96.5z"/><path id="XMLID_65_" class="st0" d="M339.7,98.4c-0.6,0-1.2-0.1-1.8-0.2c-0.6-0.1-1.4-0.3-2.3-0.5l0.3-1.8c0.7,0.2,1.3,0.4,2,0.5 s1.3,0.2,2,0.2c0.9,0,1.7-0.2,2.3-0.7c0.6-0.4,0.9-1.1,1.1-1.9c0.1-0.8,0-1.3-0.4-1.8c-0.4-0.4-1-0.7-1.8-0.9 c-0.5-0.1-0.9-0.2-1.4-0.4c-0.5-0.1-0.9-0.4-1.3-0.6c-0.4-0.3-0.6-0.7-0.8-1.2c-0.2-0.5-0.2-1.2,0-2.1c0.2-1.3,0.8-2.3,1.8-3.1 c1-0.7,2.2-1.1,3.7-1.1c0.5,0,1.1,0,1.6,0.1s1.2,0.2,2,0.4l-0.4,1.8c-0.8-0.2-1.4-0.3-1.9-0.4s-0.9-0.1-1.4-0.1 c-0.9,0-1.7,0.2-2.3,0.6c-0.6,0.4-1,1-1.1,1.7c-0.1,0.5-0.1,0.8,0,1.1c0.1,0.3,0.3,0.5,0.5,0.7s0.5,0.3,0.8,0.4s0.7,0.2,1.1,0.3 c0.6,0.1,1.1,0.3,1.5,0.5c0.5,0.2,0.8,0.5,1.1,0.8c0.3,0.3,0.5,0.7,0.6,1.2s0.1,1.1,0,1.8c-0.2,1.3-0.9,2.4-1.9,3.2 C342.4,98,341.2,98.4,339.7,98.4z"/></g></g><line id="XMLID_62_" class="st2" x1="464.1" y1="7.9" x2="464.1" y2="85.1"/><linearGradient id="XMLID_2_" gradientUnits="userSpaceOnUse" x1="520.3117" y1="119.7763" x2="544.7749" y2="14.0952" gradientTransform="matrix(1 0 0 -1 0 108)"><stop offset="0.1194" style="stop-color:#FFFFFF"/><stop offset="0.5086" style="stop-color:#44B86B"/><stop offset="0.5279" style="stop-color:#3FB26C"/><stop offset="0.8507" style="stop-color:#007E7D"/><stop offset="1" style="stop-color:#006C7F"/></linearGradient><path id="XMLID_221_" class="st3" d="M532.7,21.9c-2.7,0-5.2,0.3-7.7,0.9l1.7-7.7h18.4l1.1-5.9l-27.8,0.1l-4.7,27.5l0.5-0.2v0.1 c0.2-0.1,0.4-0.2,0.5-0.4l9-3.6l0,0c2.8-1,5.8-1.5,8.9-1.5c15.1,0,24.3,8,24.3,22.8s-9.2,26.8-24.3,26.8c-8.4,0-16.9-3.7-21.9-9.6 l-0.4,6.2c5.8,5.4,13.7,8.6,22.3,8.6c18.1,0,32.7-14.4,32.7-32.1C565.4,36.3,550.8,21.9,532.7,21.9z"/><linearGradient id="XMLID_3_" gradientUnits="userSpaceOnUse" x1="487.6555" y1="111.6363" x2="511.9791" y2="6.5586" gradientTransform="matrix(1 0 0 -1 0 108)"><stop offset="0.1194" style="stop-color:#FFFFFF"/><stop offset="0.5086" style="stop-color:#44B86B"/><stop offset="0.5279" style="stop-color:#3FB26C"/><stop offset="0.8507" style="stop-color:#007E7D"/><stop offset="1" style="stop-color:#006C7F"/></linearGradient><polygon id="XMLID_220_" class="st4" points="489.1,16.8 489.1,22.5 494.4,19.8 494.4,84.6 504.4,84.6 504.4,9.6 "/><g class="st5"><path class="st0" d="M514.2,59.7h-0.9v-4.3l-3.3-5.9h1l2.7,4.9l2.7-4.9h1l-3.3,5.9V59.7z"/><path class="st0" d="M519,59.7V49.5h6.1v0.8h-5.2v3.8h4.3v0.8h-4.3v4h5.2v0.8H519z"/><path class="st0" d="M526.2,59.7l2.9-10.2h2.1l2.9,10.2h-0.9l-0.8-2.8h-4.5l-0.8,2.8H526.2z M529.8,50.3l-1.7,5.8h4.1l-1.7-5.8 H529.8z"/><path class="st0" d="M536.7,55.7v4h-0.9V49.5h3.7c1.1,0,1.9,0.2,2.4,0.7s0.8,1.3,0.8,2.3c0,1.6-0.7,2.6-2,3l2.1,4.2h-1l-2-4H536.7z M541.8,52.5c0-0.8-0.2-1.3-0.5-1.7c-0.4-0.4-0.9-0.5-1.7-0.5h-2.8v4.6h2.8C541,54.8,541.8,54.1,541.8,52.5z"/><path class="st0" d="M547.6,50.1c-1.6,0-2.4,0.6-2.4,1.8c0,0.7,0.2,1.2,0.5,1.4c0.4,0.2,1.1,0.5,2.1,0.7c1,0.2,1.8,0.5,2.2,0.9 c0.4,0.4,0.7,1,0.7,1.8c0,1.1-0.3,1.9-0.8,2.4s-1.3,0.7-2.4,0.7c-0.8,0-1.6-0.1-2.7-0.2l-0.5-0.1l0.1-0.8c1.3,0.2,2.4,0.3,3.1,0.3 c0.7,0,1.3-0.2,1.7-0.5c0.4-0.4,0.6-0.9,0.6-1.6c0-0.7-0.2-1.2-0.5-1.4c-0.3-0.3-0.9-0.4-1.6-0.6c-0.7-0.1-1.3-0.3-1.6-0.4 s-0.7-0.3-1-0.5c-0.3-0.2-0.5-0.5-0.6-0.8c-0.1-0.3-0.2-0.7-0.2-1.2c0-1.8,1.1-2.7,3.2-2.7c0.6,0,1.5,0.1,2.5,0.2l0.5,0.1l-0.1,0.8 C549.1,50.2,548.2,50.1,547.6,50.1z"/></g></svg>