<svg xmlns="http://www.w3.org/2000/svg" width="39.13" height="31.01" viewBox="0 0 39.13 31.01">
  <path id="Path_747" data-name="Path 747" d="M9.17,3.08V.35A12.973,12.973,0,0,1,4.41-.805a8.7,8.7,0,0,1-3.395-2.59l3.43-3.71A6.434,6.434,0,0,0,9.17-4.655V-10.08l-1.3-.455A9.825,9.825,0,0,1,3.57-13.318a6.774,6.774,0,0,1-1.645-4.637,6.73,6.73,0,0,1,2-4.988A8.181,8.181,0,0,1,9.17-25.2v-2.73h1.89v2.7a10.25,10.25,0,0,1,4.06,1.243,6.891,6.891,0,0,1,2.695,2.468L14.14-18.2a5.1,5.1,0,0,0-3.08-1.96v5.005l1.645.6a9.052,9.052,0,0,1,4.235,2.818,7.638,7.638,0,0,1,1.4,4.812A6.769,6.769,0,0,1,16.4-1.873,8.316,8.316,0,0,1,11.06.315V3.08ZM13.055-6.93q0-1.435-2-2.45v4.655A2.171,2.171,0,0,0,13.055-6.93ZM7.21-18.165q0,1.505,1.96,2.31V-20.16Q7.21-19.7,7.21-18.165ZM30.765.385a8.886,8.886,0,0,1-6.79-2.8,10.024,10.024,0,0,1-2.625-7.14V-15.33a10.024,10.024,0,0,1,2.625-7.14,8.886,8.886,0,0,1,6.79-2.8,8.844,8.844,0,0,1,6.755,2.8,10.024,10.024,0,0,1,2.625,7.14v5.775a10.024,10.024,0,0,1-2.625,7.14A8.844,8.844,0,0,1,30.765.385Zm0-5.215A3.785,3.785,0,0,0,33.74-6.09a5.031,5.031,0,0,0,1.12-3.465V-15.33A5.031,5.031,0,0,0,33.74-18.8a3.785,3.785,0,0,0-2.975-1.26,3.826,3.826,0,0,0-3.01,1.26,5.031,5.031,0,0,0-1.12,3.465v5.775a5.031,5.031,0,0,0,1.12,3.465A3.826,3.826,0,0,0,30.765-4.83Z" transform="translate(-1.015 27.93)" fill="#41b8ea"/>
</svg>
