<svg xmlns="http://www.w3.org/2000/svg" width="51.065" height="25.654" viewBox="0 0 51.065 25.654">
  <path id="Path_746" data-name="Path 746" d="M11.1.385a8.886,8.886,0,0,1-6.79-2.8A10.024,10.024,0,0,1,1.68-9.555V-15.33a10.024,10.024,0,0,1,2.625-7.14,8.886,8.886,0,0,1,6.79-2.8,8.844,8.844,0,0,1,6.755,2.8,10.024,10.024,0,0,1,2.625,7.14v5.775a10.024,10.024,0,0,1-2.625,7.14A8.844,8.844,0,0,1,11.1.385Zm0-5.215A3.785,3.785,0,0,0,14.07-6.09a5.031,5.031,0,0,0,1.12-3.465V-15.33A5.031,5.031,0,0,0,14.07-18.8a3.785,3.785,0,0,0-2.975-1.26,3.826,3.826,0,0,0-3.01,1.26,5.031,5.031,0,0,0-1.12,3.465v5.775A5.031,5.031,0,0,0,8.085-6.09,3.826,3.826,0,0,0,11.1-4.83ZM30.345,0H24.08V-6.265h6.265Zm13.02.385a8.886,8.886,0,0,1-6.79-2.8,10.024,10.024,0,0,1-2.625-7.14V-15.33a10.024,10.024,0,0,1,2.625-7.14,8.886,8.886,0,0,1,6.79-2.8,8.844,8.844,0,0,1,6.755,2.8,10.024,10.024,0,0,1,2.625,7.14v5.775a10.024,10.024,0,0,1-2.625,7.14A8.844,8.844,0,0,1,43.365.385Zm0-5.215A3.785,3.785,0,0,0,46.34-6.09a5.031,5.031,0,0,0,1.12-3.465V-15.33A5.031,5.031,0,0,0,46.34-18.8a3.785,3.785,0,0,0-2.975-1.26,3.826,3.826,0,0,0-3.01,1.26,5.031,5.031,0,0,0-1.12,3.465v5.775a5.031,5.031,0,0,0,1.12,3.465A3.826,3.826,0,0,0,43.365-4.83Z" transform="translate(-1.68 25.27)" fill="#41b8ea"/>
</svg>
