<svg xmlns="http://www.w3.org/2000/svg" width="79.135" height="29.119" viewBox="0 0 79.135 29.119">
  <path id="Path_749" data-name="Path 749" d="M1.435,0V-4.655l9.7-9.38a9.733,9.733,0,0,0,1.417-1.715,3.214,3.214,0,0,0,.472-1.715,2.471,2.471,0,0,0-.77-1.838,2.875,2.875,0,0,0-2.1-.752,3.31,3.31,0,0,0-2.328.927A5.37,5.37,0,0,0,6.37-16.765l-5.11-1.26a9.4,9.4,0,0,1,3.255-5.337A9.193,9.193,0,0,1,10.4-25.27a8.293,8.293,0,0,1,5.635,1.943,6.989,6.989,0,0,1,2.24,5.583,8.326,8.326,0,0,1-1,4.217,17.378,17.378,0,0,1-3.028,3.693L9.45-5.215h9.065V0ZM32.97,0V-5.39H20.825V-9.66L33.5-24.85h4.76v14.63H41.44v4.83H38.255V0ZM27.265-10.22H32.97v-6.825ZM42.7,3.85l13.51-28.7h4.76L47.46,3.85ZM68.985,0H63L74.13-19.74H62.79v-5.11H80.4v4.585Z" transform="translate(-1.26 25.27)" fill="#41b8ea"/>
</svg>
