<svg xmlns="http://www.w3.org/2000/svg" width="84.315" height="25.654" viewBox="0 0 84.315 25.654">
  <path id="Path_748" data-name="Path 748" d="M10.43.385A10.214,10.214,0,0,1,4.62-1.4,7.83,7.83,0,0,1,1.225-6.02l5.04-1.96A4.2,4.2,0,0,0,10.43-4.83a3.476,3.476,0,0,0,2.625-.945,3.432,3.432,0,0,0,.91-2.485,3.357,3.357,0,0,0-.98-2.415,3.265,3.265,0,0,0-2.45-1.015,3.741,3.741,0,0,0-1.943.507A2.8,2.8,0,0,0,7.385-9.835H2.415V-24.85h15.12v5.11H7.7v4.27a6.28,6.28,0,0,1,3.675-.98,7.33,7.33,0,0,1,5.775,2.362,9,9,0,0,1,2.1,6.213,7.818,7.818,0,0,1-2.4,6.055A9.117,9.117,0,0,1,10.43.385Zm21.245,0a8.886,8.886,0,0,1-6.79-2.8,10.024,10.024,0,0,1-2.625-7.14V-15.33a10.024,10.024,0,0,1,2.625-7.14,8.886,8.886,0,0,1,6.79-2.8,8.844,8.844,0,0,1,6.755,2.8,10.024,10.024,0,0,1,2.625,7.14v5.775a10.024,10.024,0,0,1-2.625,7.14A8.844,8.844,0,0,1,31.675.385Zm0-5.215A3.785,3.785,0,0,0,34.65-6.09a5.031,5.031,0,0,0,1.12-3.465V-15.33A5.031,5.031,0,0,0,34.65-18.8a3.785,3.785,0,0,0-2.975-1.26,3.826,3.826,0,0,0-3.01,1.26,5.031,5.031,0,0,0-1.12,3.465v5.775a5.031,5.031,0,0,0,1.12,3.465A3.826,3.826,0,0,0,31.675-4.83ZM53.83.385a8.886,8.886,0,0,1-6.79-2.8,10.024,10.024,0,0,1-2.625-7.14V-15.33a10.024,10.024,0,0,1,2.625-7.14,8.886,8.886,0,0,1,6.79-2.8,8.844,8.844,0,0,1,6.755,2.8,10.024,10.024,0,0,1,2.625,7.14v5.775a10.024,10.024,0,0,1-2.625,7.14A8.844,8.844,0,0,1,53.83.385Zm0-5.215a3.785,3.785,0,0,0,2.975-1.26,5.031,5.031,0,0,0,1.12-3.465V-15.33a5.031,5.031,0,0,0-1.12-3.465,3.785,3.785,0,0,0-2.975-1.26,3.826,3.826,0,0,0-3.01,1.26A5.031,5.031,0,0,0,49.7-15.33v5.775A5.031,5.031,0,0,0,50.82-6.09,3.826,3.826,0,0,0,53.83-4.83Zm19.25-6.055H66.815V-17.15H73.08ZM73.08,0H66.815V-6.265H73.08Zm7.175,0V-19.635H75.67V-24.85h9.87V0Z" transform="translate(-1.225 25.27)" fill="#41b8ea"/>
</svg>
