<svg xmlns="http://www.w3.org/2000/svg" width="66.984" height="66.983" viewBox="0 0 66.984 66.983">
  <g id="bpay" transform="translate(0.001)">
    <path id="Path_195" data-name="Path 195" d="M0,0H66.984V66.984H0Z" transform="translate(-0.001)" fill="#fff" fill-rule="evenodd"/>
    <path id="Path_196" data-name="Path 196" d="M40.039,70.026H79.2V9.975H40.039Z" transform="translate(-26.126 -6.509)" fill="none" stroke="#000" stroke-linecap="round" stroke-linejoin="round" stroke-width="2.165"/>
    <path id="Path_197" data-name="Path 197" d="M53.792,74.157H51.064V61.192h5.974c2.532,0,4.026,1.548,4.026,4.128a3.98,3.98,0,0,1-4.156,4.128H53.791v4.709h0Zm2.532-6.966c2.013,0,2.013-1.419,2.013-2,0-1.29-.714-1.806-2.4-1.806H53.791v3.806Zm6.883,6.966H60.35l4.675-12.965h3.117l4.611,12.965H69.766l-.844-2.709h-4.8ZM64.83,69.19h3.376l-1.623-5.1h-.065ZM78.6,74.157H75.869v-4.9l-4.48-8.062h3.182L77.3,66.8l2.6-5.611h3.117L78.6,69.255ZM67.687,37.52c2.273,0,4.091-.839,4.091-3.032,0-2.258-1.624-2.9-4.221-2.9H61.713V49.453h7.078c2.792,0,4.415-1.226,4.415-4,0-2.386-2.078-3.289-4.156-3.289h-2.6V37.52Zm-16.3-10.707h4.8V22.04h-4.8Z" transform="translate(-33.32 -14.381)" fill-rule="evenodd"/>
    <path id="Path_198" data-name="Path 198" d="M62.323,22.04v4.773h7.143c6.689,0,8.442,4.193,8.442,7.031,0,3.935-1.494,4.9-2.6,5.612,3.377,1.225,4.221,3.87,4.221,6.579a8.072,8.072,0,0,1-2.338,5.676c-1.623,1.484-3.117,2.451-8.7,2.451H56.8V31.586H52v26.9H82.778V22.04Z" transform="translate(-33.93 -14.381)" fill-rule="evenodd"/>
  </g>
</svg>
