<?xml version="1.0" encoding="UTF-8"?><svg id="Layer_1" xmlns="http://www.w3.org/2000/svg" xmlns:xlink="http://www.w3.org/1999/xlink" viewBox="0 0 219 150"><defs><style>.cls-1{fill:#cccbca;}.cls-2{clip-path:url(#clippath);}.cls-3{fill:none;}.cls-4{fill:#de3128;}.cls-5{fill:#efe82a;}</style><clipPath id="clippath"><path class="cls-3" d="m179.42,75c0,38.62-31.3,69.92-69.92,69.92s-69.92-31.3-69.92-69.92S70.89,5.09,109.5,5.09s69.92,31.3,69.92,69.91Z"/></clipPath></defs><path class="cls-1" d="m181.17,75c0,39.58-32.08,71.67-71.66,71.67S37.83,114.58,37.83,75,69.92,3.33,109.5,3.33s71.66,32.08,71.66,71.66Z"/><g class="cls-2"><rect class="cls-4" x="5.22" y="5.13" width="209.74" height="139.83"/><path class="cls-5" d="m132.09,70.07c-.03-.06-.07-.1-.15-.1h-16.57l-5.15-15.81c-.02-.06-.07-.1-.13-.1s-.12.04-.14.1l-5.12,15.79-16.58.02c-.07,0-.12.04-.15.1-.02.06,0,.13.05.16l13.41,9.76-5.1,15.81c-.02.06,0,.13.05.16.02.02.06.03.08.03.04,0,.06-.01.08-.03,3.9-2.86,11.15-8.12,13.42-9.76l13.44,9.76s.12.03.17,0c.05-.03.07-.1.06-.17l-5.13-15.79,13.42-9.78s.07-.1.05-.17Z"/></g></svg>