<svg id="ic-actions-check-blue" xmlns="http://www.w3.org/2000/svg" width="19.5" height="19.5" viewBox="0 0 19.5 19.5">
  <g id="ic_actions_check" data-name="ic actions check">
    <path id="Vector" d="M1.073,3.911a.659.659,0,0,0-.889,0,.563.563,0,0,0,0,.833Zm2.121,2.82-.445.417a.659.659,0,0,0,.889,0Zm7-5.725a.563.563,0,0,0,0-.833.659.659,0,0,0-.889,0ZM.184,4.744l2.566,2.4.889-.833-2.566-2.4Zm3.455,2.4L10.2,1.006,9.307.173,2.75,6.314Z" transform="translate(4.56 6.09)" fill="#132a4a"/>
    <path id="Vector-2" data-name="Vector" d="M18.14,9.75a8.39,8.39,0,0,1-8.39,8.39V19.5A9.75,9.75,0,0,0,19.5,9.75ZM9.75,18.14A8.39,8.39,0,0,1,1.36,9.75H0A9.75,9.75,0,0,0,9.75,19.5ZM1.36,9.75A8.39,8.39,0,0,1,9.75,1.36V0A9.75,9.75,0,0,0,0,9.75ZM9.75,1.36a8.39,8.39,0,0,1,8.39,8.39H19.5A9.75,9.75,0,0,0,9.75,0Z" transform="translate(0 0)" fill="#132a4a"/>
  </g>
</svg>
