<svg xmlns="http://www.w3.org/2000/svg" width="60.669" height="47.199" viewBox="0 0 60.669 47.199">
  <g id="mastercard-2" transform="translate(0)">
    <path id="Path_199" data-name="Path 199" d="M159.885,1323.706v.121H160a.118.118,0,0,0,.061-.016.054.054,0,0,0,.023-.046.052.052,0,0,0-.023-.045.109.109,0,0,0-.061-.016h-.113Zm.114-.086a.21.21,0,0,1,.136.039.13.13,0,0,1,.048.107.123.123,0,0,1-.038.094.189.189,0,0,1-.109.045l.152.173h-.117l-.14-.172h-.045v.172h-.1v-.459H160Zm-.03.617a.365.365,0,0,0,.149-.03.392.392,0,0,0,.121-.082.385.385,0,0,0,.082-.121.386.386,0,0,0-.2-.5.376.376,0,0,0-.149-.028.4.4,0,0,0-.152.028.383.383,0,0,0-.124.082.391.391,0,0,0-.081.424.36.36,0,0,0,.081.121.389.389,0,0,0,.124.082.378.378,0,0,0,.152.03m0-.879a.507.507,0,0,1,.356.146.489.489,0,0,1,.107.541.51.51,0,0,1-.107.158.538.538,0,0,1-.16.106.488.488,0,0,1-.2.039.5.5,0,0,1-.2-.039.473.473,0,0,1-.267-.269.489.489,0,0,1,.107-.541.48.48,0,0,1,.161-.106.5.5,0,0,1,.2-.039m-46.444-1.767a1.507,1.507,0,1,1,1.51,1.594,1.494,1.494,0,0,1-1.51-1.594m4.03,0v-2.49h-1.083v.607a1.887,1.887,0,0,0-1.572-.729,2.617,2.617,0,0,0,0,5.228,1.887,1.887,0,0,0,1.572-.729v.6h1.081v-2.491Zm36.576,0a1.507,1.507,0,1,1,1.51,1.594,1.494,1.494,0,0,1-1.51-1.594m4.032,0V1317.1h-1.083v2.605a1.887,1.887,0,0,0-1.572-.729,2.617,2.617,0,0,0,0,5.228,1.887,1.887,0,0,0,1.572-.729v.6h1.083Zm-27.173-1.645a1.236,1.236,0,0,1,1.26,1.207h-2.583a1.282,1.282,0,0,1,1.323-1.207m.022-.971a2.617,2.617,0,0,0,.072,5.229,3.023,3.023,0,0,0,2.041-.7l-.53-.8a2.375,2.375,0,0,1-1.448.521,1.383,1.383,0,0,1-1.489-1.22h3.7c.011-.134.022-.27.022-.416a2.388,2.388,0,0,0-2.364-2.614m13.069,2.614a1.507,1.507,0,1,1,1.51,1.594,1.494,1.494,0,0,1-1.51-1.594m4.03,0V1319.1h-1.082v.607a1.889,1.889,0,0,0-1.572-.729,2.617,2.617,0,0,0,0,5.228,1.889,1.889,0,0,0,1.572-.729v.6h1.082v-2.491Zm-10.143,0a2.515,2.515,0,0,0,2.656,2.614,2.6,2.6,0,0,0,1.79-.594l-.52-.875a2.188,2.188,0,0,1-1.3.448,1.6,1.6,0,0,1,0-3.188,2.193,2.193,0,0,1,1.3.448l.52-.875a2.606,2.606,0,0,0-1.79-.594,2.515,2.515,0,0,0-2.656,2.614m13.955-2.614a1.469,1.469,0,0,0-1.312.73v-.6H149.54v4.978h1.084v-2.79c0-.824.354-1.282,1.062-1.282a1.756,1.756,0,0,1,.677.125l.334-1.02a2.3,2.3,0,0,0-.771-.136m-29.015.521a3.723,3.723,0,0,0-2.03-.521c-1.261,0-2.073.6-2.073,1.593,0,.812.6,1.313,1.718,1.469l.511.073c.594.083.874.24.874.521,0,.385-.394.6-1.135.6a2.652,2.652,0,0,1-1.656-.521l-.509.844a3.593,3.593,0,0,0,2.155.646c1.438,0,2.271-.677,2.271-1.625,0-.875-.656-1.333-1.739-1.489l-.51-.074c-.469-.061-.844-.155-.844-.489,0-.364.354-.583.948-.583a3.214,3.214,0,0,1,1.552.427l.469-.875Zm13.968-.52a1.466,1.466,0,0,0-1.311.729v-.605h-1.073v4.978h1.082v-2.79c0-.824.354-1.282,1.062-1.282a1.756,1.756,0,0,1,.677.125l.334-1.02a2.3,2.3,0,0,0-.771-.136m-9.237.125h-1.77v-1.51h-1.094v1.51h-1.01v.989h1.01v2.271c0,1.155.448,1.843,1.729,1.843a2.541,2.541,0,0,0,1.354-.385l-.313-.927a2,2,0,0,1-.958.281c-.541,0-.718-.334-.718-.833v-2.249h1.77Zm-16.184,4.979v-3.124a1.853,1.853,0,0,0-1.958-1.979,1.927,1.927,0,0,0-1.75.885,1.827,1.827,0,0,0-1.645-.885,1.647,1.647,0,0,0-1.458.739v-.616H103.56v4.978h1.092v-2.76a1.165,1.165,0,0,1,1.219-1.323c.719,0,1.082.469,1.082,1.312v2.771h1.094v-2.76a1.175,1.175,0,0,1,1.218-1.323c.739,0,1.092.469,1.092,1.312v2.771Z" transform="translate(-100.419 -1277.152)" fill="#231f20"/>
    <path id="Path_200" data-name="Path 200" d="M1930.43,977.948v-.728h-.189l-.219.5-.218-.5h-.19v.728h.135V977.4l.2.473h.139l.205-.474v.549h.134Zm-1.2,0v-.6h.242v-.123h-.62v.123h.243v.6h.133Z" transform="translate(-1870.347 -947.58)" fill="#f79410"/>
    <path id="Path_201" data-name="Path 201" d="M746.115,161.631h-16.4V132.15h16.4Z" transform="translate(-707.578 -128.142)" fill="#ff5f00"/>
    <path id="Path_202" data-name="Path 202" d="M23.173,18.749a18.719,18.719,0,0,1,7.16-14.741,18.749,18.749,0,1,0,0,29.481,18.718,18.718,0,0,1-7.161-14.741" transform="translate(0 0.001)" fill="#eb001b"/>
    <path id="Path_203" data-name="Path 203" d="M1030.445,18.749A18.748,18.748,0,0,1,1000.11,33.49a18.751,18.751,0,0,0,0-29.481,18.748,18.748,0,0,1,30.334,14.741" transform="translate(-969.776 0.001)" fill="#f79e1b"/>
  </g>
</svg>
