<?xml version="1.0" encoding="UTF-8"?><svg id="Layer_2" xmlns="http://www.w3.org/2000/svg" xmlns:xlink="http://www.w3.org/1999/xlink" viewBox="0 0 15.69 15.68"><defs><style>.cls-1{fill:#707070;}.cls-2{clip-path:url(#clippath);}.cls-3{fill:none;}</style><clipPath id="clippath"><rect class="cls-3" width="15.69" height="15.68"/></clipPath></defs><g id="Layer_1-2"><g id="search"><g class="cls-2"><g id="Group_2137"><path id="Path_1607" class="cls-1" d="m15.43,14.21l-4.5-4.5c1.99-2.69,1.43-6.49-1.26-8.48C6.98-.76,3.18-.2,1.19,2.49-.8,5.18-.24,8.98,2.45,10.97c1.05.78,2.32,1.2,3.63,1.19h.02c1.31-.01,2.58-.44,3.62-1.23l4.5,4.5.24-.25h0l-.24.24c.34.33.89.32,1.21-.03.32-.33.32-.85,0-1.19h0m-4.99-8.13c0,2.41-1.96,4.36-4.37,4.36-2.41,0-4.36-1.96-4.36-4.37S3.68,1.72,6.09,1.72c1.15,0,2.26.46,3.08,1.28.82.82,1.28,1.93,1.28,3.09"/></g></g></g></g></svg>