<svg xmlns="http://www.w3.org/2000/svg" width="160.693" height="26.192" viewBox="0 0 160.693 26.192">
  <g id="neteller" transform="translate(6.001)">
    <g id="Layer_5" data-name="Layer 5" transform="translate(-6.001 0)">
      <path id="Path_204" data-name="Path 204" d="M148.794,1.99C146.85.668,143.934,0,140.106,0H130.074l-3.731,20.254H113.195l.846-4.6h7.92l.941-5.16h-7.916l.846-4.576h8.159L125.074,0H108.509l-3.543,19.212H98.89L102.455,0H93.8L90.257,19.212H84.332L87.9,0H79.251L75.513,20.254H62.27l.838-4.6h7.95L72,10.528H64.056l.834-4.593h8.263L74.222,0H22.6L19.671,16.04,13.819,0H4.827L0,26.192H8.579L11.5,9.7l5.68,16.49H47.933L51.671,5.935h4.81L52.738,26.192h80.906L135.989,13.4l3.8,12.788h8.584l-3.932-10.45.9-.187a7.7,7.7,0,0,0,4.6-2.7,8.343,8.343,0,0,0,1.621-5.281A6.242,6.242,0,0,0,148.794,1.99ZM40.465,20.254H27.341l.848-4.6h8.239l.936-5.177H29.193l.787-4.547H43.1Zm101.252-8.832a6.631,6.631,0,0,1-3.825.9h-1.7l1.3-7.029h1.249a5.8,5.8,0,0,1,3.172.7,2.737,2.737,0,0,1,1.215,2.45A3.356,3.356,0,0,1,141.717,11.423Z" transform="translate(0 0)" fill="#98c659"/>
      <path id="Path_205" data-name="Path 205" d="M638.911,87.615l-.211-4.132,1.825-.095a2.5,2.5,0,0,1,.843.068.911.911,0,0,1,.486.369,1.165,1.165,0,0,1,.2.612,1.048,1.048,0,0,1-.243.753,1.441,1.441,0,0,1-.856.437,1.405,1.405,0,0,1,.338.187,2.762,2.762,0,0,1,.486.527l.77,1.084-.68.036-.588-.831a6.851,6.851,0,0,0-.423-.547,1.266,1.266,0,0,0-.289-.262.846.846,0,0,0-.255-.1,1.942,1.942,0,0,0-.33-.01l-.632.032.095,1.83Zm.428-2.328,1.172-.061a1.737,1.737,0,0,0,.578-.107.6.6,0,0,0,.306-.265.676.676,0,0,0,.092-.374.61.61,0,0,0-.243-.469.972.972,0,0,0-.678-.156l-1.3.066Z" transform="translate(-483.475 -63.115)" fill="#98c659"/>
      <path id="Path_206" data-name="Path 206" d="M633.17,76.094a3.85,3.85,0,1,0,4.044,3.648h0A3.854,3.854,0,0,0,633.17,76.094ZM630.176,80.1a3.2,3.2,0,1,1,6.383-.326c0,.056,0,.109,0,.163a3.2,3.2,0,0,1-6.387.163Z" transform="translate(-476.525 -57.597)" fill="#98c659"/>
    </g>
  </g>
</svg>
