<svg xmlns="http://www.w3.org/2000/svg" width="111.32" height="42.58" viewBox="0 0 111.32 42.58">
  <g id="poli" transform="translate(0.001)">
    <path id="Path_213" data-name="Path 213" d="M750.61,234.865V198.193h9.5a65.311,65.311,0,0,1,8.44.23,16.81,16.81,0,0,1,5,1.816,8.774,8.774,0,0,1,3.471,4.146,16.543,16.543,0,0,1,1.194,6.557c0,4.181-.916,7.461-3.125,9.629s-7.084,3.1-11.361,3.1H761.3v11.193Zm10.632-17.933a3.791,3.791,0,0,0,.5.046c3.309.119,4.189-.7,4.694-1.326.779-.969.806-3.133.806-5.134,0-1.664.06-3.025-1.149-4.333-.786-.862-2.731-1.152-4.86-1.152l.01.616Z" transform="translate(-750.611 -193.895)" fill="#231f20"/>
    <path id="Path_214" data-name="Path 214" d="M1275.5,233.48H1251.45V196.75h11.86v25.716h12.19Z" transform="translate(-1177.688 -192.672)" fill="#231f20"/>
    <rect id="Rectangle_45" data-name="Rectangle 45" width="11.365" height="24.114" transform="translate(99.867 16.747)" fill="#231f20"/>
    <rect id="Rectangle_46" data-name="Rectangle 46" width="11.613" height="9.974" transform="translate(99.706 4.239)" fill="#231f20"/>
    <path id="Path_215" data-name="Path 215" d="M976.707,207.343a14.086,14.086,0,0,0,4.339-2.9c3.673-3.343,7.544-9.019,7.245-15.93-.312-7.271-4.215-11.93-9.413-14.84a9.779,9.779,0,0,1,3.89,2.261,16.224,16.224,0,0,1,5.975,12.762c.147,7.82-4.016,13.155-8.146,16.835a10.95,10.95,0,0,0,3.256-2.988,21.4,21.4,0,0,0,5.25-13.757c0-8.2-4.636-12.931-10.046-16.018a13.066,13.066,0,0,1,4.713,2.716,16.978,16.978,0,0,1,5.792,14.118,22.482,22.482,0,0,1-7.059,15.114A25.193,25.193,0,0,1,967.3,211.6a15.263,15.263,0,0,1-2.264,0c-9.449-.783-16.295-6.831-17.015-16.114a19.03,19.03,0,0,1,0-2.9,24,24,0,0,1,21.724-21.447c.16-.736.352-1.56.452-2.081,2.193,2.327,4.86,4.86,7.6,7.6-3.312,1.7-6.533,3.48-9.772,5.25.069-.664.222-1.421.269-1.9-5.56.982-10.246,5.016-11.223,10.678-1.178,6.9,3.426,12.186,10.05,12.224a13.786,13.786,0,0,0,13.392-11.046,10.436,10.436,0,0,0-3.977-10.318c2.516,1.666,5.242,4.667,4.89,9.131-.561,6.991-7.136,12.8-14.031,12.851a12.314,12.314,0,0,1-9.5-4.433c2.252,3.278,6.194,5.007,10.679,4.713a14.034,14.034,0,0,0,8.689-4.075A14.867,14.867,0,0,0,981.7,191.5a13.34,13.34,0,0,0,0-3.714c-.551-3.617-2.749-5.3-4.76-7.623,2.862,2.283,5.865,5.327,5.666,10.246-.295,7.2-7.189,13.538-14.4,14.03a12.414,12.414,0,0,1-10.134-3.622c2.367,3,6.822,4.541,11.488,3.8,6.651-1.047,12.579-6.6,13.308-13.485.642-6.22-2.5-9.1-5.5-12.152,3.2,2.424,5.931,5.112,6.134,10.071a15.7,15.7,0,0,1-4.617,11.223c-4.3,4.311-12.685,7.143-19.19,3.166,5.545,4.237,14.158,1.809,18.738-2.356a15.245,15.245,0,0,0,5.337-13.028c-.325-4.832-3.059-7.295-6.156-9.868a12.107,12.107,0,0,1,6.7,9.592,15.893,15.893,0,0,1-5.709,13.754,17.92,17.92,0,0,1-16.642,4.165c10.94,3.407,21.174-4.713,22.626-14.119,1.046-6.753-2.4-10.737-5.7-13.575-.339-.295-.532-.5-1-.906,4.7,2.449,8.6,7.85,7.069,15.474-1.8,8.888-10.7,16.093-22.177,14.211a12.511,12.511,0,0,0,5.3.432,18.978,18.978,0,0,0,12.482-5.708,17.78,17.78,0,0,0,5.032-13.921c-.421-5.611-3.558-8.3-7.395-11.279a10.8,10.8,0,0,1,4.169,2.978,13.9,13.9,0,0,1,3.76,8.493c.471,6.393-2.47,11.149-5.7,14.482a19.167,19.167,0,0,1-14.025,5.881c9.29.28,15.464-5.42,18.463-11.763a18.026,18.026,0,0,0,.812-12.762c-1.286-3.691-4.246-6.224-7.153-8.277,5.075,2.711,9.349,7.806,8.423,15.7a18.888,18.888,0,0,1-2.651,7.688,23.055,23.055,0,0,1-12.382,9.691,19.4,19.4,0,0,0,9.954-5.974,19.715,19.715,0,0,0,5.52-14.3c-.174-6.735-4.339-10.622-8.594-13.664a.666.666,0,0,1,.162.046,15.214,15.214,0,0,1,8.887,12.351c1.152,9.692-5.221,16.768-11.13,20.455" transform="translate(-918.9 -169.06)" fill="#27469b" fill-rule="evenodd"/>
  </g>
</svg>
