<svg xmlns="http://www.w3.org/2000/svg" width="102.747" height="35.107" viewBox="0 0 102.747 35.107">
  <g id="skrill" transform="translate(0)">
    <g id="Skrill-Logo" transform="translate(0 0)">
      <path id="Shape" d="M82.6,4.144,91.16,2.621V35.445H82.6Zm12.488,0V35.426h8.555V2.621ZM70.443,35.426H79v-24H70.443ZM13.913,14.819c-1.087-.072-3.589-.236-3.589-2.483,0-2.719,3.607-2.719,4.948-2.719a29.965,29.965,0,0,1,7.649,1.359s1.232.435,2.266.87l.091.018V4.434L25.15,4.4a30.555,30.555,0,0,0-11.2-1.776C4.307,2.621.9,8.24.9,13.043c0,2.773,1.2,9.3,12.234,10.059.942.054,3.426.2,3.426,2.537,0,1.921-2.03,3.063-5.455,3.063a26.805,26.805,0,0,1-9.588-1.867V34.5a44.526,44.526,0,0,0,11.4,1.3c9.425,0,13.648-5.31,13.648-10.585C26.564,19.241,21.852,15.363,13.913,14.819Zm51.709-3.734c-7.9.254-11.908,3.806-11.908,10.857v13.5h8.627V24.425c0-4.223.544-6.035,5.564-6.2V11.194A13.175,13.175,0,0,0,65.622,11.085Zm-23.2.326a29.535,29.535,0,0,1-4.875,8.355V2.621l-8.827,1.74V35.426h8.827V25.82a33.6,33.6,0,0,1,3.824,9.606H51.938c-1.051-4.35-5.619-12.361-5.619-12.361a38.985,38.985,0,0,0,6.2-11.672h-10.1ZM74.7,9.128a4.214,4.214,0,1,0-4.2-4.2A4.223,4.223,0,0,0,74.7,9.128Z" transform="translate(-0.9 -0.7)" fill="#933671"/>
    </g>
  </g>
</svg>
