<svg xmlns="http://www.w3.org/2000/svg" width="104.25" height="33.821" viewBox="0 0 104.25 33.821">
  <g id="visa" transform="translate(0)">
    <g id="Group_30" data-name="Group 30" transform="translate(0 0)">
      <path id="Path_225" data-name="Path 225" d="M56.419,84.776H47.913L53.229,52.1h8.507ZM40.757,52.1l-8.11,22.473-.96-4.839v0L28.826,55.045S28.48,52.1,24.79,52.1H11.383l-.157.553a31.823,31.823,0,0,1,8.9,3.735l7.39,28.386h8.863L49.912,52.1H40.757Zm66.909,32.673h7.811L108.666,52.1h-6.838A3.909,3.909,0,0,0,97.9,54.537L85.214,84.776h8.868l1.773-4.853h10.814ZM98.3,73.219l4.47-12.227,2.514,12.227ZM85.879,59.96l1.214-7.016a24.553,24.553,0,0,0-7.651-1.425c-4.221,0-14.246,1.845-14.246,10.817,0,8.441,11.766,8.546,11.766,12.98s-10.553,3.639-14.036.843l-1.265,7.336a23.839,23.839,0,0,0,9.6,1.845c5.805,0,14.563-3.006,14.563-11.186,0-8.5-11.871-9.286-11.871-12.98s8.285-3.22,11.926-1.214Z" transform="translate(-11.226 -51.519)" fill="#2566af"/>
    </g>
    <path id="Path_226" data-name="Path 226" d="M31.688,69.821,28.826,55.128s-.346-2.942-4.035-2.942H11.383l-.157.553a32.959,32.959,0,0,1,12.625,6.339A25.478,25.478,0,0,1,31.688,69.821Z" transform="translate(-11.226 -51.603)" fill="#e6a540"/>
  </g>
</svg>
