<svg xmlns="http://www.w3.org/2000/svg" viewBox="0 0 1192 280.04"><defs><style>.cls-1{fill:#00457a;}.cls-2{fill:#a2d093;}</style></defs><g id="OBJECTS"><path class="cls-1" d="M247.35,227.85h3v7.6c8.1-14.64,32.19-9.79,32,9.62.48,19.44-23.78,24.61-32,10.18v18.6h-3Zm31.28,17.5c.4-20.48-28.28-19.86-28.26-.08,0,19.53,28.73,20.42,28.26.08"/><path class="cls-1" d="M293.2,252.61c-.92-12.35,18.3-13.19,27.15-10.12,1.82-13.19-14.19-14.69-22.72-9.49l-1.25-3c31.43-11.47,27.39,10.88,27.29,32.83h-3.32V257c-4.77,9.16-27,9.54-27.15-4.36m27.15-2.76v-4.23c-25.43-8-31.54,13.17-13.37,14.9,7.21,0,13.37-4.44,13.37-10.88"/><path class="cls-1" d="M335.51,272.94l1.18-3c6.31,2.72,11.3,2,14.75-7l-17-35.11h3.95l14.68,31.58,12.74-31.58h3.74l-15.3,36.57c-4.14,10.43-10.81,11.79-18.78,8.52"/><path class="cls-1" d="M382.35,227.85h3v6.31c3.95-9.35,20.16-9.34,23.68.48,6-12.41,27.36-9.07,26.32,7.14v21.07H432c-1.06-9,4.66-33.65-10.38-32.72-15.08-.65-10.42,23.24-11.07,32.72h-3.36c-1.07-8.87,4.65-33.53-10.25-32.72-15.19-.29-10.55,23.25-11.2,32.72h-3.37Z"/><path class="cls-1" d="M449.33,245.55c.18-25.19,34.91-24.24,32.91,1.3H452.93c.66,14.92,18.37,17.84,26,8.39l2.35,2.08c-9.66,12.29-32.5,6.58-31.93-11.77m29.3-1.7c-.18-17.66-24.54-18.31-25.7,0Z"/><path class="cls-1" d="M495.35,227.85h4v6.59c6-12.57,27.13-8.25,26,7.14v21.27H522c-1.09-9.48,4.89-33.52-11.11-32.72-16.41-.35-11.49,22.49-12.16,32.72h-3.36Z"/><path class="cls-1" d="M543.35,253.85v-23h-5v-3h5v-11h3v11h13v3h-12v22.8c-.09,7.38,6.87,8,12,5.61v3c-6.54,3-15.88.77-15.66-8.44"/><path class="cls-1" d="M594,258.44l2-2.7c14.09,12.36,33.29-3.49,11.84-9.28-26-6.35-5.6-28.56,12-15.73l-1.8,2.85c-5.27-4.25-18.68-5.85-18.91,2.76,1.1,9,22.19,5.34,21.48,16.76-.11,13.27-19.24,12.23-26.67,5.34"/><path class="cls-1" d="M631.18,272.94l1.18-3c6.31,2.71,11.3,2,14.75-7l-17-35.11h4l14.68,31.58,12.75-31.58h3.73L650,264.42c-4.14,10.43-10.8,11.79-18.77,8.52"/><path class="cls-1" d="M673.65,258.44l2-2.7c14.09,12.36,33.29-3.48,11.85-9.28-26-6.35-5.61-28.56,12-15.73l-1.8,2.85c-5.27-4.25-18.68-5.85-18.91,2.76,1.1,9,22.19,5.34,21.47,16.76-.1,13.27-19.24,12.23-26.66,5.34"/><path class="cls-1" d="M715.35,253.85v-23h-5v-3h6v-11h3v11h12v3h-12v22.8c-.09,7.38,6.88,8,12,5.61v3c-6.54,3-15.88.77-15.66-8.44"/><path class="cls-1" d="M741.61,245.55c.17-25.19,34.91-24.23,32.9,1.3h-29.3c.66,14.92,18.36,17.84,26,8.39l2.36,2.08c-9.66,12.29-32.51,6.59-31.93-11.77m29.29-1.7c-.18-17.66-24.53-18.31-25.69,0Z"/><path class="cls-1" d="M788.35,227.85h3v6.31c3.95-9.35,20.17-9.34,23.68.48,6-12.41,27.36-9.07,26.32,7.14v21.07H838c-1.05-9,4.67-33.65-10.37-32.72-15.08-.65-10.42,23.25-11.07,32.72h-3.37c-1.06-8.87,4.66-33.53-10.24-32.72-15.19-.29-10.56,23.25-11.2,32.72h-3.37Z"/><path class="cls-1" d="M854.25,258.44l2-2.7c14.09,12.36,33.29-3.48,11.85-9.28-26.05-6.35-5.61-28.56,12-15.73l-1.8,2.85c-5.28-4.24-18.69-5.85-18.91,2.76,1.09,9,22.18,5.34,21.47,16.76-.11,13.27-19.25,12.23-26.67,5.34"/><path class="cls-1" d="M480.35,176.85V161.77c-22.86,28.86-86.14,20.32-85.05-22.45-.07-44.23,53.11-38.06,84.82-38C481.8,65.49,436.71,71.16,414,86.39L402.85,65.12c35.36-23,107.24-26.2,107.5,29.31,0,0,.24,43.94.24,63.12a36.23,36.23,0,0,1-30.24,19.57m-11-28.27c10.79-6.35,11.35-16.46,10.71-27-11.06.76-41.83-2.44-50.29,3.69-8.12,4.74-7.49,19.54.24,24.84,9.81,7.75,29.63,5.29,39.34-1.56"/><path class="cls-1" d="M727.17,62.68c21.09,18.05,9.62,90.4,12.36,115.17H708.35V107.49c.18-17.47-10.43-29.11-27.86-29-20.27.4-32.36,16.84-32.14,36.59v62.76h-31V107.49c.17-17.43-10.14-29.11-27.62-29-20.48.38-32.58,16.7-32.38,36.59v62.76h-31V70.52c11.74-21.88,31-19.85,31-19.85V73.86c14.93-33.59,78.71-34,88.42,5.71,9.6-31.58,59.29-40.93,81.3-17.24"/><path class="cls-1" d="M865.85,57.31c38.24,22.35,38.84,90.62.36,113-23,13.77-59.83,10.64-74.86-13.8,0,0-8.55,20.7-31,20.7V.85h31V71c14.71-24.64,51.59-27.48,74.5-13.68m-13.16,83.94c13.29-13.41,13.37-41.92,0-55.27-12.42-14.33-39.21-14.21-51.57,0-13.39,13.31-13.26,42.17,0,55.4,12.39,14.18,39.18,14.35,51.57-.13"/><path class="cls-1" d="M352.85,57.31c38.26,22.34,38.85,90.61.37,113-23,13.77-59.84,10.64-74.87-13.8,0,0-8.55,20.7-31,20.7V.85h31V71c14.71-24.64,51.6-27.48,74.5-13.68m-13.19,83.94c13.28-13.41,13.36-41.92,0-55.27-12.43-14.33-39.22-14.21-51.58,0-13.38,13.31-13.26,42.17,0,55.4,12.39,14.18,39.19,14.35,51.58-.13"/><path class="cls-1" d="M1009.22,57.45c42.68,21.18,42.5,92,0,113.16-44,22.75-104-2.53-102.1-56.82-1.81-54,58.42-78.93,102.1-56.34m-61,29c-13.33,13.24-13.33,42.37,0,55.61,12.32,14.15,39.37,14.4,51.81,0,13.32-13.25,13.32-42.37,0-55.61-12.44-14.4-39.49-14.15-51.81,0"/><path class="cls-1" d="M1152.55,57.45c42.68,21.17,42.51,92,0,113.16-44,22.76-104-2.54-102.09-56.82-1.82-54,58.41-78.93,102.09-56.34m-61,29c-13.33,13.24-13.33,42.37,0,55.61,12.32,14.15,39.37,14.4,51.81,0,13.32-13.25,13.32-42.37,0-55.61-12.44-14.4-39.49-14.15-51.81,0"/><rect class="cls-2" x="108" y="15.79" width="54.4" height="44.9"/><rect class="cls-2" x="49.28" y="15.79" width="54.97" height="24.74"/><rect class="cls-2" x="49.28" y="44.28" width="54.97" height="73.68"/><rect class="cls-2" x="4.11" y="64.43" width="41.43" height="77.99"/><rect class="cls-2" x="108" y="64.43" width="54.4" height="77.99"/><rect class="cls-2" x="166.14" y="44.28" width="40.23" height="73.68"/><path class="cls-2" d="M45.54,146.17H4.11v8.25A22.85,22.85,0,0,0,27,177.28H45.54Z"/><path class="cls-2" d="M166.15,121.71v55.57h17.36a22.86,22.86,0,0,0,22.87-22.85V121.71Z"/><path class="cls-2" d="M45.54,60.68V15.79H27A22.86,22.86,0,0,0,4.11,38.65v22Z"/><rect class="cls-2" x="49.28" y="121.71" width="54.97" height="55.58"/><rect class="cls-2" x="108" y="146.17" width="54.4" height="31.11"/><path class="cls-2" d="M166.15,40.53h40.23V38.65a22.87,22.87,0,0,0-22.87-22.86H166.15Z"/></g></svg>