<svg id="Earth_Globe" data-name="Earth Globe" xmlns="http://www.w3.org/2000/svg" width="24" height="24" viewBox="0 0 24 24">
  <path id="Vector" d="M24,0V24H0V0Z" fill="none"/>
  <path id="Vector-2" data-name="Vector" d="M9.25,18.5A9.25,9.25,0,1,1,18.5,9.25,9.25,9.25,0,0,1,9.25,18.5Z" transform="translate(2.75 2.75)" fill="none" stroke="#41b8ea" stroke-linecap="round" stroke-linejoin="round" stroke-width="1.5" stroke-dasharray="0 0"/>
  <path id="Vector-3" data-name="Vector" d="M10.43,0A1.917,1.917,0,0,1,9.9,1.17c-.31.33-.77.45-1.07.78a1.026,1.026,0,0,0-.2.88c.08.36.33.63.41.98A6.6,6.6,0,0,1,9.06,4.9c.02.41.06.83.04,1.24A2.067,2.067,0,0,1,7.86,7.93,2.065,2.065,0,0,0,7,8.4c-.2.24-.22.58-.4.83a.874.874,0,0,1-.96.34c-.34-.1-.57-.4-.86-.58A2.28,2.28,0,0,0,3.66,8.7a7.438,7.438,0,0,0-1.24.12A3.122,3.122,0,0,1,0,8.57" transform="translate(3.4 3.11)" fill="none" stroke="#41b8ea" stroke-linecap="round" stroke-linejoin="round" stroke-width="1.5" stroke-dasharray="0 0"/>
  <path id="Vector-4" data-name="Vector" d="M.045,4.706c-.02-.41-.06-.83-.04-1.24a2.067,2.067,0,0,1,1.24-1.79,2.065,2.065,0,0,0,.86-.47c.2-.24.22-.58.4-.83a.874.874,0,0,1,.96-.34c.34.1.57.4.86.58a2.28,2.28,0,0,0,1.12.29,7.438,7.438,0,0,0,1.24-.12c.8-.13,1.588-.4,2.278.12" transform="translate(10.935 15.714)" fill="none" stroke="#41b8ea" stroke-linecap="round" stroke-linejoin="round" stroke-width="1.5" stroke-dasharray="0 0"/>
</svg>
