<svg xmlns="http://www.w3.org/2000/svg" width="519.469" height="98.528" viewBox="0 0 519.469 98.528">
  <g id="FPMarketsVerticalLogo_Dark" transform="translate(-6.6 -2.1)">
    <g id="Group_319" data-name="Group 319" transform="translate(6.6 6.172)">
      <g id="Group_318" data-name="Group 318">
        <path id="Path_88" data-name="Path 88" d="M395.111,58.026A14.345,14.345,0,0,0,399.183,47.4C399.095,38.2,391.836,32,381.124,32a27.522,27.522,0,0,0-21.511,10A33.116,33.116,0,0,0,352,63.515c.177,13.633,8.321,21.511,22.4,21.511,3.364,0,11.774-.354,18.767-3.9l.354-.177L392.19,69.18l-.708.354a29.9,29.9,0,0,1-13.633,3.1c-4.161,0-7.348-1.239-9.207-3.63a9.323,9.323,0,0,1-1.416-4.249C381.124,65.108,390.242,62.9,395.111,58.026ZM368.554,52.98c1.239-4.692,4.957-9.207,10.889-9.207,3.01,0,4.869,1.416,4.869,3.718a3.6,3.6,0,0,1-1.062,2.656C381.39,52.1,376.7,52.98,368.554,52.98Z" transform="translate(-46.236 -9.603)" fill="#132a4a"/>
        <path id="Path_89" data-name="Path 89" d="M352.392,30.385H332.12L319.2,45.523c-1.239,1.593-2.479,3.1-3.541,4.515L323.179,7.9l-17.7,6.462L293.789,80.579l-.089.62h16.554l2.833-15.846,4.161-4.161L325.48,81.2h20.272l-15.315-30.01Z" transform="translate(-39.546 -6.838)" fill="#132a4a"/>
        <g id="Group_317" data-name="Group 317">
          <path id="Path_90" data-name="Path 90" d="M77.933,32a20.359,20.359,0,0,0-15.4,7.348l.708-6.285H49.782l-12.482,71,16.731-6.108,2.656-14.784A21.4,21.4,0,0,0,65.8,85.026c18.413,0,29.125-17.174,28.948-33.728C94.575,39.613,88.025,32,77.933,32ZM65.1,72.987a9.24,9.24,0,0,1-6.2-2.125L60.582,60.5c1.593-9.3,6.374-15.58,11.685-15.58,5.489,0,5.931,5.843,5.931,7.613C78.375,62.01,72.71,72.987,65.1,72.987Z" transform="translate(-10.123 -9.603)" fill="#132a4a"/>
          <path id="Path_91" data-name="Path 91" d="M39.62,42.73l2.213-12.482H32.1l.354-1.948c.443-2.567,2.125-8.41,8.233-8.41a15.589,15.589,0,0,1,2.921.266L45.9,7.143A35.919,35.919,0,0,0,40.239,6.7a24.5,24.5,0,0,0-14.961,5.134c-4.78,3.718-8.233,9.915-9.472,17l-.266,1.5H8.99L6.777,42.73h6.551L6.6,81.149H23.243L29.97,42.73Z" transform="translate(-6.6 -6.7)" fill="#132a4a"/>
        </g>
        <path id="Path_92" data-name="Path 92" d="M245.282,54.131c1.239-7.17.266-12.659-2.833-16.466-3.187-3.718-8.5-5.666-15.757-5.666a46.06,46.06,0,0,0-20.361,4.426l-.354.177,1.239,11.154.708-.354a31.45,31.45,0,0,1,14.164-3.718c3.275,0,5.489.708,6.639,2.036a4.546,4.546,0,0,1,.8,3.718l-.089.266c-18.59,0-30.452,7.082-32.666,19.475a14,14,0,0,0,2.656,11.243c2.567,3.01,6.462,4.692,11.243,4.692a22.248,22.248,0,0,0,15.138-5.666v4.6h14.252ZM227.135,65.285a16.554,16.554,0,0,1-.708,2.479,9.992,9.992,0,0,1-8.587,5.4,5,5,0,0,1-3.807-1.416,4.441,4.441,0,0,1-.708-3.807c.885-4.869,5.843-7.436,14.7-7.436Z" transform="translate(-28.397 -9.603)" fill="#132a4a"/>
        <path id="Path_93" data-name="Path 93" d="M433.515,69.764l-.531.089A29.342,29.342,0,0,1,429,70.03c-2.479,0-3.63-1.151-3.718-3.63a42.654,42.654,0,0,1,.708-6.2l3.1-16.466h9.03l2.124-12.128H431.3L433.78,17.8h0l-16.466,6.02L415.9,31.61h-6.374L407.4,43.738h6.285l-3.541,19.21a42.491,42.491,0,0,0-.885,9.384c.089,6.993,5.134,11.243,13.633,11.243a30.326,30.326,0,0,0,8.41-1.062Z" transform="translate(-52.593 -7.974)" fill="#132a4a"/>
        <path id="Path_94" data-name="Path 94" d="M467.138,52.915c-4.072-1.948-5.843-3.541-5.843-5.223,0-2.3,2.39-3.807,5.931-3.807a21.621,21.621,0,0,1,9.738,2.213l.531.266,2.125-12.128C476.7,32.908,472.361,32.2,467.58,32.2c-13.19,0-22.308,7.259-22.22,17.616.089,5.577,3.806,10.18,11.066,13.721,4.957,2.39,5.931,4.072,6.02,5.931,0,2.39-2.213,3.984-5.754,3.984-4.426,0-9.649-1.859-12.836-3.364l-.531-.266-2.125,12.3c3.364,1.948,8.941,3.187,14.341,3.187,14.43,0,23.282-6.9,23.1-18.059C478.646,59.643,472.538,55.57,467.138,52.915Z" transform="translate(-56.472 -9.626)" fill="#132a4a"/>
        <path id="Path_95" data-name="Path 95" d="M180.9,36.331C178.42,33.41,174.79,31.9,170.187,31.9a21.122,21.122,0,0,0-10.18,2.479,28.117,28.117,0,0,0-7.082,5.577c-1.593-5.046-6.285-8.056-12.482-8.056a21.193,21.193,0,0,0-16.112,7.17l1.5-8.675h0L110.61,35.977,102.2,83.869h16.2l5.223-29.479a12.194,12.194,0,0,1,1.239-3.718c1.416-2.567,4.161-5.311,7.7-5.311a4.8,4.8,0,0,1,3.718,1.5c1.328,1.593,1.682,4.515,1.062,8.41l-5.223,28.593h16.2L153.544,54.3a13.627,13.627,0,0,1,1.239-3.807c1.328-2.479,3.984-5.134,7.613-5.134a4.864,4.864,0,0,1,3.807,1.5c1.416,1.682,1.77,4.78.974,9.207L162.308,83.78h16.2l5.223-29.744C185.059,46.246,184.085,40.138,180.9,36.331Z" transform="translate(-17.57 -9.42)" fill="#132a4a"/>
        <path id="Path_96" data-name="Path 96" d="M294.579,32.093a19.278,19.278,0,0,0-3.364-.177c-4.692,0-10.977,2.833-14.961,9.207h0L278.113,30.5l-15.4,5.577-8.41,47.8h16.554l4.515-25.672a16.9,16.9,0,0,1,.885-3.364,11.841,11.841,0,0,1,11.508-7.525,22.81,22.81,0,0,1,3.984.354l.531.089,2.744-15.58Z" transform="translate(-35.025 -9.431)" fill="#132a4a"/>
      </g>
    </g>
    <g id="Group_320" data-name="Group 320" transform="translate(443.09 2.1)">
      <path id="Path_97" data-name="Path 97" d="M517.49,80.013c1.063-.8,2.036-1.5,3.1-2.213.8-.62,2.567-1.948,2.567-1.948C559.008,48.5,565.913,28.138,571.313,2.2,555.2,42.656,530.857,54.518,517.844,63.193A34.951,34.951,0,0,1,511.2,27.961,34.234,34.234,0,0,1,530.68,8.22c-12.748,3.01-23.725,11.774-28.505,24.7-6.551,17.439.177,36.738,15.226,47.272h0C517.4,80.013,517.4,80.013,517.49,80.013Z" transform="translate(-499.672 -2.111)" fill="#41b8ea"/>
      <path id="Path_98" data-name="Path 98" d="M584.325,54.064c-5.046,13.367-17.7,21.777-31.692,22.485,8.852-13.013,29.125-36.118,22.485-74.449-2.125,31.869-12.3,48.777-36.649,72.5h0c-2.921,2.833-6.02,5.754-9.384,8.852a8.346,8.346,0,0,0-.885.885h0a19.333,19.333,0,0,0,2.036.8c21.6,8.144,45.413-2.213,53.2-23.016a37.965,37.965,0,0,0,2.479-14.164A36.454,36.454,0,0,1,584.325,54.064Z" transform="translate(-502.945 -2.1)" fill="#132a4a"/>
    </g>
  </g>
</svg>
