<svg id="Home" xmlns="http://www.w3.org/2000/svg" width="24" height="24" viewBox="0 0 24 24">
  <path id="Vector" d="M24,0V24H0V0Z" fill="none"/>
  <g id="Group" transform="translate(2.75 2.745)">
    <path id="Vector-2" data-name="Vector" d="M0,6.95V1A1,1,0,0,1,1,0H4.56a1,1,0,0,1,1,1V6.95H0Z" transform="translate(6.47 11.555)" fill="none" stroke="#41b8ea" stroke-linecap="round" stroke-linejoin="round" stroke-width="1.5" stroke-dasharray="0 0"/>
    <path id="Vector-3" data-name="Vector" d="M18.5,15.355a3.076,3.076,0,0,1-3,3.15H3a3.076,3.076,0,0,1-3-3.15V8.645a3.189,3.189,0,0,1,1.08-2.42L7.33.735a2.875,2.875,0,0,1,3.84,0l6.25,5.49a3.189,3.189,0,0,1,1.08,2.42Z" fill="none" stroke="#41b8ea" stroke-linecap="round" stroke-linejoin="round" stroke-width="1.5" stroke-dasharray="0 0"/>
  </g>
</svg>
