<svg id="Printer" xmlns="http://www.w3.org/2000/svg" width="24" height="24" viewBox="0 0 24 24">
  <path id="Vector" d="M24,0V24H0V0Z" fill="none"/>
  <path id="Vector-2" data-name="Vector" d="M1.03,0A1.029,1.029,0,0,0,0,1.03V5.14H10.28V1.03A1.029,1.029,0,0,0,9.25,0Z" transform="translate(6.86 2.75)" fill="none" stroke="#41b8ea" stroke-linecap="round" stroke-linejoin="round" stroke-width="1.5" stroke-dasharray="0 0"/>
  <path id="Subtract" d="M3.08,1.5H16.92A1.576,1.576,0,0,1,18.5,3.08V7.67a1.576,1.576,0,0,1-1.58,1.58H15.14v1.5h1.78A3.076,3.076,0,0,0,20,7.67V3.08A3.076,3.076,0,0,0,16.92,0H3.08A3.076,3.076,0,0,0,0,3.08V7.67a3.076,3.076,0,0,0,3.08,3.08H4.86V9.25H3.08A1.576,1.576,0,0,1,1.5,7.67V3.08A1.576,1.576,0,0,1,3.08,1.5Z" transform="translate(2 7.14)" fill="#41b8ea"/>
  <path id="Vector-3" data-name="Vector" d="M0,0V7.87A1.383,1.383,0,0,0,1.38,9.25H8.9a1.383,1.383,0,0,0,1.38-1.38V0Z" transform="translate(6.86 12)" fill="none" stroke="#41b8ea" stroke-linecap="round" stroke-linejoin="round" stroke-width="1.5" stroke-dasharray="0 0"/>
  <path id="Vector-4" data-name="Vector" d="M0,0H1.03" transform="translate(9.94 18.17)" fill="none" stroke="#41b8ea" stroke-linecap="round" stroke-linejoin="round" stroke-width="1.5" stroke-dasharray="0 0"/>
  <path id="Vector-5" data-name="Vector" d="M0,0H4.12" transform="translate(9.94 15.08)" fill="none" stroke="#41b8ea" stroke-linecap="round" stroke-linejoin="round" stroke-width="1.5" stroke-dasharray="0 0"/>
</svg>
