<svg version="1.1" id="Ñëîé_1" xmlns="http://www.w3.org/2000/svg" xmlns:xlink="http://www.w3.org/1999/xlink" x="0px" y="0px" viewBox="0 0 242.8 150.9" style="enable-background:new 0 0 242.8 150.9;" xml:space="preserve" width="100%" height="100%" preserveAspectRatio="none"><style type="text/css"> .st0{fill:#FFFFAF;} .st1{fill:#F5E080;} .st2{fill:#BFA34A;} .st3{fill:#FFE797;} .st4{fill:#E6C74A;} .st5{fill:#947833;} .st6{fill:#A38233;} .st7{fill:#EBD964;} .st8{fill:url(#SVGID_1_);} .st9{fill:url(#SVGID_2_);} .st10{fill:url(#SVGID_3_);} .st11{fill:url(#SVGID_4_);} .st12{fill:url(#SVGID_5_);} .st13{fill:url(#SVGID_6_);} </style><g><g><g><polygon class="st0" points="210.5,118.1 219.1,102.9 222.7,82.3 220.8,62.8 214.2,41.3 208.9,30.6 200,19.4 198.8,18 198.3,17.3 194.9,14.7 198.8,19.3 207.8,30.5 213.2,41.2 220,62.6 222.1,82.1 218.7,102.7 210.3,118 202.5,128.4 191.5,136.2 202.7,128.4 "/><polygon class="st1" points="213.9,116.5 219.5,104.7 223.6,88 223,73 220.6,57.3 216.1,43.6 207.2,27.3 198.8,18 200,19.4 208.9,30.6 214.2,41.3 220.8,62.8 222.7,82.3 219.1,102.9 210.5,118.1 202.7,128.4 191.5,136.2 191.3,136.3 179.3,142.9 171.7,146.3 174.5,146.5 180.8,143.9 192.3,138.5 192.3,138.5 205.7,127 "/></g><g><polygon class="st2" points="192.2,113.8 186.6,126.9 186.8,134 187.6,134.7 192.2,115.3 "/><polygon class="st3" points="192.9,129.1 192.9,129.1 192.2,115.3 187.6,134.7 189.4,136.6 "/><polygon class="st4" points="190.3,137.5 192.9,129.1 189.4,136.6 "/></g><g><polygon class="st3" points="198.5,108.6 195.8,119.8 196.2,122.1 200,113.7 "/><polygon class="st5" points="200.5,128.7 199.2,130.3 200.1,131 "/><polygon class="st2" points="199.2,130.3 200.5,128.7 201.8,121.6 200.1,113.9 200,113.7 196.2,122.1 197.2,128.7 "/></g><g><polygon class="st3" points="202.8,103.4 202.7,108.1 204.2,104.9 "/><polygon class="st5" points="208.5,123 208.4,119.8 206.5,121.9 "/><polygon class="st2" points="204.6,120.9 206.5,121.9 208.4,119.8 208.3,115.3 205.4,106.2 204.2,104.9 202.7,108.1 202.6,113.4 "/></g><g><polygon class="st3" points="206.5,95.7 206,95 206.1,96.1 206.5,100 207.7,97.3 "/><polygon class="st2" points="208.9,109.8 213.6,112.2 212.8,104.2 207.7,97.3 206.5,100 206.8,103 "/></g><g><polygon class="st0" points="213.8,92.2 208.5,87.8 210.4,94.5 210.6,94.9 212.7,97.8 214.5,100.3 216.2,101.3 "/><polygon class="st6" points="218.5,102 218.5,102 215.2,93.3 213.8,92.2 216.2,101.3 218.2,102.4 218.7,102.7 "/></g><g><polygon class="st5" points="210.8,81 211.8,84.6 219.5,87.6 217.8,84.6 "/><polygon class="st6" points="212.6,87.7 217.5,91 221.4,91.2 219.5,87.6 211.8,84.6 "/><polygon class="st0" points="210.8,81 208.6,79.9 210.7,84.2 211.8,84.6 "/><polygon class="st4" points="210.7,84.2 212.2,87.4 212.6,87.7 211.8,84.6 "/></g><g><polygon class="st2" points="218.4,76.1 216.5,74.5 212.7,72.8 215.2,76.9 "/><polygon class="st6" points="216.8,79.7 222.9,80 218.4,76.1 215.2,76.9 "/><polygon class="st5" points="212.5,77.5 214.1,79.5 216.8,79.7 215.2,76.9 "/><polygon class="st0" points="212.7,72.8 208.1,70.8 207,70.3 208.5,72.3 212.5,77.5 215.2,76.9 "/></g><g><polygon class="st0" points="204.4,63 211.9,69.2 213.8,69.7 212.3,63.6 "/><polygon class="st2" points="213.8,69.7 215.1,70.1 215.4,63.9 212.3,63.6 "/><polygon class="st5" points="218.8,71.1 221.6,68 215.8,63.9 215.4,63.9 215.1,70.1 "/></g><g><polygon class="st0" points="203.3,53.4 202.8,54.5 205.2,56.3 205.7,56.5 206.7,53.6 "/><polygon class="st1" points="201,53.2 202.8,54.5 203.3,53.4 "/><polygon class="st7" points="206.7,53.6 205.7,56.5 211.4,59.7 210,53.8 "/><polygon class="st2" points="210,53.8 211.4,59.7 211.8,59.9 215.7,59 215.8,56.4 211.8,53.9 "/><polygon class="st5" points="218.9,58.3 215.8,56.4 215.7,59 "/></g><g><polygon class="st1" points="197.5,43.7 203.4,48 206.6,48.9 201.2,43.3 "/><polygon class="st5" points="211.5,50.4 216.2,47.4 214.2,46.2 210.2,50 "/><polygon class="st0" points="204.5,43 201.2,43.3 206.6,48.9 207.8,49.3 "/><polygon class="st7" points="205.3,42.9 204.5,43 207.8,49.3 210.2,50 214.2,46.2 211.4,44.4 "/></g><g><polygon class="st0" points="196.8,35.1 197.9,37.7 198.7,38.3 202.6,39.3 200.3,34.9 "/><polygon class="st1" points="194,35.3 197.9,37.7 196.8,35.1 "/><polygon class="st7" points="212.3,37.6 206.5,35 202.6,34.8 200.3,34.9 202.6,39.3 206.1,40.2 "/></g><g><polygon class="st0" points="198.3,31.1 196.6,27.7 195.9,27.4 193.6,27.2 194.6,29.6 196.1,30.5 "/><polygon class="st1" points="190.5,27 194.6,29.6 193.6,27.2 "/><polygon class="st7" points="198.3,31.1 202.1,32 203.7,31.8 196.6,27.7 "/><polygon class="st2" points="207.5,29.9 201.4,27.7 196.4,27.4 196.6,27.7 203.7,31.8 206.2,31.5 "/><polygon class="st0" points="196.6,27.7 196.4,27.4 195.9,27.4 "/></g><g><polygon class="st0" points="192.3,19.5 190.4,19.4 191.4,21.8 193.9,22.5 "/><polygon class="st1" points="186.9,19.2 189.5,21.3 191.4,21.8 190.4,19.4 "/><polygon class="st2" points="199.8,23.2 201.3,21.9 201.1,21.7 195.6,19.6 192.3,19.5 193.9,22.5 196.1,23.2 "/><polygon class="st0" points="201.3,21.9 201.4,21.8 201.1,21.7 "/></g><g><polygon class="st6" points="205.2,144.7 209.9,142.8 205.8,140.7 204,144.7 "/><polygon class="st3" points="200.1,137.7 198.6,137.9 192.4,141.8 193.1,142.4 201.3,138.3 "/><polygon class="st2" points="193.1,142.4 195.7,144.8 204,144.7 205.8,140.7 201.3,138.3 "/><polygon class="st4" points="191.7,138.7 189.3,139 190.5,140.1 192.4,141.8 198.6,137.9 "/></g><g><polygon class="st0" points="208.7,134.6 216.2,130.8 214.2,130.2 210.8,130.2 210.7,130.2 "/><polygon class="st6" points="208.2,135.7 212.7,135.6 220.4,132.1 216.2,130.8 208.7,134.6 "/><polygon class="st3" points="203.8,135.8 206.4,135.7 208.7,134.6 210.7,130.2 203,135.1 "/><polygon class="st2" points="206.4,135.7 208.2,135.7 208.7,134.6 "/><polygon class="st4" points="210.8,130.2 205.4,130.1 199.3,132.3 203,135.1 210.7,130.2 210.8,130.2 "/></g><g><polygon class="st6" points="218.4,126.6 227.5,121.1 225.6,120.8 216.4,126.6 "/><polygon class="st2" points="216.6,119.5 215.5,120 212.4,126.7 216.4,126.6 225.6,120.8 223,120.4 "/><polygon class="st0" points="207.5,123.6 211,126.7 212.4,126.7 215.5,120 208.5,123 "/></g><g><polygon class="st6" points="232.8,107.7 230,107.8 231.5,109.1 "/><polygon class="st2" points="220.6,109 217.6,115.6 219.2,116.1 227.8,113.1 231.5,109.1 230,107.8 225,107.9 "/><polygon class="st0" points="219.6,109.3 215.6,112 214.3,114.5 217.6,115.6 220.6,109 "/></g><g><polygon class="st1" points="233.4,93.1 235.3,93.9 236.5,91.8 "/><polygon class="st2" points="227.5,95.5 226.7,96 229.6,100.8 232.8,97.8 235.3,93.9 233.4,93.1 "/><polygon class="st2" points="221.9,99.6 219.7,103.8 227.2,103 227.5,102.7 222.9,98.9 "/><polygon class="st0" points="222.9,98.9 227.5,102.7 229.6,100.8 226.7,96 "/></g><g><polygon class="st6" points="227.4,90.7 228.5,91.2 230.2,90.8 234.3,85.2 236.4,80.1 235.9,79.8 "/><polygon class="st5" points="235.9,79.8 235.4,79.5 229.4,82 224.9,86.7 223.8,89.3 227.4,90.7 "/><polygon class="st0" points="227.4,90.7 223.8,89.3 223.4,90.4 224.4,92.3 226.6,91.7 "/><polygon class="st1" points="236.6,78.9 235.4,79.5 235.9,79.8 236.4,80.1 237,78.7 "/><polygon class="st2" points="222.4,92.8 224.4,92.3 223.4,90.4 "/><polygon class="st4" points="226.6,91.7 228.5,91.2 227.4,90.7 "/></g><g><polygon class="st5" points="233.5,65.6 231.4,67.2 233.2,67.7 "/><polygon class="st1" points="232.1,72.9 232.5,71.8 233.2,67.7 231.4,67.2 227.7,70.2 225.7,73.4 226.8,74.1 "/><polygon class="st2" points="223,82.3 229.7,78.8 230.6,76.5 226.8,74.1 225,74.6 224.4,75.5 "/><polygon class="st3" points="226.8,74.1 230.6,76.5 232.1,72.9 "/><polygon class="st4" points="225.7,73.4 225,74.6 226.8,74.1 "/></g><g><polygon class="st0" points="231.2,53.6 232,50.2 231.4,50.8 230.9,51.2 231.3,52.1 231.3,52.1 "/><polygon class="st1" points="230.9,51.2 225.6,56 225.6,56 227.6,64.6 229.2,63.2 231.2,53.6 231.3,52.1 "/><polygon class="st2" points="223,62 222.3,69.4 227.6,64.6 225.6,56 "/></g><g><polygon class="st0" points="227.9,44.4 227.6,38.6 226,40.6 227.8,44.5 "/><polygon class="st1" points="227.8,44.5 226,40.6 222.9,44.7 225,53.8 225.9,53 "/><polygon class="st2" points="222.5,45.3 219.8,52.8 220.6,58.5 225,53.8 222.9,44.7 "/></g><g><polygon class="st0" points="222.8,30.8 222,25.1 220.5,28.7 222.6,33.3 "/><polygon class="st1" points="222.6,33.3 220.5,28.7 219.6,30.7 221.9,40.5 222.1,40.1 "/><polygon class="st2" points="219.6,30.7 217.7,35.1 216.7,40.7 216.4,42.4 216.5,43.4 217.3,48.1 221.9,40.5 "/></g><g><polygon class="st0" points="216.4,21.8 215.8,15.4 215.8,15.4 213.6,21 216.4,22.6 "/><polygon class="st1" points="211.7,32.4 211.8,32.8 214.2,35.3 217,30.4 216.4,22.6 213.6,21 212.1,25.1 "/><polygon class="st6" points="211.8,32.8 212.8,37 212.9,37.6 213.2,37.2 214.2,35.3 "/></g><g><polygon class="st3" points="205.7,9 205.7,11.3 206.9,11.7 "/><polygon class="st0" points="209,18.3 207.8,13.6 206.9,11.7 205.7,11.3 205.6,16.4 "/><polygon class="st1" points="205.5,19.5 206.1,25.1 208,28.8 208.5,29.4 210,21.9 209,18.3 205.6,16.4 "/><polygon class="st6" points="208.5,29.8 208.5,29.4 208,28.8 "/></g><g><polygon class="st3" points="198.2,5.3 198.5,8.9 200,9.4 "/><polygon class="st0" points="202.2,14.4 200,9.4 198.5,8.9 198.8,12.5 "/><polygon class="st1" points="198.8,12.8 199.8,17.6 202.2,21.8 202.4,14.8 202.2,14.4 198.8,12.5 "/></g><g><polygon class="st0" points="188.9,12.3 193.7,16.6 197.3,17.7 186.4,6.4 "/><polygon class="st1" points="195.2,11.7 186.4,6.2 186.4,6.4 197.3,17.7 198.5,18.1 "/></g></g><g><g><polygon class="st2" points="32.9,118.1 24.4,102.9 20.8,82.3 22.6,62.8 29.2,41.3 34.5,30.6 43.5,19.4 44.6,18 45.2,17.3 48.6,14.7 44.7,19.3 35.6,30.5 30.2,41.2 23.4,62.6 21.4,82.1 24.8,102.7 33.2,118 40.9,128.4 52,136.2 40.8,128.4 "/><polygon class="st0" points="29.6,116.5 24,104.7 19.9,88 20.5,73 22.8,57.3 27.3,43.6 36.2,27.3 44.6,18 43.5,19.4 34.5,30.6 29.2,41.3 22.6,62.8 20.8,82.3 24.4,102.9 32.9,118.1 40.8,128.4 52,136.2 52.2,136.3 64.1,142.9 71.8,146.3 68.9,146.5 62.7,143.9 51.2,138.5 51.2,138.5 37.8,127 "/></g><g><polygon class="st6" points="51.3,113.8 56.9,126.9 56.6,134 55.9,134.7 51.2,115.3 "/><polygon class="st1" points="50.6,129.1 50.6,129.1 51.2,115.3 55.9,134.7 54.1,136.6 "/><polygon class="st4" points="53.2,137.5 50.6,129.1 54.1,136.6 "/></g><g><polygon class="st5" points="44.9,108.6 47.6,119.8 47.3,122.1 43.4,113.7 "/><polygon class="st5" points="42.9,128.7 44.3,130.3 43.4,131 "/><polygon class="st1" points="44.3,130.3 42.9,128.7 41.6,121.6 43.4,113.9 43.4,113.7 47.3,122.1 46.3,128.7 "/></g><g><polygon class="st5" points="40.7,103.4 40.8,108.1 39.3,104.9 "/><polygon class="st5" points="35,123 35.1,119.8 37,121.9 "/><polygon class="st1" points="38.9,120.9 37,121.9 35.1,119.8 35.2,115.3 38.1,106.2 39.3,104.9 40.8,108.1 40.9,113.4 "/></g><g><polygon class="st5" points="37,95.7 37.5,95 37.4,96.1 37,100 35.8,97.3 "/><polygon class="st1" points="34.6,109.8 29.8,112.2 30.6,104.2 35.8,97.3 37,100 36.7,103 "/></g><g><polygon class="st0" points="29.7,92.2 27.3,101.3 25.3,102.4 25,102 28.2,93.3 "/><polygon class="st2" points="29.7,92.2 35,87.8 33,94.5 32.9,94.9 30.8,97.8 28.9,100.3 27.3,101.3 "/><polygon class="st6" points="25.3,102.4 24.8,102.7 25,102 "/></g><g><polygon class="st0" points="32.6,81 31.7,84.6 24,87.6 25.7,84.6 "/><polygon class="st2" points="30.9,87.7 26,91 22,91.2 24,87.6 31.7,84.6 "/><polygon class="st4" points="32.6,81 34.9,79.9 32.8,84.2 31.7,84.6 "/><polygon class="st5" points="32.8,84.2 31.3,87.4 30.9,87.7 31.7,84.6 "/></g><g><polygon class="st3" points="25.1,76.1 27,74.5 30.8,72.8 28.3,76.9 "/><polygon class="st2" points="26.6,79.7 20.5,80 25.1,76.1 28.3,76.9 "/><polygon class="st5" points="30.9,77.5 29.4,79.5 26.6,79.7 28.3,76.9 "/><polygon class="st1" points="30.8,72.8 35.3,70.8 36.5,70.3 34.9,72.3 30.9,77.5 28.3,76.9 "/></g><g><polygon class="st2" points="39,63 31.6,69.2 29.7,69.7 31.1,63.6 "/><polygon class="st0" points="29.7,69.7 28.3,70.1 28,63.9 31.1,63.6 "/><polygon class="st1" points="24.6,71.1 21.9,68 27.6,63.9 28,63.9 28.3,70.1 "/></g><g><polygon class="st5" points="40.2,53.4 40.7,54.5 38.2,56.3 37.8,56.5 36.8,53.6 "/><polygon class="st6" points="42.5,53.2 40.7,54.5 40.2,53.4 "/><polygon class="st2" points="36.8,53.6 37.8,56.5 32.1,59.7 33.5,53.8 "/><polygon class="st0" points="33.5,53.8 32.1,59.7 31.7,59.9 27.8,59 27.6,56.4 31.7,53.9 "/><polygon class="st1" points="24.6,58.3 27.6,56.4 27.8,59 "/></g><g><polygon class="st5" points="46,43.7 40.1,48 36.9,48.9 42.3,43.3 "/><polygon class="st2" points="32,50.4 27.2,47.4 29.3,46.2 33.3,50 "/><polygon class="st2" points="38.9,43 42.3,43.3 36.9,48.9 35.7,49.3 "/><polygon class="st0" points="38.1,42.9 38.9,43 35.7,49.3 33.3,50 29.3,46.2 32.1,44.4 "/></g><g><polygon class="st2" points="46.7,35.1 45.6,37.7 44.7,38.3 40.9,39.3 43.1,34.9 "/><polygon class="st5" points="49.5,35.3 45.6,37.7 46.7,35.1 "/><polygon class="st0" points="31.1,37.6 36.9,35 40.9,34.8 43.1,34.9 40.9,39.3 37.4,40.2 "/></g><g><polygon class="st2" points="45.1,31.1 46.9,27.7 47.5,27.4 49.9,27.2 48.9,29.6 47.4,30.5 "/><polygon class="st5" points="53,27 48.9,29.6 49.9,27.2 "/><polygon class="st1" points="45.1,31.1 41.4,32 39.8,31.8 46.9,27.7 "/><polygon class="st0" points="35.9,29.9 42.1,27.7 47.1,27.4 46.9,27.7 39.8,31.8 37.2,31.5 "/><polygon class="st0" points="46.9,27.7 47.1,27.4 47.5,27.4 "/></g><g><polygon class="st2" points="51.2,19.5 53,19.4 52,21.8 49.6,22.5 "/><polygon class="st5" points="56.6,19.2 53.9,21.3 52,21.8 53,19.4 "/><polygon class="st0" points="43.7,23.2 42.2,21.9 42.4,21.7 47.9,19.6 51.2,19.5 49.6,22.5 47.3,23.2 "/><polygon class="st0" points="42.2,21.9 42.1,21.8 42.4,21.7 "/></g><g><polygon class="st4" points="38.3,144.7 33.6,142.8 37.6,140.7 39.5,144.7 "/><polygon class="st2" points="43.4,137.7 44.8,137.9 51,141.8 50.3,142.4 42.2,138.3 "/><polygon class="st1" points="50.3,142.4 47.7,144.8 39.5,144.7 37.6,140.7 42.2,138.3 "/><polygon class="st6" points="54.2,139 51.7,138.7 44.8,137.9 51,141.8 53,140.1 53,140.1 "/></g><g><polygon class="st0" points="34.8,134.6 27.3,130.8 29.3,130.2 32.6,130.2 32.7,130.2 "/><polygon class="st4" points="35.3,135.7 30.8,135.6 23.1,132.1 27.3,130.8 34.8,134.6 "/><polygon class="st3" points="39.6,135.8 37,135.7 34.8,134.6 32.7,130.2 40.5,135.1 "/><polygon class="st4" points="37,135.7 35.3,135.7 34.8,134.6 "/><polygon class="st2" points="32.7,130.2 38.1,130.1 44.2,132.3 40.5,135.1 32.7,130.2 32.6,130.2 "/></g><g><polygon class="st7" points="25.1,126.6 16,121.1 17.9,120.8 27.1,126.6 "/><polygon class="st1" points="26.9,119.5 28,120 31.1,126.7 27.1,126.6 17.9,120.8 20.5,120.4 "/><polygon class="st2" points="35.9,123.6 32.4,126.7 31.1,126.7 28,120 35,123 "/></g><g><polygon class="st0" points="10.7,107.7 13.5,107.8 12,109.1 "/><polygon class="st1" points="22.8,109 25.9,115.6 24.3,116.1 15.7,113.1 12,109.1 13.5,107.8 18.5,107.9 "/><polygon class="st6" points="23.9,109.3 27.9,112 29.2,114.5 25.9,115.6 22.8,109 "/></g><g><polygon class="st7" points="10.1,93.1 8.2,93.9 7,91.8 "/><polygon class="st0" points="16,95.5 16.7,96 13.9,100.8 10.6,97.8 8.2,93.9 10.1,93.1 "/><polygon class="st6" points="21.6,99.6 23.8,103.8 16.2,103 16,102.7 20.5,98.9 "/><polygon class="st2" points="20.5,98.9 16,102.7 13.9,100.8 16.7,96 "/></g><g><polygon class="st0" points="16.1,90.7 15,91.2 13.3,90.8 9.2,85.2 7,80.1 7.5,79.8 "/><polygon class="st1" points="7.5,79.8 8.1,79.5 14.1,82 18.6,86.7 19.7,89.3 16.1,90.7 "/><polygon class="st5" points="16.1,90.7 19.7,89.3 20.1,90.4 19,92.3 16.9,91.7 "/><polygon class="st3" points="6.8,78.9 6.4,78.7 7,80.1 7.5,79.8 8.1,79.5 "/><polygon class="st6" points="21,92.8 19,92.3 20.1,90.4 "/><polygon class="st3" points="16.9,91.7 15,91.2 16.1,90.7 "/></g><g><polygon class="st0" points="10,65.6 12.1,67.2 10.3,67.7 "/><polygon class="st1" points="11.4,72.9 10.9,71.8 10.3,67.7 12.1,67.2 15.7,70.2 17.8,73.4 16.7,74.1 "/><polygon class="st2" points="20.5,82.3 13.7,78.8 12.8,76.5 16.7,74.1 18.5,74.6 19.1,75.5 "/><polygon class="st3" points="16.7,74.1 12.8,76.5 11.4,72.9 "/><polygon class="st6" points="17.8,73.4 18.5,74.6 16.7,74.1 "/></g><g><polygon class="st0" points="12.2,53.6 11.5,50.2 12.1,50.8 12.6,51.2 12.1,52.1 12.1,52.1 "/><polygon class="st1" points="12.6,51.2 17.9,56 17.9,56 15.9,64.6 14.3,63.2 12.2,53.6 12.1,52.1 "/><polygon class="st2" points="20.5,62 21.2,69.4 15.9,64.6 17.9,56 "/></g><g><polygon class="st0" points="15.6,44.4 15.9,38.6 17.5,40.6 15.6,44.5 "/><polygon class="st1" points="15.6,44.5 17.5,40.6 20.6,44.7 18.4,53.8 17.6,53 "/><polygon class="st2" points="21,45.3 23.7,52.8 22.9,58.5 18.4,53.8 20.6,44.7 "/></g><g><polygon class="st0" points="20.7,30.8 21.5,25.1 23,28.7 20.9,33.3 "/><polygon class="st1" points="20.9,33.3 23,28.7 23.9,30.7 21.6,40.5 21.3,40.1 "/><polygon class="st2" points="23.9,30.7 25.8,35.1 26.8,40.7 27.1,42.4 26.9,43.4 26.2,48.1 21.6,40.5 "/></g><g><polygon class="st0" points="27.1,21.8 27.7,15.4 27.7,15.4 29.8,21 27,22.6 "/><polygon class="st1" points="31.8,32.4 31.7,32.8 29.2,35.3 26.5,30.4 27,22.6 29.8,21 31.4,25.1 "/><polygon class="st6" points="29.2,35.3 30.3,37.2 30.5,37.6 30.7,37 31.7,32.8 "/></g><g><polygon class="st3" points="37.7,9 37.8,11.3 36.5,11.7 "/><polygon class="st0" points="34.4,18.3 35.7,13.6 36.5,11.7 37.8,11.3 37.9,16.4 "/><polygon class="st1" points="38,19.5 37.3,25.1 35.5,28.8 34.9,29.4 33.5,21.9 34.4,18.3 37.9,16.4 "/><polygon class="st6" points="35,29.8 34.9,29.4 35.5,28.8 "/></g><g><polygon class="st3" points="45.3,5.3 45,8.9 43.5,9.4 "/><polygon class="st0" points="41.2,14.4 43.5,9.4 45,8.9 44.7,12.5 "/><polygon class="st1" points="44.6,12.8 43.7,17.6 41.3,21.8 41.1,14.8 41.2,14.4 44.7,12.5 "/></g><g><polygon class="st1" points="54.5,12.3 49.7,16.6 46.1,17.7 57,6.4 "/><polygon class="st0" points="48.2,11.7 57.1,6.2 57,6.4 46.1,17.7 44.9,18.1 "/></g></g></g><g><linearGradient id="SVGID_1_" gradientUnits="userSpaceOnUse" x1="68.0783" y1="57.98" x2="91.6299" y2="10.3535"><stop offset="0" style="stop-color:#BFA34A"/><stop offset="0.3455" style="stop-color:#F5E080"/><stop offset="0.5212" style="stop-color:#FFFFAF"/><stop offset="0.5694" style="stop-color:#F7F092"/><stop offset="0.6222" style="stop-color:#F0E379"/><stop offset="0.6703" style="stop-color:#ECDC69"/><stop offset="0.7091" style="stop-color:#EBD964"/><stop offset="1" style="stop-color:#BFA34A"/></linearGradient><path class="st8" d="M73.5,44.5l4.6,19.1l0.6,2.6h0.1l0.5-2.6l4.1-19.1h3.4l-6.1,25.1h-4.2l-4.5-19.1l-0.5-2.7h-0.1l-0.6,2.7 l-4.4,19.1h-4.2l-6.1-25.1h3.6l4.1,19.2l0.5,2.6h0.1l0.6-2.6l4.6-19.2H73.5z"/><linearGradient id="SVGID_2_" gradientUnits="userSpaceOnUse" x1="88.4526" y1="68.0552" x2="112.0042" y2="20.4287"><stop offset="0" style="stop-color:#BFA34A"/><stop offset="0.3455" style="stop-color:#F5E080"/><stop offset="0.5212" style="stop-color:#FFFFAF"/><stop offset="0.5694" style="stop-color:#F7F092"/><stop offset="0.6222" style="stop-color:#F0E379"/><stop offset="0.6703" style="stop-color:#ECDC69"/><stop offset="0.7091" style="stop-color:#EBD964"/><stop offset="1" style="stop-color:#BFA34A"/></linearGradient><path class="st9" d="M92.1,44.5h3.5v25.1h-3.5V44.5z"/><linearGradient id="SVGID_3_" gradientUnits="userSpaceOnUse" x1="102.9992" y1="75.2485" x2="126.5507" y2="27.622"><stop offset="0" style="stop-color:#BFA34A"/><stop offset="0.3455" style="stop-color:#F5E080"/><stop offset="0.5212" style="stop-color:#FFFFAF"/><stop offset="0.5694" style="stop-color:#F7F092"/><stop offset="0.6222" style="stop-color:#F0E379"/><stop offset="0.6703" style="stop-color:#ECDC69"/><stop offset="0.7091" style="stop-color:#EBD964"/><stop offset="1" style="stop-color:#BFA34A"/></linearGradient><path class="st10" d="M119,69.7l-11.9-17.3l-1.5-2.3l-0.1,0l0,2.7v16.8h-3.1V44.5h3.1l12.7,19l0.1,0l-0.1-2.7V44.5h3v25.1H119z"/><linearGradient id="SVGID_4_" gradientUnits="userSpaceOnUse" x1="123.3999" y1="85.3368" x2="146.9515" y2="37.7103"><stop offset="0" style="stop-color:#BFA34A"/><stop offset="0.3455" style="stop-color:#F5E080"/><stop offset="0.5212" style="stop-color:#FFFFAF"/><stop offset="0.5694" style="stop-color:#F7F092"/><stop offset="0.6222" style="stop-color:#F0E379"/><stop offset="0.6703" style="stop-color:#ECDC69"/><stop offset="0.7091" style="stop-color:#EBD964"/><stop offset="1" style="stop-color:#BFA34A"/></linearGradient><path class="st11" d="M144.4,69.7l-11.9-17.3l-1.5-2.3l-0.1,0l0,2.7v16.8h-3.1V44.5h3.1l12.7,19l0.1,0l-0.1-2.7V44.5h3v25.1H144.4z "/><linearGradient id="SVGID_5_" gradientUnits="userSpaceOnUse" x1="142.6434" y1="94.8528" x2="166.195" y2="47.2263"><stop offset="0" style="stop-color:#BFA34A"/><stop offset="0.3455" style="stop-color:#F5E080"/><stop offset="0.5212" style="stop-color:#FFFFAF"/><stop offset="0.5694" style="stop-color:#F7F092"/><stop offset="0.6222" style="stop-color:#F0E379"/><stop offset="0.6703" style="stop-color:#ECDC69"/><stop offset="0.7091" style="stop-color:#EBD964"/><stop offset="1" style="stop-color:#BFA34A"/></linearGradient><path class="st12" d="M169.4,66.6l-0.1,3.1h-16V44.5h15.4l0.1,3.1h-12.1v7.5h10.4V58h-10.4v8.5H169.4z"/><linearGradient id="SVGID_6_" gradientUnits="userSpaceOnUse" x1="160.2988" y1="103.5835" x2="183.8504" y2="55.957"><stop offset="0" style="stop-color:#BFA34A"/><stop offset="0.3455" style="stop-color:#F5E080"/><stop offset="0.5212" style="stop-color:#FFFFAF"/><stop offset="0.5694" style="stop-color:#F7F092"/><stop offset="0.6222" style="stop-color:#F0E379"/><stop offset="0.6703" style="stop-color:#ECDC69"/><stop offset="0.7091" style="stop-color:#EBD964"/><stop offset="1" style="stop-color:#BFA34A"/></linearGradient><path class="st13" d="M185.8,58.4l6.6,11.2h-4.1l-5.7-10.6h-5.1v10.6h-3.4V44.5h8.5c5.5,0,8.1,2.3,8.1,7.2 C190.7,55.6,189,57.9,185.8,58.4z M182.7,47.5h-5.1v8.8h5c3.2,0,4.7-1.2,4.7-4.5C187.2,48.7,185.8,47.5,182.7,47.5z"/></g><g><path class="st1" d="M54.8,90.4c0,0.9-0.1,1.7-0.2,2.3c-0.1,0.7-0.3,1.2-0.6,1.7s-0.6,0.8-1.1,1.1c-0.4,0.3-0.9,0.5-1.5,0.6v0 l1,0.7l1.5,1L52,98.4l-2.1-2.1c-0.8,0-1.4-0.2-2-0.4c-0.6-0.2-1-0.6-1.4-1.1c-0.4-0.5-0.6-1.1-0.8-1.8c-0.2-0.7-0.2-1.6-0.2-2.6 c0-1,0.1-1.9,0.3-2.6s0.4-1.3,0.8-1.8c0.4-0.5,0.9-0.8,1.4-1s1.3-0.3,2.1-0.3s1.6,0.1,2.1,0.3c0.6,0.2,1.1,0.6,1.4,1 c0.4,0.5,0.6,1.1,0.8,1.8S54.8,89.4,54.8,90.4z M53.2,90.4c0-0.9-0.1-1.6-0.2-2.1c-0.1-0.6-0.3-1-0.5-1.3c-0.2-0.3-0.6-0.6-0.9-0.7 c-0.4-0.1-0.9-0.2-1.4-0.2s-1,0.1-1.4,0.2c-0.4,0.1-0.7,0.4-0.9,0.7s-0.4,0.8-0.5,1.3c-0.1,0.6-0.2,1.3-0.2,2.1 c0,0.9,0.1,1.6,0.2,2.1c0.1,0.6,0.3,1,0.5,1.3c0.2,0.3,0.6,0.6,0.9,0.7c0.4,0.1,0.9,0.2,1.4,0.2s1-0.1,1.4-0.2 c0.4-0.1,0.7-0.4,0.9-0.7c0.2-0.3,0.4-0.8,0.5-1.3C53.2,92,53.2,91.3,53.2,90.4z"/><path class="st1" d="M66,92c0,1.5-0.4,2.6-1.1,3.2c-0.7,0.7-1.8,1-3.2,1s-2.4-0.3-3.2-1c-0.7-0.7-1.1-1.8-1.1-3.2v-7.2h1.5V92 c0,1,0.2,1.7,0.7,2.2c0.4,0.4,1.1,0.7,2.1,0.7s1.6-0.2,2.1-0.7c0.4-0.5,0.7-1.2,0.7-2.1v-7.2H66V92z"/><path class="st1" d="M75.1,93.4h-5L69.3,96h-1.6l4.1-11.3h1.8L77.7,96H76L75.1,93.4z M72.3,87.1L70.6,92h4.1L73,87.1l-0.3-1.2h0 L72.3,87.1z"/><path class="st1" d="M86.7,94.6l0,1.4h-6.7V84.8h1.5v9.8H86.7z"/><path class="st1" d="M89.1,84.8h1.6V96h-1.6V84.8z"/><path class="st1" d="M97.9,86.2V96h-1.6v-9.8H93l0-1.4h8.2l0,1.4H97.9z"/><path class="st1" d="M104.6,84.8l2.4,4.9l0.5,1.1h0l0.5-1.1l2.4-4.9h1.7l-3.9,7.4V96h-1.6v-3.8l-4-7.4H104.6z"/><path class="st1" d="M131.2,90.4c0,1-0.1,1.9-0.3,2.7c-0.2,0.7-0.4,1.3-0.8,1.8c-0.4,0.5-0.9,0.8-1.4,1c-0.6,0.2-1.3,0.3-2.1,0.3 c-0.8,0-1.5-0.1-2.1-0.3c-0.6-0.2-1.1-0.6-1.4-1s-0.6-1.1-0.8-1.8c-0.2-0.7-0.3-1.6-0.3-2.6c0-1,0.1-1.9,0.3-2.6s0.4-1.3,0.8-1.8 c0.4-0.5,0.9-0.8,1.4-1s1.3-0.3,2.1-0.3s1.6,0.1,2.1,0.3c0.6,0.2,1.1,0.6,1.4,1c0.4,0.5,0.6,1.1,0.8,1.8S131.2,89.4,131.2,90.4z M129.6,90.4c0-0.9-0.1-1.6-0.2-2.1c-0.1-0.6-0.3-1-0.5-1.3c-0.2-0.3-0.6-0.6-0.9-0.7c-0.4-0.1-0.9-0.2-1.4-0.2s-1,0.1-1.4,0.2 c-0.4,0.1-0.7,0.4-0.9,0.7s-0.4,0.8-0.5,1.3c-0.1,0.6-0.2,1.3-0.2,2.1c0,0.9,0.1,1.6,0.2,2.1c0.1,0.6,0.3,1,0.5,1.3 c0.2,0.3,0.6,0.6,0.9,0.7c0.4,0.1,0.9,0.2,1.4,0.2s1-0.1,1.4-0.2c0.4-0.1,0.7-0.4,0.9-0.7c0.2-0.3,0.4-0.8,0.5-1.3 C129.6,92,129.6,91.3,129.6,90.4z"/><path class="st1" d="M135.6,86.2v3.5h4.5l0,1.4h-4.5v5H134V84.8h6.9l0,1.5H135.6z"/><path class="st1" d="M155,86.2V96h-1.6v-9.8h-3.3l0-1.4h8.2l0,1.4H155z"/><path class="st1" d="M168,88c0,0.9-0.2,1.6-0.6,2.1s-0.9,0.8-1.6,0.9l2.9,5h-1.8l-2.5-4.7h-2.3V96h-1.5V84.8h3.8 c1.2,0,2.2,0.3,2.7,0.8C167.7,86.1,168,86.9,168,88z M166.4,88.1c0-0.7-0.2-1.2-0.5-1.5c-0.3-0.3-0.8-0.4-1.5-0.4h-2.3v4h2.2 c0.7,0,1.2-0.2,1.6-0.5C166.2,89.3,166.4,88.8,166.4,88.1z"/><path class="st1" d="M177.2,93.4h-5l-0.9,2.7h-1.6l4.1-11.3h1.8l4.2,11.3h-1.7L177.2,93.4z M174.4,87.1l-1.7,4.9h4.1l-1.6-4.9 l-0.3-1.2h0L174.4,87.1z"/><path class="st1" d="M190.7,90.4c0,1-0.1,1.9-0.3,2.6c-0.2,0.7-0.5,1.3-0.9,1.8s-0.9,0.8-1.5,1c-0.6,0.2-1.3,0.3-2.1,0.3H182V84.8 h3.9c0.8,0,1.6,0.1,2.2,0.3c0.6,0.2,1.1,0.5,1.5,1c0.4,0.4,0.7,1,0.9,1.7S190.7,89.4,190.7,90.4z M189.1,90.4c0-0.8-0.1-1.5-0.2-2 s-0.3-1-0.6-1.3c-0.3-0.3-0.6-0.5-1-0.7c-0.4-0.1-0.9-0.2-1.5-0.2h-2.3v8.4h2.3c0.5,0,1-0.1,1.4-0.2c0.4-0.1,0.7-0.3,1-0.7 c0.3-0.3,0.5-0.7,0.6-1.3S189.1,91.2,189.1,90.4z"/><path class="st1" d="M200.8,94.6l0,1.4h-7.2V84.8h6.9l0,1.4h-5.4v3.3h4.6v1.3h-4.6v3.8H200.8z"/><path class="st1" d="M87.2,114.6l0,1.4H80v-11.3h6.9l0,1.4h-5.4v3.3h4.6v1.3h-4.6v3.8H87.2z"/><path class="st1" d="M94.7,110.2l3.6,5.9h-1.8l-2.9-5l-2.9,5h-1.8l3.5-5.8l-3.4-5.4h1.9l2.7,4.5l2.7-4.5H98L94.7,110.2z"/><path class="st1" d="M107.9,114.6l0,1.4h-7.2v-11.3h6.9l0,1.4h-5.4v3.3h4.6v1.3h-4.6v3.8H107.9z"/><path class="st1" d="M117.3,106.5c-0.3-0.1-0.6-0.3-1.1-0.3c-0.4-0.1-0.8-0.1-1.3-0.1c-0.6,0-1.1,0.1-1.5,0.2 c-0.4,0.1-0.8,0.4-1.1,0.7c-0.3,0.3-0.5,0.8-0.6,1.3s-0.2,1.2-0.2,2c0,0.9,0.1,1.6,0.2,2.2c0.1,0.6,0.3,1,0.6,1.4 c0.3,0.3,0.6,0.6,1.1,0.8c0.4,0.1,0.9,0.2,1.5,0.2c0.5,0,0.9,0,1.3-0.1c0.4-0.1,0.8-0.2,1.1-0.4l0.2,1.3c-0.4,0.2-0.8,0.3-1.3,0.5 c-0.5,0.1-1,0.2-1.5,0.2c-1.7,0-2.9-0.5-3.7-1.4c-0.8-1-1.2-2.5-1.2-4.5c0-1.9,0.4-3.4,1.2-4.3c0.8-0.9,2-1.4,3.7-1.4 c0.5,0,0.9,0.1,1.4,0.2c0.5,0.1,0.9,0.2,1.2,0.4L117.3,106.5z"/><path class="st1" d="M128.4,112c0,1.5-0.4,2.6-1.1,3.2c-0.7,0.7-1.8,1-3.2,1s-2.4-0.3-3.2-1c-0.7-0.7-1.1-1.8-1.1-3.2v-7.2h1.5v7.2 c0,1,0.2,1.7,0.7,2.2c0.4,0.4,1.1,0.7,2.1,0.7s1.6-0.2,2.1-0.7c0.4-0.5,0.7-1.2,0.7-2.1v-7.2h1.5V112z"/><path class="st1" d="M135.2,106.2v9.8h-1.6v-9.8h-3.3l0-1.4h8.2l0,1.4H135.2z"/><path class="st1" d="M140.9,104.8h1.6V116h-1.6V104.8z"/><path class="st1" d="M154.8,110.4c0,1-0.1,1.9-0.3,2.7c-0.2,0.7-0.4,1.3-0.8,1.8c-0.4,0.5-0.9,0.8-1.4,1c-0.6,0.2-1.3,0.3-2.1,0.3 c-0.8,0-1.5-0.1-2.1-0.3c-0.6-0.2-1.1-0.6-1.4-1c-0.4-0.5-0.6-1.1-0.8-1.8c-0.2-0.7-0.3-1.6-0.3-2.6s0.1-1.9,0.3-2.6 c0.2-0.7,0.4-1.3,0.8-1.8c0.4-0.5,0.9-0.8,1.4-1c0.6-0.2,1.3-0.3,2.1-0.3s1.6,0.1,2.1,0.3c0.6,0.2,1.1,0.6,1.4,1 c0.4,0.5,0.6,1.1,0.8,1.8C154.7,108.5,154.8,109.4,154.8,110.4z M153.2,110.4c0-0.9-0.1-1.6-0.2-2.1c-0.1-0.6-0.3-1-0.5-1.3 c-0.2-0.3-0.6-0.6-0.9-0.7s-0.9-0.2-1.4-0.2s-1,0.1-1.4,0.2c-0.4,0.1-0.7,0.4-0.9,0.7c-0.2,0.3-0.4,0.8-0.5,1.3 c-0.1,0.6-0.2,1.3-0.2,2.1s0.1,1.6,0.2,2.1c0.1,0.6,0.3,1,0.5,1.3s0.6,0.6,0.9,0.7c0.4,0.1,0.9,0.2,1.4,0.2s1-0.1,1.4-0.2 c0.4-0.1,0.7-0.4,0.9-0.7c0.2-0.3,0.4-0.8,0.5-1.3C153.1,112,153.2,111.3,153.2,110.4z"/><path class="st1" d="M164.9,116l-5.3-7.7l-0.7-1l0,0l0,1.2v7.5h-1.4v-11.3h1.4l5.7,8.5l0,0l0-1.2v-7.3h1.4V116H164.9z"/></g></svg>